<?xml version="1.0" encoding="utf-8"?>
<!-- Generator: Adobe Illustrator 22.0.1, SVG Export Plug-In . SVG Version: 6.00 Build 0)  -->
<svg version="1.1" id="Layer_1" xmlns="http://www.w3.org/2000/svg" xmlns:xlink="http://www.w3.org/1999/xlink" x="0px" y="0px"
	 width="200px" height="93.92px" viewBox="0 0 200 93.92" style="enable-background:new 0 0 200 93.92;" xml:space="preserve">
<g>
	<path style="fill:#005FA9;" d="M33.34,75.38h3.3v0.59h-2.62v2.48h2.49v0.59h-2.49v3.27h-0.68V75.38z M39.09,75.09h0.46l1.25-1.43
		h-0.78L39.09,75.09z M38.04,82.31h3.51v-0.59h-2.83v-2.68h2.57v-0.59h-2.57v-2.48h2.71v-0.59h-3.4V82.31z M43.83,75.97h1.01
		c1.55,0,2.8,0.7,2.8,2.82s-1.28,2.92-3.25,2.92h-0.57V75.97z M43.14,82.31h1.21c2.3,0,3.97-0.96,3.97-3.48
		c0-2.02-0.98-3.45-3.47-3.45h-1.72V82.31z M51.08,75.09h0.46l1.25-1.43H52L51.08,75.09z M50.02,82.31h3.51v-0.59h-2.82v-2.68h2.57
		v-0.59h-2.57v-2.48h2.71v-0.59h-3.4V82.31z M55.9,75.97h0.7c0.94,0,1.74,0.07,1.74,1.2c0,0.96-0.92,1.27-1.72,1.27H55.9V75.97z
		 M55.2,82.31h0.69v-3.27h0.56c0.65,0,0.95,0.03,1.35,0.93l1,2.34h0.76l-1.19-2.68c-0.22-0.47-0.34-0.77-0.89-0.84v-0.02
		c0.85-0.11,1.54-0.7,1.54-1.6c0-1.27-0.8-1.8-2.04-1.8H55.2V82.31z M64.86,79.86h-3.01l1.51-3.83L64.86,79.86z M60.18,82.31h0.67
		l0.74-1.86h3.5l0.75,1.86h0.72l-2.75-6.93h-0.78L60.18,82.31z M68.34,82.31h0.68v-6.34h2.05v-0.59H66.3v0.59h2.05V82.31z
		 M72.13,82.31h0.68v-6.93h-0.68V82.31z M74.99,78.84c0-1.47,0.73-2.99,2.36-2.99c1.63,0,2.36,1.52,2.36,2.99
		c0,1.47-0.73,2.98-2.36,2.98C75.73,81.83,74.99,80.31,74.99,78.84 M77.35,75.26c-2.08,0-3.07,1.71-3.05,3.59
		c0.02,2.12,1.06,3.58,3.05,3.58c2,0,3.02-1.46,3.05-3.58C80.42,76.96,79.44,75.26,77.35,75.26 M81.9,82.31h0.68v-5.98h0.02
		l3.46,5.98H87v-6.93h-0.68v6.1h-0.02l-3.53-6.1H81.9V82.31z M91.68,82.31h0.69v-6.93h-0.69V82.31z M94.08,82.31h0.68v-5.98h0.02
		l3.47,5.98h0.92v-6.93h-0.68v6.1h-0.02l-3.53-6.1h-0.87V82.31z M102.29,82.31h0.68v-6.34h2.05v-0.59h-4.78v0.59h2.05V82.31z
		 M106.16,82.31h3.51v-0.59h-2.83v-2.68h2.57v-0.59h-2.57v-2.48h2.71v-0.59h-3.4V82.31z M112.03,75.97h0.7
		c0.95,0,1.75,0.07,1.75,1.2c0,0.96-0.92,1.27-1.72,1.27h-0.72V75.97z M111.34,82.31h0.69v-3.27h0.56c0.65,0,0.95,0.03,1.35,0.93
		l1,2.34h0.76l-1.19-2.68c-0.22-0.47-0.34-0.77-0.89-0.84v-0.02c0.85-0.11,1.54-0.7,1.54-1.6c0-1.27-0.8-1.8-2.04-1.8h-1.79V82.31z
		 M116.95,82.31h0.68v-5.98h0.02l3.47,5.98h0.92v-6.93h-0.68v6.1h-0.02l-3.53-6.1h-0.87V82.31z M127.82,79.86h-3.01l1.52-3.83
		L127.82,79.86z M123.14,82.31h0.67l0.75-1.86h3.5l0.74,1.86h0.72l-2.76-6.93h-0.78L123.14,82.31z M131.3,82.31h0.68v-6.34h2.05
		v-0.59h-4.78v0.59h2.05V82.31z M135.08,82.31h0.69v-6.93h-0.69V82.31z M137.94,78.84c0-1.47,0.74-2.99,2.37-2.99
		c1.63,0,2.36,1.52,2.36,2.99c0,1.47-0.73,2.98-2.36,2.98C138.68,81.83,137.94,80.31,137.94,78.84 M140.31,75.26
		c-2.08,0-3.07,1.71-3.05,3.59c0.02,2.12,1.05,3.58,3.05,3.58c2,0,3.03-1.46,3.05-3.58C143.38,76.96,142.39,75.26,140.31,75.26
		 M144.85,82.31h0.69v-5.98h0.02l3.47,5.98h0.92v-6.93h-0.68v6.1h-0.02l-3.53-6.1h-0.87V82.31z M155.72,79.86h-3.01l1.51-3.83
		L155.72,79.86z M151.04,82.31h0.67l0.75-1.86h3.5l0.75,1.86h0.72l-2.75-6.93h-0.78L151.04,82.31z M158.53,82.31h3.46v-0.59h-2.78
		v-6.34h-0.68V82.31z M163.2,82.31h3.51v-0.59h-2.83v-2.68h2.57v-0.59h-2.57v-2.48h2.71v-0.59h-3.4V82.31z M65.79,87.47h1.01
		c1.55,0,2.8,0.71,2.8,2.82c0,2.13-1.28,2.92-3.25,2.92h-0.56V87.47z M65.11,93.8h1.21c2.3,0,3.98-0.97,3.98-3.48
		c0-2.03-0.99-3.45-3.47-3.45h-1.72V93.8z M71.99,93.8h3.52v-0.6h-2.84v-2.67h2.57v-0.59h-2.57v-2.48h2.71v-0.59h-3.4V93.8z
		 M85.27,86.87h-0.68l-2.32,6.25l-2.23-6.25h-0.72l2.58,6.93h0.73L85.27,86.87z M86.75,90.34c0-1.47,0.74-2.99,2.37-2.99
		c1.63,0,2.36,1.52,2.36,2.99c0,1.47-0.73,2.99-2.36,2.99C87.48,93.32,86.75,91.8,86.75,90.34 M89.11,86.75
		c-2.08,0-3.07,1.71-3.05,3.58c0.02,2.13,1.05,3.59,3.05,3.59c2,0,3.02-1.46,3.05-3.59C92.18,88.46,91.19,86.75,89.11,86.75
		 M93.69,93.8h3.46v-0.6h-2.78v-6.33h-0.68V93.8z M98.3,93.8h3.46v-0.6h-2.78v-6.33H98.3V93.8z M102.96,93.8h3.52v-0.6h-2.84v-2.67
		h2.58v-0.59h-2.58v-2.48h2.71v-0.59h-3.4V93.8z M109.96,93.8h0.68v-2.94l2.58-3.99h-0.75l-2.18,3.39l-2.11-3.39h-0.79l2.57,3.99
		V93.8z M115.03,87.47h0.95c0.59,0,1.51,0.14,1.51,1.14c0,1.11-0.96,1.29-1.69,1.29h-0.77V87.47z M115.02,90.5h0.6
		c1.01,0,2.08,0.13,2.08,1.36c0,1.1-1.04,1.34-1.97,1.34h-0.71V90.5z M114.33,93.8h1.38c1.44,0,2.67-0.47,2.67-1.98
		c0-0.91-0.59-1.49-1.47-1.64v-0.02c0.86-0.17,1.26-0.7,1.26-1.58c0-1.33-1.06-1.71-2.19-1.71h-1.65V93.8z M124.06,91.35h-3.01
		l1.51-3.83L124.06,91.35z M119.38,93.8h0.67l0.75-1.86h3.5l0.75,1.86h0.72L123,86.87h-0.78L119.38,93.8z M126.87,93.8h3.46v-0.6
		h-2.77v-6.33h-0.69V93.8z M131.48,93.8h3.46v-0.6h-2.78v-6.33h-0.68V93.8z"/>
	<path style="fill:#005FA9;" d="M167.84,44.43V40.8h-1.2v-0.48h2.87v0.48h-1.19v3.63H167.84z M170.47,44.43v-3.5l1.05,3.5h0.43
		l1.08-3.44v3.44h0.46v-4.11h-0.64l-0.89,2.85c-0.09,0.3-0.15,0.51-0.2,0.66c-0.04-0.13-0.1-0.33-0.16-0.6l-0.89-2.92H170v4.11
		H170.47z"/>
	<path style="fill:#005FA9;" d="M100,54.32c-35.83,0-69.75,5.96-100,16.6v0.75c30.92-7.47,64.66-11.59,100-11.59
		c35.34,0,69.09,4.12,100,11.59v-0.75C169.76,60.29,135.84,54.32,100,54.32"/>
	<rect x="70.37" y="0" style="fill:#005FA9;" width="11.53" height="44.45"/>
	<rect x="33.34" style="fill:#005FA9;" width="32.92" height="9.88"/>
	<polygon style="fill:#005FA9;" points="33.34,16.46 62.96,16.46 62.96,26.34 44.86,26.34 44.86,44.45 33.34,44.45 	"/>
	<path style="fill:#005FA9;" d="M162.27,21.65c1.66-1.28,4.41-4.08,4.41-8.59c0-8.18-5.37-13.05-14.34-13.05h-36.4l-8.45,28.17
		h-0.13L98.89,0H86.01v9.88h4.12l11.54,34.57h11.49l11.53-34.57h26.39c3.54,0,4.07,2.32,4.07,3.7c0,1.38-0.53,3.7-4.07,3.7h-19.8
		v9.88h20.3c3.54,0,4.07,2.32,4.07,3.7c0,1.38-0.53,3.7-4.07,3.7h-20.3v9.88h21.97c8.52,0,14.03-5.23,14.03-13.3
		C167.28,25.36,164.2,22.89,162.27,21.65"/>
</g>
</svg>
