<?xml version="1.0" encoding="UTF-8" standalone="no"?>
<!-- Creator: CorelDRAW -->
<svg
   xmlns:dc="http://purl.org/dc/elements/1.1/"
   xmlns:cc="http://web.resource.org/cc/"
   xmlns:rdf="http://www.w3.org/1999/02/22-rdf-syntax-ns#"
   xmlns:svg="http://www.w3.org/2000/svg"
   xmlns="http://www.w3.org/2000/svg"
   xmlns:sodipodi="http://sodipodi.sourceforge.net/DTD/sodipodi-0.dtd"
   xmlns:inkscape="http://www.inkscape.org/namespaces/inkscape"
   xml:space="preserve"
   width="1472px"
   height="1941px"
   shape-rendering="geometricPrecision"
   text-rendering="geometricPrecision"
   image-rendering="optimizeQuality"
   fill-rule="evenodd"
   clip-rule="evenodd"
   viewBox="0 0 1412.58 1863.15"
   id="svg2"
   sodipodi:version="0.32"
   inkscape:version="0.45.1"
   sodipodi:docname="J.League.svg"
   inkscape:output_extension="org.inkscape.output.svg.inkscape"
   sodipodi:docbase="C:\Dokumente und Einstellungen\Christian Bier.MEDIACENTERPC\Desktop"><metadata
   id="metadata15"><rdf:RDF><cc:Work
       rdf:about=""><dc:format>image/svg+xml</dc:format><dc:type
         rdf:resource="http://purl.org/dc/dcmitype/StillImage" /></cc:Work></rdf:RDF></metadata><defs
   id="defs13" /><sodipodi:namedview
   inkscape:window-height="575"
   inkscape:window-width="825"
   inkscape:pageshadow="2"
   inkscape:pageopacity="0.0"
   guidetolerance="10.0"
   gridtolerance="10.0"
   objecttolerance="10.0"
   borderopacity="1.0"
   bordercolor="#666666"
   pagecolor="#ffffff"
   id="base"
   inkscape:zoom="0.19422978"
   inkscape:cx="736"
   inkscape:cy="1101.6716"
   inkscape:window-x="154"
   inkscape:window-y="196"
   inkscape:current-layer="svg2" />
 <g
   id="Ebene_x0020_1"
   transform="matrix(0.9090368,0,0,0.92573,59.30454,59.30451)">
  <metadata
   id="CorelCorpID_0Corel-Layer" />
  <path
   d="M 0.0022669,736.316 L 561.99327,736.316 L 561.99327,0 L 1412.5723,0 L 1412.5813,875.783 C 1412.5813,1264.79 1095.2963,1582.07 706.28933,1582.07 C 317.27733,1582.07 0.0003345,1264.794 0.0003345,875.783 L 0.0026014,736.317 L 0.0022669,736.316 z M 722.40427,666.67 C 601.16527,666.67 502.28727,765.5544 502.28727,886.788 C 502.28727,1008.015 601.16487,1106.896 722.40127,1106.896 C 843.62827,1106.896 942.50927,1008.015 942.50927,886.788 C 942.50927,765.551 843.62827,666.673 722.40427,666.67 z "
   id="path6"
   style="fill:#1f1a17" />
  <path
   d="M 1034.88,976.257 C 1156.11,976.257 1254.991,1075.1346 1254.991,1196.368 C 1254.991,1317.595 1156.11,1416.476 1034.877,1416.476 C 913.643,1416.4726 814.775,1317.5984 814.775,1196.368 C 814.775,1075.134 913.6436,976.257 1034.88,976.257 L 1034.88,976.257 z "
   id="path8"
   style="fill:#dc351b" />
  <path
   d="M 892.405,1640.24 C 912.2687,1640.24 930.8482,1646.4184 946.5692,1657.0944 L 946.5726,1642.9263 L 984.9909,1642.9263 L 984.9909,1717.7159 L 946.5726,1717.7159 L 946.5726,1716.8114 L 945.32127,1717.7159 C 935.08507,1698.1106 914.10377,1684.8889 892.39597,1684.8889 C 859.89657,1684.8889 833.39537,1714.5037 833.39537,1750.816 C 833.39537,1787.1193 859.89657,1816.7397 892.39597,1816.7397 C 918.58887,1816.7397 938.03777,1803.2346 945.71227,1776.7675 L 907.36087,1776.7675 L 907.36087,1734.8446 L 992.74817,1734.8446 L 992.81504,1734.8446 L 992.81504,1735.1982 C 992.74817,1759.3883 993.49625,1780.6779 986.79869,1800.3591 C 974.84989,1835.4405 945.73949,1861.4566 892.40499,1861.4566 C 836.06689,1861.4532 790.12399,1811.7707 790.12399,1750.8466 C 790.12399,1689.9293 836.06389,1640.2396 892.40499,1640.2396 L 892.405,1640.24 z M 0.003,1858.767 L 0.003,1811.7912 C 11.8974,1817.6319 24.5535,1817.4358 35.1161,1812.5064 C 49.1369,1805.9879 59.483,1791.1431 59.483,1771.0867 L 59.483,1684.9502 L 33.8557,1684.9502 L 33.897638,1642.9604 L 127.23494,1642.9604 L 127.19187,1684.9502 L 103.25567,1684.9502 L 103.30214,1771.0867 C 103.32934,1820.3544 82.943138,1847.768 51.891138,1858.147 C 34.997038,1863.7893 16.741738,1865.5598 0.0029379,1858.767 L 0.003,1858.767 z M 1116.743,1863.0072 C 1068.0885,1862.9925 1032.5787,1836.0424 1032.6161,1771.0311 L 1032.6614,1684.8889 L 1008.7218,1684.8889 L 1008.6822,1642.8934 L 1102.0195,1642.8934 L 1102.0591,1684.8889 L 1076.4284,1684.8889 L 1076.4284,1771.0311 C 1076.4284,1786.6398 1088.3126,1816.7397 1116.7395,1816.7522 C 1145.1698,1816.7647 1157.0631,1786.6772 1157.0631,1771.0594 L 1157.0665,1684.9172 L 1131.4267,1684.9172 L 1131.4755,1642.9263 L 1224.8094,1642.9263 L 1224.7606,1684.9172 L 1200.8369,1684.9172 L 1200.8789,1771.0594 C 1200.9072,1836.0764 1165.3974,1863.0219 1116.7429,1863.0071 L 1116.743,1863.0072 z M 1240.635,1858.7795 L 1240.635,1816.7376 L 1266.5955,1816.7376 L 1266.5955,1684.8866 L 1240.635,1684.8492 L 1240.635,1642.9206 L 1410.388,1642.9206 L 1410.388,1704.4941 L 1372.159,1704.4941 L 1372.0241,1684.8866 L 1310.2828,1684.8866 L 1310.2828,1729.1047 L 1362.3104,1729.1047 L 1362.3104,1771.0287 L 1310.2828,1771.0287 L 1310.2828,1816.7373 L 1373.96,1816.7373 L 1373.9419,1801.1161 L 1412.571,1801.107 L 1412.571,1858.7633 L 1240.635,1858.7792 L 1240.635,1858.7795 z M 140.825,1810.2656 C 147.9714,1810.2656 154.177,1812.8725 159.4158,1818.0467 C 164.62627,1823.1971 167.22414,1829.4764 167.22414,1836.7656 C 167.22414,1843.9947 164.61154,1850.155 159.46794,1855.208 C 154.32321,1860.2598 148.08354,1862.8339 140.82494,1862.8339 C 133.72728,1862.8339 127.64854,1860.2598 122.61834,1855.208 C 117.58696,1850.1551 115.02309,1843.9982 115.02309,1836.7656 C 115.02309,1829.363 117.50194,1823.0713 122.50499,1817.9333 C 127.51144,1812.8056 133.61389,1810.2655 140.82499,1810.2655 L 140.825,1810.2656 z M 191.4086,1858.7795 L 191.4086,1816.7376 L 217.708,1816.7376 L 217.708,1684.9196 L 191.4086,1684.8867 L 191.4086,1642.9207 L 288.3696,1642.9207 L 288.3696,1684.8867 L 262.4057,1684.9196 L 262.4057,1816.7376 L 323.1949,1816.7376 L 323.1677,1795.7586 L 361.442,1795.7586 L 361.442,1858.7795 L 191.409,1858.7795 L 191.4086,1858.7795 z M 382.6626,1858.7795 L 382.6626,1816.7376 L 408.6288,1816.7376 L 408.6288,1684.8866 L 382.6626,1684.8492 L 382.6626,1642.9206 L 552.4146,1642.9206 L 552.4146,1704.4941 L 514.189,1704.4941 L 514.05752,1684.8866 L 452.31282,1684.8866 L 452.31282,1729.1047 L 504.33472,1729.1047 L 504.33472,1771.0287 L 452.31282,1771.0287 L 452.31282,1816.7373 L 515.99002,1816.7373 L 515.96848,1801.1161 L 554.60098,1801.107 L 554.60098,1858.7633 L 382.66198,1858.7792 L 382.6626,1858.7795 z M 717.4516,1684.8995 L 768.6949,1816.7465 L 786.532,1816.7465 L 786.532,1858.7794 L 698.8177,1858.7794 L 698.8177,1816.7465 L 719.3592,1816.7465 L 677.6811,1704.8785 L 638.4558,1816.7465 L 656.0186,1816.7465 L 656.0186,1858.7794 L 574.2663,1858.7794 L 574.2663,1816.7465 L 589.8841,1816.7465 L 639.6312,1684.8995 L 628.8861,1684.8995 L 628.8861,1642.9358 L 728.4597,1642.9358 L 728.4597,1684.8995 L 717.4516,1684.8995 L 717.4516,1684.8995 z "
   id="path10"
   style="fill:#1f1a17" />
 </g>
</svg>