<?xml version="1.0" encoding="utf-8"?>
<!-- Generator: Adobe Illustrator 28.0.0, SVG Export Plug-In . SVG Version: 6.00 Build 0)  -->
<svg version="1.1" id="Layer_2_00000044162658262216100830000010292472613415822226_"
	 xmlns="http://www.w3.org/2000/svg" xmlns:xlink="http://www.w3.org/1999/xlink" x="0px" y="0px" viewBox="0 0 198.6 118.8"
	 style="enable-background:new 0 0 198.6 118.8;" xml:space="preserve">
<style type="text/css">
	.st0{fill:#FFFFFF;}
	.st1{font-family:'NotoSerifJP-Regular-83pv-RKSJ-H';}
	.st2{font-size:100px;}
	.st3{letter-spacing:-18;}
	.st4{font-family:'NotoSansJP-Bold';}
	.st5{font-size:36px;}
	.st6{font-family:'NotoSansJP-SemiBold';}
	.st7{font-size:25px;}
	.st8{letter-spacing:5;}
</style>
<g id="Layer_1-2">
	<g>
		<text transform="matrix(1 0 0 1 28.21 117.6801)" class="st0 st1 st2 st3">４</text>
		<text transform="matrix(1 0 0 1 112.97 72.36)" class="st0 st4 st5">年</text>
		<text transform="matrix(1 0 0 1 112.97 115.5601)" class="st0 st4 st5">超</text>
		<g>
			<g>
				<path class="st0" d="M23.3,10.3c0,0-0.2,0.4-0.7,1.1c-0.2,0.4-0.5,0.8-0.9,1.3c-0.3,0.5-0.7,1.1-1.1,1.8
					c-1.6,2.7-3.8,6.7-5.5,11.9c-1.8,5.1-3.3,11.3-4,18.1c-0.7,6.8-0.6,14.1,0.5,21.3c1.1,7.2,3.1,14.2,6,20.3
					c1.4,3.1,3,5.9,4.7,8.5c1.7,2.6,3.6,4.8,5.4,6.8c1.9,1.9,3.7,3.6,5.4,4.8c1.7,1.3,3.4,2.2,4.7,3c0.7,0.3,1.3,0.7,1.8,0.9
					c0.5,0.2,1,0.4,1.4,0.6c0.8,0.3,1.2,0.4,1.2,0.4c0.3,0.1,0.5,0.4,0.4,0.7s-0.4,0.4-0.8,0.3l0,0c0,0-0.4-0.2-1.2-0.5
					c-0.4-0.2-0.9-0.4-1.4-0.6c-0.6-0.3-1.2-0.6-1.9-0.9c-1.4-0.8-3-1.8-4.8-3.1s-3.6-3-5.5-5s-3.7-4.3-5.5-6.9s-3.3-5.5-4.8-8.6
					c-2.8-6.2-4.9-13.3-5.9-20.6c-1-7.2-1.1-14.6-0.4-21.4c0.8-6.8,2.3-13.1,4.1-18.2c1.8-5.2,4-9.2,5.6-11.9
					c0.4-0.7,0.8-1.3,1.1-1.8c0.4-0.5,0.6-0.9,0.9-1.3c0.5-0.7,0.7-1.1,0.7-1.1C23,10,23.2,10,23.2,10
					C23.3,10.1,23.3,10.3,23.3,10.3L23.3,10.3z"/>
				<g>
					<path class="st0" d="M17.1,9.3c0,0.7,0.1,1.3,0.2,1.9c0.1,0.6,0.3,1.1,0.5,1.5c0.4,0.9,0.9,1.6,1.3,2.1
						c0.6-0.5,1.1-1.4,1.4-2.5c0.4-1.1,0.5-2.3,0.3-3.5c-0.1-0.6-0.3-1.1-0.4-1.4c-0.2-0.4-0.4-0.7-0.7-1c-0.5-0.6-1.2-1.2-1.8-2.5
						c-0.2-0.6-0.5-0.6-0.9,0.2c-0.5,0.8-0.8,1.7-1.1,2.5c-0.3,0.8-0.6,1.6-0.7,2.3c-0.3,1.5-0.4,2.9-0.1,4.1c0.3,1.2,0.9,2,1.6,2.4
						c0.7,0.3,1.4,0.3,2-0.1c-1-1.2-1.4-2.6-1.5-3.8C17,10.7,17,10.2,17,9.9S17.1,9.3,17.1,9.3L17.1,9.3z"/>
					<path class="st0" d="M25.1,15.2c-1.8,0.7-3.5,0.6-4.5,0.4c0.1-0.6,0.6-1.3,1.2-1.9c0.3-0.3,0.7-0.6,1.1-0.8s0.9-0.3,1.4-0.4
						c1.8-0.2,2.2,0.7,4.1,1.2c1.1,0.3,0.8,0.3,0.3,0.8c-0.4,0.4-0.8,0.7-1.3,1c-0.4,0.3-0.9,0.6-1.3,0.9c-0.8,0.6-1.7,1-2.6,1.1
						c-1,0.2-1.7,0.1-2.2-0.2c-0.5-0.3-0.8-0.9-0.8-1.4c1.2,0.2,2.4,0,3.2-0.2C24.6,15.5,25.1,15.2,25.1,15.2L25.1,15.2z"/>
				</g>
				<path class="st0" d="M27.2,4.1c-0.3,0.2-0.5,0.5-0.7,0.8c-0.2,0.3-0.4,0.5-0.6,0.8c-0.4,0.5-0.7,1.1-0.9,1.6
					c-0.5,1.1-0.7,2-0.9,2.7c0.7,0.1,1.6-0.2,2.4-0.7c0.2-0.1,0.4-0.3,0.7-0.5s0.5-0.3,0.7-0.5c0.4-0.4,0.9-0.9,1.2-1.4
					c0.8-1,1-1.8,1.2-2.7c0-0.2,0.1-0.5,0.2-0.7c0.1-0.2,0.1-0.5,0.2-0.8c0.2-0.5,0.4-1.1,0.8-1.9c0.3-0.6,0.3-0.9-0.4-0.6
					c-0.8,0.2-1.5,0.5-2.2,0.8C28.7,1,28.6,1,28.4,1.1c-0.2,0.1-0.3,0.2-0.5,0.3c-0.3,0.2-0.7,0.4-1,0.6c-0.3,0.2-0.6,0.4-0.9,0.6
					S25.4,3,25.2,3.3c-0.5,0.5-1,1-1.4,1.6c-0.2,0.3-0.4,0.6-0.5,0.9c-0.1,0.3-0.2,0.6-0.3,0.9c-0.2,0.6-0.2,1.1-0.2,1.5
					c0,0.9,0.4,1.5,1,1.7c0.2-0.9,0.5-1.7,0.9-2.4c0.1-0.2,0.2-0.4,0.3-0.5c0.1-0.2,0.2-0.3,0.3-0.5c0.2-0.3,0.4-0.6,0.6-0.8
					c0.4-0.5,0.8-0.9,1-1.1c0.1-0.1,0.2-0.2,0.3-0.3C27.2,4.1,27.2,4.1,27.2,4.1L27.2,4.1z"/>
				<g>
					<path class="st0" d="M12.1,17.8c0.2,1.4,0.6,2.5,1.2,3.4c0.6,0.9,1.1,1.5,1.6,2c0.3-0.3,0.5-0.7,0.6-1.2c0.2-0.5,0.4-1,0.4-1.6
						c0.2-1.1,0.1-2.4-0.3-3.6c-0.4-1.2-0.9-1.7-1.6-2.3c-0.6-0.5-1.4-1.1-2.3-2.3c-0.4-0.5-0.6-0.5-0.9,0.3
						c-0.3,0.9-0.5,1.8-0.7,2.6c-0.2,0.9-0.3,1.7-0.4,2.5c-0.1,0.8-0.1,1.5,0,2.2c0.1,0.7,0.2,1.4,0.5,1.9c1,2.5,2.9,2.7,4.1,1.8
						c-0.6-0.5-1.1-1.2-1.4-1.8c-0.2-0.3-0.3-0.6-0.4-1c-0.1-0.3-0.2-0.6-0.3-0.9C12.1,18.7,12.1,17.8,12.1,17.8L12.1,17.8z"/>
					<path class="st0" d="M21.2,22.7c-0.9,0.5-1.8,0.7-2.6,0.9c-0.8,0.1-1.5,0.2-2,0.2c0-0.3,0.1-0.7,0.3-1.1
						c0.2-0.4,0.4-0.7,0.7-1.1c0.6-0.7,1.4-1.3,2.4-1.6c1.8-0.5,2.4,0.4,4.4,0.6c1.2,0.2,0.9,0.2,0.4,0.8c-0.2,0.2-0.4,0.4-0.6,0.6
						c-0.2,0.2-0.4,0.4-0.6,0.6c-0.4,0.4-0.8,0.8-1.2,1.1c-0.8,0.7-1.6,1.2-2.5,1.6c-1.9,0.7-3.2,0-3.4-1.2c1.3,0,2.4-0.4,3.3-0.7
						C20.7,23,21.2,22.6,21.2,22.7L21.2,22.7z"/>
				</g>
				<g>
					<path class="st0" d="M8.3,27.2c0.8,2.8,2.5,4.3,3.6,5.1c0.5-0.7,0.7-1.8,0.7-3c0-1.2-0.2-2.5-0.8-3.7c-0.6-1.2-1.2-1.6-1.9-2.1
						c-0.7-0.5-1.6-0.9-2.6-2C6.9,21,6.7,21,6.5,21.9c0,0.2-0.1,0.5-0.1,0.7c0,0.2-0.1,0.5-0.1,0.7c-0.1,0.5-0.1,0.9-0.1,1.4
						c-0.1,0.9-0.1,1.8-0.1,2.6c0.1,1.6,0.4,3,1.1,4.2c0.7,1.2,1.5,1.8,2.3,2c0.8,0.2,1.5-0.1,2.1-0.7c-1.3-1-2.2-2.3-2.7-3.5
						c-0.2-0.6-0.4-1.1-0.5-1.5C8.3,27.4,8.3,27.2,8.3,27.2L8.3,27.2z"/>
					<path class="st0" d="M18.2,30.9c-1.7,1.2-3.5,1.6-4.6,1.7c0-0.7,0.2-1.5,0.7-2.3c0.1-0.2,0.3-0.4,0.4-0.6
						c0.2-0.2,0.3-0.4,0.5-0.5c0.4-0.3,0.8-0.6,1.3-0.8c1.8-0.8,2.5,0.1,4.6,0c1.2,0,0.9,0.1,0.5,0.7c-0.3,0.5-0.7,1-1,1.5
						c-0.2,0.2-0.4,0.5-0.5,0.7c-0.2,0.2-0.3,0.4-0.5,0.6c-0.7,0.8-1.5,1.5-2.3,2c-0.9,0.5-1.7,0.6-2.4,0.4
						c-0.6-0.2-1.1-0.6-1.2-1.2c1.4-0.1,2.5-0.7,3.3-1.2C17.8,31.4,18.2,30.9,18.2,30.9z"/>
				</g>
				<g>
					<path class="st0" d="M5.6,37.3c0.6,1.3,1.4,2.4,2.1,3.1c0.8,0.8,1.6,1.3,2.2,1.6c0.2-0.4,0.3-0.9,0.4-1.4
						c0.1-0.5,0.1-1.1,0-1.7c-0.1-0.6-0.2-1.2-0.4-1.9c-0.2-0.6-0.5-1.2-0.9-1.8c-0.7-1.1-1.4-1.5-2.2-1.9c-0.8-0.4-1.8-0.7-3-1.7
						c-0.5-0.4-0.8-0.4-0.8,0.6c0,1,0,2,0,2.9c0,0.9,0.2,1.8,0.3,2.6c0.2,0.8,0.3,1.6,0.6,2.3c0.3,0.7,0.6,1.3,1,1.8
						c1.7,2.3,3.7,2.1,4.7,0.7c-1.5-0.8-2.6-2.1-3.2-3.2C5.9,38.2,5.7,37.3,5.6,37.3L5.6,37.3z"/>
					<path class="st0" d="M16.3,39.8c-0.8,0.7-1.7,1.3-2.4,1.6c-0.8,0.4-1.5,0.6-2,0.7c-0.1-0.3-0.1-0.8,0-1.2
						c0.1-0.4,0.2-0.9,0.4-1.3c0.4-0.9,1.1-1.7,2-2.3c1.7-1,2.5-0.2,4.8-0.6c1.2-0.2,1,0,0.6,0.7c-0.1,0.3-0.3,0.6-0.4,0.8
						c-0.1,0.3-0.3,0.5-0.4,0.8c-0.3,0.5-0.6,1-0.9,1.5c-0.3,0.5-0.7,0.9-1,1.3c-0.3,0.4-0.7,0.7-1.1,1c-1.8,1.2-3.3,0.8-3.8-0.4
						c0.7-0.2,1.3-0.4,1.8-0.7c0.3-0.2,0.5-0.3,0.7-0.5c0.2-0.2,0.4-0.3,0.6-0.5C15.9,40.3,16.3,39.8,16.3,39.8z"/>
				</g>
				<g>
					<path class="st0" d="M4.2,48c0.2,0.3,0.4,0.6,0.6,0.9c0.2,0.3,0.4,0.5,0.7,0.8c0.4,0.5,0.9,0.9,1.4,1.2
						c0.9,0.7,1.8,1.1,2.4,1.4c0.3-0.9,0.3-2.1,0-3.3c-0.2-1.2-0.8-2.5-1.7-3.6c-0.9-1-1.6-1.4-2.5-1.7C4,43.5,3,43.2,1.7,42.4
						c-0.6-0.4-0.8-0.3-0.8,0.7c0.1,1,0.2,2,0.4,2.9c0.2,0.9,0.4,1.8,0.6,2.6c0.5,1.6,1.3,3,2.2,4c1,1,2,1.5,2.9,1.4
						c0.9,0,1.6-0.5,2-1.2c-1.6-0.7-2.8-1.8-3.7-2.9c-0.4-0.5-0.7-1-0.9-1.4C4.2,48.2,4.2,48,4.2,48L4.2,48z"/>
					<path class="st0" d="M15.4,49.2c-1.4,1.7-3.2,2.6-4.3,3c-0.2-0.7-0.1-1.7,0.1-2.6c0.3-1,0.9-1.9,1.8-2.6
						c1.6-1.3,2.5-0.6,4.7-1.2c1.3-0.3,1-0.1,0.7,0.6c-0.4,1.2-0.9,2.4-1.4,3.5c-0.5,1-1.1,2-1.9,2.6c-0.9,0.7-1.7,1.1-2.4,1
						c-0.7,0-1.3-0.4-1.6-1c1.4-0.5,2.4-1.3,3.1-2.1c0.4-0.4,0.6-0.7,0.8-0.9C15.3,49.4,15.4,49.2,15.4,49.2L15.4,49.2z"/>
				</g>
				<g>
					<path class="st0" d="M4,59.1c1,1.2,2,2.1,3,2.7c1,0.6,2,0.9,2.7,1.1C9.9,61,9.1,58,7,56c-1-1-1.8-1.2-2.8-1.4
						c-0.9-0.2-2-0.2-3.5-1c-0.6-0.3-0.9-0.2-0.7,0.8c0.8,4.1,2.2,7.6,4.4,9.4c1.2,1,2.3,1.2,3.1,1.1c0.9-0.1,1.5-0.7,1.9-1.5
						c-1.8-0.5-3.2-1.5-4.1-2.5C4.5,60,4,59.1,4,59.1z"/>
					<path class="st0" d="M15.6,59c-0.6,1-1.4,1.7-2.1,2.3c-0.7,0.6-1.4,1-1.9,1.2c-0.1-0.3-0.2-0.8-0.3-1.2c0-0.5,0-1,0.1-1.5
						c0.2-1,0.7-2.1,1.5-2.9c1.5-1.5,2.5-0.9,4.7-1.8c1.2-0.5,1-0.2,0.8,0.6c-0.5,2.7-1.2,5.1-2.6,6.7c-0.8,0.9-1.6,1.3-2.3,1.4
						c-0.7,0.1-1.4-0.2-1.8-0.8c1.3-0.7,2.2-1.7,2.9-2.5C15.3,59.7,15.6,59,15.6,59L15.6,59z"/>
				</g>
				<g>
					<path class="st0" d="M5.2,70.5c2.2,2.3,4.8,2.9,6.3,3.1c0.1-1.9-1.2-4.9-3.6-6.7c-1.2-0.9-2-1-3-1.1c-1-0.1-2.1,0-3.7-0.6
						c-0.7-0.2-0.9-0.1-0.6,0.9c1.4,4.1,3.3,7.6,5.8,9.1c2.7,1.6,4.6,0.6,5-1.1c-1.9-0.2-3.4-1.1-4.5-2C5.8,71.4,5.2,70.5,5.2,70.5
						L5.2,70.5z"/>
					<path class="st0" d="M17.1,68.9c-0.3,0.5-0.5,1-0.9,1.5c-0.3,0.4-0.6,0.8-1,1.2c-0.6,0.7-1.3,1.2-1.8,1.5
						c-0.8-1.3-0.8-4,0.6-5.8c1.3-1.7,2.5-1.2,4.6-2.4c1.2-0.7,1-0.4,0.9,0.5c-0.2,2.8-0.6,5.3-1.8,7.1c-1.3,1.9-3,2.2-4,1.1
						c1.3-0.9,2.1-2,2.6-2.9C16.9,69.6,17.1,68.9,17.1,68.9z"/>
				</g>
				<g>
					<path class="st0" d="M8.1,82.1c2.6,2.1,5.3,2.3,6.9,2.2c-0.1-1-0.6-2.2-1.4-3.3c-0.8-1.1-1.9-2.2-3.2-2.9
						c-1.3-0.7-2.2-0.8-3.2-0.7c-1,0.1-2.1,0.3-3.8-0.1c-0.7-0.2-1,0-0.5,1c2,4.1,4.5,7.3,7.3,8.5c1.5,0.7,2.7,0.6,3.5,0.2
						c0.9-0.4,1.3-1.2,1.4-2.1c-1.9,0.1-3.7-0.6-4.9-1.4C8.8,82.9,8.1,82.1,8.1,82.1L8.1,82.1z"/>
					<path class="st0" d="M20,78.7c-0.4,1.2-0.9,2.1-1.5,2.9c-0.6,0.8-1.1,1.4-1.6,1.8c-1-1.2-1.4-3.9-0.2-6c0.6-1,1.2-1.4,1.9-1.7
						c0.7-0.3,1.5-0.7,2.5-1.4c1.1-0.8,0.9-0.5,1,0.3c0.1,2.8,0.1,5.4-0.8,7.4c-0.5,1.1-1.2,1.8-1.9,2c-0.7,0.3-1.4,0.2-2-0.3
						c1.1-1.1,1.8-2.3,2.2-3.4c0.2-0.5,0.3-0.9,0.4-1.2S20,78.7,20,78.7L20,78.7z"/>
				</g>
				<g>
					<path class="st0" d="M12.9,93.6c0.4,0.2,0.8,0.4,1.1,0.5c0.4,0.2,0.7,0.3,1.1,0.4c0.7,0.2,1.4,0.3,2,0.4c1.3,0.1,2.4,0,3.1-0.2
						c-0.3-1-1-2.1-2-3.1c-0.5-0.5-1.1-1-1.7-1.4c-0.6-0.4-1.3-0.8-2.1-1.1c-1.5-0.5-2.4-0.4-3.4-0.2c-1,0.2-2.1,0.6-3.9,0.5
						c-0.8-0.1-1,0.2-0.3,1.1c2.7,3.9,5.8,6.8,8.9,7.6c1.6,0.4,2.8,0.1,3.6-0.4c0.8-0.6,1.1-1.5,1-2.4c-1.9,0.4-3.8,0-5.2-0.5
						C13.8,94.2,12.9,93.6,12.9,93.6L12.9,93.6z"/>
					<path class="st0" d="M24.4,88.1c-0.2,1.2-0.6,2.3-1,3.2c-0.4,0.9-0.9,1.6-1.3,2.1c-1.3-1-2.1-3.7-1.2-6c0.4-1.1,1-1.6,1.6-2
						c0.6-0.5,1.4-0.9,2.3-1.8c1-1,0.9-0.7,1,0.2c0.6,2.8,1,5.3,0.4,7.5c-0.4,1.2-0.9,2-1.6,2.4s-1.4,0.5-2.1,0.1
						c1-1.3,1.4-2.7,1.6-3.8c0.1-0.5,0.2-1,0.2-1.3C24.4,88.3,24.4,88.1,24.4,88.1L24.4,88.1z"/>
				</g>
				<g>
					<path class="st0" d="M20.1,104.4c0.9,0.3,1.7,0.4,2.5,0.5c0.8,0.1,1.5,0,2.1-0.1c1.3-0.2,2.3-0.6,3.1-0.9
						c-0.3-0.4-0.6-0.9-1.1-1.4c-0.5-0.4-1-0.9-1.6-1.3c-0.6-0.4-1.3-0.8-2-1.1c-0.7-0.3-1.5-0.5-2.3-0.6c-1.6-0.2-2.5,0-3.5,0.5
						c-1,0.4-2,1-3.9,1.2c-0.8,0.1-0.9,0.4-0.1,1.2c3.5,3.5,7.5,5.9,10.8,6c1.7,0,2.9-0.5,3.5-1.3c0.6-0.8,0.8-1.7,0.4-2.7
						c-0.9,0.4-1.9,0.7-2.8,0.8s-1.8,0-2.6-0.1C21.2,105,20.1,104.5,20.1,104.4L20.1,104.4z"/>
					<path class="st0" d="M30.5,96.5c0,0.6,0,1.2-0.1,1.8c-0.1,0.6-0.1,1.1-0.3,1.6c-0.2,1-0.6,1.8-0.8,2.4
						c-0.4-0.2-0.7-0.5-1.1-0.8c-0.3-0.4-0.7-0.8-0.9-1.3c-0.2-0.5-0.4-1.1-0.5-1.7s-0.1-1.2,0-1.8c0.2-1.2,0.6-1.8,1.2-2.3
						c0.6-0.6,1.2-1.2,2-2.3c0.8-1.2,0.8-0.8,1.1-0.1c1,2.6,1.9,4.9,1.8,7.2c-0.1,1.2-0.5,2.2-1,2.8s-1.3,0.8-2,0.6
						c0.6-1.5,0.8-3,0.8-4.1c0-0.6,0-1,0-1.3C30.5,96.7,30.5,96.5,30.5,96.5L30.5,96.5z"/>
				</g>
				<g>
					<path class="st0" d="M30.3,113.8c1,0,1.8,0,2.6-0.2c0.8-0.2,1.5-0.4,2.1-0.7c1.2-0.5,2.2-1.3,2.8-1.8c-0.2-0.2-0.4-0.4-0.7-0.5
						c-0.2-0.2-0.5-0.3-0.8-0.5s-0.6-0.3-0.9-0.4c-0.3-0.1-0.7-0.3-1-0.4c-0.7-0.2-1.5-0.4-2.3-0.5c-0.8-0.1-1.6-0.1-2.5,0
						c-1.6,0.2-2.5,0.6-3.4,1.3c-0.9,0.7-1.7,1.5-3.6,2.2c-0.8,0.3-0.9,0.6,0.2,1.3c1.1,0.7,2.3,1.3,3.5,1.8
						c1.2,0.5,2.3,0.9,3.4,1.2c0.5,0.1,1.1,0.3,1.6,0.3c0.5,0.1,1.1,0.1,1.5,0.1c0.2,0,0.5,0,0.7,0c0.2,0,0.5,0,0.7-0.1
						c0.5-0.1,0.9-0.1,1.3-0.2c0.9-0.2,1.6-0.6,2.1-1s0.8-0.9,1-1.3c0.4-1,0.2-1.9-0.4-2.7c-0.8,0.7-1.6,1.2-2.5,1.6
						c-0.9,0.3-1.8,0.5-2.6,0.6c-0.8,0.1-1.5,0.1-2,0S30.3,113.8,30.3,113.8L30.3,113.8z"/>
					<path class="st0" d="M38.2,103c0.3,1.2,0.5,2.3,0.5,3.4c0,1.1,0,1.9-0.1,2.6c-0.4-0.1-0.9-0.2-1.3-0.5c-0.4-0.3-0.9-0.6-1.2-1
						c-0.4-0.4-0.7-0.9-1-1.5c-0.2-0.6-0.4-1.2-0.5-1.8c-0.1-1.2,0.2-1.9,0.6-2.6c0.4-0.7,0.9-1.5,1.4-2.7c0.6-1.4,0.5-1,1-0.4
						c1.5,2.2,2.9,4.1,3.4,6.3c0.2,1.2,0.2,2.2-0.2,3c-0.3,0.7-1,1.2-1.8,1.3c0.1-0.8,0.1-1.6,0-2.3c-0.1-0.7-0.2-1.4-0.4-1.9
						s-0.3-1-0.4-1.3S38.2,103.1,38.2,103L38.2,103z"/>
				</g>
			</g>
			<g>
				<path class="st0" d="M175.4,10.6c0,0,0.3,0.4,0.7,1.1c0.2,0.4,0.5,0.8,0.9,1.3c0.3,0.5,0.7,1.1,1.1,1.8
					c1.6,2.7,3.8,6.7,5.5,11.9c1.8,5.1,3.3,11.3,4,18.1c0.7,6.8,0.6,14.1-0.5,21.3c-1.1,7.2-3.1,14.2-6,20.3c-1.4,3.1-3,5.9-4.7,8.5
					c-1.7,2.6-3.6,4.8-5.4,6.8c-1.9,1.9-3.7,3.6-5.4,4.8c-1.7,1.3-3.4,2.2-4.7,3c-0.7,0.3-1.3,0.7-1.9,0.9c-0.6,0.2-1,0.4-1.4,0.6
					c-0.8,0.3-1.2,0.4-1.2,0.4c-0.3,0.1-0.5,0.4-0.4,0.7c0.1,0.3,0.4,0.4,0.8,0.3l0,0c0,0,0.4-0.2,1.2-0.5c0.4-0.2,0.9-0.4,1.4-0.6
					c0.6-0.3,1.2-0.6,1.9-0.9c1.4-0.8,3.1-1.8,4.8-3.1s3.6-3,5.5-5c1.9-2,3.7-4.3,5.5-6.9c1.7-2.6,3.3-5.5,4.8-8.6
					c2.8-6.2,4.9-13.3,5.9-20.6c1-7.2,1.1-14.6,0.4-21.4c-0.8-6.8-2.3-13.1-4.1-18.2c-1.8-5.2-4-9.2-5.6-11.9
					c-0.4-0.7-0.8-1.3-1.1-1.8c-0.4-0.5-0.6-0.9-0.9-1.3c-0.5-0.7-0.8-1.1-0.8-1.1c-0.1-0.1-0.2-0.1-0.3-0.1
					C175.3,10.4,175.3,10.6,175.4,10.6L175.4,10.6z"/>
				<g>
					<path class="st0" d="M181.6,9.6c0,0.7-0.1,1.3-0.2,1.9c-0.1,0.6-0.3,1.1-0.5,1.5c-0.4,0.9-0.9,1.6-1.3,2.1
						c-0.6-0.5-1.1-1.4-1.4-2.5c-0.4-1.1-0.5-2.3-0.3-3.5c0.1-0.6,0.2-1.1,0.4-1.4s0.4-0.7,0.7-1c0.5-0.6,1.2-1.2,1.8-2.5
						c0.2-0.6,0.5-0.6,0.9,0.2c0.4,0.8,0.8,1.7,1.1,2.5s0.6,1.6,0.7,2.3c0.3,1.5,0.4,2.9,0.1,4.1c-0.3,1.2-0.9,2-1.6,2.4
						c-0.7,0.3-1.4,0.3-2-0.1c1-1.2,1.4-2.6,1.5-3.8c0.1-0.6,0.1-1.1,0.1-1.4C181.6,9.8,181.6,9.6,181.6,9.6L181.6,9.6z"/>
					<path class="st0" d="M173.6,15.5c1.8,0.7,3.6,0.5,4.5,0.4c-0.2-0.6-0.6-1.3-1.2-1.9c-0.3-0.3-0.7-0.6-1.1-0.8s-0.9-0.3-1.4-0.4
						c-1.8-0.2-2.2,0.7-4.1,1.2c-1.1,0.3-0.8,0.3-0.3,0.8c0.4,0.4,0.8,0.7,1.3,1c0.4,0.3,0.9,0.6,1.3,0.9c0.8,0.6,1.7,1,2.6,1.1
						c1,0.2,1.7,0.1,2.2-0.2c0.5-0.3,0.8-0.9,0.8-1.4c-1.2,0.2-2.4,0-3.2-0.2C174.1,15.8,173.6,15.5,173.6,15.5L173.6,15.5z"/>
				</g>
				<path class="st0" d="M171.4,4.4c0.3,0.2,0.5,0.5,0.7,0.8c0.2,0.3,0.4,0.5,0.6,0.8c0.4,0.5,0.7,1.1,0.9,1.6
					c0.5,1.1,0.7,2,0.9,2.7c-0.7,0.1-1.6-0.2-2.4-0.7c-0.2-0.1-0.4-0.3-0.7-0.5c-0.2-0.2-0.4-0.3-0.7-0.5c-0.4-0.4-0.9-0.9-1.2-1.4
					c-0.8-1-1-1.8-1.2-2.7c-0.1-0.2-0.1-0.5-0.2-0.7c-0.1-0.2-0.1-0.5-0.2-0.8c-0.2-0.5-0.4-1.1-0.8-1.9c-0.3-0.6-0.3-0.9,0.4-0.6
					c0.8,0.2,1.5,0.5,2.2,0.8c0.2,0.1,0.4,0.1,0.5,0.2c0.2,0.1,0.3,0.2,0.5,0.3c0.3,0.2,0.7,0.4,1,0.6c0.3,0.2,0.6,0.4,0.9,0.6
					c0.3,0.2,0.6,0.4,0.8,0.7c0.5,0.5,1,1,1.4,1.6c0.2,0.3,0.4,0.6,0.5,0.9s0.2,0.6,0.3,0.9c0.2,0.6,0.2,1.1,0.2,1.5
					c0,0.9-0.4,1.5-1,1.7c-0.2-0.9-0.5-1.7-0.9-2.4c-0.1-0.2-0.2-0.4-0.3-0.5c-0.1-0.2-0.2-0.3-0.3-0.5c-0.2-0.3-0.4-0.6-0.6-0.8
					c-0.4-0.5-0.8-0.9-1-1.1c-0.1-0.1-0.2-0.2-0.3-0.3C171.4,4.4,171.4,4.4,171.4,4.4L171.4,4.4z"/>
				<g>
					<path class="st0" d="M186.5,18.1c-0.2,1.4-0.6,2.5-1.2,3.4c-0.6,0.9-1.1,1.5-1.6,2c-0.3-0.3-0.5-0.7-0.6-1.2
						c-0.2-0.5-0.4-1-0.4-1.6c-0.2-1.1-0.1-2.4,0.3-3.6c0.4-1.2,0.9-1.7,1.6-2.3c0.6-0.5,1.4-1.1,2.3-2.3c0.4-0.5,0.6-0.5,0.9,0.3
						c0.3,0.9,0.5,1.8,0.7,2.6c0.2,0.9,0.3,1.7,0.4,2.5c0.1,0.8,0.1,1.5,0,2.2c-0.1,0.7-0.2,1.4-0.5,1.9c-1,2.5-2.9,2.7-4.1,1.8
						c0.6-0.5,1.1-1.2,1.4-1.8c0.2-0.3,0.3-0.6,0.4-1c0.1-0.3,0.2-0.6,0.3-0.9C186.5,19,186.5,18.1,186.5,18.1L186.5,18.1z"/>
					<path class="st0" d="M177.4,23c0.9,0.5,1.8,0.7,2.6,0.9c0.8,0.1,1.5,0.2,2,0.2c0-0.3-0.1-0.7-0.3-1.1c-0.2-0.4-0.4-0.7-0.7-1.1
						c-0.6-0.7-1.4-1.3-2.4-1.6c-1.8-0.5-2.4,0.4-4.4,0.6c-1.2,0.2-0.9,0.2-0.4,0.8c0.2,0.2,0.4,0.4,0.6,0.6
						c0.2,0.2,0.4,0.4,0.6,0.6c0.4,0.4,0.8,0.8,1.2,1.1c0.8,0.7,1.6,1.2,2.5,1.6c1.9,0.7,3.2,0,3.4-1.2c-1.3,0-2.4-0.4-3.3-0.7
						C177.9,23.3,177.4,23,177.4,23L177.4,23z"/>
				</g>
				<g>
					<path class="st0" d="M190.4,27.5c-0.8,2.8-2.5,4.3-3.6,5.1c-0.5-0.7-0.7-1.8-0.7-3c0-1.2,0.2-2.5,0.8-3.7
						c0.6-1.2,1.2-1.6,1.9-2.1c0.7-0.5,1.6-0.9,2.6-2c0.4-0.5,0.7-0.5,0.9,0.5c0,0.2,0.1,0.5,0.1,0.7c0,0.2,0.1,0.5,0.1,0.7
						c0.1,0.5,0.1,0.9,0.1,1.4c0.1,0.9,0.1,1.8,0.1,2.6c-0.1,1.6-0.4,3-1.1,4.2c-0.7,1.2-1.5,1.8-2.3,2c-0.8,0.2-1.5-0.1-2.1-0.7
						c1.3-1,2.2-2.3,2.7-3.5c0.2-0.6,0.4-1.1,0.5-1.5C190.3,27.7,190.3,27.5,190.4,27.5L190.4,27.5z"/>
					<path class="st0" d="M180.4,31.2c1.7,1.2,3.5,1.6,4.6,1.7c0-0.7-0.2-1.5-0.7-2.3c-0.1-0.2-0.3-0.4-0.4-0.6
						c-0.2-0.2-0.3-0.4-0.5-0.5c-0.4-0.3-0.8-0.6-1.3-0.8c-1.8-0.8-2.4,0.1-4.6,0c-1.2,0-0.9,0.1-0.5,0.7c0.3,0.5,0.7,1,1,1.5
						c0.2,0.2,0.4,0.5,0.5,0.7c0.2,0.2,0.3,0.4,0.5,0.7c0.7,0.8,1.5,1.5,2.3,2c0.9,0.5,1.7,0.6,2.4,0.4c0.6-0.2,1.1-0.6,1.2-1.2
						c-1.4-0.1-2.5-0.7-3.3-1.2S180.4,31.2,180.4,31.2z"/>
				</g>
				<g>
					<path class="st0" d="M193,37.6c-0.6,1.3-1.4,2.4-2.1,3.1c-0.8,0.8-1.6,1.3-2.2,1.6c-0.2-0.4-0.3-0.9-0.4-1.4
						c-0.1-0.5-0.1-1.1,0-1.7c0.1-0.6,0.2-1.2,0.4-1.9c0.2-0.6,0.5-1.2,0.9-1.8c0.7-1.1,1.4-1.5,2.2-1.9c0.8-0.4,1.8-0.7,3-1.7
						c0.5-0.4,0.8-0.4,0.8,0.6c0,1,0,2,0,2.9c-0.1,0.9-0.2,1.8-0.3,2.6c-0.1,0.8-0.4,1.6-0.6,2.3c-0.3,0.7-0.6,1.3-1,1.8
						c-1.7,2.3-3.7,2.1-4.7,0.7c1.5-0.8,2.6-2.1,3.2-3.2C192.7,38.5,193,37.6,193,37.6L193,37.6z"/>
					<path class="st0" d="M182.3,40.1c0.8,0.7,1.7,1.3,2.4,1.6c0.8,0.4,1.5,0.6,2,0.7c0.1-0.3,0.1-0.8,0-1.2
						c-0.1-0.4-0.2-0.9-0.4-1.3c-0.4-0.9-1.1-1.7-2-2.3c-1.7-1-2.5-0.2-4.8-0.6c-1.2-0.2-0.9,0-0.6,0.7c0.1,0.3,0.3,0.6,0.4,0.8
						c0.1,0.3,0.3,0.5,0.4,0.8c0.3,0.5,0.6,1,0.9,1.5c0.3,0.5,0.7,0.9,1,1.3c0.3,0.4,0.7,0.7,1.1,1c1.8,1.2,3.3,0.8,3.8-0.4
						c-0.7-0.2-1.3-0.4-1.8-0.7c-0.3-0.2-0.5-0.3-0.7-0.5c-0.2-0.2-0.4-0.3-0.6-0.5C182.7,40.7,182.3,40.1,182.3,40.1z"/>
				</g>
				<g>
					<path class="st0" d="M194.5,48.3c-0.2,0.3-0.4,0.6-0.6,0.9c-0.2,0.3-0.4,0.5-0.7,0.8c-0.4,0.5-0.9,0.9-1.4,1.2
						c-0.9,0.7-1.8,1.1-2.4,1.4c-0.3-0.9-0.3-2.1,0-3.3c0.2-1.2,0.8-2.5,1.7-3.6c0.9-1,1.6-1.4,2.5-1.7c0.9-0.3,1.9-0.5,3.2-1.3
						c0.6-0.4,0.8-0.3,0.8,0.7c-0.1,1-0.2,2-0.4,2.9c-0.2,0.9-0.4,1.8-0.6,2.6c-0.5,1.6-1.3,3-2.2,4c-1,1-2,1.5-2.9,1.4
						c-0.9,0-1.6-0.5-2-1.2c1.6-0.7,2.9-1.8,3.6-2.9c0.4-0.5,0.7-1,0.9-1.4C194.4,48.5,194.5,48.3,194.5,48.3L194.5,48.3z"/>
					<path class="st0" d="M183.2,49.5c1.4,1.7,3.2,2.6,4.3,3c0.2-0.7,0.1-1.7-0.1-2.6c-0.3-1-0.9-1.9-1.8-2.6
						c-1.6-1.3-2.5-0.6-4.7-1.2c-1.3-0.3-1-0.1-0.7,0.6c0.4,1.2,0.9,2.4,1.4,3.5c0.5,1,1.1,2,1.9,2.6c0.9,0.7,1.7,1.1,2.4,1
						c0.7,0,1.3-0.4,1.6-1c-1.4-0.5-2.4-1.3-3.1-2.1c-0.3-0.4-0.6-0.7-0.8-0.9C183.3,49.7,183.2,49.5,183.2,49.5L183.2,49.5z"/>
				</g>
				<g>
					<path class="st0" d="M194.7,59.4c-0.9,1.2-2,2.1-3,2.7c-1,0.6-2,0.9-2.7,1.1c-0.3-1.8,0.5-4.8,2.6-6.8c1-1,1.8-1.2,2.8-1.4
						c0.9-0.2,2-0.2,3.5-1c0.6-0.3,0.9-0.2,0.7,0.8c-0.8,4.1-2.2,7.6-4.4,9.4c-1.1,1-2.3,1.2-3.1,1.1c-0.9-0.1-1.5-0.7-1.9-1.5
						c1.8-0.5,3.2-1.5,4.1-2.5C194.2,60.3,194.7,59.4,194.7,59.4L194.7,59.4z"/>
					<path class="st0" d="M183,59.3c0.6,1,1.4,1.7,2.1,2.3c0.7,0.6,1.4,1,1.9,1.2c0.1-0.3,0.2-0.8,0.3-1.2c0-0.5,0-1-0.1-1.5
						c-0.2-1-0.7-2.1-1.5-2.9c-1.5-1.5-2.5-0.9-4.7-1.8c-1.2-0.5-1-0.2-0.8,0.6c0.6,2.7,1.2,5.1,2.6,6.7c0.8,0.9,1.6,1.3,2.3,1.4
						c0.7,0.1,1.4-0.2,1.8-0.8c-1.3-0.7-2.2-1.7-2.9-2.5C183.3,60,183,59.3,183,59.3L183,59.3z"/>
				</g>
				<g>
					<path class="st0" d="M193.4,70.8c-2.2,2.3-4.8,2.9-6.3,3.1c-0.1-1.9,1.2-4.9,3.6-6.7c1.2-0.9,2-1,3-1.1c1-0.1,2.1,0,3.7-0.6
						c0.7-0.2,0.9-0.1,0.6,0.9c-1.4,4.1-3.3,7.6-5.8,9.1c-2.7,1.6-4.6,0.6-5-1.1c1.9-0.2,3.4-1.1,4.5-2
						C192.8,71.7,193.4,70.8,193.4,70.8L193.4,70.8z"/>
					<path class="st0" d="M181.5,69.2c0.3,0.5,0.6,1,0.9,1.5c0.3,0.4,0.6,0.8,1,1.2c0.6,0.7,1.3,1.2,1.8,1.5c0.8-1.3,0.8-4-0.6-5.8
						c-1.3-1.7-2.5-1.2-4.6-2.4c-1.2-0.7-1-0.4-0.9,0.5c0.2,2.8,0.6,5.3,1.8,7.1c1.3,1.9,3,2.2,4,1.1c-1.3-0.9-2.1-2-2.6-2.9
						C181.8,69.9,181.5,69.2,181.5,69.2L181.5,69.2z"/>
				</g>
				<g>
					<path class="st0" d="M190.5,82.4c-2.6,2.1-5.3,2.3-6.9,2.2c0.1-1,0.6-2.2,1.4-3.3c0.8-1.1,1.9-2.2,3.2-2.9
						c1.3-0.7,2.2-0.8,3.2-0.7c1,0.1,2.1,0.3,3.8-0.1c0.7-0.2,1,0,0.5,1c-2,4.1-4.5,7.3-7.3,8.5c-1.5,0.7-2.7,0.6-3.5,0.2
						c-0.9-0.4-1.3-1.2-1.4-2.1c1.9,0.1,3.7-0.6,4.9-1.4C189.8,83.2,190.5,82.4,190.5,82.4L190.5,82.4z"/>
					<path class="st0" d="M178.7,79c0.4,1.2,0.9,2.1,1.5,2.9c0.6,0.8,1.1,1.4,1.6,1.8c1-1.2,1.4-3.9,0.2-6c-0.6-1-1.2-1.4-1.9-1.7
						c-0.7-0.3-1.5-0.7-2.5-1.4c-1.1-0.8-0.9-0.5-1,0.3c-0.1,2.8-0.1,5.4,0.8,7.4c0.5,1.1,1.2,1.8,1.9,2c0.7,0.3,1.4,0.2,2-0.3
						c-1.1-1.1-1.8-2.3-2.2-3.4c-0.2-0.5-0.3-0.9-0.4-1.2S178.7,79,178.7,79L178.7,79z"/>
				</g>
				<g>
					<path class="st0" d="M185.7,93.9c-0.4,0.2-0.8,0.4-1.1,0.5c-0.4,0.2-0.7,0.3-1.1,0.4c-0.7,0.2-1.4,0.3-2,0.4
						c-1.3,0.1-2.4,0-3.1-0.2c0.3-1,1-2.1,2-3.1c0.5-0.5,1.1-1,1.7-1.4c0.6-0.4,1.3-0.8,2.1-1.1c1.5-0.5,2.4-0.4,3.4-0.2
						c1,0.2,2.1,0.6,3.9,0.5c0.8-0.1,1,0.2,0.3,1.1c-2.7,3.9-5.8,6.8-8.9,7.6c-1.6,0.4-2.8,0.1-3.6-0.4c-0.8-0.6-1.1-1.5-1-2.4
						c1.9,0.4,3.8,0,5.2-0.5C184.8,94.5,185.7,93.9,185.7,93.9L185.7,93.9z"/>
					<path class="st0" d="M174.2,88.4c0.2,1.2,0.6,2.3,1,3.2c0.4,0.9,0.9,1.6,1.3,2.1c1.3-1,2.1-3.7,1.2-6c-0.4-1.1-0.9-1.6-1.6-2
						c-0.6-0.5-1.4-0.9-2.3-1.8c-1-1-0.9-0.7-1,0.2c-0.6,2.8-1,5.3-0.4,7.5c0.4,1.2,0.9,2,1.6,2.4s1.4,0.5,2.1,0.1
						c-1-1.3-1.4-2.7-1.6-3.8c-0.1-0.5-0.2-1-0.2-1.3C174.3,88.6,174.3,88.4,174.2,88.4L174.2,88.4z"/>
				</g>
				<g>
					<path class="st0" d="M178.5,104.8c-0.9,0.3-1.7,0.4-2.5,0.5c-0.8,0.1-1.5,0-2.1-0.1c-1.3-0.2-2.3-0.6-3.1-0.9
						c0.3-0.4,0.6-0.9,1.1-1.4c0.5-0.4,1-0.9,1.6-1.3c0.6-0.4,1.3-0.8,2-1.1c0.7-0.3,1.5-0.5,2.3-0.6c1.6-0.2,2.5,0,3.5,0.5
						c1,0.4,2,1,3.9,1.2c0.8,0.1,0.9,0.4,0.1,1.2c-3.5,3.5-7.5,5.9-10.8,6c-1.7,0-2.9-0.5-3.5-1.3c-0.6-0.8-0.8-1.7-0.4-2.7
						c0.9,0.4,1.9,0.7,2.8,0.8s1.8,0,2.6-0.1C177.4,105.3,178.5,104.8,178.5,104.8L178.5,104.8z"/>
					<path class="st0" d="M168.2,96.8c0,0.6,0,1.2,0.1,1.8c0.1,0.6,0.1,1.1,0.3,1.6c0.2,1,0.6,1.8,0.8,2.4c0.4-0.2,0.7-0.5,1.1-0.8
						c0.3-0.4,0.7-0.8,0.9-1.3c0.2-0.5,0.4-1.1,0.5-1.7s0.1-1.2,0-1.8c-0.2-1.2-0.7-1.8-1.2-2.3c-0.6-0.6-1.2-1.2-2-2.3
						c-0.8-1.2-0.8-0.8-1.1-0.1c-1,2.6-1.9,4.9-1.8,7.2c0.1,1.2,0.5,2.2,1,2.8c0.6,0.6,1.3,0.8,2,0.6c-0.6-1.5-0.8-3-0.8-4.1
						c0-0.6,0-1,0.1-1.3C168.1,97,168.2,96.8,168.2,96.8L168.2,96.8z"/>
				</g>
				<g>
					<path class="st0" d="M168.4,114.1c-1,0-1.8,0-2.6-0.2c-0.8-0.2-1.5-0.4-2.1-0.7c-1.2-0.5-2.1-1.3-2.8-1.8
						c0.2-0.2,0.4-0.4,0.7-0.5c0.2-0.2,0.5-0.3,0.8-0.5s0.6-0.3,0.9-0.4c0.3-0.1,0.7-0.3,1-0.4c0.7-0.2,1.5-0.4,2.3-0.5
						c0.8-0.1,1.6-0.1,2.5,0c1.6,0.2,2.5,0.6,3.4,1.3c0.9,0.7,1.7,1.5,3.6,2.2c0.8,0.3,0.9,0.6-0.2,1.3c-1.1,0.7-2.3,1.3-3.5,1.8
						c-1.2,0.5-2.3,0.9-3.4,1.2c-0.6,0.1-1.1,0.3-1.6,0.3c-0.5,0.1-1.1,0.1-1.5,0.1c-0.2,0-0.5,0-0.7,0c-0.2,0-0.5,0-0.7-0.1
						c-0.5-0.1-0.9-0.1-1.3-0.2c-0.9-0.2-1.6-0.6-2.1-1s-0.8-0.9-1-1.3c-0.4-1-0.2-1.9,0.4-2.7c0.8,0.7,1.6,1.2,2.5,1.6
						c0.9,0.3,1.8,0.5,2.6,0.6c0.8,0.1,1.5,0.1,2,0C168.1,114.1,168.4,114.1,168.4,114.1L168.4,114.1z"/>
					<path class="st0" d="M160.4,103.3c-0.3,1.2-0.5,2.3-0.6,3.4c0,1.1,0,1.9,0.1,2.6c0.4-0.1,0.9-0.2,1.3-0.5
						c0.4-0.3,0.9-0.6,1.2-1c0.4-0.4,0.7-0.9,1-1.5c0.2-0.6,0.4-1.2,0.5-1.8c0.1-1.2-0.2-1.9-0.6-2.6c-0.4-0.7-0.9-1.5-1.4-2.7
						c-0.6-1.4-0.6-1-1-0.4c-1.5,2.2-2.9,4.1-3.4,6.3c-0.2,1.2-0.2,2.2,0.2,3c0.4,0.7,1,1.2,1.8,1.3c-0.1-0.8-0.1-1.6,0-2.3
						c0.1-0.7,0.2-1.4,0.4-1.9s0.3-1,0.4-1.3S160.4,103.4,160.4,103.3L160.4,103.3z"/>
				</g>
			</g>
		</g>
		<text transform="matrix(1 0 0 1 59.41 23.3199)" class="st0 st6 st7 st8">運営歴</text>
	</g>
</g>
</svg>
