<?xml version="1.0" encoding="UTF-8"?>
<svg id="Layer_2" data-name="Layer 2" xmlns="http://www.w3.org/2000/svg" viewBox="0 0 190.63 117.68">
  <defs>
    <style>
      .cls-1 {
        fill: #fff;
        stroke-width: 0px;
      }
    </style>
  </defs>
  <g id="Layer_1-2" data-name="Layer 1">
    <g>
      <path class="cls-1" d="m102.72,96.28h-14.7v21.4h-7.8v-21.4h-35v-5.4l37-48.8h5.8v47.7h14.7v6.5Zm-22.5-6.5v-39.1l-29.8,39.1h29.8Z"/>
      <g>
        <path class="cls-1" d="m125.72,75.03v-7.81h-16.24v-3.74h6.08v-8.93h10.15v-4.25h-7.31c-.86,1.37-1.79,2.66-2.79,3.87-1,1.21-2.03,2.31-3.11,3.29-.38-.41-.88-.86-1.49-1.37s-1.25-.92-1.93-1.26c1.32-1.08,2.57-2.36,3.74-3.83,1.18-1.48,2.2-3.01,3.08-4.61.88-1.6,1.53-3.1,1.96-4.52l4.07,1.26c-.41,1.13-.88,2.23-1.4,3.31h20.23v3.85h-10.58v4.25h8.03v3.74h-8.03v5.18h12.13v3.74h-12.13v7.81h-4.46Zm-5.72-11.56h5.72v-5.18h-5.72v5.18Z"/>
        <path class="cls-1" d="m111.75,117.65c-.41-.29-.97-.59-1.69-.9-.72-.31-1.32-.53-1.8-.65.5-.74.95-1.65,1.33-2.72.38-1.07.71-2.22.99-3.46.28-1.24.48-2.47.61-3.71.13-1.24.2-2.41.2-3.51l3.78.32c0,.7-.02,1.39-.07,2.09-.05.7-.11,1.39-.18,2.09.26.53.55,1.02.86,1.48.31.46.65.88,1.01,1.26v-9.79h-6.62v-3.53h6.23v-3.6h-5.36v-3.42h5.36v-4.14h4.07v4.14h4.25v3.42h-4.25v3.6l5.26-.04v.4c1.2-.79,2.18-1.79,2.95-3.01.77-1.21,1.28-2.48,1.55-3.8h-4.79v-3.38h16.06c-.02.91-.1,1.96-.22,3.15s-.26,2.34-.41,3.46c-.16,1.12-.34,2.05-.56,2.79-.34,1.25-.88,2.08-1.62,2.5-.74.42-1.72.63-2.92.63h-2.02c-.05-.53-.15-1.17-.31-1.93-.16-.76-.33-1.35-.52-1.78h1.51c.67,0,1.16-.08,1.48-.25.31-.17.54-.48.68-.94.19-.55.34-1.2.45-1.94.11-.74.19-1.51.23-2.3h-3.02c-.22,1.37-.64,2.69-1.26,3.96-.62,1.27-1.37,2.44-2.25,3.51-.88,1.07-1.83,1.96-2.86,2.68-.24-.29-.56-.63-.97-1.03-.41-.4-.8-.75-1.19-1.06v1.91h-5v3.56h4.79v3.78h-4.79v5.11c2.06.77,4.86,1.15,8.39,1.15,3.07,0,5.71-.05,7.92-.16s4-.26,5.36-.45c-.1.26-.22.67-.36,1.22-.14.55-.27,1.12-.38,1.69-.11.58-.17,1.06-.2,1.44-.67,0-1.55,0-2.63.02-1.08.01-2.23.02-3.44.02h-6.28c-3.65,0-6.68-.49-9.09-1.46s-4.39-2.47-5.92-4.48c-.26,1.1-.59,2.16-.97,3.17-.38,1.01-.84,1.97-1.37,2.88Zm15.05-5.76v-11.3h13.93v11.3h-13.93Zm3.82-3.35h6.34v-4.61h-6.34v4.61Z"/>
      </g>
      <g>
        <g>
          <path class="cls-1" d="m23.26,10.33s-.25.37-.73,1.07c-.24.35-.53.78-.88,1.28-.34.51-.69,1.13-1.1,1.8-1.63,2.7-3.75,6.72-5.54,11.86-1.81,5.12-3.3,11.33-4.02,18.1-.71,6.76-.6,14.08.46,21.26,1.05,7.17,3.12,14.19,5.96,20.33,1.41,3.07,3.01,5.93,4.73,8.5,1.72,2.56,3.56,4.83,5.4,6.78,1.85,1.94,3.69,3.56,5.43,4.85,1.74,1.29,3.36,2.25,4.71,2.99.69.35,1.31.66,1.85.91.55.23,1.02.43,1.4.6.77.29,1.19.43,1.19.43.33.12.53.44.44.72s-.44.39-.79.27h0s-.43-.15-1.22-.46c-.39-.17-.87-.38-1.44-.62-.56-.26-1.19-.58-1.9-.94-1.39-.77-3.05-1.77-4.82-3.1-1.77-1.33-3.65-3-5.52-4.99-1.87-1.99-3.73-4.31-5.46-6.93-1.73-2.62-3.33-5.52-4.75-8.64-2.84-6.24-4.89-13.33-5.91-20.57-1.04-7.24-1.1-14.61-.35-21.42.76-6.81,2.29-13.06,4.14-18.2,1.84-5.16,4-9.2,5.65-11.91.42-.67.77-1.29,1.12-1.81.35-.51.65-.94.9-1.29.49-.7.74-1.07.74-1.07.08-.11.22-.15.3-.09.09.06.1.21.02.32Z"/>
          <g>
            <path class="cls-1" d="m17.06,9.31c-.02.66.07,1.29.19,1.86.13.57.3,1.08.5,1.54.39.92.87,1.61,1.26,2.09.59-.54,1.11-1.44,1.41-2.52.35-1.05.5-2.27.29-3.51-.11-.6-.26-1.05-.44-1.42-.19-.37-.43-.67-.7-.97-.54-.61-1.21-1.22-1.8-2.5-.25-.56-.49-.6-.9.18-.45.81-.78,1.65-1.08,2.45-.3.8-.56,1.57-.74,2.32-.31,1.52-.38,2.9-.1,4.07.31,1.25.95,2.01,1.62,2.35.68.34,1.41.27,2.03-.13-.97-1.2-1.38-2.64-1.52-3.8-.07-.58-.09-1.09-.07-1.44.02-.35.06-.56.06-.56Z"/>
            <path class="cls-1" d="m25.08,15.21c-1.8.68-3.55.55-4.54.37.15-.61.6-1.32,1.25-1.91.31-.3.71-.55,1.13-.75.42-.2.88-.34,1.36-.41,1.77-.23,2.18.71,4.1,1.25,1.09.34.77.34.27.8-.42.37-.84.71-1.26,1.04-.43.32-.87.61-1.27.9-.83.56-1.69.96-2.58,1.14-.97.19-1.71.1-2.25-.22-.52-.31-.84-.85-.81-1.43,1.25.21,2.41,0,3.24-.23.84-.24,1.35-.53,1.35-.53Z"/>
          </g>
          <path class="cls-1" d="m27.22,4.07c-.26.23-.48.5-.69.77-.21.26-.41.53-.59.8-.36.54-.68,1.06-.93,1.58-.46,1.06-.74,2.02-.9,2.72.67.07,1.56-.19,2.44-.74.22-.13.43-.3.66-.46.23-.16.46-.34.67-.54.44-.4.85-.87,1.22-1.42.75-1.02,1-1.78,1.21-2.7.05-.22.1-.46.17-.71.07-.24.14-.48.24-.75.18-.54.44-1.14.83-1.87.34-.62.31-.87-.41-.65-.75.23-1.49.5-2.21.79-.18.08-.36.15-.54.23-.17.09-.34.18-.5.27-.33.18-.66.37-.97.57-.32.2-.62.41-.92.62-.3.21-.59.44-.84.7-.51.5-.98,1.04-1.38,1.62-.21.31-.4.6-.54.9-.14.3-.25.59-.33.87-.17.55-.24,1.05-.22,1.49.04.87.42,1.46,1,1.69.21-.88.52-1.7.88-2.42.09-.18.18-.36.27-.53.1-.16.21-.32.31-.47.21-.3.41-.58.61-.82.39-.49.75-.88,1.02-1.14.13-.13.24-.22.32-.29.08-.06.12-.09.12-.09Z"/>
          <g>
            <path class="cls-1" d="m12.12,17.82c.21,1.37.65,2.48,1.19,3.36.55.88,1.15,1.53,1.63,1.97.26-.33.47-.74.65-1.22.2-.47.35-1,.44-1.57.18-1.14.1-2.43-.26-3.64-.37-1.18-.89-1.73-1.55-2.26-.65-.54-1.43-1.05-2.26-2.27-.36-.53-.6-.54-.87.33-.28.9-.53,1.78-.73,2.63-.17.86-.28,1.69-.35,2.48-.06.79-.08,1.53,0,2.22.09.7.25,1.35.49,1.93,1.01,2.45,2.89,2.74,4.06,1.75-.59-.55-1.05-1.17-1.4-1.81-.18-.32-.33-.64-.45-.96-.12-.31-.21-.62-.29-.9-.3-1.15-.31-2.03-.31-2.03Z"/>
            <path class="cls-1" d="m21.22,22.66c-.89.48-1.82.74-2.6.89-.79.15-1.5.18-2.02.16.03-.33.13-.69.29-1.07.17-.37.42-.73.72-1.08.6-.69,1.41-1.29,2.35-1.59,1.82-.5,2.36.4,4.44.65,1.16.16.86.24.38.77-.2.22-.39.43-.59.64-.19.22-.37.43-.56.63-.38.41-.77.79-1.16,1.14-.82.68-1.6,1.25-2.48,1.57-1.89.7-3.22-.02-3.37-1.25,1.31.03,2.42-.37,3.26-.73.84-.36,1.35-.74,1.35-.74Z"/>
          </g>
          <g>
            <path class="cls-1" d="m8.28,27.19c.81,2.75,2.54,4.31,3.61,5.06.46-.73.73-1.81.73-3,.04-1.19-.16-2.49-.75-3.69-.57-1.17-1.18-1.65-1.91-2.09-.74-.45-1.61-.87-2.61-1.99-.43-.48-.69-.46-.86.45-.04.24-.09.47-.13.71-.03.24-.06.47-.08.7-.05.46-.1.92-.13,1.37-.06.9-.1,1.75-.05,2.56.12,1.63.45,3.05,1.08,4.17.68,1.19,1.54,1.8,2.33,1.96.8.16,1.53-.11,2.06-.7-1.34-.96-2.17-2.32-2.66-3.46-.24-.57-.4-1.08-.5-1.45-.09-.37-.11-.59-.11-.59Z"/>
            <path class="cls-1" d="m18.25,30.91c-1.66,1.25-3.51,1.62-4.58,1.71-.02-.68.25-1.54.74-2.34.12-.2.26-.39.41-.58.16-.18.34-.36.53-.53.38-.33.81-.62,1.28-.83,1.76-.78,2.45.07,4.6.02,1.2-.01.91.11.51.74-.33.52-.66,1.02-1.01,1.49-.17.24-.35.46-.53.69-.17.22-.34.44-.52.65-.7.83-1.47,1.51-2.34,1.96-.94.48-1.73.6-2.38.42-.63-.17-1.1-.64-1.24-1.25,1.35-.14,2.49-.69,3.28-1.19.79-.5,1.25-.96,1.25-.96Z"/>
          </g>
          <g>
            <path class="cls-1" d="m5.63,37.29c.58,1.35,1.36,2.37,2.13,3.13.8.76,1.6,1.27,2.21,1.59.18-.41.28-.89.35-1.43.08-.54.09-1.13.02-1.74-.06-.61-.2-1.25-.41-1.87-.23-.63-.47-1.23-.85-1.81-.71-1.11-1.4-1.53-2.22-1.89-.82-.37-1.77-.68-2.96-1.69-.52-.44-.77-.38-.8.57-.03.99-.04,1.95-.01,2.87.05.92.17,1.8.32,2.62.15.82.35,1.58.61,2.27.29.69.62,1.31,1.03,1.85,1.71,2.26,3.72,2.07,4.66.73-1.51-.81-2.59-2.11-3.19-3.21-.62-1.1-.87-2-.87-2Z"/>
            <path class="cls-1" d="m16.32,39.82c-.79.74-1.66,1.27-2.45,1.64-.78.37-1.5.59-2.04.71-.06-.35-.06-.75.01-1.18.09-.42.24-.87.45-1.31.43-.88,1.09-1.73,2-2.29,1.73-1.03,2.54-.25,4.75-.58,1.24-.17.95,0,.61.7-.14.29-.29.57-.44.84-.14.28-.28.55-.41.82-.28.54-.58,1.04-.89,1.51-.31.47-.67.9-1.02,1.29-.34.39-.72.74-1.13,1.02-1.76,1.24-3.33.84-3.81-.39.68-.16,1.28-.42,1.81-.71.26-.15.51-.3.73-.46.23-.16.45-.31.64-.47.77-.61,1.19-1.14,1.19-1.14Z"/>
          </g>
          <g>
            <path class="cls-1" d="m4.16,47.97c.18.33.38.63.58.91.21.29.43.55.66.79.45.49.91.89,1.36,1.24.9.68,1.77,1.1,2.43,1.36.28-.87.27-2.06-.02-3.29-.25-1.23-.81-2.53-1.73-3.61-.9-1.05-1.62-1.38-2.51-1.65-.88-.27-1.89-.48-3.22-1.35-.58-.38-.83-.29-.77.68.05,1.01.21,2,.37,2.93.17.93.37,1.82.61,2.64.54,1.64,1.26,3.02,2.19,4.02.98,1.05,2.03,1.46,2.88,1.43.86-.03,1.55-.5,1.97-1.25-1.64-.65-2.85-1.84-3.65-2.9-.4-.52-.71-1.01-.88-1.36-.18-.35-.27-.58-.27-.58Z"/>
            <path class="cls-1" d="m15.41,49.23c-1.41,1.73-3.2,2.58-4.29,2.96-.19-.7-.15-1.65.15-2.61.32-.96.94-1.9,1.8-2.59,1.61-1.27,2.54-.58,4.74-1.2,1.26-.33.96-.12.72.64-.39,1.25-.88,2.43-1.4,3.48-.5,1.05-1.12,1.95-1.9,2.64-.85.74-1.68,1.06-2.37,1.04-.71-.02-1.27-.38-1.58-.98,1.35-.5,2.38-1.35,3.07-2.07.35-.36.6-.69.78-.93.18-.25.27-.39.27-.39Z"/>
          </g>
          <g>
            <path class="cls-1" d="m3.97,59.08c.95,1.25,2.01,2.11,3.01,2.69,1.02.59,1.96.91,2.67,1.09.3-1.85-.53-4.85-2.65-6.84-1.01-.97-1.83-1.22-2.77-1.38-.94-.17-2-.25-3.48-.99-.64-.32-.89-.19-.69.79.83,4.11,2.21,7.62,4.43,9.43,1.15.96,2.27,1.24,3.14,1.1.88-.14,1.52-.71,1.85-1.53-1.75-.46-3.18-1.53-4.09-2.51-.93-.98-1.42-1.85-1.42-1.85Z"/>
            <path class="cls-1" d="m15.65,58.99c-.62.97-1.38,1.73-2.1,2.31-.71.58-1.41.98-1.94,1.25-.15-.34-.24-.76-.27-1.22-.02-.46.02-.96.12-1.47.2-1.01.7-2.06,1.5-2.87,1.49-1.5,2.53-.9,4.73-1.8,1.24-.49.98-.24.8.57-.55,2.66-1.22,5.06-2.62,6.65-.77.86-1.57,1.29-2.28,1.36-.72.07-1.35-.23-1.75-.8,1.32-.67,2.24-1.67,2.88-2.49.63-.82.93-1.47.93-1.47Z"/>
          </g>
          <g>
            <path class="cls-1" d="m5.22,70.53c2.25,2.32,4.82,2.93,6.29,3.11.07-1.93-1.19-4.87-3.61-6.65-1.16-.86-2.02-1.01-3-1.06-.98-.05-2.07,0-3.68-.57-.69-.25-.93-.08-.6.9,1.37,4.13,3.29,7.56,5.77,9.12,2.66,1.63,4.62.61,5.03-1.12-1.86-.22-3.43-1.13-4.52-2.01-1.07-.88-1.69-1.71-1.69-1.71Z"/>
            <path class="cls-1" d="m17.13,68.89c-.26.53-.55,1.02-.87,1.46-.31.43-.63.82-.96,1.16-.65.69-1.31,1.2-1.82,1.53-.78-1.32-.81-3.97.65-5.83,1.34-1.72,2.46-1.24,4.59-2.44,1.2-.66.97-.37.89.47-.24,2.76-.57,5.27-1.81,7.08-1.3,1.95-3.04,2.18-4.03,1.12,1.26-.87,2.08-2.02,2.6-2.93.53-.92.76-1.62.76-1.62Z"/>
          </g>
          <g>
            <path class="cls-1" d="m8.12,82.12c2.64,2.05,5.34,2.29,6.88,2.24-.12-.99-.6-2.18-1.41-3.3-.78-1.13-1.9-2.2-3.25-2.94-1.32-.71-2.22-.75-3.22-.66-1,.08-2.11.28-3.82-.08-.74-.16-.96.04-.49,1.01,1.98,4.06,4.46,7.33,7.26,8.54,1.46.65,2.69.6,3.52.19.85-.42,1.32-1.19,1.41-2.12-1.92.06-3.68-.62-4.91-1.37-1.25-.74-1.98-1.5-1.98-1.5Z"/>
            <path class="cls-1" d="m19.98,78.7c-.36,1.15-.9,2.12-1.47,2.92-.56.79-1.14,1.41-1.61,1.83-1.02-1.21-1.39-3.92-.21-6,.56-.98,1.16-1.37,1.85-1.72.7-.35,1.49-.66,2.49-1.41,1.12-.83.93-.51.98.34.15,2.8.12,5.38-.82,7.37-.53,1.08-1.21,1.76-1.92,2.04-.71.29-1.44.18-2.01-.28,1.14-1.08,1.79-2.35,2.2-3.36.2-.5.33-.94.41-1.25.08-.31.11-.5.11-.5Z"/>
          </g>
          <g>
            <path class="cls-1" d="m12.95,93.58c.38.21.75.39,1.12.54.38.15.74.27,1.1.38.72.2,1.4.32,2.03.37,1.28.1,2.36-.04,3.13-.21-.3-.98-1-2.1-2.02-3.1-.49-.51-1.07-.99-1.72-1.4-.63-.42-1.32-.79-2.08-1.05-1.46-.51-2.36-.42-3.38-.17-1.01.24-2.1.62-3.91.51-.78-.05-.97.19-.33,1.12,2.7,3.89,5.83,6.85,8.91,7.58,1.62.4,2.84.12,3.61-.45.78-.58,1.11-1.46,1.02-2.41-1.93.42-3.84.04-5.22-.52-1.41-.54-2.28-1.21-2.28-1.21Z"/>
            <path class="cls-1" d="m24.38,88.07c-.18,1.21-.56,2.28-1,3.19-.42.89-.91,1.62-1.3,2.13-1.26-1.02-2.1-3.7-1.24-6,.41-1.08.95-1.57,1.59-2.04.65-.47,1.41-.91,2.3-1.82,1.03-1.02.86-.66,1.04.17.57,2.75.97,5.3.36,7.46-.35,1.18-.9,1.98-1.56,2.4-.66.42-1.43.47-2.08.11.96-1.3,1.38-2.69,1.64-3.77.12-.54.18-1,.21-1.32.03-.32.03-.51.03-.51Z"/>
          </g>
          <g>
            <path class="cls-1" d="m20.14,104.44c.87.27,1.7.41,2.46.48.76.06,1.5.02,2.14-.07,1.3-.17,2.34-.56,3.09-.91-.27-.45-.63-.93-1.09-1.38-.47-.44-1.01-.89-1.62-1.29-.63-.39-1.29-.76-2.02-1.05-.74-.29-1.51-.52-2.32-.64-1.58-.24-2.49.04-3.46.48-.97.43-2,1.02-3.85,1.24-.8.09-.95.37-.1,1.22,3.54,3.54,7.5,5.93,10.78,5.99,1.73.04,2.89-.52,3.52-1.29.63-.76.75-1.73.44-2.66-.91.43-1.89.68-2.81.76-.92.08-1.8.02-2.58-.1-1.51-.27-2.58-.76-2.58-.76Z"/>
            <path class="cls-1" d="m30.46,96.47c.03.61,0,1.21-.07,1.78-.06.56-.15,1.09-.27,1.59-.24.99-.57,1.83-.83,2.42-.37-.17-.72-.48-1.07-.85-.34-.37-.66-.82-.89-1.34-.24-.52-.44-1.07-.53-1.67-.09-.6-.1-1.22,0-1.83.19-1.15.65-1.76,1.21-2.35.57-.6,1.24-1.19,1.98-2.27.83-1.2.75-.83,1.07-.05,1.04,2.57,1.93,4.91,1.78,7.19-.08,1.22-.47,2.17-1.02,2.75-.55.58-1.29.8-2.03.61.64-1.5.8-3.01.81-4.11,0-.55-.02-1.03-.05-1.35-.03-.33-.07-.51-.07-.51Z"/>
          </g>
          <g>
            <path class="cls-1" d="m30.27,113.81c.96.03,1.84-.04,2.62-.19.8-.17,1.5-.41,2.12-.68,1.23-.54,2.15-1.27,2.76-1.83-.2-.18-.43-.36-.68-.52-.25-.17-.52-.34-.81-.49-.29-.15-.61-.29-.94-.42-.32-.14-.67-.27-1.03-.38-.73-.21-1.49-.39-2.3-.49-.82-.08-1.64-.13-2.49-.04-1.65.17-2.48.64-3.35,1.32-.87.66-1.74,1.51-3.58,2.15-.79.27-.87.59.24,1.26,1.14.71,2.33,1.31,3.46,1.83,1.17.49,2.29.92,3.4,1.19.55.14,1.08.27,1.61.34.53.08,1.05.12,1.54.14.25,0,.49.01.73,0,.24,0,.48-.03.71-.05.46-.05.9-.13,1.31-.24.87-.23,1.56-.6,2.06-1.01.5-.41.83-.88,1.01-1.35.37-.96.16-1.93-.44-2.74-.76.71-1.63,1.23-2.53,1.6-.89.35-1.79.54-2.6.63-.81.09-1.51.06-2.02.03-.51-.03-.81-.08-.81-.08Z"/>
            <path class="cls-1" d="m38.22,103.04c.34,1.19.51,2.32.55,3.36.04,1.05,0,1.94-.1,2.61-.41-.06-.86-.22-1.29-.5-.43-.27-.88-.59-1.25-1.04-.38-.44-.72-.92-.97-1.48-.24-.56-.41-1.17-.47-1.79-.09-1.19.21-1.9.62-2.63.41-.73.93-1.5,1.41-2.73.56-1.4.55-1,1.01-.36,1.53,2.15,2.91,4.09,3.39,6.32.25,1.23.19,2.23-.17,2.98-.35.74-1,1.23-1.77,1.26.09-.84.06-1.63-.03-2.34-.08-.72-.21-1.37-.36-1.9-.15-.53-.29-.97-.4-1.28-.11-.31-.19-.47-.19-.47Z"/>
          </g>
        </g>
        <g>
          <path class="cls-1" d="m167.37,10.64s.26.37.73,1.07c.24.35.54.78.88,1.28.34.51.69,1.13,1.1,1.8,1.63,2.7,3.75,6.72,5.54,11.86,1.81,5.12,3.3,11.33,4.02,18.1.71,6.76.6,14.08-.46,21.26-1.05,7.17-3.12,14.19-5.96,20.33-1.41,3.07-3.02,5.93-4.73,8.5-1.72,2.56-3.56,4.83-5.4,6.78-1.85,1.94-3.69,3.56-5.43,4.85-1.74,1.29-3.35,2.25-4.71,2.99-.69.35-1.31.66-1.85.91-.55.23-1.02.43-1.4.6-.77.29-1.19.43-1.19.43-.33.12-.53.44-.44.72.09.27.44.39.79.27h0s.43-.15,1.22-.46c.39-.17.87-.38,1.44-.62.56-.26,1.19-.58,1.9-.94,1.39-.77,3.05-1.77,4.82-3.1,1.77-1.33,3.65-3,5.53-4.99,1.87-1.99,3.73-4.31,5.46-6.93,1.73-2.62,3.33-5.52,4.75-8.64,2.84-6.24,4.89-13.33,5.91-20.57,1.04-7.24,1.1-14.61.35-21.42-.76-6.81-2.29-13.06-4.14-18.2-1.84-5.16-4-9.2-5.65-11.91-.42-.67-.77-1.29-1.12-1.81-.35-.51-.65-.94-.89-1.29-.49-.7-.75-1.07-.75-1.07-.08-.11-.21-.15-.3-.09-.09.06-.09.21-.02.32Z"/>
          <g>
            <path class="cls-1" d="m173.57,9.62c.03.66-.07,1.29-.19,1.86-.13.57-.3,1.08-.5,1.54-.39.92-.87,1.61-1.26,2.09-.59-.54-1.11-1.44-1.41-2.52-.35-1.05-.5-2.27-.29-3.51.1-.6.25-1.05.44-1.42.19-.37.43-.67.7-.97.54-.61,1.21-1.22,1.8-2.5.25-.56.49-.6.9.18.45.81.78,1.65,1.08,2.45.3.8.56,1.57.74,2.32.31,1.52.38,2.9.1,4.07-.31,1.25-.95,2.01-1.62,2.35-.68.34-1.41.27-2.03-.13.97-1.2,1.38-2.64,1.52-3.8.07-.58.09-1.09.07-1.44-.02-.35-.06-.56-.06-.56Z"/>
            <path class="cls-1" d="m165.56,15.52c1.8.68,3.55.55,4.54.37-.16-.61-.6-1.32-1.25-1.91-.31-.3-.71-.55-1.13-.75-.42-.2-.88-.34-1.36-.41-1.77-.23-2.18.71-4.1,1.25-1.09.34-.77.34-.27.8.42.37.84.71,1.27,1.04.43.32.87.61,1.27.9.83.56,1.69.96,2.58,1.14.97.19,1.71.1,2.24-.22.52-.31.84-.85.81-1.43-1.25.21-2.41,0-3.24-.23-.84-.24-1.35-.53-1.35-.53Z"/>
          </g>
          <path class="cls-1" d="m163.41,4.37c.26.23.48.5.69.77.21.26.41.53.59.8.36.54.68,1.06.93,1.58.46,1.06.74,2.02.9,2.72-.67.07-1.56-.19-2.44-.74-.22-.13-.43-.3-.66-.46-.23-.16-.45-.34-.67-.54-.44-.4-.85-.87-1.22-1.42-.75-1.02-1-1.78-1.21-2.7-.05-.22-.1-.46-.17-.71-.07-.24-.14-.48-.24-.75-.18-.54-.43-1.14-.83-1.87-.34-.62-.31-.87.41-.65.75.23,1.49.5,2.21.79.18.08.36.15.54.23.17.09.34.18.5.27.33.18.66.37.97.57.32.2.63.41.92.62.3.21.59.44.84.7.51.5.98,1.04,1.38,1.62.21.31.4.6.54.9.14.3.25.59.33.87.17.55.24,1.05.22,1.49-.04.87-.42,1.46-1.01,1.69-.21-.88-.52-1.7-.88-2.42-.09-.18-.18-.36-.27-.53-.1-.16-.2-.32-.31-.47-.21-.3-.41-.58-.61-.82-.39-.49-.75-.88-1.02-1.14-.13-.13-.24-.22-.32-.29-.08-.06-.12-.09-.12-.09Z"/>
          <g>
            <path class="cls-1" d="m178.51,18.12c-.21,1.37-.65,2.48-1.19,3.36-.55.88-1.15,1.53-1.63,1.97-.26-.33-.47-.74-.65-1.22-.2-.47-.35-1-.44-1.57-.18-1.14-.1-2.43.26-3.64.37-1.18.89-1.73,1.55-2.26.65-.54,1.43-1.05,2.26-2.27.36-.53.6-.54.87.33.28.9.53,1.78.73,2.63.17.86.28,1.69.35,2.48.06.79.08,1.53,0,2.22-.09.7-.25,1.35-.49,1.93-1.02,2.45-2.89,2.74-4.06,1.75.59-.55,1.05-1.17,1.4-1.81.18-.32.33-.64.45-.96.12-.31.21-.62.29-.9.3-1.15.31-2.03.31-2.03Z"/>
            <path class="cls-1" d="m169.41,22.97c.89.48,1.82.74,2.6.89.79.15,1.5.18,2.02.16-.03-.33-.13-.69-.29-1.07-.17-.37-.42-.73-.72-1.08-.6-.69-1.41-1.29-2.35-1.59-1.82-.5-2.36.4-4.44.65-1.16.16-.86.24-.38.77.2.22.39.43.59.64.19.22.37.43.56.63.38.41.77.79,1.17,1.14.82.68,1.6,1.25,2.48,1.57,1.89.7,3.22-.02,3.37-1.25-1.31.03-2.42-.37-3.26-.73-.84-.36-1.35-.74-1.35-.74Z"/>
          </g>
          <g>
            <path class="cls-1" d="m182.35,27.5c-.8,2.75-2.54,4.31-3.61,5.06-.46-.73-.73-1.81-.73-3-.03-1.19.16-2.49.75-3.69.57-1.17,1.18-1.65,1.91-2.09.74-.45,1.61-.87,2.61-1.99.43-.48.69-.46.86.45.04.24.09.47.13.71.03.24.06.47.08.7.05.46.1.92.13,1.37.06.9.1,1.75.05,2.56-.12,1.63-.45,3.05-1.08,4.17-.68,1.19-1.54,1.8-2.33,1.96-.8.16-1.53-.11-2.06-.7,1.34-.96,2.17-2.32,2.66-3.46.24-.57.4-1.08.5-1.45.09-.37.11-.59.11-.59Z"/>
            <path class="cls-1" d="m172.38,31.21c1.66,1.25,3.5,1.62,4.58,1.71.02-.68-.25-1.54-.74-2.34-.12-.2-.26-.39-.41-.58-.16-.18-.34-.36-.53-.53-.38-.33-.81-.62-1.28-.83-1.76-.78-2.45.07-4.6.02-1.2-.01-.91.11-.51.74.33.52.66,1.02,1.01,1.49.17.24.35.46.53.69.17.22.34.44.52.65.7.83,1.47,1.51,2.34,1.96.94.48,1.73.6,2.38.42.63-.17,1.1-.64,1.24-1.25-1.35-.14-2.49-.69-3.28-1.19-.79-.5-1.25-.96-1.25-.96Z"/>
          </g>
          <g>
            <path class="cls-1" d="m185.01,37.6c-.58,1.35-1.35,2.37-2.13,3.13-.8.76-1.6,1.27-2.21,1.59-.18-.41-.28-.89-.35-1.43-.08-.54-.09-1.13-.02-1.74.06-.61.2-1.25.41-1.87.23-.63.47-1.23.85-1.81.71-1.11,1.4-1.53,2.22-1.89.82-.37,1.77-.68,2.96-1.69.51-.44.77-.38.8.57.03.99.04,1.95.01,2.87-.05.92-.17,1.8-.32,2.62-.15.82-.35,1.58-.61,2.27-.29.69-.62,1.31-1.03,1.85-1.71,2.26-3.72,2.07-4.66.73,1.5-.81,2.59-2.11,3.19-3.21.62-1.1.87-2,.87-2Z"/>
            <path class="cls-1" d="m174.31,40.13c.79.74,1.66,1.27,2.45,1.64.78.37,1.5.59,2.04.71.06-.35.06-.75-.01-1.18-.09-.42-.24-.87-.45-1.31-.43-.88-1.09-1.73-2-2.29-1.73-1.03-2.54-.25-4.75-.58-1.24-.17-.95,0-.6.7.14.29.29.57.43.84.14.28.28.55.41.82.28.54.58,1.04.89,1.51.31.47.67.9,1.02,1.29.34.39.72.74,1.13,1.02,1.76,1.24,3.33.84,3.81-.39-.67-.16-1.28-.42-1.81-.71-.26-.15-.51-.3-.73-.46-.23-.16-.45-.31-.64-.47-.77-.61-1.19-1.14-1.19-1.14Z"/>
          </g>
          <g>
            <path class="cls-1" d="m186.47,48.27c-.19.33-.38.63-.58.91-.21.29-.43.55-.66.79-.45.49-.91.89-1.36,1.24-.9.68-1.77,1.1-2.43,1.36-.28-.87-.27-2.06.02-3.29.25-1.23.82-2.53,1.73-3.61.9-1.05,1.62-1.38,2.51-1.65.88-.27,1.89-.48,3.22-1.35.58-.38.83-.29.77.68-.05,1.01-.21,2-.37,2.93-.17.93-.37,1.82-.61,2.64-.54,1.64-1.26,3.02-2.19,4.02-.98,1.05-2.03,1.46-2.88,1.43-.86-.03-1.55-.5-1.97-1.25,1.64-.65,2.85-1.84,3.65-2.9.4-.52.71-1.01.88-1.36.18-.35.27-.58.27-.58Z"/>
            <path class="cls-1" d="m175.22,49.53c1.41,1.73,3.2,2.58,4.29,2.96.19-.7.15-1.65-.15-2.61-.32-.96-.94-1.9-1.8-2.59-1.61-1.27-2.54-.58-4.74-1.2-1.26-.33-.96-.12-.72.64.39,1.25.88,2.43,1.4,3.48.5,1.05,1.12,1.95,1.9,2.64.85.74,1.68,1.06,2.37,1.04.71-.02,1.27-.38,1.58-.98-1.35-.5-2.38-1.35-3.07-2.07-.34-.36-.6-.69-.78-.93-.18-.25-.27-.39-.27-.39Z"/>
          </g>
          <g>
            <path class="cls-1" d="m186.66,59.39c-.95,1.25-2.01,2.11-3.01,2.69-1.02.59-1.96.91-2.66,1.09-.3-1.85.53-4.85,2.65-6.84,1.01-.97,1.83-1.22,2.77-1.38.94-.17,1.99-.25,3.48-.99.64-.32.89-.19.69.79-.83,4.11-2.21,7.62-4.43,9.43-1.15.96-2.27,1.24-3.14,1.1-.88-.14-1.52-.71-1.85-1.53,1.75-.46,3.18-1.53,4.09-2.51.93-.98,1.42-1.85,1.42-1.85Z"/>
            <path class="cls-1" d="m174.98,59.29c.62.97,1.38,1.73,2.1,2.31.71.58,1.41.98,1.94,1.25.15-.34.24-.76.27-1.22.02-.46-.02-.96-.12-1.47-.2-1.01-.7-2.06-1.5-2.87-1.49-1.5-2.53-.9-4.73-1.8-1.24-.49-.98-.24-.8.57.55,2.66,1.22,5.06,2.62,6.65.77.86,1.57,1.29,2.28,1.36.72.07,1.35-.23,1.75-.8-1.33-.67-2.24-1.67-2.88-2.49-.63-.82-.93-1.47-.93-1.47Z"/>
          </g>
          <g>
            <path class="cls-1" d="m185.41,70.84c-2.25,2.32-4.82,2.93-6.29,3.11-.07-1.93,1.19-4.87,3.61-6.65,1.16-.86,2.02-1.01,3-1.06.98-.05,2.07,0,3.68-.57.69-.25.93-.08.6.9-1.37,4.13-3.29,7.56-5.77,9.12-2.66,1.63-4.62.61-5.03-1.12,1.86-.22,3.42-1.13,4.52-2.01,1.07-.88,1.69-1.71,1.69-1.71Z"/>
            <path class="cls-1" d="m173.51,69.19c.26.53.55,1.02.87,1.46.31.43.63.82.96,1.16.65.69,1.31,1.2,1.82,1.53.78-1.32.81-3.97-.65-5.83-1.33-1.72-2.46-1.24-4.59-2.44-1.2-.66-.97-.37-.89.47.24,2.76.57,5.27,1.81,7.08,1.29,1.95,3.04,2.18,4.04,1.12-1.26-.87-2.09-2.02-2.6-2.93-.53-.92-.76-1.62-.76-1.62Z"/>
          </g>
          <g>
            <path class="cls-1" d="m182.52,82.43c-2.64,2.05-5.34,2.29-6.88,2.24.12-.99.6-2.18,1.41-3.3.78-1.13,1.9-2.2,3.25-2.94,1.32-.71,2.22-.75,3.22-.66,1,.08,2.11.28,3.82-.08.74-.16.96.04.49,1.01-1.98,4.06-4.46,7.33-7.26,8.54-1.46.65-2.69.6-3.52.19-.85-.42-1.32-1.19-1.41-2.12,1.92.06,3.68-.62,4.9-1.37,1.25-.74,1.98-1.5,1.98-1.5Z"/>
            <path class="cls-1" d="m170.66,79.01c.36,1.15.9,2.12,1.48,2.92.56.79,1.14,1.41,1.6,1.83,1.03-1.21,1.39-3.92.21-6-.56-.98-1.16-1.37-1.85-1.72-.7-.35-1.5-.66-2.49-1.41-1.12-.83-.93-.51-.98.34-.15,2.8-.12,5.38.82,7.37.53,1.08,1.21,1.76,1.92,2.04.71.29,1.44.18,2.01-.28-1.14-1.08-1.79-2.35-2.2-3.36-.2-.5-.33-.94-.41-1.25-.08-.31-.11-.5-.11-.5Z"/>
          </g>
          <g>
            <path class="cls-1" d="m177.68,93.89c-.38.21-.75.39-1.12.54-.38.15-.74.27-1.1.38-.72.21-1.4.32-2.03.37-1.28.1-2.36-.04-3.13-.21.3-.98,1-2.1,2.02-3.1.49-.51,1.07-.99,1.72-1.4.63-.42,1.32-.79,2.08-1.05,1.46-.51,2.36-.42,3.38-.17,1.01.24,2.1.62,3.91.51.78-.05.97.19.33,1.12-2.7,3.89-5.83,6.85-8.91,7.58-1.61.4-2.84.12-3.61-.45-.78-.58-1.11-1.46-1.02-2.41,1.93.42,3.84.04,5.22-.52,1.41-.54,2.28-1.21,2.28-1.21Z"/>
            <path class="cls-1" d="m166.25,88.38c.18,1.21.56,2.28,1,3.19.42.89.91,1.62,1.3,2.13,1.26-1.02,2.1-3.7,1.24-6-.41-1.08-.95-1.57-1.59-2.04-.65-.47-1.41-.91-2.3-1.82-1.03-1.02-.86-.66-1.04.17-.57,2.75-.97,5.3-.36,7.46.35,1.18.9,1.98,1.56,2.4.66.42,1.43.47,2.08.11-.96-1.3-1.38-2.69-1.64-3.77-.12-.54-.18-1-.21-1.32-.03-.32-.03-.51-.03-.51Z"/>
          </g>
          <g>
            <path class="cls-1" d="m170.49,104.75c-.87.27-1.7.41-2.46.48-.76.06-1.5.02-2.14-.07-1.3-.17-2.34-.56-3.08-.91.27-.45.62-.93,1.09-1.38.47-.44,1.01-.89,1.62-1.29.63-.39,1.29-.76,2.02-1.05.74-.29,1.51-.52,2.32-.64,1.58-.24,2.49.04,3.46.48.97.43,2,1.02,3.85,1.24.8.09.95.37.11,1.22-3.54,3.54-7.5,5.93-10.79,5.99-1.73.04-2.89-.52-3.52-1.29-.63-.76-.75-1.73-.44-2.66.91.43,1.89.68,2.81.76.92.08,1.8.02,2.58-.1,1.52-.27,2.58-.76,2.58-.76Z"/>
            <path class="cls-1" d="m160.17,96.78c-.03.61,0,1.21.07,1.78.06.56.15,1.09.27,1.59.24.99.57,1.83.83,2.42.38-.17.72-.48,1.07-.85.34-.37.66-.82.89-1.34.24-.52.44-1.07.53-1.67.09-.6.1-1.22,0-1.83-.19-1.15-.66-1.76-1.21-2.35-.56-.6-1.24-1.19-1.98-2.27-.83-1.2-.75-.83-1.07-.05-1.04,2.57-1.94,4.91-1.78,7.19.08,1.22.47,2.17,1.02,2.75.56.58,1.29.8,2.03.61-.64-1.5-.8-3.01-.81-4.11,0-.55.02-1.03.05-1.35.03-.33.07-.51.07-.51Z"/>
          </g>
          <g>
            <path class="cls-1" d="m160.36,114.11c-.96.03-1.83-.04-2.62-.19-.8-.17-1.5-.41-2.12-.68-1.23-.54-2.15-1.27-2.76-1.83.2-.18.43-.36.68-.52.25-.17.52-.34.81-.49.29-.15.61-.29.94-.42.33-.14.67-.27,1.03-.38.73-.21,1.49-.39,2.3-.49.82-.08,1.64-.13,2.49-.04,1.65.17,2.48.64,3.35,1.32.87.66,1.74,1.51,3.58,2.15.79.27.87.59-.24,1.26-1.14.71-2.33,1.31-3.46,1.83-1.17.49-2.28.92-3.4,1.19-.56.14-1.08.27-1.61.34-.53.08-1.05.12-1.54.14-.25,0-.49.01-.73,0-.24,0-.48-.03-.71-.05-.46-.05-.9-.13-1.31-.24-.87-.23-1.56-.6-2.06-1.01-.5-.41-.83-.88-1.01-1.35-.37-.96-.16-1.93.44-2.74.76.71,1.63,1.23,2.53,1.6.89.35,1.79.54,2.6.63.81.09,1.51.06,2.02.03.51-.03.81-.08.81-.08Z"/>
            <path class="cls-1" d="m152.41,103.35c-.34,1.19-.51,2.32-.55,3.36-.04,1.05,0,1.94.1,2.61.41-.06.86-.22,1.29-.5.43-.27.88-.59,1.25-1.04.38-.44.72-.92.97-1.48.24-.56.41-1.17.47-1.79.09-1.19-.21-1.9-.62-2.63-.41-.73-.93-1.5-1.41-2.73-.56-1.4-.55-1-1.02-.36-1.53,2.15-2.91,4.09-3.39,6.32-.25,1.23-.19,2.23.17,2.98.35.74,1,1.23,1.77,1.26-.09-.84-.06-1.63.03-2.34.08-.72.21-1.37.36-1.9.15-.53.29-.97.4-1.28.11-.31.19-.47.19-.47Z"/>
          </g>
        </g>
      </g>
      <g>
        <path class="cls-1" d="m70.36,30.82c-1.77,0-3.25-.09-4.44-.26-1.19-.17-2.18-.44-2.95-.8s-1.43-.8-1.96-1.34c-.3.23-.68.5-1.14.79-.46.29-.92.58-1.39.86-.47.28-.88.52-1.23.73l-1.15-2.83c.28-.1.64-.24,1.07-.42.43-.18.86-.38,1.29-.59s.76-.4,1.01-.56v-6.33h-2.88v-2.6h5.6v8.55c.32.82,1.12,1.39,2.43,1.71,1.3.32,3.21.49,5.73.49,2.13,0,3.97-.03,5.5-.1,1.53-.07,2.77-.17,3.72-.3-.08.18-.17.46-.27.84s-.18.76-.25,1.15c-.07.39-.11.71-.12.96-.47,0-1.07,0-1.82.01s-1.55.02-2.39.02c-.84,0-1.65.01-2.41.01h-1.95Zm-.85-3.17v-1.6h-6.08v-2.12h6.08v-1h-5.43v-7.5h5.43v-1.05h-4.33v-.67h-2.38v-1.1c-.18.13-.41.32-.67.56-.27.24-.52.48-.77.73-.25.24-.44.45-.58.61-.27-.37-.63-.8-1.09-1.3-.46-.5-.93-.99-1.43-1.46s-.93-.85-1.31-1.14l1.98-1.85c.37.25.79.59,1.27,1.03s.96.88,1.44,1.35c.48.47.86.88,1.16,1.25v-3.4h15.75v4.73h-2.38v.67h-4v1.05h5.48v7.5h-5.48v1h6.58v2.12h-6.58v1.6h-2.67Zm-4.1-15.28h4.1v-1.3h-4.1v1.3Zm1.33,5.98h2.77v-1.07h-2.77v1.07Zm0,2.73h2.77v-1.12h-2.77v1.12Zm5.45-8.7h3.75v-1.3h-3.75v1.3Zm0,5.98h2.85v-1.07h-2.85v1.07Zm0,2.73h2.85v-1.12h-2.85v1.12Z"/>
        <path class="cls-1" d="m87.01,17.72v-5.4h4.2c-.27-.47-.57-.93-.92-1.4-.35-.47-.67-.85-.95-1.15l2.33-1.33c.28.3.59.65.91,1.06.32.41.63.81.91,1.21.28.4.5.75.65,1.05l-.98.55h3.8c-.25-.53-.56-1.1-.92-1.7-.37-.6-.73-1.1-1.1-1.5l2.43-1.12c.23.27.51.63.82,1.09.32.46.62.92.9,1.38s.49.84.62,1.14l-1.45.73h3.02c.25-.43.51-.91.79-1.42s.53-1.02.77-1.5c.24-.48.42-.88.54-1.2l2.85.75c-.22.47-.48,1-.8,1.61-.32.61-.64,1.2-.98,1.76h4.35v5.4h-2.98v-3.02h-15.9v3.02h-2.92Zm2.3,13.27v-7.2h6.23c.08-.23.17-.49.25-.76.08-.27.16-.54.23-.79h-4.73v-6.22h13.2v6.22h-5.05c-.08.25-.17.51-.26.79-.09.27-.18.53-.26.76h7.58v7.2h-17.18Zm2.98-2.42h11.23v-2.35h-11.23v2.35Zm1.88-8.48h7.48v-1.9h-7.48v1.9Z"/>
        <path class="cls-1" d="m118.13,31.07c-.37-.23-.8-.47-1.29-.71-.49-.24-.91-.4-1.26-.49.53-.87.97-1.82,1.31-2.88.34-1.05.6-2.32.78-3.81.17-1.49.26-3.31.26-5.46v-8.45h21.05v2.45h-18.33v6.99c0,.32,0,.65-.02.96.53-.47,1.05-.99,1.55-1.56.5-.58.94-1.13,1.33-1.66h-2.1v-2.08h2.77v-2h2.52v2h2.45v2.08h-2.1c.42.35.91.72,1.48,1.11.57.39,1.07.71,1.5.96.33-.33.65-.68.94-1.05.29-.37.55-.71.79-1.02h-1.75v-2.08h2.48v-2h2.52v2h3.48v2.08h-2.62c.33.37.73.76,1.19,1.17.46.42.93.82,1.41,1.2.48.38.94.72,1.38,1-.27.22-.58.52-.94.9-.36.38-.63.7-.81.95-.45-.33-.95-.75-1.5-1.25-.55-.5-1.07-1.05-1.57-1.65v3.12h-2.52v-2.78c-.42.52-.85,1.02-1.3,1.51-.45.49-.9.93-1.35,1.31h1.62v1.92h5.7v2.38h-5.7v1.78h7.55v2.42h-18.4v-2.42h3.02v-5.1h2.85v5.1h2.12v-6.08h1.02c-.22-.25-.48-.52-.79-.8-.31-.28-.61-.51-.91-.68.08-.07.16-.12.24-.17.07-.05.15-.11.21-.18-.53-.43-1.09-.9-1.68-1.4v3.18h-2.52v-2.73c-.82,1.05-1.67,1.95-2.55,2.7-.28-.35-.62-.69-1.02-1.02-.07,1.5-.2,2.83-.39,4-.19,1.17-.46,2.25-.8,3.24-.34.99-.77,1.99-1.29,2.99Z"/>
      </g>
    </g>
  </g>
</svg>