<?xml version="1.0" encoding="UTF-8"?>
<svg id="Layer_2" data-name="Layer 2" xmlns="http://www.w3.org/2000/svg" viewBox="0 0 219.5 91.69">
  <defs>
    <style>
      .cls-1 {
        fill: #fff;
        stroke-width: 0px;
      }
    </style>
  </defs>
  <g id="Layer_1-2" data-name="Layer 1">
    <g>
      <g>
        <path class="cls-1" d="m152.08,18.99c-.77-.11-1.52-.16-2.25-.32-3.29-.71-5.97-3.65-6.31-7-.18-1.8-.27-3.63.18-5.42.93-3.63,4.23-6.22,7.98-6.24,3.79-.02,7.58-.02,11.36,0,4.13.02,7.69,3.17,8.13,7.27.2,1.87.28,3.77-.25,5.63-.94,3.28-3.93,5.74-7.32,5.95-1.51.09-3.02.03-4.54.06-.18,0-.39.07-.54.18-1.69,1.25-3.36,2.5-5.04,3.76-.31.24-.65.39-1.04.3-.6-.12-.99-.69-.89-1.31.17-.96.35-1.93.52-2.87Zm1.56,1.5c.15-.11.25-.18.35-.25,1.03-.77,2.05-1.54,3.08-2.3,1.37-1.01.78-.8,2.47-.82,1.39-.02,2.78.04,4.16-.07,2.78-.22,5.27-2.57,5.64-5.34.16-1.25.16-2.54.08-3.81-.2-3.39-3.01-6.04-6.39-6.06-3.83-.03-7.66-.03-11.49,0-3.05.03-5.8,2.41-6.2,5.42-.17,1.24-.15,2.52-.08,3.78.17,2.82,2.12,5.13,4.85,5.86.98.27,1.98.21,2.98.22.69,0,1.08.47.95,1.15-.13.72-.26,1.45-.4,2.23Z"/>
        <path class="cls-1" d="m150.63,9.45c0-.81.64-1.44,1.45-1.43.8,0,1.44.65,1.44,1.45,0,.8-.66,1.44-1.46,1.44-.8,0-1.44-.66-1.43-1.46Z"/>
        <path class="cls-1" d="m162.61,8.01c.81,0,1.45.63,1.45,1.44,0,.81-.64,1.45-1.44,1.45-.8,0-1.45-.65-1.45-1.45,0-.8.64-1.45,1.45-1.45Z"/>
        <path class="cls-1" d="m155.9,9.46c0-.81.64-1.44,1.45-1.44.81,0,1.44.64,1.44,1.44,0,.8-.64,1.45-1.45,1.45-.8,0-1.44-.65-1.44-1.45Z"/>
      </g>
      <g>
        <path class="cls-1" d="m186.43,41.08v-19.6c-.44.69-.89,1.34-1.35,1.95-.46.61-.89,1.15-1.31,1.62-.39-.44-.97-.93-1.74-1.45-.77-.52-1.48-.93-2.11-1.2,1-1.08,2-2.41,3.03-4,1.02-1.59,2-3.29,2.92-5.12s1.73-3.61,2.42-5.37c.69-1.75,1.19-3.31,1.49-4.66l4.68,1.2c-.36,1.27-.82,2.64-1.39,4.1-.57,1.46-1.21,2.94-1.93,4.44v28.1h-4.73Zm17.86,0v-13.47h-11.4v-4.77h11.4v-6.92h-5.22c-.44,1.02-.91,2-1.41,2.94-.5.94-1.01,1.81-1.53,2.61-.61-.39-1.34-.77-2.2-1.14s-1.64-.64-2.36-.81c.8-1.16,1.59-2.55,2.36-4.17.77-1.62,1.45-3.29,2.03-5.02.58-1.73,1-3.32,1.24-4.79l4.81,1.12c-.17.77-.35,1.54-.56,2.3-.21.76-.42,1.53-.64,2.3h3.48V3.7h5.1v7.58h8.7v4.64h-8.7v6.92h10.11v4.77h-10.11v13.47h-5.1Z"/>
        <path class="cls-1" d="m183.98,90.24c-.47-.33-1.12-.68-1.95-1.04-.83-.36-1.52-.61-2.07-.75.58-.86,1.09-1.9,1.53-3.13.44-1.23.82-2.55,1.14-3.98.32-1.42.55-2.85.71-4.27.15-1.42.23-2.77.23-4.04l4.35.37c0,.8-.03,1.6-.08,2.4-.06.8-.12,1.6-.21,2.4.3.61.64,1.17,1,1.7.36.52.75,1.01,1.16,1.45v-11.27h-7.63v-4.06h7.17v-4.14h-6.17v-3.94h6.17v-4.77h4.68v4.77h4.89v3.94h-4.89v4.14l6.05-.04v.46c1.38-.91,2.51-2.07,3.4-3.46.88-1.39,1.48-2.85,1.78-4.37h-5.51v-3.9h18.49c-.03,1.05-.11,2.26-.25,3.63-.14,1.37-.3,2.69-.48,3.98-.18,1.29-.39,2.36-.64,3.21-.39,1.44-1.01,2.4-1.86,2.88-.86.48-1.98.73-3.36.73h-2.32c-.06-.61-.17-1.35-.35-2.22-.18-.87-.38-1.55-.6-2.05h1.74c.77,0,1.34-.1,1.7-.29.36-.19.62-.55.79-1.08.22-.64.39-1.38.52-2.24.12-.86.21-1.74.27-2.65h-3.48c-.25,1.58-.73,3.09-1.45,4.56-.72,1.46-1.58,2.81-2.59,4.04-1.01,1.23-2.11,2.26-3.29,3.09-.28-.33-.65-.72-1.12-1.18s-.93-.86-1.37-1.22v2.2h-5.76v4.1h5.51v4.35h-5.51v5.89c2.38.88,5.6,1.33,9.66,1.33,3.54,0,6.58-.06,9.12-.19s4.6-.3,6.18-.52c-.11.3-.25.77-.41,1.41-.17.64-.31,1.29-.44,1.95s-.2,1.22-.23,1.66c-.77,0-1.78,0-3.03.02-1.24.01-2.56.02-3.96.02h-7.23c-4.2,0-7.69-.56-10.46-1.68-2.78-1.12-5.05-2.84-6.82-5.16-.3,1.27-.68,2.49-1.12,3.65-.44,1.16-.97,2.27-1.58,3.32Zm17.33-6.63v-13.01h16.04v13.01h-16.04Zm4.39-3.85h7.29v-5.31h-7.29v5.31Z"/>
      </g>
      <g>
        <path class="cls-1" d="m52.21,18.79l-1.62-1.25c.02-.2.03-.57.05-1.12.02-.55.03-1.21.04-1.98,0-.77.01-1.6.01-2.49v-2.64c0-.97,0-1.88-.01-2.74,0-.86-.02-1.61-.04-2.25s-.03-1.1-.05-1.39h3.2c-.03.3-.06.78-.08,1.45-.02.67-.03,1.42-.04,2.25,0,.83-.01,1.67-.01,2.52v5.7c1.15-.43,2.38-.95,3.67-1.56s2.58-1.27,3.84-1.98c1.26-.71,2.41-1.42,3.46-2.14,1.05-.72,1.91-1.4,2.58-2.05.02.28.06.66.12,1.14.07.47.15.94.24,1.39.09.45.17.79.24,1.02-.67.55-1.47,1.13-2.41,1.74s-1.97,1.22-3.09,1.84c-1.12.62-2.26,1.21-3.44,1.79-1.17.57-2.33,1.1-3.47,1.56-1.14.47-2.2.86-3.19,1.17Z"/>
        <path class="cls-1" d="m79.58,19.82c-1.33,0-2.38-.09-3.15-.26-.77-.18-1.31-.5-1.62-.96-.32-.47-.48-1.15-.48-2.05V1.77h3.1c-.02.4-.04.96-.06,1.69-.03.73-.04,1.54-.05,2.45,0,.91-.01,1.84-.01,2.79,1-.32,2.06-.67,3.19-1.07s2.21-.81,3.25-1.23c1.04-.42,1.92-.81,2.64-1.17l1.65,2.8c-.7.3-1.5.6-2.39.91-.89.31-1.83.61-2.81.91-.98.3-1.95.59-2.9.86-.95.27-1.83.53-2.62.76v3.9c0,.38.04.67.14.86.09.19.28.32.56.39.28.07.7.1,1.25.1.72,0,1.53-.02,2.43-.05.9-.03,1.82-.08,2.77-.14s1.86-.13,2.73-.21c.87-.08,1.62-.17,2.25-.27-.08.3-.15.66-.21,1.09-.06.43-.1.84-.12,1.25-.03.41-.04.73-.04.96-.88.08-1.88.16-3,.24-1.12.08-2.24.13-3.38.17-1.13.04-2.17.06-3.1.06Zm9.7-13.75c-.3-.53-.7-1.11-1.2-1.72s-.95-1.11-1.35-1.48l1.42-1.02c.23.22.52.52.86.91.34.39.67.8,1,1.21s.57.77.74,1.05l-1.47,1.05Zm2.33-1.8c-.2-.35-.45-.72-.75-1.11s-.61-.77-.94-1.14c-.33-.37-.62-.67-.89-.9l1.4-1.05c.25.22.54.52.89.91.34.39.68.79,1,1.2.33.41.58.75.76,1.04l-1.47,1.05Z"/>
        <path class="cls-1" d="m96.54,18.12v-2.35c.25.02.66.03,1.22.04s1.23.02,1.98.02c.75,0,1.54.01,2.38.01h3.4l.58-4.53c-.52.02-1.11.03-1.79.05-.68.02-1.34.03-1.99.05-.65.02-1.23.03-1.74.05s-.86.03-1.06.05l-.15-2.42c.25.02.7.03,1.36.04.66,0,1.41,0,2.25,0,.84,0,1.67-.02,2.5-.04s1.55-.04,2.17-.06c.62-.03,1.04-.05,1.24-.06l-.85,6.85c.97,0,1.83,0,2.6-.01s1.28-.02,1.55-.04v2.35c-.28-.03-.82-.05-1.62-.06-.8,0-1.73-.02-2.8-.02s-2.14-.01-3.22-.01h-2.21c-.83,0-1.64,0-2.44.01s-1.5.02-2.11.04c-.61.02-1.02.03-1.24.05Z"/>
        <path class="cls-1" d="m117.41,12.39c.02-.23.03-.55.03-.95v-1.2c0-.4,0-.72-.03-.95.32.02.88.03,1.69.05s1.78.03,2.9.05,2.33.03,3.61.04c1.28,0,2.57.01,3.85.01s2.5,0,3.64-.02c1.14-.02,2.13-.03,2.96-.05.83-.02,1.42-.04,1.77-.08-.02.22-.03.52-.04.93,0,.4,0,.8,0,1.21,0,.41.01.72.01.94-.42-.02-1.03-.03-1.84-.05-.81-.02-1.75-.03-2.83-.05s-2.22-.02-3.42-.02h-3.66c-1.23,0-2.41,0-3.53.02-1.12.02-2.12.03-3.01.05-.89.02-1.6.04-2.11.08Z"/>
      </g>
      <g>
        <path class="cls-1" d="m47.4,86.73v3.84H0v-3.84l18.96-2.28c.12-7.2.24-14.28.24-21.36V13.89L1.2,15.93v-4.32l25.92-6.72,1.8,1.44-.48,18.6v38.16c0,7.08.12,14.16.24,21.36l18.72,2.28Z"/>
        <path class="cls-1" d="m82.08,62.49c0,21.36-8.64,29.2-17.68,29.2s-17.84-7.84-17.84-29.2,8.72-29.44,17.84-29.44,17.68,8,17.68,29.44Zm-17.68,26c5.6,0,11.04-5.76,11.04-26s-5.44-26.16-11.04-26.16-11.12,5.6-11.12,26.16,5.36,26,11.12,26Z"/>
        <path class="cls-1" d="m126,62.49c0,21.36-8.64,29.2-17.68,29.2s-17.84-7.84-17.84-29.2,8.72-29.44,17.84-29.44,17.68,8,17.68,29.44Zm-17.68,26c5.6,0,11.04-5.76,11.04-26s-5.44-26.16-11.04-26.16-11.12,5.6-11.12,26.16,5.36,26,11.12,26Z"/>
        <path class="cls-1" d="m169.92,62.49c0,21.36-8.64,29.2-17.68,29.2s-17.84-7.84-17.84-29.2,8.72-29.44,17.84-29.44,17.68,8,17.68,29.44Zm-17.68,26c5.6,0,11.04-5.76,11.04-26s-5.44-26.16-11.04-26.16-11.12,5.6-11.12,26.16,5.36,26,11.12,26Z"/>
      </g>
    </g>
  </g>
</svg>