<?xml version="1.0" encoding="UTF-8"?>
<svg id="Layer_2" data-name="Layer 2" xmlns="http://www.w3.org/2000/svg" viewBox="0 0 173.23 104.17">
  <defs>
    <style>
      .cls-1 {
        fill: #fff;
        stroke-width: 0px;
      }
    </style>
  </defs>
  <g id="Layer_1-2" data-name="Layer 1">
    <g>
      <g>
        <path class="cls-1" d="m107.14,50.83h-11.8v22h-7.5v-22h-30.1v-4.6L90.13,1.53h5.2v43.7h11.8v5.6Zm-19.3-5.6V10.93l-24.7,34.3h24.7Z"/>
        <path class="cls-1" d="m109.73,68.93c0-2.8,2.1-5.1,5.1-5.1s5.2,2.3,5.2,5.1-2.2,5.1-5.2,5.1-5.1-2.4-5.1-5.1Z"/>
        <path class="cls-1" d="m173.23,50.83h-11.8v22h-7.5v-22h-30.1v-4.6L156.23,1.53h5.2v43.7h11.8v5.6Zm-19.3-5.6V10.93l-24.7,34.3h24.7Z"/>
      </g>
      <g>
        <path class="cls-1" d="m9.88,22.62v-8.35H.03l-.03-2.78h9.88V3.58H1.08V.78h20.55l.03,2.8h-8.65v7.92h9.7v2.78h-9.7v8.35h-3.12Zm-4-11.6c-.15-.37-.35-.8-.59-1.31-.24-.51-.51-1.03-.8-1.58-.29-.54-.58-1.05-.88-1.54-.29-.48-.56-.88-.81-1.17l2.6-1.33c.23.3.5.68.79,1.15.29.47.6.97.91,1.5.32.53.61,1.05.88,1.56.27.51.47.94.62,1.29-.38.13-.84.35-1.38.64-.53.29-.98.55-1.35.79Zm11.03-.05c-.23-.15-.52-.32-.86-.5-.34-.18-.67-.35-1-.51s-.59-.28-.79-.36c.33-.43.71-.99,1.14-1.66s.83-1.36,1.21-2.05c.38-.69.67-1.29.88-1.79l2.8,1.25c-.17.38-.4.84-.69,1.36-.29.52-.6,1.06-.94,1.6-.33.54-.65,1.05-.96,1.51s-.57.85-.79,1.15Z"/>
        <path class="cls-1" d="m39.65,22.42c-.03-.42-.12-.91-.25-1.49-.13-.58-.28-1.04-.42-1.39h2.62c.45,0,.82-.06,1.11-.19.29-.12.53-.37.7-.72s.32-.9.44-1.61c.13-.82.23-2.05.3-3.69s.1-3.54.1-5.69v-1.25h-7.07c-.37.82-.77,1.61-1.21,2.38s-.9,1.47-1.39,2.1c-.22-.17-.48-.34-.8-.53-.32-.18-.63-.35-.94-.51s-.56-.26-.76-.31c.13-.17.26-.33.39-.5.12-.17.25-.34.36-.53h-2.02v5.9c.58-.18,1.14-.36,1.66-.54s.97-.34,1.34-.49v2.78c-.53.22-1.16.46-1.89.72-.73.27-1.48.53-2.28.8s-1.55.52-2.27.75c-.73.23-1.35.42-1.89.58l-.83-2.95c.38-.08.87-.2,1.46-.35.59-.15,1.22-.31,1.89-.48v-6.72h-3.07v-2.75h3.07V.53h2.8v5.22h2.55v1.9c.47-.8.9-1.65,1.3-2.55.4-.9.75-1.79,1.04-2.67.29-.88.51-1.69.66-2.42l2.83.55c-.25,1.1-.58,2.19-.98,3.28h8.83v3.83c0,2.05-.04,3.9-.11,5.54s-.17,3.03-.29,4.16c-.13,1.32-.41,2.35-.82,3.09-.42.74-.97,1.26-1.66,1.55s-1.52.44-2.49.44h-2Zm-5.1-3.55l-.93-2.53c.92-.25,1.93-.56,3.05-.94,1.12-.38,2.22-.78,3.32-1.21,1.1-.43,2.07-.83,2.9-1.2-.02.3-.03.73-.03,1.29s0,1.03.03,1.41c-.8.37-1.68.75-2.65,1.15-.97.4-1.94.78-2.92,1.12-.98.35-1.91.65-2.77.9Zm6.07-5.58c-.4-.33-.88-.68-1.45-1.05-.57-.37-1.14-.71-1.71-1.03-.58-.32-1.1-.57-1.59-.77l1.35-2.15c.53.2,1.09.46,1.67.78.58.32,1.15.65,1.7.99s1.02.66,1.42.96c-.22.3-.46.67-.74,1.11-.28.44-.5.83-.66,1.16Z"/>
      </g>
      <g>
        <path class="cls-1" d="m.08,99.32l6.58-17.5h2.88l6.57,17.5h-3.67l-1.17-3.48h-6.42l-1.17,3.48H.08Zm5.8-6.48h4.35l-2.15-6.35-2.2,6.35Z"/>
        <path class="cls-1" d="m18.01,104.17v-16.9h2.72l.15,1.12c.85-.95,1.9-1.42,3.15-1.42,1.13,0,2.14.25,3.03.74.88.49,1.58,1.21,2.09,2.15.51.94.76,2.09.76,3.44s-.25,2.47-.76,3.41c-.51.94-1.21,1.66-2.09,2.15-.88.49-1.89.74-3.03.74s-2.04-.38-2.88-1.12v5.7h-3.15Zm5.9-7.43c.8,0,1.47-.29,2.01-.89s.81-1.45.81-2.56-.27-2-.81-2.59-1.21-.89-2.01-.89-1.47.29-2,.89-.8,1.46-.8,2.59.27,1.97.8,2.56,1.2.89,2,.89Z"/>
        <path class="cls-1" d="m32.43,104.17v-16.9h2.72l.15,1.12c.85-.95,1.9-1.42,3.15-1.42,1.13,0,2.14.25,3.03.74.88.49,1.58,1.21,2.09,2.15.51.94.76,2.09.76,3.44s-.25,2.47-.76,3.41c-.51.94-1.21,1.66-2.09,2.15-.88.49-1.89.74-3.03.74s-2.04-.38-2.88-1.12v5.7h-3.15Zm5.9-7.43c.8,0,1.47-.29,2.01-.89s.81-1.45.81-2.56-.27-2-.81-2.59-1.21-.89-2.01-.89-1.47.29-2,.89-.8,1.46-.8,2.59.27,1.97.8,2.56,1.2.89,2,.89Z"/>
        <path class="cls-1" d="m60.83,99.7c-1.5,0-2.88-.33-4.14-.99-1.26-.66-2.25-1.78-2.99-3.36l2.73-1.5c.48.87,1.07,1.54,1.75,2.02.68.48,1.61.73,2.77.73s1.92-.2,2.3-.59c.38-.39.58-.91.58-1.56,0-.42-.1-.78-.29-1.08-.19-.3-.61-.59-1.25-.86-.64-.28-1.63-.57-2.96-.89-1.62-.38-2.81-1-3.58-1.85s-1.15-1.91-1.15-3.17c0-1.05.25-1.97.75-2.75.5-.78,1.2-1.4,2.11-1.84s1.98-.66,3.21-.66c1.13,0,2.13.17,3,.52.87.35,1.6.81,2.21,1.38.61.57,1.09,1.18,1.44,1.85l-2.58,1.92c-.25-.4-.55-.79-.91-1.19-.36-.39-.8-.72-1.31-.99s-1.15-.4-1.9-.4-1.42.16-1.91.49c-.49.33-.74.83-.74,1.51,0,.27.07.54.21.81.14.27.48.54,1,.81.53.27,1.36.54,2.51.82,1.95.47,3.36,1.16,4.24,2.09.88.92,1.31,2.06,1.31,3.41,0,1.72-.58,3.03-1.74,3.94s-2.72,1.36-4.69,1.36Z"/>
        <path class="cls-1" d="m75.03,99.6c-.8,0-1.48-.09-2.04-.26-.56-.17-.98-.5-1.28-.99s-.44-1.17-.44-2.05v-6.33h-2.25v-2.7h2.25v-4.17h3.12v4.17h3.25v2.7h-3.25v5.5c0,.52.13.87.39,1.05.26.18.63.28,1.11.28.33,0,.66-.05.99-.16.33-.11.58-.21.76-.31v2.85c-.32.13-.71.24-1.19.31-.47.07-.95.11-1.44.11Z"/>
        <path class="cls-1" d="m85.23,99.6c-1.12,0-2.12-.26-3.01-.77-.89-.52-1.59-1.25-2.1-2.2-.51-.95-.76-2.06-.76-3.32s.25-2.4.76-3.34c.51-.94,1.21-1.67,2.1-2.2.89-.53,1.9-.79,3.01-.79s2.14.26,3.02.79c.88.52,1.58,1.26,2.09,2.2.51.94.76,2.05.76,3.34s-.25,2.38-.76,3.32c-.51.95-1.2,1.68-2.09,2.2-.88.52-1.89.77-3.02.77Zm0-2.85c.8,0,1.45-.29,1.96-.89.51-.59.76-1.45.76-2.56s-.25-2-.76-2.59c-.51-.59-1.16-.89-1.96-.89s-1.45.29-1.94.89c-.49.59-.74,1.46-.74,2.59s.25,1.97.74,2.56c.49.59,1.14.89,1.94.89Z"/>
        <path class="cls-1" d="m93.66,99.32v-12.05h2.83l.2,1.62c.3-.58.76-1.05,1.38-1.4.62-.35,1.27-.52,1.95-.52.28,0,.54.02.78.06s.43.09.6.14v3.05c-.25-.08-.52-.15-.8-.19s-.63-.06-1.05-.06c-.77,0-1.41.25-1.94.74-.53.49-.79,1.21-.79,2.16v6.45h-3.15Z"/>
        <path class="cls-1" d="m108.81,99.6c-1.77,0-3.2-.52-4.3-1.56-1.1-1.04-1.65-2.62-1.65-4.74,0-1.32.25-2.45.74-3.39.49-.94,1.17-1.67,2.04-2.17.87-.51,1.87-.76,3-.76s2.1.27,2.89.81,1.4,1.29,1.81,2.24c.42.95.62,2.04.62,3.28v.67h-8c.08,1.12.39,1.88.91,2.29.52.41,1.19.61,1.99.61.73,0,1.33-.17,1.8-.52s.88-.88,1.25-1.58l2.3,1.62c-.65,1.15-1.42,1.97-2.31,2.46-.89.49-1.92.74-3.09.74Zm-2.73-8.02h4.78c-.3-1.43-1.06-2.15-2.28-2.15-.67,0-1.21.17-1.62.5s-.71.88-.88,1.65Z"/>
        <path class="cls-1" d="m136.68,101.12v-8.3h-5.4v-2.62h5.4v-2.08c-.37.13-.8.33-1.29.6-.49.27-.88.49-1.16.67-.27-.68-.63-1.44-1.1-2.26-.47-.83-.92-1.56-1.35-2.21v.22h-9.4v-2.38h9.4v1.05l1.83-1c.3.38.65.89,1.04,1.52.39.63.77,1.28,1.15,1.94.38.66.67,1.24.89,1.74v-6.25h-4.58v-2.5h12.3v2.5h-4.88v5.95c.32-.43.65-.93,1-1.5.35-.57.68-1.15,1-1.74s.58-1.14.78-1.64l2.42,1.17c-.22.48-.51,1.06-.88,1.72-.37.67-.75,1.32-1.16,1.96-.41.64-.77,1.17-1.09,1.59-.23-.18-.57-.4-1-.64s-.79-.42-1.08-.54v2.08h5.53v2.62h-5.53v8.3h-2.85Zm-13.38-.5v-7.4h7.6v7.4h-7.6Zm.22-19.05v-2.23h7.03v2.23h-7.03Zm0,7v-2.23h7.03v2.23h-7.03Zm0,3.42v-2.2h7.03v2.2h-7.03Zm2.35,6.25h2.47v-2.67h-2.47v2.67Z"/>
        <path class="cls-1" d="m150.18,101.17v-13.12c-.23.37-.47.72-.72,1.07-.25.35-.5.69-.75,1.03-.27-.37-.6-.73-1.01-1.1-.41-.37-.77-.65-1.09-.85.73-.85,1.43-1.83,2.09-2.95.66-1.12,1.25-2.28,1.77-3.5.53-1.22.95-2.39,1.26-3.52l2.65.7-.05.15h15.77v2.22h-4.83v1.05h4.35v5.02h-15.25v-5.02h4.35v-1.05h-4.5v-1.95c-.17.58-.37,1.17-.6,1.77-.23.6-.48,1.2-.75,1.8v18.25h-2.7Zm4.45.1c-.12-.38-.26-.79-.44-1.21-.17-.42-.35-.78-.54-1.06.83-.13,1.68-.32,2.55-.56.87-.24,1.67-.53,2.4-.86h-3.17v-9.38h12.95v9.38h-3.2c.73.33,1.53.62,2.4.86.87.24,1.72.43,2.55.56-.17.28-.34.64-.53,1.06-.18.43-.33.83-.45,1.21-1.2-.25-2.36-.6-3.47-1.04-1.12-.44-2.12-.95-3.03-1.51l.85-1.15h-3.23l.85,1.15c-.9.57-1.91,1.07-3.03,1.51s-2.27.79-3.47,1.04Zm2.27-15.7h1.83v-1.45h-1.83v1.45Zm1.28,5.3h7.45v-.77h-7.45v.77Zm0,2.38h7.45v-.77h-7.45v.77Zm0,2.43h7.45v-.83h-7.45v.83Zm2.92-13.33h1.8v-1.05h-1.8v1.05Zm0,3.23h1.8v-1.45h-1.8v1.45Zm4.17,0h1.83v-1.45h-1.83v1.45Z"/>
      </g>
      <g id="Y4Eovf.tif">
        <g>
          <path class="cls-1" d="m1.16,64.92c0-9.21,0-18.41,0-27.62.03-.11.07-.22.08-.33.59-3.59,2.59-6.04,6-7.31.66-.25,1.38-.34,2.06-.51,9.21,0,18.41,0,27.62,0,.35.07.7.12,1.04.2,4.26,1,7.1,4.56,7.1,8.96,0,8.53,0,17.06,0,25.6,0,.69-.06,1.41-.22,2.08-1.02,4.3-4.55,7.07-8.97,7.07-8.52,0-17.04,0-25.55,0-4.36,0-7.86-2.75-8.92-6.98-.1-.39-.16-.78-.24-1.17Zm2.57-13.83c0,4.25,0,8.49,0,12.74,0,.51.03,1.03.14,1.53.66,3.09,3.23,5.14,6.45,5.14,8.52,0,17.04,0,25.56,0,3.8,0,6.61-2.8,6.62-6.6,0-8.52,0-17.04,0-25.56,0-3.8-2.81-6.6-6.61-6.6-8.52,0-17.04,0-25.56,0-.48,0-.98.04-1.45.14-3.08.65-5.14,3.22-5.15,6.4,0,4.27,0,8.55,0,12.82Z"/>
          <path class="cls-1" d="m23.11,39.77c.19-.29.32-.53.49-.74.66-.88,1.85-1.12,2.79-.56.92.55,1.3,1.7.87,2.68-.09.21-.2.41-.32.61-2.29,3.97-4.58,7.94-6.87,11.9-.08.13-.14.27-.24.45,1.36,0,2.65.03,3.95-.01.51-.02.78.15,1.02.59.66,1.23,1.38,2.42,2.11,3.69-.16,0-.26.02-.37.02-5.24,0-10.49,0-15.73,0-1.63,0-2.69-1.38-2.19-2.84.3-.87,1.09-1.43,2.07-1.44,1.26-.01,2.52-.01,3.77,0,.3,0,.45-.09.6-.35,1.78-3.11,3.57-6.21,5.37-9.31.15-.27.17-.46,0-.73-.5-.83-1.02-1.66-1.44-2.53-.69-1.44.38-3.07,1.96-3.03.79.02,1.39.39,1.81,1.05.1.17.21.33.34.55Z"/>
          <path class="cls-1" d="m26.58,45.83c.1.17.19.3.26.43,1.44,2.5,2.89,4.99,4.32,7.5.16.28.33.36.64.36,1.27-.02,2.54-.02,3.82,0,.97.02,1.74.62,2.02,1.51.27.86,0,1.82-.76,2.31-.39.25-.89.37-1.35.44-.52.07-1.05.02-1.66.02.43.74.83,1.42,1.21,2.12.16.3.32.61.41.93.25.95-.24,1.95-1.1,2.36-.96.46-2.04.22-2.66-.59-.11-.15-.21-.31-.3-.47-2.36-4.09-4.72-8.19-7.1-12.27-.16-.28-.17-.49,0-.77.69-1.15,1.35-2.32,2.02-3.48.07-.12.15-.24.24-.4Z"/>
          <path class="cls-1" d="m16.38,60.11c-.7,1.14-1.35,2.21-2.01,3.27-.06.09-.17.15-.26.22-.79.6-1.84.59-2.62-.03-.75-.58-.99-1.62-.63-2.51.27-.69.64-1.04,1.47-.98,1.3.1,2.62.03,4.05.03Z"/>
        </g>
      </g>
    </g>
  </g>
</svg>