<?xml version="1.0" encoding="UTF-8"?>
<svg id="Layer_2" data-name="Layer 2" xmlns="http://www.w3.org/2000/svg" viewBox="0 0 189.97 108.01">
  <defs>
    <style>
      .cls-1 {
        fill: #fff;
        stroke-width: 0px;
      }
    </style>
  </defs>
  <g id="Layer_1-2" data-name="Layer 1">
    <g>
      <g>
        <path class="cls-1" d="m161.24,64.94v-17.03c-.38.6-.77,1.16-1.17,1.69-.4.53-.77,1-1.13,1.4-.34-.38-.84-.8-1.51-1.26-.67-.46-1.28-.8-1.84-1.04.86-.94,1.74-2.09,2.63-3.47.89-1.38,1.73-2.86,2.54-4.45s1.51-3.14,2.11-4.66c.6-1.52,1.03-2.87,1.29-4.05l4.07,1.04c-.31,1.1-.71,2.29-1.21,3.56-.49,1.27-1.05,2.56-1.67,3.85v24.41h-4.1Zm15.52,0v-11.7h-9.9v-4.14h9.9v-6.01h-4.54c-.38.89-.79,1.74-1.22,2.56-.43.82-.88,1.57-1.33,2.27-.53-.34-1.17-.67-1.91-.99-.74-.32-1.43-.56-2.05-.7.7-1.01,1.38-2.21,2.05-3.62.67-1.4,1.26-2.86,1.76-4.36.5-1.5.86-2.89,1.08-4.16l4.18.97c-.14.67-.31,1.34-.49,2-.18.66-.37,1.33-.56,2h3.02v-6.59h4.43v6.59h7.56v4.03h-7.56v6.01h8.78v4.14h-8.78v11.7h-4.43Z"/>
        <path class="cls-1" d="m159.12,107.64c-.41-.29-.97-.59-1.69-.9-.72-.31-1.32-.53-1.8-.65.5-.74.95-1.65,1.33-2.72.38-1.07.71-2.22.99-3.46.28-1.24.48-2.47.61-3.71.13-1.24.2-2.41.2-3.51l3.78.32c0,.7-.02,1.39-.07,2.09-.05.7-.11,1.39-.18,2.09.26.53.55,1.02.86,1.48.31.46.65.88,1.01,1.26v-9.79h-6.62v-3.53h6.23v-3.6h-5.36v-3.42h5.36v-4.14h4.07v4.14h4.25v3.42h-4.25v3.6l5.26-.04v.4c1.2-.79,2.18-1.79,2.95-3.01.77-1.21,1.28-2.48,1.55-3.8h-4.79v-3.38h16.06c-.03.91-.1,1.96-.22,3.15s-.26,2.34-.41,3.46c-.16,1.12-.34,2.05-.56,2.79-.34,1.25-.88,2.08-1.62,2.5-.74.42-1.72.63-2.92.63h-2.02c-.05-.53-.15-1.17-.31-1.93-.16-.76-.33-1.35-.52-1.78h1.51c.67,0,1.16-.08,1.48-.25.31-.17.54-.48.68-.94.19-.55.34-1.2.45-1.94.11-.74.19-1.51.23-2.3h-3.02c-.22,1.37-.64,2.69-1.26,3.96-.62,1.27-1.38,2.44-2.25,3.51-.88,1.07-1.83,1.96-2.86,2.68-.24-.29-.56-.63-.97-1.03-.41-.4-.8-.75-1.19-1.06v1.91h-5v3.56h4.79v3.78h-4.79v5.11c2.06.77,4.86,1.15,8.39,1.15,3.07,0,5.71-.05,7.92-.16s4-.26,5.36-.45c-.1.26-.22.67-.36,1.22-.14.55-.27,1.12-.38,1.69-.11.58-.18,1.06-.2,1.44-.67,0-1.55,0-2.63.02-1.08.01-2.23.02-3.44.02h-6.28c-3.65,0-6.68-.49-9.09-1.46s-4.39-2.47-5.92-4.48c-.26,1.1-.59,2.16-.97,3.17-.38,1.01-.84,1.97-1.37,2.88Zm15.05-5.76v-11.3h13.93v11.3h-13.93Zm3.82-3.35h6.34v-4.61h-6.34v4.61Z"/>
      </g>
      <g>
        <path class="cls-1" d="m6.02,23.78v-2.9h5.98l1.38-6.75h-5.02v-2.95h5.62l.9-4.4h-7.67v-2.83h20v2.83h-9l-.9,4.4h6.97v9.7h4.28v2.9H6.02Zm9.28-2.9h5.68v-6.75h-4.28l-1.4,6.75Z"/>
        <path class="cls-1" d="m42.87,22.08c-.05-.3-.17-.65-.35-1.05s-.39-.79-.61-1.18c-.23-.38-.45-.69-.66-.92,2.18-.17,4.07-.47,5.66-.91,1.59-.44,2.82-1.04,3.67-1.79.86-.75,1.26-1.67,1.21-2.77-.1-2.35-1.83-3.45-5.2-3.3-.52.02-1.15.08-1.9.19s-1.56.25-2.44.41-1.75.36-2.62.59-1.7.46-2.46.7c-.77.24-1.42.48-1.95.71,0-.02-.07-.19-.21-.51-.14-.33-.3-.7-.47-1.12-.18-.42-.33-.8-.46-1.12-.13-.33-.21-.5-.22-.51.52-.1,1.18-.24,2-.41.82-.18,1.71-.36,2.69-.56.97-.2,1.95-.39,2.94-.56.98-.18,1.91-.33,2.79-.45s1.62-.2,2.24-.21c1.92-.08,3.49.12,4.73.61,1.23.49,2.16,1.2,2.79,2.14.62.93.96,2.03,1.01,3.3.05,1.35-.21,2.52-.79,3.51-.57.99-1.4,1.83-2.49,2.52-1.08.69-2.38,1.26-3.89,1.7s-3.17.78-4.99,1.01Z"/>
        <path class="cls-1" d="m61.25,24.73v-2.47h9.67v-1.55h-5.82v-2.32h5.82v-1.5h-5c-.88,1.2-1.78,2.19-2.7,2.97-.3-.33-.64-.65-1.01-.95-.38-.3-.75-.54-1.11-.73.5-.4,1.03-.92,1.6-1.55s1.1-1.31,1.6-2.04.9-1.42,1.2-2.09h-1.33V2.91h16.25v9.6h-6.5v2.07h7.45v2.3h-7.45v1.5h6.08v2.32h-6.08v1.55h9.43v2.47h-22.1Zm6.23-10.15h3.45v-2.07h-4.12l1.45.55c-.12.25-.24.5-.38.75s-.27.51-.4.77Zm-.33-7.92h10.3v-1.43h-10.3v1.43Zm0,3.52h10.3v-1.45h-10.3v1.45Z"/>
        <path class="cls-1" d="m102.77,25.11v-8.3h-5.4v-2.62h5.4v-2.08c-.37.13-.79.33-1.29.6-.49.27-.88.49-1.16.68-.27-.68-.63-1.44-1.1-2.26-.47-.83-.92-1.56-1.35-2.21v.23h-9.4v-2.38h9.4v1.05l1.83-1c.3.38.65.89,1.04,1.52.39.63.78,1.28,1.15,1.94.38.66.67,1.24.89,1.74v-6.25h-4.57v-2.5h12.3v2.5h-4.88v5.95c.32-.43.65-.93,1-1.5.35-.57.68-1.15,1-1.74.32-.59.58-1.14.77-1.64l2.43,1.18c-.22.48-.51,1.06-.88,1.72-.37.67-.75,1.32-1.16,1.96-.41.64-.77,1.17-1.09,1.59-.23-.18-.57-.4-1-.64-.43-.24-.79-.42-1.08-.54v2.08h5.52v2.62h-5.52v8.3h-2.85Zm-13.38-.5v-7.4h7.6v7.4h-7.6Zm.23-19.05v-2.23h7.02v2.23h-7.02Zm0,7v-2.23h7.02v2.23h-7.02Zm0,3.42v-2.2h7.02v2.2h-7.02Zm2.35,6.25h2.47v-2.67h-2.47v2.67Z"/>
        <path class="cls-1" d="m118.42,25.03v-12.73c-.23.37-.46.71-.69,1.04-.23.32-.46.62-.69.89-.13-.2-.34-.42-.61-.66-.27-.24-.55-.48-.84-.7-.28-.23-.53-.4-.73-.51.5-.6,1-1.32,1.51-2.17s.99-1.74,1.44-2.67.85-1.85,1.19-2.74c.34-.89.6-1.7.76-2.41l2.8.65c-.05.25-.12.53-.22.85h16.15v2.83h-5.1v3.45h4.33v14.17h-15v-14.17h4.33v-3.45h-4.75v-2.7c-.13.47-.29.95-.48,1.45s-.39,1.02-.62,1.55v18.05h-2.77Zm6.97-3.65h1.65v-8.35h-1.65v8.35Zm4-11.25h1.65v-3.45h-1.65v3.45Zm0,11.25h1.65v-8.35h-1.65v8.35Zm4,0h1.65v-8.35h-1.65v8.35Z"/>
      </g>
      <g>
        <path class="cls-1" d="m41.9,37.4c-21.1,4.8-31.7,16.4-33.5,33.7,4.7-4.9,10.5-7.5,16.6-7.5,11.7,0,19.7,8.2,19.7,21.3,0,14.6-9.2,23.1-21.8,23.1-14.2,0-22.9-11.3-22.9-30.2,0-21.4,14.8-39.9,41.4-43.1l.5,2.7ZM8.1,76.61c0,17.9,5.6,27.4,15,27.4,8,0,13.5-6.2,13.5-18.1s-5.4-17-13.5-17c-5.1,0-10.4,1.5-15,6v1.7Z"/>
        <path class="cls-1" d="m93.4,71.51c0,26.7-10.8,36.5-22.1,36.5s-22.3-9.8-22.3-36.5,10.9-36.8,22.3-36.8,22.1,10,22.1,36.8Zm-22.1,32.5c7,0,13.8-7.2,13.8-32.5s-6.8-32.7-13.8-32.7-13.9,7-13.9,32.7,6.7,32.5,13.9,32.5Z"/>
        <path class="cls-1" d="m142.3,71.51c0,26.7-10.8,36.5-22.1,36.5s-22.3-9.8-22.3-36.5,10.9-36.8,22.3-36.8,22.1,10,22.1,36.8Zm-22.1,32.5c7,0,13.8-7.2,13.8-32.5s-6.8-32.7-13.8-32.7-13.9,7-13.9,32.7,6.7,32.5,13.9,32.5Z"/>
      </g>
      <path class="cls-1" d="m186.48,9.5c-.14.61-.54,1.05-.98,1.47-1.2,1.15-2.37,2.32-3.57,3.46-.23.22-.29.42-.23.73.32,1.8.62,3.6.93,5.41.14.79-.12,1.45-.77,1.92-.64.46-1.34.5-2.04.14-1.38-.72-2.75-1.44-4.13-2.17-.28-.15-.57-.29-.84-.45-.19-.11-.35-.11-.55,0-1.65.88-3.31,1.75-4.97,2.61-1.12.58-2.42.05-2.76-1.12-.08-.29-.1-.62-.05-.91.3-1.83.61-3.66.94-5.48.05-.27-.02-.45-.21-.63-1.33-1.28-2.65-2.57-3.97-3.87-.61-.6-.78-1.43-.45-2.18.34-.76.97-1.08,1.77-1.19,1.78-.24,3.55-.51,5.33-.76.22-.03.33-.13.42-.32.82-1.68,1.65-3.36,2.48-5.03.55-1.1,1.85-1.45,2.84-.77.32.22.53.53.7.87.81,1.64,1.62,3.28,2.42,4.92.1.21.23.3.47.33,1.86.26,3.72.53,5.58.81.8.12,1.32.61,1.57,1.38.02.07.05.14.07.21v.62Zm-11.91,8.68c.37,0,.7.2,1.01.36,1.65.85,3.28,1.72,4.93,2.58.1.05.29.08.37.02.08-.06.13-.24.11-.35-.3-1.8-.6-3.61-.93-5.4-.15-.83.05-1.49.66-2.07,1.32-1.26,2.61-2.54,3.91-3.81.09-.09.19-.28.16-.36-.05-.11-.22-.21-.35-.23-1.7-.26-3.39-.53-5.1-.73-1.04-.12-1.74-.57-2.17-1.55-.52-1.18-1.13-2.31-1.7-3.47-.21-.43-.42-.86-.65-1.29-.05-.09-.18-.19-.27-.19-.09,0-.2.11-.27.19-.08.11-.13.24-.19.36-.77,1.56-1.55,3.12-2.31,4.69-.33.67-.85,1.06-1.58,1.17-1.8.26-3.6.52-5.4.79-.18.03-.4,0-.48.22-.09.23.11.34.24.47,1.3,1.27,2.59,2.54,3.89,3.8.54.53.75,1.15.62,1.89-.1.61-.21,1.22-.31,1.83-.21,1.23-.43,2.47-.63,3.7-.02.11.03.29.11.35.07.06.23,0,.35-.01.06,0,.11-.05.16-.08,1.61-.85,3.22-1.7,4.84-2.53.29-.15.6-.34.97-.33Z"/>
    </g>
  </g>
</svg>