<?xml version="1.0" encoding="UTF-8"?>
<svg id="Layer_2" data-name="Layer 2" xmlns="http://www.w3.org/2000/svg" viewBox="0 0 135.77 101.47">
  <defs>
    <style>
      .cls-1 {
        fill: #fff;
        stroke-width: 0px;
      }
    </style>
  </defs>
  <g id="Layer_1-2" data-name="Layer 1">
    <g>
      <g>
        <path class="cls-1" d="m105.84,29.99c-.31-.6-.75-1.25-1.31-1.96-.56-.71-1.12-1.27-1.67-1.67,2.59-1.2,4.72-2.63,6.37-4.28s2.89-3.7,3.69-6.14c.8-2.44,1.21-5.39,1.21-8.87v-3.1h-10.84V0h31.97v3.96h-16.6v4.03c0,.31-.01.61-.04.9h13.1c-.02,1.08-.08,2.33-.16,3.74s-.2,2.87-.34,4.37c-.14,1.5-.31,2.93-.49,4.28-.18,1.36-.38,2.5-.59,3.44-.43,1.85-1.18,3.13-2.25,3.85-1.07.72-2.6,1.08-4.59,1.08h-3.71c-.02-.43-.08-.94-.16-1.51s-.18-1.15-.29-1.71c-.11-.56-.23-1.03-.38-1.39h3.67c1.06,0,1.81-.17,2.27-.52.46-.35.8-.99,1.04-1.93.14-.55.28-1.24.41-2.05.13-.82.25-1.68.36-2.59.11-.91.19-1.79.25-2.65.06-.85.09-1.58.09-2.18h-8.68c-.65,3.91-1.99,7.24-4.03,9.99-2.04,2.75-4.81,5.03-8.32,6.86Z"/>
        <path class="cls-1" d="m105.04,73.08c-.41-.29-.97-.59-1.69-.9-.72-.31-1.32-.53-1.8-.65.5-.74.95-1.65,1.33-2.72.38-1.07.71-2.22.99-3.46.28-1.24.48-2.47.61-3.71.13-1.24.2-2.41.2-3.51l3.78.32c0,.7-.02,1.39-.07,2.09s-.11,1.39-.18,2.09c.26.53.55,1.02.86,1.48.31.46.65.88,1.01,1.26v-9.79h-6.62v-3.53h6.23v-3.6h-5.36v-3.42h5.36v-4.14h4.07v4.14h4.25v3.42h-4.25v3.6l5.26-.04v.4c1.2-.79,2.18-1.79,2.95-3.01.77-1.21,1.28-2.48,1.55-3.8h-4.79v-3.38h16.06c-.02.91-.1,1.96-.22,3.15-.12,1.19-.26,2.34-.41,3.46-.16,1.12-.34,2.05-.56,2.79-.34,1.25-.88,2.08-1.62,2.5-.74.42-1.72.63-2.92.63h-2.02c-.05-.53-.15-1.17-.31-1.93-.16-.76-.33-1.35-.52-1.78h1.51c.67,0,1.16-.08,1.48-.25.31-.17.54-.48.68-.94.19-.55.34-1.2.45-1.94.11-.74.19-1.51.23-2.3h-3.02c-.22,1.37-.64,2.69-1.26,3.96-.62,1.27-1.37,2.44-2.25,3.51-.88,1.07-1.83,1.96-2.86,2.68-.24-.29-.56-.63-.97-1.03-.41-.4-.8-.75-1.19-1.06v1.91h-5v3.56h4.79v3.78h-4.79v5.11c2.06.77,4.86,1.15,8.39,1.15,3.07,0,5.71-.05,7.92-.16,2.21-.11,4-.26,5.36-.45-.1.26-.22.67-.36,1.22-.14.55-.27,1.12-.38,1.69-.11.58-.17,1.06-.2,1.44-.67,0-1.55,0-2.63.02s-2.23.02-3.44.02h-6.28c-3.65,0-6.68-.49-9.09-1.46-2.41-.97-4.39-2.47-5.92-4.48-.26,1.1-.59,2.16-.97,3.17-.38,1.01-.84,1.97-1.37,2.88Zm15.05-5.76v-11.3h13.93v11.3h-13.93Zm3.82-3.35h6.34v-4.61h-6.34v4.61Z"/>
      </g>
      <path class="cls-1" d="m40.57,68.77v3.2H1.07v-3.2l15.8-1.9c.1-6,.2-11.9.2-17.8V8.07l-15,1.7v-3.6L23.67.57l1.5,1.2-.4,15.5v31.8c0,5.9.1,11.8.2,17.8l15.6,1.9Z"/>
      <g>
        <path class="cls-1" d="m1.75,101.42c-.22-.48-.49-.98-.81-1.49-.33-.51-.62-.89-.89-1.14,1.83-.68,3.58-1.57,5.25-2.65,1.67-1.08,3.16-2.33,4.47-3.72-1-.7-1.96-1.25-2.88-1.65l1.75-2.3c.95.43,1.97.99,3.05,1.67.43-.62.84-1.25,1.21-1.89.38-.64.71-1.29,1.01-1.96-.7.03-1.45.07-2.26.11-.81.04-1.56.08-2.26.1-.7.03-1.25.05-1.65.06-.73,1.12-1.56,2.18-2.49,3.19-.93,1.01-1.94,1.94-3.04,2.79-.28-.33-.64-.72-1.08-1.15s-.82-.74-1.15-.92c1.18-.83,2.28-1.83,3.3-2.97,1.02-1.15,1.91-2.38,2.68-3.68.77-1.3,1.33-2.57,1.7-3.82l2.9.92c-.18.5-.38,1-.6,1.51-.22.51-.45,1-.7,1.49.73-.02,1.53-.04,2.38-.06.85-.03,1.65-.06,2.41-.1.76-.04,1.34-.09,1.74-.14l1.93,1.05c-.42,1.33-.93,2.6-1.53,3.79-.6,1.19-1.28,2.32-2.03,3.39.63.47,1.23.94,1.79,1.41.56.48,1.02.92,1.39,1.34-.22.17-.47.4-.76.7-.29.3-.57.61-.84.92-.27.32-.48.6-.62.85-.37-.43-.8-.89-1.3-1.36-.5-.47-1.03-.95-1.6-1.41-1.4,1.53-2.98,2.89-4.74,4.08s-3.67,2.2-5.74,3.05Zm16.77-16.7c-.32-.53-.73-1.1-1.24-1.7-.51-.6-.96-1.08-1.36-1.45l1.38-1.07c.23.2.53.5.88.89.35.39.69.79,1.03,1.19.33.4.59.74.78,1.03l-1.45,1.12Zm2.3-1.88c-.32-.52-.73-1.07-1.25-1.66-.52-.59-.98-1.07-1.4-1.44l1.38-1.08c.23.2.53.49.89.88.36.38.7.77,1.04,1.17.33.4.59.74.78,1.03l-1.43,1.1Z"/>
        <path class="cls-1" d="m30.1,101.47c-.25-.37-.6-.79-1.04-1.28-.44-.48-.88-.84-1.31-1.07,1.52-.72,2.93-1.64,4.24-2.78,1.31-1.13,2.45-2.43,3.42-3.89.98-1.46,1.72-3.02,2.24-4.69h-10.07c0,.58,0,1.21.01,1.89,0,.67.03,1.29.05,1.85.02.56.04.96.06,1.21h-3.2v-7.88c.63.03,1.55.06,2.74.09,1.19.02,2.46.04,3.81.04v-5.08h3.12v5.08c1.13-.02,2.16-.04,3.08-.06.92-.03,1.58-.06,2-.11l2.12,1.05c-.3,1.72-.8,3.36-1.5,4.94s-1.55,3.03-2.55,4.38-2.12,2.55-3.35,3.61c-1.23,1.07-2.52,1.97-3.88,2.7Z"/>
        <path class="cls-1" d="m51.67,88.38c-.22-.23-.52-.51-.91-.83-.39-.32-.83-.65-1.3-1-.47-.35-.94-.67-1.39-.96-.45-.29-.84-.51-1.18-.66l2-2.53c.33.18.73.42,1.18.7.45.28.91.59,1.39.92.48.33.92.66,1.34.99.42.33.75.61,1,.86l-2.12,2.5Zm-2.67,11.02l-1.7-3.08c1.18-.25,2.43-.66,3.74-1.24s2.62-1.25,3.94-2.02c1.32-.78,2.57-1.61,3.75-2.5s2.25-1.8,3.21-2.71c.96-.92,1.74-1.79,2.34-2.62.07.28.18.63.34,1.05.16.42.33.82.51,1.21.18.39.34.7.47.91-.82,1.05-1.84,2.11-3.06,3.19-1.22,1.08-2.58,2.11-4.06,3.1-1.48.99-3.03,1.9-4.65,2.71-1.62.82-3.23,1.48-4.83,2Z"/>
        <path class="cls-1" d="m71.32,97.45v-13.4h15.2v13.4h-15.2Zm3.1-2.85h9v-7.7h-9v7.7Z"/>
        <path class="cls-1" d="m91.85,92.22c.02-.23.03-.55.03-.95v-1.2c0-.4,0-.72-.03-.95.32.02.88.03,1.69.05s1.78.03,2.9.05,2.33.03,3.61.04c1.28,0,2.57.01,3.85.01s2.5,0,3.64-.02,2.13-.03,2.96-.05c.83-.02,1.42-.04,1.77-.07-.02.22-.03.52-.04.92,0,.4,0,.8,0,1.21,0,.41.01.72.01.94-.42-.02-1.03-.03-1.84-.05s-1.75-.03-2.83-.05c-1.07-.02-2.22-.03-3.42-.03h-3.66c-1.23,0-2.41,0-3.53.03s-2.12.03-3.01.05-1.6.04-2.11.08Z"/>
        <path class="cls-1" d="m122.32,100.88v-20.15h3.05v7.58l1.12-1.6c.4.3.93.66,1.59,1.08.66.42,1.36.85,2.11,1.29s1.47.85,2.17,1.21c.7.37,1.29.64,1.77.83-.2.18-.43.45-.69.79-.26.34-.5.69-.72,1.05s-.4.66-.51.91c-.4-.2-.9-.47-1.49-.83-.59-.35-1.22-.73-1.88-1.14-.66-.41-1.29-.82-1.9-1.24-.61-.42-1.14-.79-1.59-1.12v11.35h-3.05Zm9.7-14.7c-.32-.53-.72-1.1-1.22-1.7s-.96-1.08-1.38-1.45l1.4-1.08c.23.22.52.52.88.91.35.39.69.79,1.01,1.19.33.4.58.74.76,1.02l-1.45,1.1Zm2.3-1.83c-.32-.53-.73-1.1-1.24-1.69-.51-.59-.97-1.07-1.39-1.44l1.4-1.08c.23.2.53.5.88.89.35.39.69.79,1.03,1.19.33.4.59.74.77,1.03l-1.45,1.1Z"/>
      </g>
      <g id="U7WnPp.tif">
        <path class="cls-1" d="m52.67,67c0-16.35,0-32.71,0-49.06,0-.17.01-.28.05-.43.46-1.9,1.61-3.36,3.34-4.28.66-.35,1.35-.79,2.1-.79,8.41,0,16.51,0,24.99,0,.07,0,.5,0,.54.02,3.62.91,5.39,3.25,5.39,7,0,10.68,0,21.35,0,32.03,0,4.87.02,9.74,0,14.61-.02,3.51-2.78,6.37-6.25,6.39-7.96.04-15.92.03-23.89,0-2.67,0-5-1.76-5.89-4.29-.14-.39-.25-.8-.38-1.19Zm8.52-50.27c-.58,0-1.12,0-1.65,0-1.79,0-2.58.78-2.58,2.56,0,15.45,0,30.91,0,46.36,0,1.77.8,2.56,2.59,2.56,7.52,0,15.03,0,22.55,0,1.97,0,2.71-.74,2.71-2.7,0-15.37,0-30.73,0-46.1,0-.25.01-.49-.01-.74-.1-1.01-.9-1.86-1.91-1.93-.77-.05-1.55-.01-2.32-.01-.33,1.56-1.03,2.13-2.56,2.13-4.73,0-9.46,0-14.18,0-1.58,0-2.28-.56-2.62-2.14Z"/>
      </g>
    </g>
  </g>
</svg>