<?xml version="1.0" encoding="UTF-8"?>
<svg id="Layer_2" data-name="Layer 2" xmlns="http://www.w3.org/2000/svg" viewBox="0 0 450.36 438.62">
  <defs>
    <style>
      .cls-1 {
        fill: none;
        stroke: #2e2e2e;
        stroke-miterlimit: 10;
        stroke-width: 10px;
      }

      .cls-2 {
        fill: #2e2e2e;
      }

      .cls-2, .cls-3 {
        stroke-width: 0px;
      }

      .cls-3 {
        fill: #67bff7;
      }
    </style>
  </defs>
  <g id="Layer_1-2" data-name="Layer 1">
    <line class="cls-1" x1="446.83" y1="48.08" x2="59.83" y2="435.08"/>
    <polyline class="cls-3" points="59.83 428.08 59.83 45.08 442.83 45.08"/>
    <path class="cls-2" d="m111.21,264.96c10.11-13.9,13.06-27.8,13.06-58.13v-124.26c0-30.33-2.95-44.23-13.06-58.13C100.67,9.27,82.14,0,62.34,0S23.59,9.27,13.06,24.43C2.95,38.33,0,52.23,0,82.56v124.26c0,30.33,2.95,44.23,13.06,58.13,10.53,15.17,29.06,24.43,49.28,24.43s37.91-9.27,48.86-24.43Zm-26.96-57.71c0,20.22-.42,26.12-2.95,32.86-2.95,7.58-10.11,12.22-18.96,12.22s-16.43-4.63-19.38-12.22c-2.53-6.74-2.95-12.64-2.95-32.86v-125.11c0-20.22.42-26.12,2.95-32.86,2.95-7.58,10.11-12.21,19.38-12.21s16.01,4.63,18.96,12.21c2.53,6.74,2.95,12.64,2.95,32.86v125.11Z"/>
    <path class="cls-2" d="m270.63,207.67c0-39.6-7.16-56.02-29.07-68.24,17.69-11.79,24.43-28.64,24.43-62.34C265.99,27.38,245.77,0,209.97,0s-58.97,28.64-58.97,74.14v6.74h38.75c0-12.64,0-18.96.84-24.01,2.11-12.64,8-19.38,18.11-19.38,13.48,0,19.38,11.79,19.38,39.6,0,34.54-6.32,41.7-38.33,43.39v37.49c15.59,0,21.9,1.26,28.22,5.05,10.11,7.16,13.48,16.85,13.48,42.97,0,33.7-5.9,46.34-22.33,46.34-15.16,0-22.33-12.64-22.33-38.75,0-1.26,0-4.63.42-8.42h-39.6v8.42c0,44.75,17.72,70.75,51.57,75.15l71.2-71.2c.15-3.17.23-6.45.23-9.84Z"/>
  </g>
</svg>