<?xml version="1.0" encoding="UTF-8"?>
<svg id="Layer_2" data-name="Layer 2" xmlns="http://www.w3.org/2000/svg" viewBox="0 0 450.36 438.62">
  <defs>
    <style>
      .cls-1 {
        fill: none;
        stroke: #2e2e2e;
        stroke-miterlimit: 10;
        stroke-width: 10px;
      }

      .cls-2 {
        fill: #2e2e2e;
      }

      .cls-2, .cls-3 {
        stroke-width: 0px;
      }

      .cls-3 {
        fill: #67bff7;
      }
    </style>
  </defs>
  <g id="Layer_1-2" data-name="Layer 1">
    <line class="cls-1" x1="446.83" y1="48.08" x2="59.83" y2="435.08"/>
    <polyline class="cls-3" points="59.83 428.08 59.83 45.08 442.83 45.08"/>
    <path class="cls-2" d="m124.26,206.83c0,30.33-2.95,44.23-13.06,58.13-10.95,15.17-29.06,24.43-48.86,24.43s-38.75-9.27-49.28-24.43C2.95,251.06,0,237.16,0,206.83v-124.26c0-30.33,2.95-44.23,13.06-58.13C23.59,9.27,42.12,0,62.34,0s38.33,9.27,48.86,24.43c10.11,13.9,13.06,27.8,13.06,58.13v124.26Zm-84.25.42c0,20.22.42,26.12,2.95,32.86,2.95,7.58,10.11,12.22,19.38,12.22s16.01-4.63,18.96-12.22c2.53-6.74,2.95-12.64,2.95-32.86v-125.11c0-20.22-.42-26.12-2.95-32.86-2.95-7.58-10.11-12.21-18.96-12.21s-16.43,4.63-19.38,12.21c-2.53,6.74-2.95,12.64-2.95,32.86v125.11Z"/>
    <path class="cls-2" d="m223.87,264.04l38.75-38.75v-8.77h8.77l17.34-17.34v-19.72h-26.12V4.21h-40.44l-71.61,174.81v37.49h73.29v47.53Zm-39.17-84.59l39.17-105.31v105.31h-39.17Z"/>
  </g>
</svg>