<?xml version="1.0" encoding="UTF-8"?>
<svg id="Layer_2" data-name="Layer 2" xmlns="http://www.w3.org/2000/svg" viewBox="0 0 394.07 438.62">
  <defs>
    <style>
      .cls-1 {
        fill: none;
        stroke: #2e2e2e;
        stroke-miterlimit: 10;
        stroke-width: 10px;
      }

      .cls-2 {
        fill: #2e2e2e;
      }

      .cls-2, .cls-3 {
        stroke-width: 0px;
      }

      .cls-3 {
        fill: #67bff7;
      }
    </style>
  </defs>
  <g id="Layer_1-2" data-name="Layer 1">
    <line class="cls-1" x1="390.54" y1="48.08" x2="3.54" y2="435.08"/>
    <polyline class="cls-3" points="3.54 428.08 3.54 45.08 386.54 45.08"/>
    <g>
      <path class="cls-2" d="m127.97,206.83c0,30.33-2.95,44.23-13.06,58.13-10.95,15.17-29.06,24.43-48.86,24.43s-38.75-9.27-49.28-24.43c-10.11-13.9-13.06-27.8-13.06-58.13v-124.26c0-30.33,2.95-44.23,13.06-58.13C27.3,9.27,45.83,0,66.05,0s38.33,9.27,48.86,24.43c10.11,13.9,13.06,27.8,13.06,58.13v124.26Zm-84.25.42c0,20.22.42,26.12,2.95,32.86,2.95,7.58,10.11,12.22,19.38,12.22s16.01-4.63,18.96-12.22c2.53-6.74,2.95-12.64,2.95-32.86v-125.11c0-20.22-.42-26.12-2.95-32.86-2.95-7.58-10.11-12.21-18.96-12.21s-16.43,4.63-19.38,12.21c-2.53,6.74-2.95,12.64-2.95,32.86v125.11Z"/>
      <path class="cls-2" d="m210.11,285.18h-40.02V64.45h-34.96v-26.12c16.01-3.79,34.96-17.27,48.02-34.12h26.96v280.96Z"/>
    </g>
  </g>
</svg>