<?xml version="1.0" encoding="UTF-8"?>
<svg id="Layer_2" data-name="Layer 2" xmlns="http://www.w3.org/2000/svg" viewBox="0 0 444.17 444.21">
  <defs>
    <style>
      .cls-1 {
        fill: none;
        stroke: #2e2e2e;
        stroke-miterlimit: 10;
        stroke-width: 10px;
      }

      .cls-2 {
        fill: #2e2e2e;
      }

      .cls-2, .cls-3 {
        stroke-width: 0px;
      }

      .cls-3 {
        fill: #67bff7;
      }
    </style>
  </defs>
  <g id="Layer_1-2" data-name="Layer 1">
    <line class="cls-1" x1="440.64" y1="53.67" x2="53.64" y2="440.67"/>
    <polyline class="cls-3" points="55.64 431.67 55.64 48.67 438.64 48.67"/>
    <path class="cls-2" d="m63.2,0C42.7,0,23.91,9.39,13.24,24.77,2.99,38.86,0,52.95,0,83.7v125.97c0,30.75,2.99,44.84,13.24,58.93,10.68,15.37,29.46,24.77,49.96,24.77s38.43-9.39,49.54-24.77c10.25-14.09,13.24-28.18,13.24-58.93v-125.97c0-30.75-2.99-44.84-13.24-58.93C102.06,9.39,83.27,0,63.2,0Zm22.21,210.1c0,20.5-.43,26.48-2.99,33.31-2.99,7.69-10.25,12.38-19.22,12.38s-16.65-4.7-19.64-12.38c-2.56-6.83-2.99-12.81-2.99-33.31v-126.83c0-20.5.43-26.48,2.99-33.31,2.99-7.69,10.25-12.38,19.64-12.38s16.23,4.7,19.22,12.38c2.56,6.83,2.99,12.81,2.99,33.31v126.83Z"/>
    <path class="cls-2" d="m230.6,245.12c-2.99,6.83-9.39,10.68-17.08,10.68-9.82,0-16.65-5.55-19.64-16.23-1.71-5.98-2.56-12.81-2.56-30.75h-40.57c0,23.49,1.71,37.15,6.41,48.68,6.92,17.47,20.72,29.33,38.82,33.84l79.04-79.04v-50.03c0-29.04-2.99-42.7-11.96-54.66-7.26-10.25-19.64-15.8-33.31-15.8-15.8,0-27.33,5.98-38.43,20.07l2.13-70.03h73.02V4.27h-108.04l-4.7,146.05,37.58,2.56c5.55-16.65,12.38-23.06,24.34-23.06,7.69,0,13.67,3.42,15.8,9.39,2.56,5.98,2.99,8.54,2.99,29.89v45.69c0,18.36-.85,23.91-3.84,30.32Z"/>
  </g>
</svg>