<?xml version="1.0" encoding="UTF-8"?>
<svg id="Layer_2" data-name="Layer 2" xmlns="http://www.w3.org/2000/svg" viewBox="0 0 450.36 438.62">
  <defs>
    <style>
      .cls-1 {
        fill: none;
        stroke: #2e2e2e;
        stroke-miterlimit: 10;
        stroke-width: 10px;
      }

      .cls-2 {
        fill: #2e2e2e;
      }

      .cls-2, .cls-3 {
        stroke-width: 0px;
      }

      .cls-3 {
        fill: #67bff7;
      }
    </style>
  </defs>
  <g id="Layer_1-2" data-name="Layer 1">
    <line class="cls-1" x1="446.83" y1="48.08" x2="59.83" y2="435.08"/>
    <polyline class="cls-3" points="59.83 428.08 59.83 45.08 442.83 45.08"/>
    <path class="cls-2" d="m111.21,264.96c10.11-13.9,13.06-27.8,13.06-58.13v-124.26c0-30.33-2.95-44.23-13.06-58.13C100.67,9.27,82.14,0,62.34,0S23.59,9.27,13.06,24.43C2.95,38.33,0,52.23,0,82.56v124.26c0,30.33,2.95,44.23,13.06,58.13,10.53,15.17,29.06,24.43,49.28,24.43s37.91-9.27,48.86-24.43Zm-68.24-24.85c-2.53-6.74-2.95-12.64-2.95-32.86v-125.11c0-20.22.42-26.12,2.95-32.86,2.95-7.58,10.11-12.21,19.38-12.21s16.01,4.63,18.96,12.21c2.53,6.74,2.95,12.64,2.95,32.86v125.11c0,20.22-.42,26.12-2.95,32.86-2.95,7.58-10.11,12.22-18.96,12.22s-16.43-4.63-19.38-12.22Z"/>
    <path class="cls-2" d="m188.49,248.11c30.33-44.23,36.23-53.92,48.02-74.56,25.7-45.07,36.23-75.82,36.23-104.89C272.73,26.12,249.57,0,212.08,0c-41.7,0-64.45,27.8-64.45,78.35,0,1.26,0,5.48.42,9.69h39.17c-.42-3.37-.42-7.16-.42-8,0-29.49,7.58-42.97,24.43-42.97,13.48,0,21.06,10.53,21.06,30.33,0,40.86-20.22,82.56-86.77,179.45v38.33h57.21l37.07-37.07h-51.32Z"/>
  </g>
</svg>