<?xml version="1.0" encoding="utf-8"?>
<!-- Generator: Adobe Illustrator 28.0.0, SVG Export Plug-In . SVG Version: 6.00 Build 0)  -->
<svg version="1.1" id="Layer_1" xmlns="http://www.w3.org/2000/svg" xmlns:xlink="http://www.w3.org/1999/xlink" x="0px" y="0px"
	 viewBox="0 0 215.9 42.2" style="enable-background:new 0 0 215.9 42.2;" xml:space="preserve">
<style type="text/css">
	.st0{fill:#FFFFFF;}
</style>
<g>
	<g id="layer_1-2">
		<path class="st0" d="M100.3,1.7C97.2,1.8,94.6,4,94,7h10.7c0.5-2.3-0.9-4.7-3.3-5.2C101,1.7,100.7,1.7,100.3,1.7z M194.8,14.1
			l-11.7,6.5L186.8,0h-14.1l-5.1,29.2l-2.3,13l15.6-8.6L216,14.1C215.9,14.1,194.8,14.1,194.8,14.1z M49.2,42.2h10.5l10.7-21.1H60
			L49.2,42.2z M91.6,21.1l3.3,21.1h10.6l-3.3-21.1H91.6z"/>
		<path class="st0" d="M108.2,7h-3.5c-0.6,3-3.2,5.2-6.3,5.3c-2.4,0.1-4.4-1.8-4.5-4.2c0-0.4,0-0.8,0.1-1.2h-3.4l1.2-7h-14l-1.2,7
			H58.9L57,17.5h17.6l-4.3,24.6h14.1l4.3-24.6h17.6L108.2,7z M42.6,0H3.9L2.1,10.6h19.3L0,42.2h14.1l9.5-14.1l4.6,14.1h14.1
			l-9.1-28.1L42.6,0z M141.6,7l3-7h-14.1l-3,7h-8.8l-1.9,10.5h6.2l-10.5,24.6h14.1l10.5-24.6h7.9L143.1,28h-3.5l1,14.1h14.1L160.9,7
			H141.6L141.6,7z"/>
	</g>
</g>
</svg>
