<?xml version="1.0" encoding="UTF-8"?>
<svg id="Layer_2" data-name="Layer 2" xmlns="http://www.w3.org/2000/svg" viewBox="0 0 399.09 111.38">
  <defs>
    <style>
      .cls-1 {
        fill: #fff;
        stroke-width: 0px;
      }
    </style>
  </defs>
  <g id="_レイヤー_1" data-name="レイヤー 1">
    <g>
      <polygon class="cls-1" points="360.1 59.39 338.49 71.39 345.19 33.4 319.19 33.4 309.67 87.39 305.44 111.38 334.26 95.39 399.09 59.39 360.1 59.39"/>
      <polygon class="cls-1" points="90.98 111.38 110.48 111.38 130.35 72.39 110.86 72.39 90.98 111.38"/>
      <polygon class="cls-1" points="169.34 72.39 175.47 111.38 194.96 111.38 188.84 72.39 169.34 72.39"/>
      <path class="cls-1" d="m199.92,46.4h-6.4c-.96,5.44-6.15,9.85-11.59,9.85s-9.07-4.41-8.11-9.85h-6.4l2.29-13h-25.99l-2.29,13h-32.49l-3.44,19.5h32.49l-8.02,45.49h25.99l8.02-45.49h32.49l3.44-19.5Z"/>
      <path class="cls-1" d="m185.41,36.54c-5.44,0-10.63,4.41-11.59,9.85h19.7c.96-5.44-2.67-9.85-8.11-9.85Z"/>
      <polygon class="cls-1" points="78.74 33.4 7.25 33.4 3.81 52.9 39.56 52.9 0 111.38 26 111.38 43.58 85.39 51.99 111.38 77.98 111.38 61.16 59.39 78.74 33.4"/>
      <polygon class="cls-1" points="261.7 46.4 267.25 33.4 241.21 33.4 235.67 46.4 219.42 46.4 215.99 65.89 227.36 65.89 207.97 111.38 233.95 111.38 253.38 65.89 267.97 65.89 264.53 85.39 258.03 85.39 259.95 111.38 285.94 111.38 297.4 46.4 261.7 46.4"/>
    </g>
    <g>
      <path class="cls-1" d="m29.89,4.14c-.25.28-.87,1.04-1.22,1.58-1.05,1.6-2.66,3.75-4.47,5.7,1.71,1.81,3.72,4.55,4.59,6.02l-3.56,2.61c-.96-1.96-2.36-4.04-3.9-5.91-2.77,2.35-6.06,4.53-9.18,5.89l-2.12-2.83c3.77-1.27,7.74-3.93,10.12-6.07,1.74-1.6,3.31-3.5,4.06-4.88h-6.71c-.97,0-2.19.13-2.8.17l.79-3.71c.73.11,2.1.17,2.73.17h7.21c1.08,0,2.13-.15,2.66-.32l1.8,1.58Z"/>
      <path class="cls-1" d="m43.47,11.25c-1.45,1.94-4.05,4.81-5.46,6.06l-2.42-1.92c1.74-1.4,3.89-3.67,5.19-5.55l2.68,1.4Zm5.65-2.94l-2.08,9.8c-.28,1.32-1.29,2.2-2.95,2.2-1.29,0-2.54-.04-3.72-.19l.36-3.22c.87.17,1.78.24,2.3.24s.77-.17.91-.73c.15-.6,1.5-6.95,1.74-8.09h-5.18c-.65,0-1.6.02-2.24.09l.73-3.43c.65.09,1.52.17,2.19.17h5.18l.31-1.45c.13-.6.24-1.66.25-2.07h3.86c-.13.3-.56,1.51-.68,2.09l-.3,1.42h5.18c-1.29-.13-2.07-1.23-1.79-2.57.3-1.42,1.69-2.57,3.12-2.57s2.33,1.14,2.02,2.57c-.27,1.25-1.37,2.29-2.61,2.53.42-.04.79-.07,1.08-.11l-.72,3.41c-.72-.06-1.67-.09-2.29-.09h-4.66Zm4.08,1.42c.79,1.38,1.93,4.12,2.46,5.7l-3.42,1.68c-.56-1.94-1.5-4.51-2.22-5.83l3.18-1.55Zm2.33-6.11c.58,0,1.16-.47,1.28-1.06.12-.58-.25-1.06-.83-1.06s-1.16.47-1.28,1.06c-.12.58.25,1.06.83,1.06Z"/>
      <path class="cls-1" d="m64.21,8.53c.85.07,2.65.15,3.7.15h11.47c.97,0,2.05-.11,2.69-.15l-.88,4.12c-.56-.02-1.74-.13-2.63-.13h-11.46c-1.23,0-2.86.06-3.76.13l.88-4.12Z"/>
      <path class="cls-1" d="m93.78,9.22l-3.63,1.23c-.17-1.42-.81-4.92-1.21-6.19l3.59-1.17c.4,1.47,1.07,4.64,1.25,6.13Zm14.63-5.57c-.42.65-.79,1.38-1.06,1.94-1.04,2.16-3.09,5.78-5.36,8.14-2.93,3.02-6.52,5.18-9.86,6.39l-2.31-2.96c3.04-.8,6.89-2.68,9.71-5.46,2.24-2.22,4.29-6.28,5.21-9.15l3.67,1.1Zm-8.5,3.93l-3.55,1.17c-.12-1.45-.66-4.49-1.05-5.93l3.51-1.08c.33,1.1.95,4.36,1.09,5.85Z"/>
      <path class="cls-1" d="m132.96,1.64l-4.05,19.03h-3.39l.3-1.42h-8.96l-.3,1.42h-3.24l4.05-19.03h15.59Zm-6.46,14.44l.89-4.21h-8.96l-.89,4.21h8.96Zm-6.57-11.27l-.84,3.95h8.96l.84-3.95h-8.96Z"/>
      <path class="cls-1" d="m157.37,17.81l-.58,2.72h-12.54l.58-2.72h4.84l.29-1.38h-3.54l.56-2.61h3.54l.28-1.34h-3.97l-2.24,2.4c-.11-.48-.3-1.12-.53-1.77l-1.67,7.83h-3.04l1.42-6.67c-.86,1.32-1.74,2.5-2.62,3.41-.09-.91-.48-2.22-.78-3.02,1.4-1.32,2.9-3.37,4.03-5.25h-2.46l.62-2.91h2.87l.44-2.05c-.83.13-1.63.26-2.4.35.02-.69-.15-1.75-.35-2.4,2.46-.39,5.16-1.04,7.03-1.79l1.56,2.42c-.84.3-1.73.54-2.65.78l-.57,2.7h2.07l-.62,2.91h-2.07l-.05.26c.45.43,1.59,1.96,2,2.59l.52-2.46h11.29l-.57,2.68h-4.1l-.28,1.34h3.54l-.56,2.61h-3.54l-.29,1.38h4.58Zm.94-8.98h-10.17l1.62-7.64h10.17l-1.62,7.64Zm-1.98-5.03h-4.23l-.51,2.42h4.23l.51-2.42Z"/>
      <path class="cls-1" d="m185.78,4.38c-.31.32-.91.94-1.18,1.28-1.4,1.79-3.89,4.45-6.06,5.84l-2.29-2.13c1.75-1,3.51-2.62,4.13-3.51h-10.52c-.94,0-1.61.06-2.74.17l.63-3.56c.85.13,1.73.23,2.66.23h11.06c.7,0,2.12-.09,2.59-.21l1.71,1.9Zm-9.29,2.9c-.88,5.01-1.59,9.61-8.18,12.95l-2.57-2.45c.79-.26,1.64-.62,2.66-1.3,2.68-1.79,3.53-3.6,4.14-7.07.13-.75.2-1.36.21-2.13h3.75Z"/>
      <path class="cls-1" d="m204.95,3.38c.36,0,.96-.02,1.55-.11,0-.08.01-.19.03-.28.26-1.45,1.66-2.64,3.11-2.64s2.43,1.19,2.17,2.64-1.63,2.6-3.04,2.64c-.16.32-.3.64-.41.89-.86,2-2.31,5.24-4.58,7.71-2.37,2.58-5.76,4.77-9.73,5.99l-2.27-3.09c4.45-.96,7.19-2.83,9.24-4.92,1.66-1.68,2.73-3.79,3.31-5.5h-9.37c-1.04,0-2.23.06-2.79.11l.64-3.64c.65.08,2.03.19,2.74.19h9.39Zm5.35-.38c.11-.62-.31-1.13-.93-1.13s-1.22.51-1.33,1.13.31,1.13.93,1.13,1.22-.51,1.33-1.13Z"/>
      <path class="cls-1" d="m224.3,2.25c-.14.53-.25.92-.38,1.68l-1.28,7.24c-.09.53-.21,1.43-.26,1.98h-3.83c.1-.43.34-1.34.46-2l1.27-7.22c.07-.4.18-1.15.21-1.68h3.81Zm9.81-.19c-.16.64-.33,1.36-.49,2.3l-.82,4.64c-.75,4.28-2.13,6.41-4.05,8.12-1.69,1.49-4.12,2.58-5.76,3.07l-2.2-2.85c2.3-.49,4.19-1.28,5.7-2.6,1.69-1.51,2.26-3.02,2.78-5.96l.78-4.41c.17-.94.23-1.66.26-2.3h3.81Z"/>
    </g>
  </g>
</svg>