<?xml version="1.0" encoding="UTF-8"?>
<svg id="Layer_2" data-name="Layer 2" xmlns="http://www.w3.org/2000/svg" viewBox="0 0 2541.28 745.2">
  <defs>
    <style>
      .cls-1 {
        opacity: .3;
      }

      .cls-2 {
        fill: #ccc;
        stroke-width: 0px;
      }
    </style>
  </defs>
  <g id="Layer_1-2" data-name="Layer 1">
    <g class="cls-1">
      <path class="cls-2" d="m238.55,731.69c-.84-1.67-2.51-4.18-.84-6.69,5.02-14.22-2.51-25.1-7.53-35.98-2.51-4.18-.84-7.53,3.35-9.2l2.51-1.67c0-1.67-.84-2.51-.84-4.18-.84-10.88-4.18-39.32-2.51-51.04,1.67-10.88-5.02-20.08-2.51-30.12,0-1.67.84-5.02,0-6.69-4.18-6.69,2.51-17.57-1.67-22.59-4.18-8.37,3.35-13.39,4.18-20.92,1.67-6.69,1.67-14.22,2.51-20.92-.84-.84-2.51-1.67-3.35-1.67h-.84s0,.84-.84,1.67c-.84.84-.84,4.18-5.02,2.51-3.35-3.35-8.37-2.51-13.39-1.67-31.79,10.04-63.58,11.71-95.38,15.06-5.02,0-7.53,3.35-10.88,8.37-5.02,12.55-12.55,25.94-15.9,38.49-2.51,10.88-2.51,15.9-10.88,22.59-.84,3.35-.84,6.69-.84,10.04-1.67,10.04-6.69,20.92-10.04,32.63-3.35,6.69-8.37,14.22-10.88,21.75-2.51,8.37-5.86,15.06-7.53,23.43-3.35,8.37-10.04,11.71-17.57,12.55-4.18,0-11.71-1.67-15.9-.84-8.37.84,18.41-66.93-11.71-5.86-2.51-5.02-6.69-13.39-2.51-17.57,7.53-8.37,7.53-20.08,12.55-29.28,4.18-11.71,6.69-23.43,10.04-35.14.84-1.67,0-3.35.84-5.02,13.39-15.9,10.04-30.96,19.24-46.85,5.86-8.37,3.35-15.9,8.37-23.43,3.35-5.02,3.35-7.53-2.51-8.37-13.39-1.67-19.24-12.55-24.26-24.26-1.67-1.67,0-3.35,1.67-4.18,1.67,0,5.02-.84,8.37-.84,5.86,0,10.04.84,15.06.84,15.9,0,20.92-1.67,24.26-15.9,5.02-20.92,15.06-39.32,21.75-57.73,6.69-18.41,15.06-35.98,16.73-53.54,0-4.18,1.67-6.69,4.18-10.04,8.37-17.57,15.9-35.98,23.43-54.38,2.51-10.88,6.69-21.75,10.04-32.63,5.02-15.9,13.39-29.28,18.41-44.34,4.18-13.39,10.04-27.61,15.9-39.32,5.02-10.04,5.02-20.08,9.2-28.45,5.02-9.2,9.2-18.41,10.04-27.61-.84-1.67,0-3.35,0-5.02,2.51-5.02,6.69-9.2,9.2-12.55,1.67-4.18,1.67-9.2,4.18-11.71,4.18-5.86.84-9.2,3.35-13.39,2.51-4.18,4.18-8.37,7.53-12.55,3.35-4.18-1.67-6.69.84-11.71,3.35-5.02,4.18-12.55,7.53-17.57,3.35-6.69,2.51-12.55,4.18-18.41,0-2.51,1.67-5.02,3.35-6.69,5.02-5.86,11.71-9.2,15.06-16.73,1.67-2.51,3.35,1.67,3.35,3.35.84,3.35,3.35,2.51,4.18,0,5.02-2.51,6.69-6.69,7.53-10.88.84-5.02,3.35-4.18,6.69-3.35.84.84,4.18.84,6.69,0,5.86-2.51,13.39-2.51,20.92-3.35,1.67,0,24.26-3.35,24.26-1.67,1.67,5.86,7.53,10.88,5.02,17.57-1.67,5.02-6.69,10.04-5.02,15.9,3.35,5.86-4.18,10.88,0,15.9.84.84.84,2.51.84,4.18-.84,25.94-.84,50.2-3.35,75.3-2.51,12.55-5.86,25.1-1.67,35.98.84,2.51.84,4.18-.84,5.02-9.2,15.06-4.18,31.79-13.39,46.85-.84.84,0,5.02.84,7.53,1.67,5.02,0,10.04-2.51,15.9-3.35,5.02-5.02,13.39-3.35,18.41,5.02,13.39-1.67,28.45-1.67,42.67-.84,8.37-8.37,14.22-6.69,23.43,0,5.86,3.35,11.71.84,19.24-1.67,5.02-2.51,10.88-12.55,15.06-3.35,5.86-4.18,13.39-1.67,20.92,0,.84.84,2.51,1.67,3.35-2.51,4.18-3.35,8.37-5.86,13.39h-1.67l-3.35.84v2.51c2.51,0,3.35-1.67,3.35-3.35,4.18.84,5.86,3.35,4.18,5.86-4.18,5.86-3.35,9.2,1.67,12.55,1.67,1.67,3.35,5.86,0,7.53,3.35,5.02,8.37,11.71,5.02,19.24-2.51,5.02,3.35,10.04,1.67,16.73,5.02,2.51,20.08,4.18,15.9,8.37,7.53,2.51,5.02,2.51,1.67,7.53-1.67,4.18-4.18,9.2-9.2,12.55-5.02,2.51-16.73,5.02-21.75,7.53,2.51,5.02,3.35,9.2,2.51,14.22,0,2.51-.84,7.53,0,9.2,12.55,6.69,10.04,15.06,10.04,23.43.84,5.86-7.53,9.2-3.35,15.9.84,4.18,0,10.04.84,15.9,0,4.18-.84,5.02-4.18,6.69-4.18,1.67-13.39,8.37-12.55,10.04,15.06,3.35,12.55,7.53,12.55,13.39-.84,5.02,2.51,9.2,2.51,15.06,0,5.02,1.67,9.2,1.67,15.9-1.67,5.86-.84,30.12-1.67,35.14-1.67,0-2.51-.84-3.35-.84-1.67-1.67-3.35-3.35-4.18.84-.84,2.51-.84,5.86-.84,9.2,4.18,11.71,2.51,25.1,6.69,37.65-3.35,6.69-1.67,12.55-2.51,17.57-1.67,5.86-7.53,8.37-11.71,6.69-6.69-3.35-33.47-1.67-35.98-9.2Zm-82.83-254.34c14.22-3.35,28.45-9.2,41.83-7.53,5.02.84,10.88-5.02,18.41-3.35,5.86,1.67,13.39-1.67,20.92-3.35-1.67-7.53-6.69-12.55-5.86-20.92-.84-6.69,2.51-14.22-1.67-19.24,0-.84.84-3.35,1.67-4.18,8.37-7.53,6.69-15.06,5.02-21.75-1.67-5.86-2.51-11.71-1.67-18.41,1.67-13.39,3.35-27.61,3.35-41,.84-4.18,2.51-9.2.84-13.39-5.02-18.41,5.86-38.49.84-56.89-.84-2.51,4.18-7.53,2.51-10.88-2.51-16.73,2.51-34.3,3.35-50.2,0-9.2-1.67-19.24-3.35-30.96l-17.57,43.5c-5.02,9.2-6.69,17.57-9.2,27.61-3.35,10.04-5.86,18.41-7.53,28.45,0,8.37-2.51,16.73-9.2,25.94-4.18,4.18-5.02,9.2-5.86,15.06-.84,6.69,0,15.9-3.35,20.92-5.86,11.71-10.88,24.26-15.9,36.81-3.35,10.88-31.79,38.49-21.75,36.81,15.06-3.35,0,16.73-5.02,29.28-6.69,13.39-10.88,28.45-16.73,42.67,9.2-2.51,18.41-3.35,25.94-5.02Zm81.99,122.99h-.84c0,.84-1.67,2.51-.84,3.35-1.67,1.67.84,2.51.84,2.51,1.67,0,2.51-4.18.84-5.86Zm0-32.63c0-1.67-.84-1.67-1.67,0l.84.84c.84,0,.84-.84.84-.84Zm13.39,127.17c0-.84-1.67-2.51-2.51-3.35,0,.84-2.51.84-1.67,1.67v4.18c1.67-1.67,4.18-1.67,4.18-2.51Zm25.94-242.63c-1.67-.84-1.67-1.67-2.51-1.67l-.84.84v1.67c.84-.84,1.67-.84,3.35-.84Zm0-20.92l-.84.84c-.84,3.35,0,3.35,1.67.84,1.67-.84,0-.84-.84-1.67Zm-.84-36.81c.84.84,1.67.84,2.51.84,0-1.67.84-2.51-2.51-.84Zm9.2,244.3l1.67-3.35c0-3.35-.84-5.02-.84-7.53l-3.35,6.69c.84,1.67.84,2.51,0,4.18,0,.84.84.84,1.67,1.67,0-.84.84-.84.84-1.67Z"/>
      <path class="cls-2" d="m400.84,658.9c-12.55-3.35-22.59-9.2-26.77-17.57-4.18-7.53-10.04-13.39-15.9-20.08-5.86-5.86-10.04-12.55-12.55-19.24-5.86-18.41-13.39-36.81-18.41-56.05-1.67-6.69,2.51-12.55,0-19.24-2.51-5.86,1.67-12.55-2.51-19.24-1.67-3.35,4.18-6.69,4.18-9.2-3.35-8.37,2.51-16.73,1.67-25.94-1.67-18.41,0-36.81,10.04-55.22l.84-5.86c3.35-20.08,12.55-39.32,19.24-58.56,3.35-10.88,10.04-20.92,10.88-30.96,2.51-7.53,9.2-14.22,14.22-20.92,3.35-3.35,6.69-5.86,4.18-10.88-2.51-1.67,1.67-5.02,4.18-6.69,6.69-4.18,12.55-8.37,15.06-15.06.84-3.35,6.69-5.86,14.22-6.69,23.43-4.18,47.69-8.37,72.79-10.04,10.88-.84,21.75,2.51,30.12,6.69,5.86,3.35,7.53,8.37,7.53,14.22-1.67,10.04-.84,20.08-1.67,30.12-.84,6.69,0,11.71-.84,18.41-2.51,5.86,1.67,15.06-2.51,21.75-7.53,14.22-2.51,28.45-11.71,42.67-2.51,3.35-2.51,6.69-8.37,7.53-6.69,1.67-12.55,4.18-20.08,3.35l-17.57-5.02c-10.88-2.51-15.9-7.53-16.73-15.06,0-2.51,0-5.02,1.67-5.86,13.39-6.69,11.71-17.57,17.57-26.77,6.69-13.39,1.67-25.94,1.67-40.16,0-2.51-2.51-5.86-3.35-7.53-.84-1.67-3.35-3.35-5.02-5.02-2.51-.84-5.02.84-7.53,1.67-4.18,3.35-9.2,5.86-9.2,10.04-1.67,6.69-6.69,11.71-10.04,17.57-6.69,9.2-7.53,18.41-13.39,27.61-5.86,10.04-10.04,19.24-14.22,29.28-5.02,10.88-7.53,23.43-13.39,34.3-5.02,10.04-5.02,20.92-10.88,31.79,6.69,5.86-2.51,10.88-3.35,16.73-.84,6.69-3.35,13.39.84,19.24-5.86,5.86-2.51,11.71-3.35,16.73,0,15.9-2.51,31.79-.84,47.69,1.67,13.39,5.02,26.77,6.69,40.16,10.04,7.53,9.2,14.22,17.57,23.43.84,11.71,10.88,20.08,17.57,29.28,1.67,2.51,5.86,2.51,9.2,0,10.04-10.04,13.39-20.08,18.41-30.12,6.69-15.06,13.39-25.94,23.43-41.83,8.37-15.9,12.55-30.96,22.59-46.02,4.18-5.86,6.69-11.71,5.86-17.57q0-7.53,11.71-7.53c14.22,0,14.22,1.67,19.24,10.04,3.35,6.69,3.35,13.39,0,19.24-7.53,13.39-6.69,28.45-15.9,41-1.67,2.51-1.67,5.02-3.35,7.53-19.24,25.1-24.26,50.2-41,73.62-3.35,3.35-7.53,7.53-10.88,11.71-4.18,5.86-10.04,8.37-18.41,8.37-15.06,0-30.12-2.51-43.51-5.86Z"/>
      <path class="cls-2" d="m686.98,697.39c-10.04-17.57-20.08-40.16-16.73-70.28,3.35-25.94,1.67-26.77,3.35-53.54.84-4.18-1.67-9.2-5.02-13.39-2.51-6.69-.84-14.22,0-21.75,0-6.69,5.86-10.04,5.02-16.73-.84-5.02,0-10.88,0-17.57l2.51-16.73c0-2.51.84-7.53-.84-9.2-9.2-7.53-4.18-17.57-1.67-28.45,0-.84-1.67-2.51-1.67-2.51-1.67,0-3.35.84-4.18,1.67-7.53,14.22-15.9,28.45-20.92,43.5-10.88,25.1-19.24,51.87-30.12,76.97-10.88,27.61-20.92,56.89-34.3,83.66l-6.69,10.04c-.84,2.51-3.35,4.18-5.02,5.02-11.71,1.67-23.43,3.35-31.79-4.18-7.53-5.86-12.55-13.39-19.24-20.08-5.86-5.02-8.37-11.71-2.51-20.08.84-2.51,3.35-5.02,1.67-8.37-2.51-6.69,0-13.39,4.18-19.24,1.67-4.18,5.02-10.88,3.35-14.22-5.02-11.71,1.67-22.59,8.37-32.63,5.86-6.69,6.69-15.06,6.69-23.43,1.67-23.43,5.86-45.18,9.2-67.77,0-8.37,10.04-15.9,3.35-25.1l2.51-25.94c2.51-8.37,4.18-16.73,5.02-25.94.84-8.37,2.51-17.57-.84-25.94,5.86-7.53,2.51-14.22,2.51-21.75-1.67-10.88,0-21.75,5.02-31.79,2.51-4.18,3.35-7.53,1.67-10.88-.84-1.67-1.67-3.35-.84-5.86,2.51-30.12,0-60.24,5.86-89.52,1.67-7.53,2.51-13.39.84-20.92-1.67-5.86,5.86-12.55.84-19.24,0-.84,0-4.18.84-5.02,10.88-15.9,5.86-28.45-.84-41-.84-.84-1.67-1.67-.84-2.51-9.2-10.88,1.67-26.77,17.57-27.61,9.2-.84,19.24-3.35,29.28-3.35,15.06-1.67,23.43,5.02,25.94,19.24.84,10.04,3.35,19.24.84,30.96l-4.18,29.28c-1.67,11.71-2.51,23.43-3.35,35.14-.84,10.88-.84,22.59-2.51,33.47-1.67,10.04,0,18.41-5.86,27.61-4.18,8.37-5.86,18.41-3.35,26.77,5.02,16.73-3.35,34.3-3.35,51.87-.84,4.18-2.51,7.53-5.02,10.88-5.02,6.69-4.18,13.39-5.86,20.08-.84,6.69-6.69,12.55-2.51,19.24-2.51,11.71-1.67,25.1-8.37,37.65-2.51,5.02-3.35,11.71-2.51,16.73,0,6.69,0,12.55-2.51,20.08-2.51,5.86,0,14.22,1.67,20.92-.84.84,0,2.51.84,2.51s1.67-1.67,2.51-2.51c7.53-24.26,21.75-46.85,29.28-71.12,1.67-.84,3.35-1.67,4.18-3.35,15.06-37.65,37.65-71.95,60.24-107.09,3.35-4.18,6.69-8.37,6.69-13.39.84-2.51,3.35-4.18,6.69-5.02,10.04-1.67,21.75.84,32.63-5.02,1.67-1.67,5.86,0,7.53,1.67,10.04,7.53,15.9,17.57,13.39,31.79-4.18,25.1-7.53,50.2-10.88,75.3-11.71,18.41-8.37,39.32-18.41,56.89-1.67,4.18-2.51,8.37-3.35,11.71-1.67,10.04-2.51,19.24-7.53,29.28-4.18,8.37,2.51,15.9,0,25.1-5.02,27.61-7.53,55.22-10.88,82.83-1.67,14.22-7.53,29.28-.84,42.67l-3.35,25.94c-.84,8.37,1.67,11.71,0,20.08,0,12.55,2.51,20.92,7.53,29.28,1.67,2.51,5.02,4.18,5.02,6.69,1.67,1.67.84,3.35,0,5.02.84,3.35-3.35,6.69-5.86,5.86-7.53-2.51-25.94-15.9-30.12-23.43Zm-97.05-430.87c.84-7.53,0-15.06-2.51-20.08l-2.51-.84c-1.67,11.71-5.86,23.43-5.86,34.3,0,5.02,0,8.37,1.67,13.39.84.84.84,4.18.84,3.35,2.51-7.53,6.69-19.24,8.37-30.12Zm.84,235.1l.84-18.41-7.53,18.41h6.69Zm2.51-312.9c3.35-23.43,3.35-39.32,4.18-51.04l-5.02,5.86c-3.35,26.77-5.02,52.71-4.18,79.48l.84,6.69c3.35-.84,2.51-31.79,4.18-41Z"/>
      <path class="cls-2" d="m789.04,663.09c-9.2-.84-15.9-6.69-25.94-5.02-5.86.84-10.04-2.51-12.55-5.86-3.35-3.35-6.69-6.69-9.2-10.04-.84-.84,1.67-3.35.84-4.18-.84-9.2-3.35-17.57,1.67-26.77,1.67-2.51,5.02.84,6.69,0,2.51-1.67,2.51-11.71,1.67-11.71-8.37,2.51-8.37-1.67-6.69-6.69.84-4.18-.84-7.53,5.02-10.88l1.67-11.71c1.67-15.06,3.35-30.12,7.53-45.18,5.02-15.06,4.18-30.12,10.04-45.18,5.02-10.04-2.51-20.92,4.18-31.79,2.51-36.81,12.55-65.26,15.9-93.7,0-8.37,1.67-16.73-2.51-24.26-1.67-1.67-2.51-6.69,1.67-9.2,3.35-.84,6.69-.84,10.04-.84,2.51,0,3.35,2.51,5.86,2.51,13.39,2.51,25.1,7.53,34.3,16.73.84,13.39,5.02,25.1,4.18,39.32-1.67,12.55-1.67,25.1-4.18,37.65-1.67,11.71-1.67,30.96-5.02,42.67-2.51,10.88-3.35,22.59-5.86,34.3-.84,5.02-4.18,10.88-1.67,16.73.84,3.35-5.86,8.37-5.02,14.22v17.57l-2.51,15.06c-1.67,11.71-2.51,23.43-7.53,35.14-5.02,10.88-5.02,22.59-7.53,33.47-1.67,10.88-5.02,21.75-5.86,31.79.84,2.51-1.67,5.02-1.67,7.53-2.51-.84-5.02-1.67-7.53-1.67Zm-35.14-73.62c0-1.67,0-3.35-.84-4.18,0-1.67-1.67-1.67-2.51-1.67,0,.84-.84,2.51,0,3.35,0,1.67.84,2.51.84,4.18l2.51-1.67Zm6.69,29.28c-3.35-5.86,3.35-6.69-1.67-6.69l-2.51-.84-2.51,9.2v.84c0,8.37,8.37.84,6.69-2.51Zm5.86-46.85c.84-3.35,1.67-14.22-1.67-10.88-1.67,3.35-3.35,9.2-4.18,15.06-1.67,8.37-1.67,17.57-2.51,22.59l2.51,1.67c.84,10.88,5.02-22.59,5.86-28.45Zm47.69-318.76c-2.51-10.88-8.37-20.08-7.53-32.63,2.51-26.77,9.2-51.87,20.92-76.97,2.51-5.02,2.51-9.2,4.18-14.22l4.18-.84c10.88-.84,15.9,9.2,25.94,10.88,4.18,0,6.69,4.18,9.2,7.53,5.86,5.86,7.53,13.39,1.67,21.75-2.51,5.02-4.18,10.04-5.86,15.06-1.67,6.69-5.02,14.22-5.86,20.92-.84,6.69-5.02,13.39-6.69,20.08-1.67,7.53-2.51,15.06-5.02,22.59-1.67,6.69-4.18,12.55-6.69,19.24-1.67,2.51-2.51,2.51-5.02,1.67-9.2-3.35-15.06-10.88-23.43-15.06Z"/>
      <path class="cls-2" d="m873.53,647.19c-2.51-3.35-3.35-7.53-6.69-10.88-7.53-9.2-9.2-20.08-6.69-32.63.84-2.51,2.51-6.69,4.18-8.37,1.67-2.51,2.51-5.86.84-8.37-.84-4.18-5.02-6.69-5.86-11.71,0-7.53-2.51-10.88-9.2-14.22-2.51-1.67-4.18-4.18-5.86-5.86-.84-2.51,0-4.18.84-5.86.84-.84,2.51,0,3.35,0,2.51.84,3.35.84,3.35-.84,1.67-5.86,3.35-12.55,3.35-18.41.84-1.67,0-3.35-2.51-3.35,0,0-1.67,1.67-2.51,3.35,0,3.35-.84,6.69-1.67,11.71-4.18-5.02-1.67-10.88-1.67-15.06,0-5.02.84-9.2.84-13.39,1.67-5.86-4.18-9.2.84-15.06,3.35-4.18,5.02-9.2,10.04-13.39,4.18-5.86,4.18-11.71-.84-17.57-2.51-2.51-2.51-5.86-1.67-8.37,6.69-9.2,6.69-20.08,12.55-29.28,2.51-2.51,5.02-7.53,5.02-10.04,1.67-9.2,5.02-18.41,10.04-26.77,2.51-2.51,0-3.35-1.67-4.18-2.51-.84-3.35-2.51,0-3.35,1.67-.84,4.18-1.67,5.86-4.18,0-5.02,0-10.88,4.18-15.06,4.18-5.02,1.67-10.88,6.69-13.39,8.37-1.67,2.51-6.69,5.02-10.04,8.37-11.71,15.06-25.94,23.43-37.65,1.67-7.53,7.53-11.71,10.88-16.73,3.35-3.35,5.86-6.69,8.37-10.04.84-1.67,1.67-4.18,1.67-5.02-.84-2.51-2.51-3.35-5.86-5.02,6.69-.84,10.88-.84,15.06-3.35l12.55-7.53c5.02-3.35,10.88-5.86,16.73-8.37,5.86-3.35,14.22-5.86,21.75-5.86,6.69,0,12.55-.84,18.41,0,18.41,0,29.28,9.2,30.96,27.61,3.35,13.39,2.51,28.45.84,42.67l-3.35,20.92c0,1.67,1.67,5.02,3.35,5.86,1.67,1.67,5.02,2.51.84,5.86-8.37,6.69-6.69,14.22-3.35,20.92-1.67.84-3.35.84-4.18,2.51-1.67,3.35,0,5.02,0,8.37,2.51,6.69,1.67,12.55-3.35,19.24-3.35,5.02-5.02,10.88-9.2,14.22-8.37,10.88-11.71,23.43-21.75,33.47-5.86,6.69-14.22,12.55-20.08,20.08-13.39,6.69-22.59,20.92-37.65,22.59-2.51,0-6.69,2.51-9.2,3.35-5.02,2.51-10.04,5.86-14.22,2.51-7.53,2.51-9.2-2.51-14.22-4.18-2.51-1.67-5.86-1.67-7.53,2.51-4.18,1.67-5.02,5.02-5.02,9.2,0,.84,1.67,2.51,1.67,2.51,5.86-2.51,6.69,1.67,5.02,5.86,0,1.67-1.67,3.35-3.35,5.02-5.86,7.53-5.86,15.06-2.51,22.59,3.35,4.18,1.67,6.69-.84,10.88-2.51,1.67-2.51,5.02-2.51,8.37,4.18,9.2,3.35,19.24,5.02,28.45,4.18,14.22,9.2,26.77,14.22,40.16,5.02,10.04,15.9,14.22,28.45,8.37,10.04-3.35,17.57-8.37,24.26-16.73,10.04-10.04,20.08-20.08,25.1-33.46,2.51-5.02,3.35-10.88,4.18-15.06,1.67-5.02,7.53-7.53,10.88-5.86,5.86,5.02,11.71,9.2,10.88,17.57,0,4.18,0,7.53,3.35,10.04-.84,4.18-1.67,8.37-3.35,11.71-4.18,6.69-8.37,12.55-10.04,19.24-4.18,17.57-16.73,26.77-33.47,33.47-9.2,2.51-16.73,6.69-25.94,9.2-16.73,6.69-34.3,10.04-50.2,7.53-16.73-1.67-26.77-13.39-36.81-23.43Zm-9.2-149.76c0-2.51-.84-5.02-.84-6.69h-1.67l-1.67,5.86c0,1.67.84,2.51,1.67,3.35.84-.84,2.51-1.67,2.51-2.51Zm18.41-17.57c-3.35,5.86-2.51,11.71-7.53,15.9-4.18,6.69-5.02,10.88-5.02,16.73.84,10.88,3.35,21.75,1.67,34.3-.84,1.67.84,3.35,3.35,3.35,3.35-23.43,5.86-46.02,7.53-70.28Zm7.53,130.52v-1.67c-1.67-5.02-5.86-8.37-5.86-13.39,1.67-15.06-6.69-28.45-5.86-42.67,0-.84-1.67-1.67-2.51-1.67-1.67,5.86-1.67,9.2-5.02,14.22,1.67,12.55.84,24.26,5.86,35.98,1.67,5.02,5.02,7.53,9.2,10.04,2.51.84,3.35,1.67,4.18-.84Zm.84,17.57s-.84,0-.84.84c0,1.67,0,2.51,1.67,2.51,0-.84,0-1.67-.84-3.35Zm2.51,4.18c0,1.67.84,3.35,3.35,3.35-.84-1.67-1.67-2.51-3.35-3.35Zm11.71,8.37c-2.51-.84-5.86-2.51-8.37-4.18,0,9.2,5.02,11.71,16.73,11.71-2.51-3.35-4.18-5.86-8.37-7.53Zm14.22,10.04c-.84-.84-.84-1.67-2.51-1.67h-3.35c0,.84,0,1.67.84,3.35.84.84,2.51.84,3.35.84s1.67-.84,1.67-2.51Zm-5.02-158.96c.84,1.67,1.67,1.67,3.35,2.51,0,1.67-.84,2.51-2.51,1.67-.84-.84,0-2.51-.84-4.18Zm4.18-35.14v-.84c7.53.84,15.9-3.35,21.75,1.67,2.51,1.67,5.86.84,7.53-1.67,12.55-11.71,22.59-23.43,31.79-37.65,7.53-15.06,15.06-28.45,16.73-43.5,0-3.35,1.67-7.53,3.35-10.88,7.53-14.22,1.67-29.28,5.02-43.5,1.67-5.02-6.69-6.69-6.69-12.55,0-.84-3.35-.84-5.86-.84s-5.86,0-8.37,1.67c-10.88,5.02-20.08,11.71-26.77,22.59-4.18,9.2-9.2,16.73-12.55,25.1-9.2,20.08-18.41,40.16-24.26,61.07-3.35,12.55-6.69,25.94-1.67,39.32-1.67,0-4.18,0-2.51,2.51l2.51-2.51Zm49.36-156.45c0-.84.84-1.67,1.67-2.51-1.67,0-3.35.84-2.51,2.51h.84Zm8.37-4.18c.84,0,1.67-2.51,1.67-3.35.84-1.67-.84-2.51-1.67-2.51s-4.18,0-4.18.84c-1.67,1.67-1.67,5.02-1.67,6.69,2.51-.84,4.18-.84,5.86-1.67Zm80.32,71.95c.84,0,2.51.84.84,3.35h-.84c-.84-.84,0-2.51,0-3.35Zm2.51-10.88c0-1.67,1.67-1.67,2.51-2.51-.84.84-.84,2.51-2.51,3.35-.84.84-1.67,0,0-.84Zm5.86-6.69c1.67,4.18-.84,4.18-3.35,4.18.84-1.67,2.51-2.51,3.35-4.18Z"/>
      <path class="cls-2" d="m1122.02,668.94c-11.71-9.2-24.26-18.41-38.49-25.1q-8.37-5.02-5.86-15.9c.84-5.86,1.67-11.71,4.18-18.41,7.53-15.06,8.37-31.79,7.53-47.69-.84-7.53-1.67-15.06,0-22.59,3.35-20.92,1.67-41-.84-61.07-1.67-13.39,0-28.45-1.67-42.67-.84-25.94,1.67-52.71-2.51-77.81-1.67-11.71,1.67-23.43-1.67-35.14-3.35-12.55-5.02-24.26-18.41-30.12-1.67,0-.84-4.18-1.67-5.86.84-.84,4.18-1.67,5.02-2.51,10.04-1.67,18.41,3.35,27.61,4.18,22.59,1.67,26.77,16.73,28.45,35.14.84,5.86.84,11.71,3.35,16.73,5.02,10.04,4.18,20.92,5.02,31.79,1.67,15.06.84,30.12,3.35,45.18,1.67,5.02-.84,11.71,0,17.57.84,15.9,0,31.79,3.35,47.69l.84,1.67c.84-.84,2.51-.84,4.18-2.51,1.67-3.35,5.02-7.53,5.86-11.71,3.35-11.71,10.04-22.59,15.06-34.3,12.55-25.1,25.94-49.36,40.16-73.62,10.88-19.24,20.08-38.49,34.3-56.05,5.86-6.69,7.53-17.57,13.39-25.94,5.02-7.53,7.53-15.9,15.06-21.75,8.37-5.86,14.22-13.39,20.08-21.75,3.35-5.02,5.86-8.37,11.71-10.88,15.06-5.02,24.26-2.51,31.79,10.88.84,1.67,0,3.35,0,5.02-4.18,6.69-5.86,15.06-13.39,20.92-10.04,7.53-14.22,18.41-20.92,27.61-6.69,10.04-15.9,17.57-19.24,29.28-1.67,4.18-4.18,8.37-7.53,11.71-14.22,19.24-25.1,39.32-30.96,61.91-2.51,5.86-5.02,11.71-8.37,16.73-10.88,14.22-13.39,30.96-23.43,46.01l-1.67,2.51c-4.18,10.04-4.18,21.75-10.88,32.63-4.18,8.37-6.69,19.24-9.2,29.28-2.51,10.88-5.86,21.75-10.04,32.63-5.86,14.22-11.71,28.45-11.71,42.67-9.2,23.43-12.55,47.69-19.24,71.11-1.67,4.18-4.18,5.86-8.37,5.86-5.86.84-10.04,0-14.22-3.35Z"/>
      <path class="cls-2" d="m1280.14,647.19c-2.51-3.35-3.35-7.53-6.69-10.88-7.53-9.2-9.2-20.08-6.69-32.63.84-2.51,2.51-6.69,4.18-8.37,1.67-2.51,2.51-5.86.84-8.37-.84-4.18-5.02-6.69-5.86-11.71,0-7.53-2.51-10.88-9.2-14.22-2.51-1.67-4.18-4.18-5.86-5.86-.84-2.51,0-4.18.84-5.86.84-.84,2.51,0,3.35,0,2.51.84,3.35.84,3.35-.84,1.67-5.86,3.35-12.55,3.35-18.41.84-1.67,0-3.35-2.51-3.35,0,0-1.67,1.67-2.51,3.35,0,3.35-.84,6.69-1.67,11.71-4.18-5.02-1.67-10.88-1.67-15.06,0-5.02.84-9.2.84-13.39,1.67-5.86-4.18-9.2.84-15.06,3.35-4.18,5.02-9.2,10.04-13.39,4.18-5.86,4.18-11.71-.84-17.57-2.51-2.51-2.51-5.86-1.67-8.37,6.69-9.2,6.69-20.08,12.55-29.28,2.51-2.51,5.02-7.53,5.02-10.04,1.67-9.2,5.02-18.41,10.04-26.77,2.51-2.51,0-3.35-1.67-4.18-2.51-.84-3.35-2.51,0-3.35,1.67-.84,4.18-1.67,5.86-4.18,0-5.02,0-10.88,4.18-15.06,4.18-5.02,1.67-10.88,6.69-13.39,8.37-1.67,2.51-6.69,5.02-10.04,8.37-11.71,15.06-25.94,23.43-37.65,1.67-7.53,7.53-11.71,10.88-16.73,3.35-3.35,5.86-6.69,8.37-10.04.84-1.67,1.67-4.18,1.67-5.02-.84-2.51-2.51-3.35-5.86-5.02,6.69-.84,10.88-.84,15.06-3.35l12.55-7.53c5.02-3.35,10.88-5.86,16.73-8.37,5.86-3.35,14.22-5.86,21.75-5.86,6.69,0,12.55-.84,18.41,0,18.41,0,29.28,9.2,30.96,27.61,3.35,13.39,2.51,28.45.84,42.67l-3.35,20.92c0,1.67,1.67,5.02,3.35,5.86,1.67,1.67,5.02,2.51.84,5.86-8.37,6.69-6.69,14.22-3.35,20.92-1.67.84-3.35.84-4.18,2.51-1.67,3.35,0,5.02,0,8.37,2.51,6.69,1.67,12.55-3.35,19.24-3.35,5.02-5.02,10.88-9.2,14.22-8.37,10.88-11.71,23.43-21.75,33.47-5.86,6.69-14.22,12.55-20.08,20.08-13.39,6.69-22.59,20.92-37.65,22.59-2.51,0-6.69,2.51-9.2,3.35-5.02,2.51-10.04,5.86-14.22,2.51-7.53,2.51-9.2-2.51-14.22-4.18-2.51-1.67-5.86-1.67-7.53,2.51-4.18,1.67-5.02,5.02-5.02,9.2,0,.84,1.67,2.51,1.67,2.51,5.86-2.51,6.69,1.67,5.02,5.86,0,1.67-1.67,3.35-3.35,5.02-5.86,7.53-5.86,15.06-2.51,22.59,3.35,4.18,1.67,6.69-.84,10.88-2.51,1.67-2.51,5.02-2.51,8.37,4.18,9.2,3.35,19.24,5.02,28.45,4.18,14.22,9.2,26.77,14.22,40.16,5.02,10.04,15.9,14.22,28.45,8.37,10.04-3.35,17.57-8.37,24.26-16.73,10.04-10.04,20.08-20.08,25.1-33.46,2.51-5.02,3.35-10.88,4.18-15.06,1.67-5.02,7.53-7.53,10.88-5.86,5.86,5.02,11.71,9.2,10.88,17.57,0,4.18,0,7.53,3.35,10.04-.84,4.18-1.67,8.37-3.35,11.71-4.18,6.69-8.37,12.55-10.04,19.24-4.18,17.57-16.73,26.77-33.47,33.47-9.2,2.51-16.73,6.69-25.94,9.2-16.73,6.69-34.3,10.04-50.2,7.53-16.73-1.67-26.77-13.39-36.81-23.43Zm-9.2-149.76c0-2.51-.84-5.02-.84-6.69h-1.67l-1.67,5.86c0,1.67.84,2.51,1.67,3.35.84-.84,2.51-1.67,2.51-2.51Zm18.41-17.57c-3.35,5.86-2.51,11.71-7.53,15.9-4.18,6.69-5.02,10.88-5.02,16.73.84,10.88,3.35,21.75,1.67,34.3-.84,1.67.84,3.35,3.35,3.35,3.35-23.43,5.86-46.02,7.53-70.28Zm7.53,130.52v-1.67c-1.67-5.02-5.86-8.37-5.86-13.39,1.67-15.06-6.69-28.45-5.86-42.67,0-.84-1.67-1.67-2.51-1.67-1.67,5.86-1.67,9.2-5.02,14.22,1.67,12.55.84,24.26,5.86,35.98,1.67,5.02,5.02,7.53,9.2,10.04,2.51.84,3.35,1.67,4.18-.84Zm.84,17.57s-.84,0-.84.84c0,1.67,0,2.51,1.67,2.51,0-.84,0-1.67-.84-3.35Zm2.51,4.18c0,1.67.84,3.35,3.35,3.35-.84-1.67-1.67-2.51-3.35-3.35Zm11.71,8.37c-2.51-.84-5.86-2.51-8.37-4.18,0,9.2,5.02,11.71,16.73,11.71-2.51-3.35-4.18-5.86-8.37-7.53Zm14.22,10.04c-.84-.84-.84-1.67-2.51-1.67h-3.35c0,.84,0,1.67.84,3.35.84.84,2.51.84,3.35.84s1.67-.84,1.67-2.51Zm-5.02-158.96c.84,1.67,1.67,1.67,3.35,2.51,0,1.67-.84,2.51-2.51,1.67-.84-.84,0-2.51-.84-4.18Zm4.18-35.14v-.84c7.53.84,15.9-3.35,21.75,1.67,2.51,1.67,5.86.84,7.53-1.67,12.55-11.71,22.59-23.43,31.79-37.65,7.53-15.06,15.06-28.45,16.73-43.5,0-3.35,1.67-7.53,3.35-10.88,7.53-14.22,1.67-29.28,5.02-43.5,1.67-5.02-6.69-6.69-6.69-12.55,0-.84-3.35-.84-5.86-.84s-5.86,0-8.37,1.67c-10.88,5.02-20.08,11.71-26.77,22.59-4.18,9.2-9.2,16.73-12.55,25.1-9.2,20.08-18.41,40.16-24.26,61.07-3.35,12.55-6.69,25.94-1.67,39.32-1.67,0-4.18,0-2.51,2.51l2.51-2.51Zm49.36-156.45c0-.84.84-1.67,1.67-2.51-1.67,0-3.35.84-2.51,2.51h.84Zm8.37-4.18c.84,0,1.67-2.51,1.67-3.35.84-1.67-.84-2.51-1.67-2.51s-4.18,0-4.18.84c-1.67,1.67-1.67,5.02-1.67,6.69,2.51-.84,4.18-.84,5.86-1.67Zm80.32,71.95c.84,0,2.51.84.84,3.35h-.84c-.84-.84,0-2.51,0-3.35Zm2.51-10.88c0-1.67,1.67-1.67,2.51-2.51-.84.84-.84,2.51-2.51,3.35-.84.84-1.67,0,0-.84Zm5.86-6.69c1.67,4.18-.84,4.18-3.35,4.18.84-1.67,2.51-2.51,3.35-4.18Z"/>
      <path class="cls-2" d="m1761.22,727.51c-2.51-2.51-5.02-7.53-11.71-5.86-3.35,0-5.02-6.69-7.53-8.37-13.39-10.04-20.92-25.1-21.75-43.51-.84-9.2-2.51-18.41-9.2-23.43-2.51-1.67-2.51-4.18-3.35-7.53.84-2.51,0-6.69-.84-8.37-3.35-6.69-4.18-13.39-3.35-20.92.84-5.86-3.35-11.71,2.51-19.24,2.51-2.51,1.67-8.37.84-13.39-2.51-8.37-2.51-19.24-3.35-28.45.84-7.53,2.51-15.06,3.35-22.59,2.51-9.2,3.35-18.41,4.18-26.77,0-7.53-2.51-15.9,3.35-23.43-.84-20.08,9.2-38.49,10.88-58.57.84-6.69,3.35-14.22,6.69-20.92,3.35-7.53,3.35-15.9,5.02-24.26,1.67-3.35,0-7.53-2.51-9.2,4.18-1.67,5.02-5.86,5.02-10.88l2.51-15.06c0-1.67,0-4.18-1.67-2.51-1.67,0-3.35,0-4.18.84-3.35,3.35-2.51,9.2-6.69,13.39-4.18,4.18-3.35,10.88-7.53,15.9-3.35,4.18-4.18,10.88-5.02,15.9-4.18,10.04-10.04,19.24-14.22,29.28-1.67,1.67-3.35,4.18-3.35,6.69-3.35,15.9-2.51,15.9-10.04,27.61-2.51,3.35-1.67,8.37-3.35,11.71-3.35,11.71-5.02,22.59-12.55,32.63-7.53,10.88-13.39,24.26-15.9,37.65-3.35,11.71-9.2,24.26-20.08,30.96-10.88,5.86-20.92,8.37-32.63,11.71-.84,0-2.51-.84-3.35-1.67-5.02-4.18-12.55-4.18-15.9-10.04-1.67-1.67-4.18-1.67-5.86-2.51,1.67-.84,4.18,0,4.18-3.35,0-1.67-1.67-3.35-3.35-5.02-5.86-6.69-15.06-15.06-13.39-24.26l6.69-46.85c.84-8.37,0-16.73,3.35-25.94,3.35-8.37.84-16.73,4.18-25.1,1.67-3.35,0-6.69,0-11.71-5.02,6.69-9.2,13.39-10.04,20.92-1.67,6.69-6.69,14.22-10.88,20.08-10.04,14.22-6.69,31.79-15.06,46.85-5.86,8.37-8.37,19.24-11.71,28.45-4.18,8.37-10.04,15.9-9.2,25.1-11.71,13.39-14.22,30.12-20.92,45.18-3.35,6.69-5.86,14.22-9.2,22.59q-.84.84-.84,1.67c2.51,10.88-5.02,18.41-11.71,25.94-3.35,3.35-5.02,10.04-6.69,15.9s-4.18,5.86-7.53,4.18c-3.35-3.35-8.37-3.35-12.55-6.69-2.51-4.18-5.86-6.69-10.04-9.2-4.18-.84-4.18-5.86-1.67-10.04.84-3.35,1.67,0,2.51,0,.84.84,1.67.84,5.02,0-4.18-7.53-3.35-15.06.84-23.43.84-.84,2.51-2.51,1.67-2.51-1.67-10.88,2.51-20.92,4.18-31.79,2.51-15.06,4.18-30.12,7.53-45.18,3.35-19.24,5.02-38.49,9.2-58.56,4.18-26.77,5.86-53.54,10.04-80.32-1.67-10.04,5.02-22.59,2.51-32.63-.84-3.35,1.67-5.02,2.51-7.53,2.51-9.2,4.18-17.57,1.67-25.94,0-3.35-.84-5.02-3.35-5.86-4.18-3.35-3.35-7.53,0-11.71,3.35-4.18,5.86-8.37,3.35-13.39-1.67-3.35,1.67-4.18,5.02-6.69,4.18-4.18,8.37,3.35,14.22-3.35,4.18-4.18,10.88-3.35,15.9-5.86,4.18-2.51,5.86,0,9.2,0,2.51.84,5.02,2.51,1.67,6.69-1.67,2.51-3.35,5.02-2.51,7.53.84,7.53-3.35,15.9-2.51,23.43,0,15.9-8.37,30.96-5.86,46.01-5.86,15.06-6.69,30.96-10.04,46.02-1.67,16.73-9.2,35.14-6.69,52.71-6.69,15.06-2.51,31.79-10.04,46.85-2.51,4.18,6.69,3.35.84,8.37-2.51,2.51-4.18,5.02-1.67,9.2,1.67,4.18-4.18,6.69-3.35,10.88,0,.84-.84,2.51,0,3.35,1.67,0,3.35,0,4.18-.84,4.18-5.86,7.53-19.24,10.88-23.43,2.51-4.18,5.86-13.39,5.86-15.9s.84-4.18,2.51-5.86c9.2-3.35,5.86-10.88,7.53-20.08,2.51-7.53,7.53-13.39,10.04-20.92,0-.84-1.67-1.67-2.51-2.51l15.9-27.61c3.35-5.02,5.02-10.88,2.51-18.41-.84-4.18,4.18-9.2,7.53-10.88,9.2-5.86,11.71-15.9,12.55-25.1,0-.84-.84-2.51-.84-2.51,7.53-3.35,5.02-11.71,8.37-17.57,1.67-2.51,5.86-7.53,5.86-8.37-4.18-5.02,9.2-6.69,7.53-10.04-7.53-10.04,4.18-16.73,3.35-29.28,8.37-3.35,11.71-22.59,14.22-29.28,5.02-9.2,13.39-15.06,21.75-18.41,14.22-5.02,28.45-10.04,49.36,0-4.18,10.04-5.02,22.59-12.55,44.34-5.86,16.73-9.2,35.98-14.22,54.38,0,1.67-2.51,4.18-2.51,5.02,2.51,11.71-3.35,20.92-6.69,31.79-4.18,13.39-3.35,26.77-6.69,39.32-.84,5.02,0,10.88-2.51,15.9-2.51,5.02,4.18,9.2-.84,13.39-.84.84-4.18,18.41-1.67,19.24,1.67.84,13.39-17.57,14.22-20.08,8.37-16.73,13.39-29.28,22.59-47.69,7.53-14.22,15.06-28.45,25.94-41.83,1.67-2.51,2.51-5.02.84-5.86-5.02-4.18,0-7.53,2.51-11.71,8.37-7.53,15.06-20.92,21.75-33.47,5.86-13.39,14.22-22.59,23.43-33.47,2.51-2.51,7.53-2.51,5.02-8.37l2.51-3.35c11.71-6.69,23.43-13.39,35.98-10.04,7.53.84,11.71,6.69,16.73,12.55,3.35,3.35,2.51,11.71,2.51,17.57-.84,19.24-3.35,35.14-2.51,52.71-5.02,10.88-4.18,20.92-6.69,31.79-1.67,7.53,0,15.06-2.51,23.43-2.51,6.69-3.35,15.9-1.67,23.43v2.51c-8.37,18.41-5.02,37.65-10.88,55.22-2.51,9.2-.84,16.73-3.35,25.1-2.51,8.37-2.51,16.73-1.67,25.1,0,1.67-1.67,3.35-2.51,4.18.84.84,2.51,2.51,2.51,3.35-3.35,16.73,0,34.3-4.18,51.04-2.51,6.69,1.67,11.71,0,18.41-3.35,9.2,3.35,20.08-4.18,29.28-.84,1.67,1.67,7.53,5.02,12.55,1.67,2.51,2.51,5.86,1.67,9.2,0,3.35-3.35,5.86-2.51,9.2,0,4.18,5.86-2.51,5.86,1.67-1.67,9.2,5.86,15.9,1.67,26.77-.84,2.51,2.51,5.02,2.51,5.02,6.69-5.02,6.69.84,9.2,4.18,2.51,5.02,3.35,10.88,8.37,13.39,3.35.84,5.86,5.02,5.02,10.88,0,3.35,3.35,2.51,4.18,6.69-20.08.84-36.81-2.51-50.2-17.57Zm-30.12-79.48v-10.88c-1.67-9.2-5.86-5.02-5.02-15.9.84-3.35-3.35-5.86-2.51-8.37v-1.67c.84-3.35,8.37-5.02,8.37-7.53q0-.84-.84-.84c-.84-3.35-6.69-3.35-7.53-7.53-3.35-14.22-.84-34.3-1.67-49.36l-3.35-4.18c-2.51,15.06-5.02,104.58,11.71,112.95.84.84,0-5.02.84-6.69Z"/>
      <path class="cls-2" d="m1831.5,647.19c-2.51-3.35-3.35-7.53-6.69-10.88-7.53-9.2-9.2-20.08-6.69-32.63.84-2.51,2.51-6.69,4.18-8.37,1.67-2.51,2.51-5.86.84-8.37-.84-4.18-5.02-6.69-5.86-11.71,0-7.53-2.51-10.88-9.2-14.22-2.51-1.67-4.18-4.18-5.86-5.86-.84-2.51,0-4.18.84-5.86.84-.84,2.51,0,3.35,0,2.51.84,3.35.84,3.35-.84,1.67-5.86,3.35-12.55,3.35-18.41.84-1.67,0-3.35-2.51-3.35,0,0-1.67,1.67-2.51,3.35,0,3.35-.84,6.69-1.67,11.71-4.18-5.02-1.67-10.88-1.67-15.06,0-5.02.84-9.2.84-13.39,1.67-5.86-4.18-9.2.84-15.06,3.35-4.18,5.02-9.2,10.04-13.39,4.18-5.86,4.18-11.71-.84-17.57-2.51-2.51-2.51-5.86-1.67-8.37,6.69-9.2,6.69-20.08,12.55-29.28,2.51-2.51,5.02-7.53,5.02-10.04,1.67-9.2,5.02-18.41,10.04-26.77,2.51-2.51,0-3.35-1.67-4.18-2.51-.84-3.35-2.51,0-3.35,1.67-.84,4.18-1.67,5.86-4.18,0-5.02,0-10.88,4.18-15.06,4.18-5.02,1.67-10.88,6.69-13.39,8.37-1.67,2.51-6.69,5.02-10.04,8.37-11.71,15.06-25.94,23.43-37.65,1.67-7.53,7.53-11.71,10.88-16.73,3.35-3.35,5.86-6.69,8.37-10.04.84-1.67,1.67-4.18,1.67-5.02-.84-2.51-2.51-3.35-5.86-5.02,6.69-.84,10.88-.84,15.06-3.35l12.55-7.53c5.02-3.35,10.88-5.86,16.73-8.37,5.86-3.35,14.22-5.86,21.75-5.86,6.69,0,12.55-.84,18.41,0,18.41,0,29.28,9.2,30.96,27.61,3.35,13.39,2.51,28.45.84,42.67l-3.35,20.92c0,1.67,1.67,5.02,3.35,5.86,1.67,1.67,5.02,2.51.84,5.86-8.37,6.69-6.69,14.22-3.35,20.92-1.67.84-3.35.84-4.18,2.51-1.67,3.35,0,5.02,0,8.37,2.51,6.69,1.67,12.55-3.35,19.24-3.35,5.02-5.02,10.88-9.2,14.22-8.37,10.88-11.71,23.43-21.75,33.47-5.86,6.69-14.22,12.55-20.08,20.08-13.39,6.69-22.59,20.92-37.65,22.59-2.51,0-6.69,2.51-9.2,3.35-5.02,2.51-10.04,5.86-14.22,2.51-7.53,2.51-9.2-2.51-14.22-4.18-2.51-1.67-5.86-1.67-7.53,2.51-4.18,1.67-5.02,5.02-5.02,9.2,0,.84,1.67,2.51,1.67,2.51,5.86-2.51,6.69,1.67,5.02,5.86,0,1.67-1.67,3.35-3.35,5.02-5.86,7.53-5.86,15.06-2.51,22.59,3.35,4.18,1.67,6.69-.84,10.88-2.51,1.67-2.51,5.02-2.51,8.37,4.18,9.2,3.35,19.24,5.02,28.45,4.18,14.22,9.2,26.77,14.22,40.16,5.02,10.04,15.9,14.22,28.45,8.37,10.04-3.35,17.57-8.37,24.26-16.73,10.04-10.04,20.08-20.08,25.1-33.46,2.51-5.02,3.35-10.88,4.18-15.06,1.67-5.02,7.53-7.53,10.88-5.86,5.86,5.02,11.71,9.2,10.88,17.57,0,4.18,0,7.53,3.35,10.04-.84,4.18-1.67,8.37-3.35,11.71-4.18,6.69-8.37,12.55-10.04,19.24-4.18,17.57-16.73,26.77-33.47,33.47-9.2,2.51-16.73,6.69-25.94,9.2-16.73,6.69-34.3,10.04-50.2,7.53-16.73-1.67-26.77-13.39-36.81-23.43Zm-9.2-149.76c0-2.51-.84-5.02-.84-6.69h-1.67l-1.67,5.86c0,1.67.84,2.51,1.67,3.35.84-.84,2.51-1.67,2.51-2.51Zm18.41-17.57c-3.35,5.86-2.51,11.71-7.53,15.9-4.18,6.69-5.02,10.88-5.02,16.73.84,10.88,3.35,21.75,1.67,34.3-.84,1.67.84,3.35,3.35,3.35,3.35-23.43,5.86-46.02,7.53-70.28Zm7.53,130.52v-1.67c-1.67-5.02-5.86-8.37-5.86-13.39,1.67-15.06-6.69-28.45-5.86-42.67,0-.84-1.67-1.67-2.51-1.67-1.67,5.86-1.67,9.2-5.02,14.22,1.67,12.55.84,24.26,5.86,35.98,1.67,5.02,5.02,7.53,9.2,10.04,2.51.84,3.35,1.67,4.18-.84Zm.84,17.57s-.84,0-.84.84c0,1.67,0,2.51,1.67,2.51,0-.84,0-1.67-.84-3.35Zm2.51,4.18c0,1.67.84,3.35,3.35,3.35-.84-1.67-1.67-2.51-3.35-3.35Zm11.71,8.37c-2.51-.84-5.86-2.51-8.37-4.18,0,9.2,5.02,11.71,16.73,11.71-2.51-3.35-4.18-5.86-8.37-7.53Zm14.22,10.04c-.84-.84-.84-1.67-2.51-1.67h-3.35c0,.84,0,1.67.84,3.35.84.84,2.51.84,3.35.84s1.67-.84,1.67-2.51Zm-5.02-158.96c.84,1.67,1.67,1.67,3.35,2.51,0,1.67-.84,2.51-2.51,1.67-.84-.84,0-2.51-.84-4.18Zm4.18-35.14v-.84c7.53.84,15.9-3.35,21.75,1.67,2.51,1.67,5.86.84,7.53-1.67,12.55-11.71,22.59-23.43,31.79-37.65,7.53-15.06,15.06-28.45,16.73-43.5,0-3.35,1.67-7.53,3.35-10.88,7.53-14.22,1.67-29.28,5.02-43.5,1.67-5.02-6.69-6.69-6.69-12.55,0-.84-3.35-.84-5.86-.84s-5.86,0-8.37,1.67c-10.88,5.02-20.08,11.71-26.77,22.59-4.18,9.2-9.2,16.73-12.55,25.1-9.2,20.08-18.41,40.16-24.26,61.07-3.35,12.55-6.69,25.94-1.67,39.32-1.67,0-4.18,0-2.51,2.51l2.51-2.51Zm49.36-156.45c0-.84.84-1.67,1.67-2.51-1.67,0-3.35.84-2.51,2.51h.84Zm8.37-4.18c.84,0,1.67-2.51,1.67-3.35.84-1.67-.84-2.51-1.67-2.51s-4.18,0-4.18.84c-1.67,1.67-1.67,5.02-1.67,6.69,2.51-.84,4.18-.84,5.86-1.67Zm80.32,71.95c.84,0,2.51.84.84,3.35h-.84c-.84-.84,0-2.51,0-3.35Zm2.51-10.88c0-1.67,1.67-1.67,2.51-2.51-.84.84-.84,2.51-2.51,3.35-.84.84-1.67,0,0-.84Zm5.86-6.69c1.67,4.18-.84,4.18-3.35,4.18.84-1.67,2.51-2.51,3.35-4.18Z"/>
      <path class="cls-2" d="m2174.53,710.78c-6.69-9.2-10.04-15.9-20.08-20.92-1.67-.84-2.51-4.18-2.51-5.86h8.37c.84-3.35,1.67-5.86,3.35-8.37,2.51-4.18-.84-3.35-2.51-3.35-.84-.84-1.67-.84-2.51-.84,0,5.02-5.02,8.37-6.69,12.55l-.84.84c-3.35-3.35-8.37-5.02-4.18-11.71,1.67-1.67,1.67-5.02-.84-5.02-5.86-.84-5.86-5.86-6.69-9.2-2.51-7.53-2.51-15.06-2.51-22.59-1.67-9.2,0-18.41-1.67-27.61l-2.51-25.1c0-11.71,2.51-24.26-.84-35.98-1.67-5.86.84-5.02,5.02-6.69,3.35-1.67,5.86-5.02,5.02-9.2l4.18-25.94c-1.67-4.18-3.35,0-5.02-.84-.84,0-2.51-.84-3.35-1.67.84-5.02,0-10.88,3.35-15.06,4.18-8.37,4.18-16.73,5.86-25.94,1.67-15.9,6.69-31.79,12.55-48.53,5.02-16.73,8.37-34.3,11.71-51.03,0-.84-.84-1.67-.84-1.67h-1.67c-4.18,5.86-8.37,11.71-10.88,17.57-5.02,9.2-10.04,18.41-14.22,28.45-2.51,10.88-10.88,18.41-13.39,28.45-.84,5.86-5.02,10.88-7.53,15.9-3.35,5.02-7.53,10.04-7.53,15.9.84,2.51-.84,5.86-1.67,8.37-7.53,15.9-14.22,31.79-17.57,48.52v2.51c-3.35,5.02-5.02,10.88-7.53,15.9-3.35,5.86,1.67,11.71-3.35,15.9-2.51,11.71-6.69,22.59-12.55,33.46-3.35,6.69-2.51,14.22-4.18,21.75-.84,10.04-1.67,20.08-4.18,30.12,0,3.35-2.51,6.69-3.35,10.04-2.51,4.18-4.18,6.69-8.37,4.18-1.67-.84-5.02-.84-6.69,0-7.53,2.51-15.9,5.02-22.59.84-9.2,7.53-15.9,0-24.26-1.67-4.18-.84-5.02-3.35-2.51-7.53l5.02-5.02c2.51-1.67,1.67-2.51,0-3.35-3.35-.84-5.86-2.51-4.18-5.86,1.67-13.39-1.67-26.77,6.69-40.16.84-1.67,0-4.18,0-6.69-.84-3.35-1.67-5.86.84-10.04,3.35-3.35,4.18-7.53.84-11.71,0-1.67-.84-3.35,0-4.18,3.35-6.69,2.51-14.22,5.02-20.92.84-7.53,2.51-15.06,3.35-23.43,1.67-7.53,3.35-14.22,5.86-20.92,3.35-9.2,3.35-19.24,4.18-28.45,1.67-9.2,2.51-18.41,5.86-27.61,3.35-6.69,3.35-14.22,4.18-21.75.84-13.39,4.18-26.77,7.53-40.16,0-5.02,1.67-9.2,0-15.06-1.67-5.02-.84-12.55.84-18.41,1.67-7.53.84-14.22-4.18-20.08-2.51-1.67,0-5.02,1.67-7.53,1.67-.84,5.02-3.35,6.69-3.35,9.2.84,19.24-2.51,28.45-5.02,4.18-1.67,8.37-.84,10.88,0,3.35,1.67,7.53,3.35,7.53,6.69-1.67,11.71,2.51,22.59.84,34.3-4.18,33.47-7.53,66.09-10.88,99.56,0,1.67,0,2.51.84,4.18l3.35-2.51c1.67-4.18,5.02-8.37,4.18-12.55.84-19.24,12.55-34.3,20.92-51.04,8.37-3.35,10.88-9.2,10.04-16.73,5.86-6.69,10.04-15.06,15.06-21.75,5.02-7.53,8.37-15.06,12.55-23.43,5.02-11.71,12.55-23.43,19.24-34.3,2.51-2.51,5.02-5.02,6.69-9.2.84-4.18,3.35-7.53,5.86-11.71,2.51-4.18,8.37-4.18,9.2-9.2,1.67-2.51,5.02-4.18,5.86-2.51,4.18,2.51,9.2,0,12.55-1.67,6.69-3.35,12.55-4.18,19.24-5.86,8.37,0,9.2.84,11.71,9.2,2.51,11.71,4.18,24.26,0,36.81,0,.84-.84,1.67-.84,1.67,4.18,15.06-4.18,28.45-9.2,41.83.84,2.51-.84,4.18-.84,6.69-2.51,16.73-6.69,34.3-10.04,51.04-5.02,23.43-11.71,46.02-13.39,69.44,0,.84,0,2.51-.84,3.35-4.18,5.02-3.35,9.2-1.67,14.22,0,2.51-2.51,6.69-4.18,10.04,0,3.35,3.35,6.69,0,10.04-1.67,3.35-1.67,7.53-2.51,10.88-2.51,5.02-5.02,10.04-2.51,14.22.84.84.84,4.18-.84,5.86-1.67,4.18-5.02,7.53-3.35,11.71,1.67,2.51-2.51,8.37-.84,10.04.84,4.18-.84,6.69-1.67,9.2-2.51,3.35-2.51,5.86-1.67,7.53,5.86,5.86.84,10.88-4.18,16.73-1.67,1.67-1.67,2.51-1.67,5.02,3.35,10.04,1.67,20.92-.84,31.79,0,6.69,1.67,13.39-.84,20.08-.84,4.18,5.02,2.51,5.02,5.02-.84,2.51-1.67,5.02,0,8.37,4.18,9.2,6.69,14.22,5.02,25.1,0,5.86,6.69,15.06,9.2,19.24,2.51,5.02-1.67,7.53-2.51,11.71,0,.84-3.35,1.67-3.35,1.67-3.35-2.51-15.06-6.69-17.57-10.04Zm-24.26-56.06c0-1.67-.84-2.51-1.67-4.18,0,.84-.84.84-.84,1.67l-.84,3.35c.84,1.67,1.67,1.67,2.51,1.67,0-.84.84-1.67.84-2.51Zm8.37,13.39c2.51-4.18,1.67-6.69-.84-8.37-2.51-.84-4.18-.84-7.53-.84l4.18,10.04c.84,1.67,1.67,1.67,3.35,2.51l.84-3.35Zm-2.51-17.57l-3.35-15.9c-1.67,3.35-2.51,15.06.84,18.41,1.67.84,3.35.84,2.51-2.51Zm10.04,37.65l-4.18-2.51c1.67,1.67.84,3.35,2.51,4.18,1.67.84,2.51,0,1.67-1.67Zm4.18-22.59c0-1.67-1.67-2.51-2.51-4.18,0,.84-.84.84-.84,1.67.84.84,0,2.51.84,3.35,0,1.67.84,1.67,1.67,1.67,0-.84,1.67-1.67.84-2.51Z"/>
      <path class="cls-2" d="m2270.75,691.53c-1.67-1.67-4.18-19.24-6.69-20.08-1.67-.84-2.51,15.06-3.35,15.06-7.53-3.35-12.55-5.86-14.22-11.71,0-2.51-2.51-5.02-2.51-7.53,3.35-14.22-5.86-27.61,2.51-41.83,6.69-10.88,10.04-22.59,7.53-33.47-1.67-9.2-1.67-23.43,0-33.46h-.84l5.02-34.3c1.67-6.69,10.88-61.91,9.2-67.77,0-34.3,7.53-50.2,8.37-61.91.84-10.04,0-20.92,6.69-30.96,2.51-4.18,4.18-19.24,2.51-23.43-2.51-5.86.84-17.57,3.35-22.59,3.35-6.69-6.69,4.18-12.55,3.35-5.02-.84-16.73,7.53-19.24,5.02-13.39,0-7.53-17.57-19.24-25.94-2.51-2.51-11.71-13.39-11.71-18.41l10.88-2.51c11.71-2.51,23.43,2.51,27.61-1.67s10.04-3.35,15.9-4.18c16.73-2.51,22.59-10.88,22.59-27.61v-2.51c0-1.67-.84-3.35.84-5.02,7.53-12.55,0-17.57,5.02-29.28,3.35-6.69,2.51-5.02,4.18-10.88,1.67-10.88-3.35-20.92,1.67-31.79,6.69-15.9,8.37-31.79,6.69-47.69l-.84-13.39c0-7.53,2.51-10.04,10.04-10.04,8.37,0,16.73.84,33.47.84,13.39-.84,20.08,5.02,23.43,15.9,1.67,5.86,2.51,11.71,1.67,18.41l-5.02,34.3c-.84,10.88.84,20.92-4.18,31.79-1.67,2.51-1.67,6.69-.84,10.04,2.51,13.39,1.67,20.08-5.02,34.3-2.51,6.69,0,12.55,6.69,14.22,12.55-.84,20.08-4.18,24.26-3.35,6.69.84,11.71-.84,18.41-.84,7.53,0,5.86,10.88,12.55,14.22,0,0-10.04,12.55-18.41,12.55-15.9,10.88-29.28,9.2-37.65,12.55-4.18.84-15.06,6.69-15.9,10.88-2.51,12.55-5.02,32.63-9.2,52.71-1.67,9.2-1.67,19.24-8.37,28.45-1.67,2.51-1.67,7.53,0,10.04,2.51,8.37,0,15.9-.84,24.26-.84,8.37-10.88,15.9-5.86,25.1-8.37,8.37.84,16.73-2.51,25.1v8.37c-2.51,8.37-1.67,17.57-6.69,26.77-2.51,7.53,3.35,15.06-.84,22.59-.84,4.18,0,10.04-3.35,13.39-5.02,5.02-1.67,9.2-4.18,14.22-1.67,5.86.84,11.71.84,17.57s-.84,5.86-.84,12.55c-1.67,11.71-5.02,23.43-1.67,34.3.84,4.18-.84,9.2-1.67,13.39-6.69,12.55-7.53,23.43-5.86,36.81,0,13.39-2.51,20.08-4.18,34.3-.84,4.18-4.18,5.86-8.37,5.86-14.22,0-21.75-3.35-29.28-15.06Zm0-69.44c-.84,0-1.67,2.51-3.35,8.37l-1.67-.84c0,4.18-3.35,46.85,3.35,26.77,1.67-5.02,4.18-34.3,1.67-34.3Zm3.35-30.12c0-2.51-1.67-7.53-3.35-10.04l-.84,2.51c0,3.35-2.51,9.2-3.35,14.22-.84,3.35,0,6.69,4.18,6.69,5.02,0,3.35-9.2,3.35-13.39Zm16.73-194.1c-.84,0-2.51,6.69-11.71,61.91l-.84-2.51c-.84,10.04-5.02,61.07,2.51,38.49,4.18-12.55,12.55-97.89,10.04-97.89Z"/>
      <path class="cls-2" d="m2371.98,702.41c-10.88-6.69-17.57-20.08-20.92-31.79-1.67-2.51-1.67-7.53.84-10.04,5.02-8.37,2.51-16.73,7.53-24.26,10.04-17.57,18.41-35.98,31.79-50.2,4.18-3.35,4.18-11.71,9.2-15.06,5.02-4.18,8.37-8.37,10.88-13.39,4.18-9.2,11.71-19.24,18.41-27.61,11.71-13.39,19.24-24.26,25.94-40.16.84-1.67,1.67-3.35,1.67-5.02-4.18-12.55,5.02-25.1,10.04-35.97,1.67-3.35,1.67-6.69-2.51-7.53-6.69-1.67-20.08,7.53-31.79,15.06-4.18-2.51-9.2-3.35-10.88-7.53-10.88-11.71-20.08-24.26-29.28-37.65-2.51-3.35-5.02-7.53-3.35-10.88,8.37-9.2,17.57-37.65,21.75-46.85,7.53-16.73,20.08-27.61,29.28-43.51,3.35-4.18,8.37-8.37,10.88-13.39,7.53-18.41,18.41-31.79,32.63-47.69,2.51-4.18,5.86-9.2,10.04-13.39,3.35-5.02,5.86-5.86,8.37,0,2.51,5.02,10.04,7.53,14.22,10.04,9.2,4.18,15.06,10.88,20.92,19.24,3.35,5.02,4.18,6.69,3.35,14.22-.84,5.86-3.35,10.04-7.53,14.22-12.55,7.53-19.24,18.41-29.28,29.28-8.37,8.37-17.57,19.24-25.1,30.12-6.69,8.37-13.39,16.73-19.24,26.77-6.69,5.86-10.04,12.55-14.22,18.41,4.18,3.35,9.2,8.37,15.06,8.37,1.67.84,4.18,0,6.69.84,23.43,8.37,45.18,18.41,61.07,38.49,5.86,8.37,10.88,18.41,10.88,30.12-.84,8.37,1.67,19.24-5.02,27.61-.84,10.88-10.88,16.73-12.55,25.94-2.51,10.88-12.55,18.41-18.41,27.61-2.51,3.35-4.18,6.69-7.53,10.04-5.02,8.37-13.39,17.57-21.75,23.43-5.86,5.02-12.55,9.2-15.06,20.08,0,2.51-4.18,4.18-8.37,6.69-3.35,3.35-7.53,5.02-7.53,10.88-.84,6.69-8.37,5.02-10.88,9.2-2.51,4.18-5.86,8.37-8.37,11.71-3.35,4.18-9.2,7.53-11.71,12.55-10.04,13.39-14.22,28.45-12.55,44.34.84,1.67,0,4.18,0,6.69.84.84-.84,2.51-.84,5.02-.84.84-2.51.84-4.18,0-6.69-5.86-15.9-10.04-22.59-15.06Zm9.2-65.26c0-2.51-.84-5.02-3.35-5.86l-.84-2.51c-.84,9.2-12.55,15.9-13.39,24.26l-2.51,10.04c0,.84,0,1.67.84,1.67,4.18,0,17.57-18.41,19.24-27.61Zm6.69-20.08c0-1.67,0-4.18-.84-7.53l-.84-1.67c-1.67,4.18-3.35,7.53-3.35,9.2-.84,3.35.84,5.02,1.67,5.02s2.51-1.67,3.35-5.02Zm21.75-27.61c1.67-3.35,1.67-7.53,1.67-11.71.84-.84.84-2.51,1.67-4.18l.84-3.35c-6.69,7.53-12.55,14.22-16.73,22.59-2.51,4.18-3.35,7.53-4.18,10.04,0,.84.84,1.67,1.67,1.67,1.67,0,10.04-8.37,15.06-15.06Zm-5.86,21.75l-.84-1.67c-4.18,1.67-6.69,3.35-7.53,5.02,0,.84,1.67,1.67,3.35,1.67s3.35-.84,5.02-5.02Z"/>
    </g>
  </g>
</svg>