<?xml version="1.0" encoding="UTF-8"?>
<svg id="Layer_2" data-name="Layer 2" xmlns="http://www.w3.org/2000/svg" viewBox="0 0 1402.49 145.92">
  <defs>
    <style>
      .cls-1 {
        opacity: .8;
      }

      .cls-2 {
        fill: #fff;
        stroke-width: 0px;
      }
    </style>
  </defs>
  <g id="Layer_1-2" data-name="Layer 1">
    <g class="cls-1">
      <g>
        <path class="cls-2" d="m1240.65,40.53c-4.91,6.73-4.44,19.22-13.24,21.34-6.06,1.48-12.17,2.7-19.5,4.3.73-11.02,1.36-20.53,1.98-30.04,1.63.21,3.25.47,4.88.6,2.8.24,4.33-1.9,3.52-5.08-1.11-4.37-3.53-1.62-5.17-.57-1.4.9-2.44,2.69-3.64,4.09-4.46,1.71-5.49-4.06-9.89-8.14,3.69,20.48-8.78,25.8-16.62,35.45,3.14,12.71,14.04,11.31,20.25,17.27-.9,6.6-4.19,6.43-6.94,7.15-14.74,3.83-15.69,2.68-14.69-17.31.07-1.48-.35-3.03-.54-4.54-4.27.62-6.29,4.9-6.27,9.32.05,13.61-5.91,18.44-15.13,19.4l-3.41,4.76-2.22,1.31.75-3.02,3.27-4.94c1.8-11.09,11.95-17.46,8.64-32.29-1.24-5.54-11.41-15.37.68-21.55,1.81-.93-1.54-4.34-3.47-5.83-4-3.1-6.38-1.42-8.04,3.69-2.81,8.66-2.14,19.66-9.6,25.2l-.53,1.25.89-.83c2.77-.87,5.99-2.59,7.9,1.35,1.38,2.85-.38,5.9-2.48,7.17-8.26,5.02-16.64,9.75-24.97,14.61,1.65,2.24,3.45,4.49,3.11,7.85-.08.83-1.38,1.4-2.11,2.09l-2.33-8.4c-2.63,4.99-1.08,10.61-1.09,15.99l12.14-.02c.07-.75.12-1.5.2-2.25.49-4.29-.34-9.68,3.84-11.39,3.19-1.29,3.94,2.49,4.27,5.41.7,6.22,1.46,12.85-6.23,11.21-2.69,10.68-13.08,9.28-16.96,18.07-.38.41-.73.93-1.17,1.18-.13.08-.79-.68-.75-.86.14-.6.49-1.11.76-1.65-.29-4.67-1.6-8.79-4.08-12.29-2.63-.36-8.04-1.7-6.92-2.94,7.68-8.57,3.35-20.08,5.02-29.92,1.35-7.98,2.99-15.87,4.67-24.74-5.35,1.58-9.82,6.14-14.3-2.4-3.1-5.91-9.15-13.13-12.52.73l-3.3,9.2-.52,1.22.89-.8c1.17-3.05,2.33-6.09,3.49-9.13,6.24-1.95,10.22,6.93,8.66,9.09-6.6,9.11,3.79,10.9,3.49,16.64,2.5,3.32,2.81,6.78.61,10.39.96,3.55,2.66,8.74-2.09,7.99-4.31-.68-6.4,2.32-9.19,4.61-2.41,2.19-6.8-4.63-7.99,2.62-.17,1.06.6,3.14,1.35,3.62,4.45,2.87,5.52-1.85,7.02-5.49,9.76,5.32,7.25,11.83,1.48,18.66,2.03.55,4.7.14,4.27,4.54-.05.55-.63,1.35-1.05,1.43-3.39.62-2.87-3.11-3.55-5.5-9.8-8.22-12.95,4.34-18.37,9.9-6.28-24.39-4.95-31.03,9-44.3-8.09-3.44-12.61,1.94-17.54,8.57-3.7,4.98-5.93.73-6.35-4.89.88-12.3,1.76-24.6,2.64-36.91-4.52,6.7-7.81,12.61-11.32,18.34l-6.39.57c-8.21-10.15,5.34-15.14,3.02-23.91-14.35-1.63-16.06.03-12.29,14.5,2.2,8.43,2.54,18.61,9.74,23.93l1.01.77-.7-1.23c-.23-3.02-.45-6.04-.68-9.06,2.48-1.11,5.06-2.01,6.55-5.16,4.92,4.34,7.56,10.37,8.1,17.93-4.95,7.38-14.92,3.59-18.72,12.04.12,3.58,1.44,3.34,2.28,4.12,5,4.63,9.33-12.69,12.35-1.59,2.33,8.58-8.39,7.69-11.51,13.65l1.22,2.49-2.04-1.28c-2.52-1.93-5.04-3.85-10.95-8.36,8.9,18.23,1.3,23.19-9.38,28.51,5.35-15.03-9.91-20.86-7.19-36.17,1.12-6.31-7.59-5.42-11.48-3.32-4.44,2.39-3.65,6.67.78,9.48,1.85,1.17,2.42,3.29,1.73,5.55-5.54,17.98-30.77,29.81-47.22,22.25,13.19-.92,8.03-14.42,9.22-23.57-3.24,2.23-6.07,5.81-10.27,4.85l-6.97-4.46c-.6-4.44,1-9.14,4.03-7.83,8.76,3.78,9.59-5.16,12.48-11.1l.55-1.22-.91.8c-11.8,1.5-23.43,3.58-32.64,16.99,6.47-2.82,11.04,2.74,16.24,2.77,1.78,3.03,4.38,3.75,6.99,4.46-2.15,6.25,1.62,12.07,1.18,18.2l-6.39,1.35c-.42.42-.8.99-1.27,1.2-.19.08-.89-.72-.85-.96.1-.65.48-1.21.75-1.8-.14-8.78-2.66-14.06-9.29-7.79-4.28,4.05-6.84,7.27-11.11-.48-2.49-4.52-6.39-1.34-9.39.74-5.09,3.53-10.07,7.3-15.15,10.86-4.65,3.27-9.44,4.19-10.96-4.41-1.48-8.43,3.17-7.34,7.64-6.82,7.43.87,6.79-5.41,5.34-11.93,1.62-4.56,2.69-9.68,4.96-13.59,6.95-11.95-3.46-5.73-5.53-10.94.12,9.7.21,17,.3,24.31-6.48-7.55-4.77-20.23-11.85-28.75-7.35,2.62-7.77,11-6.33,18.8,2.9,15.69,3.33,15.58-9.55,16.61-1.06,2.38-2.45,2.63-4.15.93-3.25,5.22-6.21,10.8-9.79,15.59-7.09,9.48-9.41,3.41-10.33-6.19.33-1.45,2.84-2.21.72-4.43l-1.21,4c-5.25,1.78-8.02-2.12-8.6-7.98-.88-8.89,8.18-3.16,9.3-9.67-6.34-8.53-10.2-1.98-13.17,3.97-2.74,5.49-3.61,13.83-10.87,9.8-7.98-4.44-3.97-12.44-3.26-19.52.61-6.09,4.74-8.03,7.32-11.81l.59-1.22-.94.82c-6.72,4.08-14.19-3.86-21.69,3.9-8.16,8.45-12.93,15.98-9.38,29.77.59-2.87.93-5.89,1.82-8.58,2.46-7.44,4.35-16.67,13.06-13.08,4.24,1.75,6.35,23.53,2.78,29.24-2,3.2-5.26,7.55-8.66,5.1-3.95-2.86-.47-7.96-.41-12.1l.58-1.41-.84,1.13-6.19,2.18c-.55,3.93-1.62,7.44-5.18,7.73-3.82.31-7.37-1.84-8.66-6.37-1.33-4.71.05-11.4-6.59-9.97-4.92,1.07-5.11,5.51-6.34,11.08-2.57,11.73-5.56,11.03-13.02-2.02l-.96-.72.65,1.19c1.33,6.6-1,10.85-5.74,10.83-6.06-.02-2.97-6.8-3.08-10.2-.32-9.52,2.33-20.48-9.43-21.83l-6.53,5.28c-2.24,6.86-5.5,12.68-9.43,18.11-5.61,7.75-8.62,3.39-11.43-3.72,1.43-1.06,3.17-1.77,4.19-3.29.92-1.38-.1-2.84-1.21-1.82-1.3,1.2-2.18,3.16-3.24,4.79-1.91,2.37-2.25,5.51-2.36,8.77.3.51.88,1.07.84,1.52-.11,1.38-.85,1.39-1.91.1-5.81,4.22-11.08,4.35-10.09-6.66.7-7.83,1.59-16.15,7.36-24.66-10.2,4.69-19.34,3.73-24.84,12.12-2.05,3.12-12.66,6.22-2.33,14.5,1.42,1.14-.38,4.98-2.02,4.82-6.5-.64-12.98-3.11-19.44-.46-.48-2.11-1.9-5.29-1.3-6.18,5.86-8.75,3.48-22.36,10.27-30.51,1.57-1.89,3.17-4.41,1.96-8.49-4.63-1.03-11.51,15.83-13.31-4.05-5.4,5.64-.7,9.32-.15,13.23,2.23,15.73-3.62,28.77-14.89,33.57-8.23,3.51-12.51.17-13.05-11.26l3.14-4.37.52-1.42-.9.97-3.16,4.36c-6.4,8.26-12.14,18.46-23.43,10.91-1.07-.71-3.26,1.1-4.76,2.13-3.61,2.47-7.66,5.9-10.74-.18-3.59-7.08,2.81-9.85,6.05-15.04-6.11-3.89-12.57,4.22-16.73-3.92-1.2-.35-.27-4.16-2.57-2.73l2.2,3.19c-6,14.2-11.72-4.27-17.62-1.12-3.14,19.91-16.66,24.79-28.9,10.01-3.27-3.95-5.73-4.58-9.02-1.66,2.5,1.1,5.83,1.09,5.6,6.16-.05,1.03-1.06,2.56-1.83,2.77-3.82,1.01-4.27-3.3-5.47-6.36l-6.39-5.6-1.04-.78.77,1.18c-.16,2.92-.1,8.35-.53,8.39-9.12.97-18.48,3.07-27.38,1.05-4.01-.91,2.38-6.37,2.39-10.55-4.2-.85-9.64-1.76-11.04,3.46-3.83,14.27-11.75,8.06-18.79,7.05-.43.48-.82,1.11-1.32,1.36-.19.09-.98-.78-.94-1.04.11-.69.52-1.29.81-1.93.48-2.15,1.69-4.52,1.3-6.4-.8-3.85-3.11-4.16-5.46-2.07-4.23,3.77-7.86,8.8-13.09,10.44-2.74.86-5.81,2.31-8.36,1.42-4.37-1.52-1.76-11.29-6.84-12.09-6.77-1.07-.55,9.85-5.22,11.1-4.38,1.17-7.91-1.97-11.21-5.18-1.82-1.77-4.35-5.53-5.53-2.18-5.71,16.36-13.18,2.14-19.8,1.55-1.27-1.53-2.39-3.45-3.86-4.48-1.23-.86-2.14.82-1.09,2.13,1.18,1.48,3.01,2.09,4.56,3.07-.94,7.43-4.02,10.13-9.94,8.13-4.56-1.54-8.61-3.71-11.55-8.76-3.45,4.73-6.81,7.22-11.75,1.53-3.02-3.47-6.57-.96-9.93.62-5.98,2.82-12.04,5.66-18.29,7.25-7.36,1.87-8.19-.44-5.65-13.47l3.07-4.46c3.02-8.24,2.53-16.19-1.88-23.83l-1.08-.7.83,1.11c1.8,7.59,1.95,15.32,1.84,23.07l-3.24,4.29c-6.4,3.86-19.21-6.74-18.58,13.33.06,2.03-3,2.56-4.49,1.41-8.11-6.24-15.96-1.1-23.87-.57-15.57,1.02-30.28-6.9-45.54-9.08-5.27-.75-3.64-6.4-3.38-10.67.23-1.62,3.46-.25,2.04-3.51l-2.51,2.85c-.53,1.32-1.14,2.59-1.58,3.96-1.75,5.54.67,16.89-7.27,14.23-8.23-2.75-1.08-11.26-1.71-17.14,1.92-9.91,5.98-16.93,14.88-17.46q-13.77.85-15.13,17.26c-4.64-1.66-10.08-4.9-8.89,6.3,1.23,11.55-6.4,12.11-9.91,8.86-9.72-9.01-18.46-4.3-27.73-2.06-7.7,1.86-12.68-2.07-13.69-12.88l.62-1.16-.93.82c-4.61,3.08-9.87,2.96-14.44,7.98-6.34,6.97-10.69,3.64-17.09-9.15.17-1.57,3.14-.33,1.92-3.29l-2.27,2.86c-1.55-1.21-4.2-3.82-4.48-3.44-12.07,16.13-25.37,6.6-39.28,3.46-6.33-1.43-13.24-4.85-21.16-2.86-12.88,3.23-26.93,1.84-40.47-2-4.84-1.37-9-4.39-12.9-8.1-10.75-10.25-10.79-18.76-.25-28.81,1.4-1.33,2.84-2.94,4.47-3.46,22.54-7.13,42.65-23.31,66.4-26.14,18.16-2.15,36.37-3.96,54.47-6.69,13.89-2.09,28.7-3.87,43.48-2.29,14.67,1.58,29.5-1.08,44.24-2.18,41.95-3.19,83.85-7.09,125.87-9.22,30.17-1.45,59.39-10.23,89.65-11.57,29.75-1.25,59.45-3.3,89.15-5.49,29.7-2.14,59.4-4.49,89.11-6.39,6.78-.42,14.11-4.07,20.43,3.56.77.93,2.48,2.12,2.91,1.72,17.21-16.42,37.08-1.04,55.56-5.29C712.62-.35,732.51-.12,752.05.09c11.09.12,22.2,3.12,33.44,1.47,4.83-.7,9.66,1.58,9.51,10.22l-.74,1.2,1.04-.84c2.83-7.15,6.83-11.64,13.65-11.46,12.86.33,25.53-.95,38.6.69,18.63,2.33,37.54-.36,56.32-1.2,9.37-.42,17.61,1.69,22.72,13.53,4.34,12.76-1.65,18.42-9.05,23.12l-.75,1.18,1.05-.83q14.56-5.07,9.2-23.9c-.86-6.84,1.78-10.92,6.69-10.11,25.86,4.22,51.79,3.09,77.66,5.19,6.82.56,12.06,5.82,14.74,17.8,1.62-19.65,2.94-21.74,14.39-18.89,18.59,4.63,37.27,3.45,55.89,4.57,8.38.51,16.33,8.35,25.11,3.13.67-.4,3.16,4.11,4.8,6.33,1.25.38.22,4.44,2.69,2.83l-2.19-3.4c-.11-7.08,1.6-10.85,7.28-5.94,4.87,4.22,2.62,12.64,6.48,19.07,5.05-16.48,13.22-19.6,26.69-17.69,17.16,2.44,34.99,5.33,52.25-.21,6.16-1.98,11.65,1.9,17.29,4.02,2.38.9,4.09,3.86,1.78,6.89-1.06,1.4-3.18,1.44-4.81,2.1-3.32-3.58-5.4-2.22-6.05,2.76-.49,3.73-.45,7.6-.65,11.41l-.53,1.22.89-.8c3.13-3.96,1.74-11.35,6.23-14.29,2.59,3.82,9.71,7.52,6.99,11.25ZM153.94,103.98c-3.94-6.06-8.63-3.36-13.34-2.07,4.22-1.4,8.26,5.76,13.34,2.07Zm31.2-1.41c-.51-.18-1.06-.59-1.54-.51-1.71.28-1.96,1.04-.67,1.77.45.25,1.1.1,1.58-.12.28-.13.42-.74.62-1.14Zm11.53.07c-.18-.4-.9-.41-1.38-.6-.31.5-.89.99-.88,1.49.05,2.13.83,2.48,1.94.88.29-.42.5-1.38.31-1.78Zm78.53,9.71c-1.22-4.19-2.01-8.73-3.8-12.48-1.51-3.16-4.05-2.1-5.74.33-2,2.88-4.05,6.03,1.37,6.94l2.27-1.5-.77,3.15c-.12,4.12-.25,8.24-.38,12.37l-6.42.82-1.05-.72.77,1.15c.9,2.21-1.89,6.58,1.7,6.74,2.92.13,4.15-4.13,5.57-7.16,2.29-2.65,2.23-7.9,5.89-9.04,1.26,4.37,2.52,8.73,4.27,14.79,3.21-8.86-.84-11.81-3.67-15.41Zm44.28-6.29c-.64-1.05-1.38-3.05-1.9-2.98-3.84.51-4.21,5.67-6.36,8.5,1.06.33,2.15,1.01,3.18.93,3.03-.25,5.34-1.71,5.08-6.44Zm22.73-29.2c1.26-1.17,2.84-2.23,3.98-3.82.67-.94-.42-2.27-1.88-1.59-1.52.71-3.12,1.91-4.07,3.51-.75,1.27.29,2.37,1.96,1.9Zm9.61,31.12c-.31-1.97-1.43-2.35-2.59-1.09-2.3,2.5-2.44,6.23-3.28,11.94,5.22-2.47,6.64-5.93,5.87-10.85Zm14.87-4.82c-3.77,1.48-5.77,4.26-3.87,9.53.37,1.03,2.53,2.22,2.6,2.1,1.94-3.45,2.91-7.23,1.28-11.63Zm24.88-38.66c-.31-1.19-.4-2.71-1.01-3.69-.96-1.53-2.07-1.14-2.03.68.02,1.23.75,2.55,1.31,3.71.92,1.88,1.56,1.63,1.74-.69Zm22.9,36.72c-.98.72-3.6,1.59-4.61,3.76-.79,1.69,1.43,3.88,3.29,4.09,2.6.29,4.54-1.44,5.24-4.54.6-2.65-.51-4.13-3.92-3.31Zm15.92-3.18c-.52-.19-1.07-.6-1.55-.53-1.74.28-1.99,1.06-.68,1.8.45.26,1.11.1,1.6-.11.29-.13.43-.76.63-1.16Zm11.26.29c-2.9-.05-2.65,3.91-3.65,6.26-.74,1.06-1.55,2.05-2.19,3.2-.92,1.66-2.3,3.3-.9,5.66.3.5,1.02,1.04,1.41.91,2.07-.69,1.58-3.18,1.81-5.11.16-1.42.17-2.89.24-4.33,1.99-.05,4.72,2.71,5.58-1.71.4-2.06-.32-4.84-2.3-4.88Zm16.31-57.59l.99.65.11-1.01-1.09.35Zm-8.36,2.23c-.12-.49-.88-.75-1.35-1.11-1.38.11-2,1.1-1.57,2.85.12.49.88,1.05,1.35,1.06,1.38.04,2-1.05,1.57-2.81Zm29.16,66.94l-.95.86c-.53,1.24-1.27,2.39-1.53,3.73-.34,1.76-1.25,3.91.91,5.14.14-1.41.27-2.83.44-4.23.17-1.41.38-2.8.58-4.2l.57-1.29Zm-.32-14.13c-7.06-2.66-11.96-1.6-16.75,1.9,4.82-2.83,10.14,5.71,16.75-1.9Zm-3.13-29.03c-1.46.65-2.88,2.28-3.71,4-.53,1.1.73,2.29,2.95,2.2.86-.72,2.92-1.46,3.52-3.14,1.23-3.43-1.27-3.72-2.75-3.07Zm16.92,29.05c-.8-2.35-2.85-2.5-4.52-1.61-1.74.93-2.42,3.02-2.04,5.42.4,2.51,1.64,3.81,3.72,3.33,1.98-1.67,4.05-3.59,2.85-7.15Zm15.92,1.21c-.99.53-2.84,1.04-2.83,1.58.05,3.12,1.11,5.97,3.43,7.32.55.32,2.33-1.07,2.51-2.05.6-3.24-.21-5.93-3.11-6.85Zm10.59-57.29c.39-.09.64-.98.96-1.5-.23-.55-.44-1.53-.71-1.57-.45-.07-1.15.28-1.37.76-.78,1.7-.32,2.66,1.12,2.32Zm18.68,55.62c-5.51-1.46-9.92-.85-14.19.75-1.55.58-1.51,2.04-.1,3.2,3.99-2.83,9.08,2.85,14.29-3.95Zm19.62,29.06c-.58-1.06-1.69-1.63-2.57-2.42-1.4.04-2.04,1.04-1.29,2.44.56,1.05,1.65,2.01,2.59,2.26,1.36.36,2.03-.91,1.27-2.28Zm-.68-28.22c-.03-.46-.83-1.31-1.19-1.26-3,.41-2.49,4.15-3.45,6.51-.24.55-.75,1.17-.67,1.63.21,1.15.7,2.22,1.07,3.32l1.1.75-.87-1.12c-.29-1.41-.38-2.84-.25-4.27,1.8-1.38,4.5-1.65,4.25-5.57Zm11.3-26.14c1.45,2.11,2.66,5.5,4.38,6.09,4.18,1.44,3.56-4.01,4.2-6.87.52-2.3-1-3.96-3.75-3.76-1.31,1.23-3.07,2.88-4.83,4.54Zm14.47,22.52c-4.61-1.34-9.38-2.13-16.27,3.91,6.22,2.67,9.55,5.91,13.03,8.67,3.91,3.1,6.83-1.02,8.12-5.28,1.55-5.14-2.23-6.53-4.88-7.3Zm19.36-27.19l-.83.04.49,1.35.34-1.39Zm2.29,23.57c5.13,4.8,4.41,13,9.96,22.03q-.44-19.21-9.96-22.03Zm13.78,29.21c-.53.14-1.23.05-1.54.46-.94,1.23-.77,2.61.44,3.52.36.26,1.21,0,1.52-.41.92-1.23.71-2.51-.42-3.57Zm17.43-25.53c-4.88.32-6.08.21-7.21.51-2.56.69-4.17,2.49-3.61,6.32,2.75-1.74,5.5-3.47,10.82-6.82Zm9.55,3.79c-.15-.59-2.52-.94-2.53-.88-.72,3.36-1.29,6.78-1.88,10.19,3.76-2.45,5.38-5.44,4.41-9.31Zm11.9,28.35c-.44-.36-.85-.93-1.31-1.03-1.53-.32-2.19.35-1.63,1.5.18.37.99.24,1.51.34l1.43-.82Zm4.01-16.29c0-1.78-.87-2.61-2.22-2.11-.38.14-.57,1.09-.84,1.67.14,1.76.93,2.6,2.27,2.12.38-.13.8-1.09.79-1.68Zm36.8-15.55c-1.2-2.77-2.83-3.79-4.56-2.6-.79.55-1.4,2.47-1.38,3.8.02,2.69,1.31,4.23,3.4,3.17,1.54-.78,3.08-2,2.55-4.37Zm12.93-68.5l1.07-.46-1.04-.58-.03,1.03Zm5.29,72.93c-6.03-1.88-8.03,3.85-10.81,7.82l-.51,1.23.89-.81c3.28-2.66,9.04-.14,10.43-8.24Zm2.96-41.37c-7.31-2.82-8.81-11.07-13.73-5.48-2.79,3.17-2.44,7.88-.75,12.49,2.82-3.87,6.88-3.59,14.47-7.02Zm20.12,41.66c.16-3.16-1.23-6.91-3.79-5.38-3.12,1.87-8.21.79-9.04,6.66,1.26,4.72,3.07,7.78,6.4,7.33,3.76-.51,6.18-3.59,6.44-8.62Zm-.35-36.64c-.95-.02-1.95.86-2.82,1.54-1.43,1.1-1.22,2.11.5,2.18.98.04,1.96-.61,2.9-.93,1.04-1.5.83-2.75-.58-2.78Zm5.69,54.09l-.04-1.84-.8.94.84.9Zm16.09-14.37l-2.05-3.47-7.06-4.98-4.62-8.46-.95-.88.68,1.3c1.5,2.83,2.99,5.67,4.49,8.5l.35,9.26c-3.14,1.57-5.9,3.55-5.52,8.86l5.25-.47c.24-2.66.48-5.32.72-7.97l6.28-4.68c1.13.57-.02,4.27,2.45,3Zm27.16-42.31c.24,4.71-3.91,9.23.61,15.14,1.44-5.72,9.17-9.97-.34-15.55l-1.09-.73.82,1.14Zm11.41,36.74c-6.04-1.19-12.43-9.42-12.47,4.57l-6.79.68c-5.46-5.3-5.71,1.21-7.12,5.09l-2.96,4.51-.6,1.3,1-.83,3.01-4.47,6.49-5.13c.97,2.41,1.56,5.82,4.16,5.54,2.59-.28,2.63-3.71,3.11-6.31,4.68,2.09,8.35.99,12.16-4.94Zm7.19-39.21c-.39-.34-.81-.98-1.16-.94-.46.06-1.19.57-1.25,1.03-.26,1.96.43,2.64,1.66,1.67.39-.31.51-1.16.76-1.76Zm9.12-36.49l.48,1.37.34-1.4-.82.03Zm14.82,31.38l-1.09-.74.84,1.13c-.63,9.82-9.29,20.27,2.04,29.71,8.71-10.97,1.85-20.43-1.78-30.1Zm4.98-17.94c-10.71-2.23,2.26-12.69-6.79-16.24-5.21,3.72-.8,18-10.32,17.22-1.07-2.04-2.37-3.45-4.31-2.2-.39.25-.5,1.22-.74,1.86l4.76,1.08c5.08,2.36,10.07,3.12,17.4-1.72Zm29.99,66.96c.94-5.19,1.75-10.73-3.28-12.93-.78-.34-4.29,5.35-4.31,8.37-.04,6.5,3.67,6.57,7.42,4.83l1.09.94-.92-1.2Zm6.78-49.55c-3.78-1.28-6.41,2.41-9.66,3.41l-.97-1.01.73,1.34c.18,1.57.36,3.15.53,4.73l-3.3,9-.51,1.48.79-1.18,3.57-8.84c2.54-3.61,9.86.61,8.81-8.92Zm11.92,71.35l-.88-1.48-1.08.67c.61.45,1.27.72,1.96.81Zm-2.29-49.63c-5.15-2.73-2.01,7.94-6.6,6.5-1.87-.59-4.33-4.65-5.67-.76-.56,1.63,1.62,5.33,2.98,7.67,1.69,2.89,4.06,2.87,5.82.34,2.63-3.78,5.13-7.84,3.47-13.75Zm.67-44.78c-2.45-2.14,1.49-10.75-4.62-10.96-4.94-.17-5.62,6.01-6.12,11.36-.72,7.68,3.75,8.8,7.56,8.93,3.29.11,4.56-3.56,3.18-9.33Zm20.58,34c-3.82,1.37-7.78-2.93-13.13,2.13,5.53,1.88,9.39,2.17,13.13-2.13Zm19.04,22.67l-.66-1.23c-1.88-1.8.49-7.25-3.34-6.69-.47.07,1.48,4.97,3.04,7.14l.96.77Zm1.56-29.15c-.13-1.72-1.84-4.56-2.91-4.66-2.36-.22-3.98,2.4-4.71,5.15-.89,3.34,1.39,3.07,2.95,3.49,2.06-.41,5.01.31,4.67-3.98Zm6.72,46.03c-.38,1.38-.76,2.75-1.14,4.13l-3.6,3.41,2.17,2.32,1.88-5.32c.28-1.5,2.9-2.31.69-4.54Zm11.31-51.07c3.81,11,2.46,19.28.36,27.42-.27.48-.84,1.06-.76,1.41.23.98.73,1.85,1.13,2.77l1.96,4.47-1.58-4.91c-.64-1.06-.69-2.15-.16-3.26,2.66-2.34,8.29,2.42,8.58-3.68.4-8.13,1.89-18.12-9.54-24.23Zm37.63,12.46c.47,1.04,1.95,1.93,2.92,1.9,3.17-.13,5.53-2.43,5.74-6.5.18-3.57-.7-7.27-1.1-10.91l.56-1.25-.93.84c-1.9,2.69-3.88,5.3-5.67,8.11-1.4,2.21-2.91,4.72-1.52,7.81Zm7.88,48.42c-1.15-2.51-1.22-5.07-.38-7.67l2.82-2.46c-2.1-2.06-2.33,1.26-3.48,1.93-2.72,3.14-2.65,6.04.65,8.65-.23,4.43-8.11,6.52-2.45,12.3,2.12,2.17,5.94.37,6.97-3.73,1.09-4.34-2.33-6.29-4.14-9.01Zm3.66-30.26c-.32-1.84-1.32-2.38-2.52-1.43-1.88,1.51-3.61,3.35-3.34,6.59.04.46,1.9.74,2.92,1.1,2.68-.7,3.5-3,2.94-6.26Zm23.24-52.17c-3.29-3.61-6.61-3.46-9.21.66-1.62,2.56-6.72,4.1-4.17,8.19,8.9,14.3-2.18,29.26,3.08,45.03,8.84-6.2-1.49-16.63,3.82-20.69,7.22-5.52,2.56-17.04,8.12-23.2,2.2-2.44.96-7.15-1.63-9.99Zm11.52,31.33l.82-1.22.84-1.15-1.09.83-.56,1.55Zm5.2,43.56c-.56-1.34-1.13-2.69-1.69-4.04-.68-1.01-.74-2.05-.17-3.13,1.6-3.65,1.82-7.11-1.02-10.17l-1.14-.86.96,1.14.6,9.39c-.3.46-.9,1.03-.83,1.35.23.98.73,1.85,1.13,2.77,1,.9-.48,4.29,2.15,3.54Zm1.77-66.39l-1.07.44,1.03.58.04-1.02Zm22.44-12.56l-.85.04.49,1.34.36-1.38Zm13.7-.18c-.12-1.74-.89-2.58-2.22-2.13-.38.13-.81,1.07-.81,1.66,0,1.76.84,2.6,2.18,2.12.38-.14.58-1.07.86-1.65Zm10.11,10.92c-1.21-1.05-2.06-.48-2.17,1.47-.03.47.5,1.02.78,1.53l1.34-1.18c.03-.63.26-1.65.06-1.82Zm8.39,36.37c-.35-.14-.89.58-1.34.91.04.65-.1,1.49.16,1.89.22.34,1.1.47,1.36.19,1.16-1.26,1.08-2.47-.18-2.99Zm17.94,13.56c-.07-2.08-.14-4.16-.21-6.25-1.85,2.12-1.93,4.21.21,6.25Zm14.56-51.27c-.43-1.19-.85-2.38-1.28-3.57-.82.8-2.02,1.38-2.36,2.45-.65,2.06-.28,4.24,1.91,4.1.63-.04,1.15-1.93,1.72-2.98Zm3.3,71.97l-4.23,2.46c1.78.21,3.34-.21,4.23-2.46Zm18.63-57.63l-.35-1.42-.42,1.33.77.08Zm37.41,4.19l-1.1.43,1.05.6.04-1.02Zm7.53-18.83c-.43-1.3-.6-3.29-1.33-3.75-1.83-1.16-3.56-.03-4.4,2.17-.94,2.47.13,4.61,2,5.2,1.99.62,2.99-1.51,3.73-3.61Z"/>
        <path class="cls-2" d="m1294.25,25.7c-2.76-4.33-5.1-3.32-7.22.66l6.79.03c-.23,4.21-1.16,7.58-5.17,7.24-.56-2.4-1.12-4.79-1.68-7.18-2.71,3.08-3.94,6.28-.22,9.85l4.18,12.3-2.9,5.18c-1.41,1.05-1.55,1.9-.4,2.13.24.05.6-1,.9-1.55l3.69-4.26c12.85-12.98,13.08-15.55,2.03-24.39Z"/>
        <path class="cls-2" d="m1323.96,30.21c-6.04,2.84-8.96,8.29-10.75,14.55-1.16,4.06.87,7.22,4.08,8.56,3.09,1.29,6.71,1.44,5.46-4.27-1.44-6.55,4.71-10.63,1.22-18.84Z"/>
        <path class="cls-2" d="m1272.73,41.33c-4.59-.39-9.38,7.97-8.05,14.2.52,2.42,2.38,3.94,3.91,3,4.2-2.59,7.62-6.37,7.87-12.46-.53-3.29-1.85-4.58-3.73-4.74Z"/>
        <path class="cls-2" d="m844.58,134.57c-3.17.76-4.71,3.52-4.42,7.68.18,2.48,1.58,4.13,3.49,3.55,2.92-.89,4.88-3.19,4.58-7.47-.63-2.41-1.64-4.24-3.65-3.76Z"/>
        <path class="cls-2" d="m1344.18,40.38c-1.8-.36-4.07.58-4.03,2.82.09,6.11,4.38,5.95,7.43,7.34,2.18-.05,3.5-1.55,3.18-4.13-.58-4.68-3.69-5.44-6.58-6.03Z"/>
        <path class="cls-2" d="m1359.6,29.7c-1.85-.43-3.5.71-3.43,3.42.06,2.7,1.8,3.44,3.58,3.6,1.95-.47,3.53-1.57,2.57-4.48-.38-1.16-1.71-2.31-2.72-2.55Z"/>
        <path class="cls-2" d="m1256.4,38.54c-4.02,3.66-8,2.95-10.37-2.52-2.57-5.94,1.32-7.58,4.77-8.85l3.62-4.43c.34-.43.66-.92,1.06-1.25.07-.06.72.69.68.78-.21.55-.55,1.01-.84,1.5.17,1.04.43,2.05.77,3.02l4.92-.2c.71-2.84,1.16-5.99,4.04-6.42.4-.06,1.26.75,1.3,1.23.33,3.52-1.35,5.51-3.42,7.12,2.79,8.84-2.28,8.98-6.54,10.01Zm-2.16-3.54l-.37-5.5-1.18-.08c-.17,2.16-.18,4.25,1.56,5.58Z"/>
        <path class="cls-2" d="m1230.75,74.34c-.72.28-1.39,2.13-1.46,3.35-.11,2.05.49,4.32,2.48,4.09,1.73-.2,2.48-2.16,2.57-4.4-.54-2.37-1.84-3.71-3.59-3.04Z"/>
        <path class="cls-2" d="m925.89,138.01c-.87,1.37-.39,2.62.95,3.22.87-.58,2.14-.9,2.48-1.83.27-.75-.57-2.23-.92-3.38-.85.65-1.92,1.07-2.51,2Z"/>
        <path class="cls-2" d="m1173.32,98.38c-.79-.06-2.07.9-2.3,1.79-.23.88.58,2.26.94,3.42.82-.69,1.87-1.16,2.39-2.13.75-1.39.23-2.98-1.03-3.08Z"/>
        <path class="cls-2" d="m1288.7,71.16c-1.27-.26-1.82.61-1.61,2.33.84.68,1.78,2.04,2.51,1.89,1.28-.26,1.41-1.8.44-3.18-.34-.49-.86-.95-1.34-1.04Z"/>
        <path class="cls-2" d="m1243.04,71.41c-2.83,1.93-.95,4.73-.34,7.27-1.12,2.72-.66,3.13,1.24,1.43,1.93-1.8,2.91-4.19,1.71-7.15-.37-.9-2.07-1.92-2.6-1.56Z"/>
        <path class="cls-2" d="m1251.57,54.02c.5,1.24.8,2.77,1.55,3.64,1.13,1.29,2.4.7,2.49-1.2.06-1.19-.57-3.01-1.32-3.57-.56-.42-1.79.7-2.72,1.14Z"/>
        <path class="cls-2" d="m1287.03,26.36h-.08s.01.05.02.08l.03-.04.03-.05Z"/>
        <path class="cls-2" d="m1373.48,32.86c.03.25.84.37,1.29.55.16-.66.31-1.32.47-1.97-.47-.18-1.18-.68-1.35-.46-.32.42-.48,1.26-.41,1.88Z"/>
        <path class="cls-2" d="m1386.55,31.91c-1.93-.36-3.05,1.15-3.9,3.12-.3.6-.7,1.17-.84,1.84-.05.23.69,1.09.86,1,.49-.24.89-.82,1.32-1.27,1.63-.42,3.36-.73,3.73-3.34.05-.35-.72-1.27-1.16-1.35Z"/>
        <path class="cls-2" d="m1401.23,40.52c-.38-.11-.87.47-1.32.73.12.55.1,1.35.37,1.59.38.34,1.17.58,1.46.3,1.15-1.12.94-2.19-.52-2.62Z"/>
        <path class="cls-2" d="m1208.67,75.75c.16.57.32,1.15.48,1.73,1.35.1,1.62-.66.66-2.15-.1-.16-.75.27-1.15.43Z"/>
        <path class="cls-2" d="m1199.26,99.35c.14.51.2,1.14.47,1.46.14.17.66-.22,1.02-.35-.14-.51-.19-1.14-.46-1.47-.14-.17-.67.22-1.02.35Z"/>
        <polygon class="cls-2" points="1054.6 129.27 1054.62 127.49 1053.21 128.32 1054.6 129.27"/>
        <path class="cls-2" d="m1160.11,104.86c-.43.25-.77.76-1.14,1.17l-.95,2.87,2.08-1.56c.27-.53.62-1.02.76-1.61.04-.18-.61-.94-.75-.87Z"/>
        <path class="cls-2" d="m1157.92,74.4l.91-1.38-.96,1.33c-1.38.77-1.59,1.42-.59,1.61.16.03.42-1.02.63-1.56Z"/>
        <path class="cls-2" d="m1047.76,75.43c.02-1.39-.08-2.77-.27-4.14-.39.41-1.16,1.04-1.1,1.21.36,1.04.9,1.97,1.38,2.93Z"/>
        <path class="cls-2" d="m875.19,25.72c-.07.44.27,1.21.59,1.49.22.19.74-.19,1.12-.31.05-.59.33-1.4.12-1.74-.82-1.35-1.57-1.12-1.83.56Z"/>
      </g>
    </g>
  </g>
</svg>