<?xml version="1.0" encoding="UTF-8"?>
<svg id="Layer_2" data-name="Layer 2" xmlns="http://www.w3.org/2000/svg" viewBox="0 0 1513.87 735.75">
  <defs>
    <style>
      .cls-1 {
        opacity: .3;
      }

      .cls-2 {
        fill: #ccc;
        stroke-width: 0px;
      }
    </style>
  </defs>
  <g id="Layer_1-2" data-name="Layer 1">
    <g class="cls-1">
      <path class="cls-2" d="m16.81,731.59c-10.04-14.22-12.55-21.75-10.88-41,.84-5.86,2.51-10.88.84-16.73-1.67-5.02,0-10.04,2.51-15.06,2.51-7.53-1.67-15.06,4.18-22.59,4.18-5.86,1.67-14.22,7.53-20.92,0-.84-1.67-2.51-1.67-4.18-.84-2.51-.84-5.02,4.18-6.69.84,0,1.67-1.67,2.51-2.51-.84-.84-1.67-1.67-3.35-1.67-4.18,0-6.69-1.67-5.02-6.69,3.35-6.69,1.67-13.39,4.18-20.08,1.67-6.69,2.51-13.39,4.18-19.24.84-4.18.84-8.37,2.51-10.88,6.69-9.2,5.02-20.92,13.39-29.28,0-.84,2.51-.84,3.35-1.67,2.51,5.02,5.86,9.2,0,15.06-2.51,1.67-2.51,4.18-2.51,5.86,0,5.86-3.35,11.71-.84,18.41,8.37-18.41,11.71-35.14,14.22-53.54,0-2.51-2.51-2.51-5.02-1.67-1.67,1.67-2.51.84-2.51-.84,0-2.51,0-5.02.84-6.69,6.69-9.2,5.86-18.41,5.86-27.61-.84-4.18.84-6.69,3.35-9.2,5.02-3.35,4.18-5.86-.84-6.69-.84,0-.84-.84-.84-1.67,5.02-8.37,3.35-18.41,7.53-27.61l3.35-5.02h4.18c.84-2.51-.84-4.18-2.51-5.02.84-5.02-2.51-8.37-3.35-12.55,5.86-2.51,5.02-6.69,5.02-10.88,0,0-.84-.84-1.67-.84,0,0-.84.84-.84,1.67l-2.51,10.04c-2.51-1.67-3.35-3.35-3.35-6.69,2.51-15.9,2.51-19.24,4.18-35.14.84-5.86,4.18-11.71,0-16.73-3.35-4.18-9.2-2.51-13.39-4.18-3.35-.84-6.69-2.51-9.2-4.18-1.67-.84-1.67-1.67-2.51-3.35s2.51-35.14,3.35-37.65c1.67-2.51,2.51-5.02,5.02-6.69,8.37-4.18,15.06-5.02,23.43-4.18,3.35-4.18,5.86-8.37,6.69-13.39l12.55-87.85c.84-3.35-.84-6.69,1.67-9.2,6.69-10.88,5.86-21.75,5.02-33.47-.84-5.02,1.67-10.04,1.67-15.06l-1.67-23.43-3.35-2.51c-2.51,0-5.02,0-6.69.84-17.57,7.53-36.81,10.04-54.38,15.06l-10.88,2.51c-14.22.84-17.57-1.67-23.43-13.39-2.51-5.02.84-20.08,1.67-25.1.84-.84,4.18-2.51,5.86-3.35h1.67c8.37,7.53,18.41,2.51,27.61,0,20.08-6.69,39.32-14.22,60.24-18.41,5.86-.84,9.2-5.02,10.04-10.88,0-1.67,0-3.35.84-4.18.84-4.18-5.02-6.69-.84-9.2,2.51-1.67,5.86-1.67,9.2-1.67,5.02,0,9.2.84,15.06,0,5.02,0,9.2,1.67,14.22,3.35q8.37,4.18,20.08,1.67l49.36-10.88c16.73-4.18,32.63-5.86,48.52-10.04,10.04-2.51,18.41-.84,29.28-3.35,8.37-2.51,18.41-2.51,27.61-2.51,10.04-.84,19.24,0,28.45,0,9.2-.84,15.9,5.02,25.1,6.69-4.18,2.51-7.53,10.04-10.88,10.88-6.69,3.35-15.9,5.02-23.43,7.53-6.69,2.51-13.39,7.53-20.08,10.88-1.67.84-3.35.84-4.18.84-1.67,0-3.35-.84-4.18-.84,0-1.67.84-2.51,1.67-3.35q2.51-8.37-4.18-8.37c-4.18,0-9.2,0-13.39.84-10.88,2.51-22.59,5.86-34.3,7.53-11.71,1.67-22.59,5.02-32.63,9.2-10.88,5.02-22.59,7.53-33.47,12.55-10.04,4.18-19.24,6.69-30.12,10.04,4.18,13.39,5.86,21.75,3.35,35.14-.84,5.86-2.51,11.71,0,17.57.84,2.51-.84,5.86,0,8.37.84,6.69-4.18,13.39-2.51,20.92,0,6.69-2.51,15.06-3.35,21.75l-2.51,20.08c-1.67,7.53-2.51,15.06-2.51,21.75-.84,5.02-2.51,9.2-5.02,12.55l-3.35,9.2c0,.84,0,3.35.84,4.18,5.02,5.02-4.18,10.88-.84,15.9,4.18,5.02,1.67,9.2,4.18,17.57,3.35,15.06,10.88-3.35,17.57-4.18,17.57-4.18,35.98-8.37,54.38-11.71,12.55-2.51,25.94-2.51,39.32-.84,1.67,0,3.35,1.67,5.02,2.51,1.67.84,2.51,4.18.84,5.86-20.08,24.26-37.65,36.81-58.56,40.16-10.04.84-19.24,5.02-28.45,9.2-7.53,3.35-14.22,5.02-20.92,6.69-5.02,1.67-11.71-1.67-15.06,4.18-1.67,3.35-1.67,8.37-3.35,12.55-3.35,22.59-4.18,32.63-8.37,55.22-.84,5.02-2.51,8.37-8.37,8.37-3.35,0-5.86,2.51-6.69,5.86,0,5.86-1.67,10.88-5.02,16.73l-.84,1.67c.84,1.67,2.51,1.67,3.35,0l5.86-5.02c1.67-1.67,5.02-3.35,5.02-6.69,1.67-3.35,4.18-2.51,4.18-.84,5.02,6.69-3.35,13.39-2.51,20.92,0,2.51-.84,8.37-3.35,10.04-7.53,5.86.84,12.55-4.18,17.57,5.86,9.2.84,20.08-.84,30.12,0,2.51-1.67,5.86-4.18,7.53-4.18,3.35-6.69,5.86,0,8.37,2.51,1.67-.84,7.53,0,10.88.84,5.02-11.71,6.69-5.86,13.39-.84,5.86-2.51,10.88-5.02,16.73-3.35,8.37-5.02,16.73-2.51,25.1,2.51,7.53.84,17.57-3.35,23.43-5.86,7.53-5.02,13.39-5.86,20.08,0,8.37-2.51,15.9-3.35,24.26,0,9.2-3.35,18.41-9.2,26.77-5.02,6.69-9.2,12.55-6.69,20.08.84,1.67.84,3.35-.84,4.18-2.51,5.86-4.18,10.88-5.86,16.73-2.51,10.04-5.86,17.57-17.57,17.57-6.69,5.02-15.06,8.37-22.59,10.88s-10.04,2.51-13.39-2.51Zm52.71-302.86c-.84-.84-1.67-1.67-.84-2.51-.84,0-2.51.84-2.51,1.67l.84,3.35,2.51-2.51Zm5.02-142.23c1.67-1.67,2.51-3.35,3.35-5.86,0-2.51-.84-4.18-3.35-5.86,0,3.35-1.67,6.69-4.18,9.2-1.67,1.67-1.67,3.35.84,3.35.84.84,3.35,0,3.35-.84Zm0,130.52c1.67-2.51,1.67-5.02-1.67-5.86l-.84,5.86c0,.84.84,1.67,1.67,1.67,0,0,.84-.84.84-1.67Zm57.73-59.4c0-.84,0-2.51-.84-3.35,0,.84-.84.84-1.67,1.67v3.35c.84,1.67,2.51,0,2.51-1.67Zm.84-10.88s0-.84-.84-1.67c0,.84-.84.84-.84,1.67,0,1.67.84,1.67,1.67,0Zm2.51-14.22c.84-1.67,0-2.51,0-5.02-.84,1.67-2.51,2.51-2.51,3.35v3.35l2.51-1.67Zm8.37-64.42l-.84-.84c-1.67,0-1.67.84,0,1.67l.84-.84Z"/>
      <path class="cls-2" d="m223.47,651.28c-2.51-3.35-3.35-7.53-6.69-10.88-7.53-9.2-9.2-20.08-6.69-32.63.84-2.51,2.51-6.69,4.18-8.37,1.67-2.51,2.51-5.86.84-8.37-.84-4.18-5.02-6.69-5.86-11.71,0-7.53-2.51-10.88-9.2-14.22-2.51-1.67-4.18-4.18-5.86-5.86-.84-2.51,0-4.18.84-5.86.84-.84,2.51,0,3.35,0,2.51.84,3.35.84,3.35-.84,1.67-5.86,3.35-12.55,3.35-18.41.84-1.67,0-3.35-2.51-3.35,0,0-1.67,1.67-2.51,3.35,0,3.35-.84,6.69-1.67,11.71-4.18-5.02-1.67-10.88-1.67-15.06,0-5.02.84-9.2.84-13.39,1.67-5.86-4.18-9.2.84-15.06,3.35-4.18,5.02-9.2,10.04-13.39,4.18-5.86,4.18-11.71-.84-17.57-2.51-2.51-2.51-5.86-1.67-8.37,6.69-9.2,6.69-20.08,12.55-29.28,2.51-2.51,5.02-7.53,5.02-10.04,1.67-9.2,5.02-18.41,10.04-26.77,2.51-2.51,0-3.35-1.67-4.18-2.51-.84-3.35-2.51,0-3.35,1.67-.84,4.18-1.67,5.86-4.18,0-5.02,0-10.88,4.18-15.06,4.18-5.02,1.67-10.88,6.69-13.39,8.37-1.67,2.51-6.69,5.02-10.04,8.37-11.71,15.06-25.94,23.43-37.65,1.67-7.53,7.53-11.71,10.88-16.73,3.35-3.35,5.86-6.69,8.37-10.04.84-1.67,1.67-4.18,1.67-5.02-.84-2.51-2.51-3.35-5.86-5.02,6.69-.84,10.88-.84,15.06-3.35l12.55-7.53c5.02-3.35,10.88-5.86,16.73-8.37,5.86-3.35,14.22-5.86,21.75-5.86,6.69,0,12.55-.84,18.41,0,18.41,0,29.28,9.2,30.96,27.61,3.35,13.39,2.51,28.45.84,42.67l-3.35,20.92c0,1.67,1.67,5.02,3.35,5.86,1.67,1.67,5.02,2.51.84,5.86-8.37,6.69-6.69,14.22-3.35,20.92-1.67.84-3.35.84-4.18,2.51-1.67,3.35,0,5.02,0,8.37,2.51,6.69,1.67,12.55-3.35,19.24-3.35,5.02-5.02,10.88-9.2,14.22-8.37,10.88-11.71,23.43-21.75,33.47-5.86,6.69-14.22,12.55-20.08,20.08-13.39,6.69-22.59,20.92-37.65,22.59-2.51,0-6.69,2.51-9.2,3.35-5.02,2.51-10.04,5.86-14.22,2.51-7.53,2.51-9.2-2.51-14.22-4.18-2.51-1.67-5.86-1.67-7.53,2.51-4.18,1.67-5.02,5.02-5.02,9.2,0,.84,1.67,2.51,1.67,2.51,5.86-2.51,6.69,1.67,5.02,5.86,0,1.67-1.67,3.35-3.35,5.02-5.86,7.53-5.86,15.06-2.51,22.59,3.35,4.18,1.67,6.69-.84,10.88-2.51,1.67-2.51,5.02-2.51,8.37,4.18,9.2,3.35,19.24,5.02,28.45,4.18,14.22,9.2,26.77,14.22,40.16,5.02,10.04,15.9,14.22,28.45,8.37,10.04-3.35,17.57-8.37,24.26-16.73,10.04-10.04,20.08-20.08,25.1-33.46,2.51-5.02,3.35-10.88,4.18-15.06,1.67-5.02,7.53-7.53,10.88-5.86,5.86,5.02,11.71,9.2,10.88,17.57,0,4.18,0,7.53,3.35,10.04-.84,4.18-1.67,8.37-3.35,11.71-4.18,6.69-8.37,12.55-10.04,19.24-4.18,17.57-16.73,26.77-33.47,33.47-9.2,2.51-16.73,6.69-25.94,9.2-16.73,6.69-34.3,10.04-50.2,7.53-16.73-1.67-26.77-13.39-36.81-23.43Zm-9.2-149.76c0-2.51-.84-5.02-.84-6.69h-1.67l-1.67,5.86c0,1.67.84,2.51,1.67,3.35.84-.84,2.51-1.67,2.51-2.51Zm18.41-17.57c-3.35,5.86-2.51,11.71-7.53,15.9-4.18,6.69-5.02,10.88-5.02,16.73.84,10.88,3.35,21.75,1.67,34.3-.84,1.67.84,3.35,3.35,3.35,3.35-23.43,5.86-46.02,7.53-70.28Zm7.53,130.52v-1.67c-1.67-5.02-5.86-8.37-5.86-13.39,1.67-15.06-6.69-28.45-5.86-42.67,0-.84-1.67-1.67-2.51-1.67-1.67,5.86-1.67,9.2-5.02,14.22,1.67,12.55.84,24.26,5.86,35.98,1.67,5.02,5.02,7.53,9.2,10.04,2.51.84,3.35,1.67,4.18-.84Zm.84,17.57s-.84,0-.84.84c0,1.67,0,2.51,1.67,2.51,0-.84,0-1.67-.84-3.35Zm2.51,4.18c0,1.67.84,3.35,3.35,3.35-.84-1.67-1.67-2.51-3.35-3.35Zm11.71,8.37c-2.51-.84-5.86-2.51-8.37-4.18,0,9.2,5.02,11.71,16.73,11.71-2.51-3.35-4.18-5.86-8.37-7.53Zm14.22,10.04c-.84-.84-.84-1.67-2.51-1.67h-3.35c0,.84,0,1.67.84,3.35.84.84,2.51.84,3.35.84s1.67-.84,1.67-2.51Zm-5.02-158.96c.84,1.67,1.67,1.67,3.35,2.51,0,1.67-.84,2.51-2.51,1.67-.84-.84,0-2.51-.84-4.18Zm4.18-35.14v-.84c7.53.84,15.9-3.35,21.75,1.67,2.51,1.67,5.86.84,7.53-1.67,12.55-11.71,22.59-23.43,31.79-37.65,7.53-15.06,15.06-28.45,16.73-43.5,0-3.35,1.67-7.53,3.35-10.88,7.53-14.22,1.67-29.28,5.02-43.5,1.67-5.02-6.69-6.69-6.69-12.55,0-.84-3.35-.84-5.86-.84s-5.86,0-8.37,1.67c-10.88,5.02-20.08,11.71-26.77,22.59-4.18,9.2-9.2,16.73-12.55,25.1-9.2,20.08-18.41,40.16-24.26,61.07-3.35,12.55-6.69,25.94-1.67,39.32-1.67,0-4.18,0-2.51,2.51l2.51-2.51Zm49.36-156.45c0-.84.84-1.67,1.67-2.51-1.67,0-3.35.84-2.51,2.51h.84Zm8.37-4.18c.84,0,1.67-2.51,1.67-3.35.84-1.67-.84-2.51-1.67-2.51s-4.18,0-4.18.84c-1.67,1.67-1.67,5.02-1.67,6.69,2.51-.84,4.18-.84,5.86-1.67Zm80.32,71.95c.84,0,2.51.84.84,3.35h-.84c-.84-.84,0-2.51,0-3.35Zm2.51-10.88c0-1.67,1.67-1.67,2.51-2.51-.84.84-.84,2.51-2.51,3.35-.84.84-1.67,0,0-.84Zm5.86-6.69c1.67,4.18-.84,4.18-3.35,4.18.84-1.67,2.51-2.51,3.35-4.18Z"/>
      <path class="cls-2" d="m384.95,652.11c-2.51-15.06-3.35-34.3-4.18-50.2-.84-13.39.84-26.77,2.51-40.16.84-7.53.84-15.06,5.86-21.75l2.51-7.53c.84-21.75,10.88-41.83,15.06-62.75,4.18-18.41,11.71-35.98,18.41-54.38,5.86-15.06,10.88-30.96,19.24-46.01,1.67-2.51,2.51-6.69,2.51-10.04-1.67-8.37,3.35-14.22,7.53-20.92,5.02-6.69,7.53-14.22,11.71-20.92,5.02-6.69,15.06-4.18,20.92-9.2,5.02-3.35,9.2-5.02,14.22-8.37,20.08-14.22,39.32-29.28,59.4-42.67,16.73-10.88,33.47-6.69,41.83,8.37,8.37,15.9,8.37,34.3,11.71,51.87-4.18,5.86,0,13.39-3.35,18.41s-1.67,8.37,0,11.71c0,2.51.84,5.02,4.18,3.35,4.18-1.67,7.53-2.51,10.88-2.51,2.51-.84,4.18,1.67,4.18,4.18,0,13.39-.84,26.77-7.53,39.32-2.51,5.86-4.18,11.71-5.86,17.57-6.69,32.63-12.55,64.42-17.57,97.05-.84,9.2.84,17.57-3.35,27.61-.84,5.86.84,11.71-3.35,18.41-2.51,5.86-1.67,11.71-2.51,18.41-2.51,17.57-6.69,35.14-4.18,52.71,1.67,5.02-.84,11.71-.84,17.57-1.67,7.53-1.67,15.06.84,21.75,1.67,1.67,0,5.86-4.18,3.35-4.18-2.51-14.22,4.18-19.24.84-1.67-1.67-3.35-5.02-5.86-5.02-1.67,0-.84,4.18-.84,4.18h-5.86c-1.67-.84-.84-14.22-2.51-14.22s-2.51,11.71-4.18,11.71c-7.53,0-15.9-6.69-16.73-9.2l.84-2.51c2.51-16.73,2.51-33.47,2.51-50.2,0-10.88,2.51-22.59,4.18-34.3-5.86.84-9.2,5.02-11.71,9.2l-14.22,30.12c-5.02,10.88-8.37,20.08-15.9,30.12-4.18,5.02-7.53,15.06-12.55,20.08-6.69,5.86-10.04,15.9-19.24,18.41-15.06,4.18-30.96,10.04-45.18,6.69-15.9-4.18-27.61-12.55-30.12-30.12Zm76.13-39.32c33.47-48.53,49.36-78.64,71.95-132.19,1.67-4.18,4.18-8.37,4.18-11.71,3.35-18.41,5.86-35.98,5.86-53.54.84-8.37.84-16.73,6.69-24.26,4.18-5.86,15.06-11.71,14.22-18.41-2.51-9.2,1.67-20.08-1.67-29.28-.84-1.67,0-3.35.84-5.02,7.53-7.53,4.18-13.39,1.67-20.08-3.35-7.53-1.67-10.88-10.04-10.04-6.69-1.67-10.04.84-15.9,5.86-5.02,5.02-10.88,9.2-15.06,15.06-8.37,11.71-16.73,23.43-23.43,35.98-9.2,15.9-15.9,32.63-24.26,49.36-9.2,17.57-13.39,35.98-20.92,53.54l-11.71,28.45c-5.86,14.22-5.86,28.45-9.2,42.67-2.51,12.55-10.04,25.94-5.86,38.49-5.02,8.37-12.55,43.5-13.39,51.03-1.67,8.37,10.88-34.3,12.55-26.77,1.67,9.2-.84,22.59,1.67,31.79,1.67,4.18,9.2,5.02,13.39.84,5.86-6.69,13.39-14.22,18.41-21.75Zm118.8-266.89c.84-3.35-.84-6.69-4.18-9.2h-1.67c-1.67,4.18-1.67,6.69-2.51,9.2-.84,5.02.84,7.53,2.51,7.53,2.51,0,5.02-3.35,5.86-7.53Zm-7.53-34.3l-.84,1.67c1.67,1.67,3.35,6.69,4.18,9.2,2.51,15.06,13.39-7.53-3.35-10.88Z"/>
      <path class="cls-2" d="m656.85,695.62c-1.67-1.67-4.18-19.24-6.69-20.08-1.67-.84-2.51,15.06-3.35,15.06-7.53-3.35-12.55-5.86-14.22-11.71,0-2.51-2.51-5.02-2.51-7.53,3.35-14.22-5.86-27.61,2.51-41.83,6.69-10.88,10.04-22.59,7.53-33.47-1.67-9.2-1.67-23.43,0-33.46h-.84l5.02-34.3c1.67-6.69,10.88-61.91,9.2-67.77,0-34.3,7.53-50.2,8.37-61.91.84-10.04,0-20.92,6.69-30.96,2.51-4.18,4.18-19.24,2.51-23.43-2.51-5.86.84-17.57,3.35-22.59,3.35-6.69-6.69,4.18-12.55,3.35-5.02-.84-16.73,7.53-19.24,5.02-13.39,0-7.53-17.57-19.24-25.94-2.51-2.51-11.71-13.39-11.71-18.41l10.88-2.51c11.71-2.51,23.43,2.51,27.61-1.67,4.18-4.18,10.04-3.35,15.9-4.18,16.73-2.51,22.59-10.88,22.59-27.61v-2.51c0-1.67-.84-3.35.84-5.02,7.53-12.55,0-17.57,5.02-29.28,3.35-6.69,2.51-5.02,4.18-10.88,1.67-10.88-3.35-20.92,1.67-31.79,6.69-15.9,8.37-31.79,6.69-47.69l-.84-13.39c0-7.53,2.51-10.04,10.04-10.04,8.37,0,16.73.84,33.47.84,13.39-.84,20.08,5.02,23.43,15.9,1.67,5.86,2.51,11.71,1.67,18.41l-5.02,34.3c-.84,10.88.84,20.92-4.18,31.79-1.67,2.51-1.67,6.69-.84,10.04,2.51,13.39,1.67,20.08-5.02,34.3-2.51,6.69,0,12.55,6.69,14.22,12.55-.84,20.08-4.18,24.26-3.35,6.69.84,11.71-.84,18.41-.84,7.53,0,5.86,10.88,12.55,14.22,0,0-10.04,12.55-18.41,12.55-15.9,10.88-29.28,9.2-37.65,12.55-4.18.84-15.06,6.69-15.9,10.88-2.51,12.55-5.02,32.63-9.2,52.71-1.67,9.2-1.67,19.24-8.37,28.45-1.67,2.51-1.67,7.53,0,10.04,2.51,8.37,0,15.9-.84,24.26-.84,8.37-10.88,15.9-5.86,25.1-8.37,8.37.84,16.73-2.51,25.1v8.37c-2.51,8.37-1.67,17.57-6.69,26.77-2.51,7.53,3.35,15.06-.84,22.59-.84,4.18,0,10.04-3.35,13.39-5.02,5.02-1.67,9.2-4.18,14.22-1.67,5.86.84,11.71.84,17.57s-.84,5.86-.84,12.55c-1.67,11.71-5.02,23.43-1.67,34.3.84,4.18-.84,9.2-1.67,13.39-6.69,12.55-7.53,23.43-5.86,36.81,0,13.39-2.51,20.08-4.18,34.3-.84,4.18-4.18,5.86-8.37,5.86-14.22,0-21.75-3.35-29.28-15.06Zm0-69.44c-.84,0-1.67,2.51-3.35,8.37l-1.67-.84c0,4.18-3.35,46.85,3.35,26.77,1.67-5.02,4.18-34.3,1.67-34.3Zm3.35-30.12c0-2.51-1.67-7.53-3.35-10.04l-.84,2.51c0,3.35-2.51,9.2-3.35,14.22-.84,3.35,0,6.69,4.18,6.69,5.02,0,3.35-9.2,3.35-13.39Zm16.73-194.1c-.84,0-2.51,6.69-11.71,61.91l-.84-2.51c-.84,10.04-5.02,61.07,2.51,38.49,4.18-12.55,12.55-97.89,10.04-97.89Z"/>
      <path class="cls-2" d="m773.98,651.28c-3.35-11.71-5.02-23.43-5.86-35.98-.84-22.59,0-45.18-.84-66.93,0-5.86,1.67-11.71,2.51-18.41,1.67-13.39,5.02-26.77,5.02-41-.84-14.22,1.67-12.55,5.02-27.61,1.67-10.88,4.18-20.92,2.51-31.79-.84-5.86,1.67-11.71,2.51-17.57,3.35-15.06,6.69-37.65,11.71-60.24,2.51-11.71,2.51-24.26-.84-34.3-3.35-11.71,5.86-18.41,10.04-27.61,0-.84,3.35-2.51,5.02-2.51,6.69.84,12.55,2.51,19.24,2.51,12.55-.84,19.24,4.18,16.73,18.41-.84,5.02,2.51,8.37,5.02,12.55,3.35,2.51,2.51,6.69-.84,10.04-4.18,5.02-6.69,10.88-5.02,16.73,1.67,6.69-.84,13.39-1.67,20.08,0,10.04-7.53,18.41-6.69,29.28,0,9.2-1.67,10.88-4.18,20.92-1.67,10.88-1.67,21.75-5.02,32.63l-5.02,12.55c-2.51,10.04-3.35,20.08-5.86,30.12-2.51,11.71-5.02,23.43-3.35,35.14-5.86,10.88-1.67,22.59-4.18,34.3-3.35,11.71-2.51,23.43-2.51,35.14-.84,2.51-1.67,6.69,1.67,5.86,2.51-.84,5.86-3.35,6.69-5.86,7.53-20.08,21.75-37.65,26.77-58.56,1.67-5.86,5.02-10.88,8.37-15.9q15.06-19.24,17.57-32.63c1.67-5.02,4.18-10.04,5.86-15.06.84-2.51,19.24-10.04,27.61-35.98,6.69-12.55-17.57,22.59-14.22,10.88,3.35-10.04,14.22-31.79,15.9-42.67.84-10.04,5.86-20.08,10.88-28.45,7.53-11.71,11.71-23.43,13.39-36.81l2.51-15.06c3.35-17.57,8.37-35.14,6.69-52.71-.84-1.67,0-5.02.84-5.86,7.53-6.69,12.55-15.9,22.59-20.92,5.02-3.35,10.04-5.02,15.9-4.18,3.35.84,7.53,0,10.88.84,5.86,0,21.75,6.69,20.92,12.55,0,1.67,0,4.18-.84,5.86-2.51,13.39-5.86,25.94-6.69,38.49-2.51,12.55-5.86,25.1-8.37,37.65-10.88,54.38-22.59,108.76-33.47,163.14-5.86,27.61-9.2,56.05-12.55,84.5,4.18,21.75-6.69,45.18-3.35,66.93.84,4.18-1.67,10.04-2.51,15.06,0,.84-12.55.84-13.39.84-1.67.84-3.35.84-4.18,0-8.37-7.53-15.9-15.06-18.41-25.94-5.02-20.08-10.88-39.32-9.2-61.91.84-3.35,1.67-7.53,0-11.71-1.67-7.53.84-14.22,5.02-22.59,3.35-4.18,3.35-10.88,4.18-16.73,0-2.51-.84-3.35-4.18-2.51-3.35.84,0-3.35-2.51,0-.84,1.67-1.67,1.67-1.67,2.51-5.02,15.9-11.71,30.12-20.08,45.18-4.18,6.69-3.35,15.9-7.53,24.26-8.37,22.59-21.75,42.67-35.14,61.91-8.37,11.71-25.94,18.41-35.98,13.39-10.04-5.02-20.08-11.71-23.43-24.26Z"/>
      <path class="cls-2" d="m1027.48,665.5c-5.02-3.35-9.2-1.67-15.06.84q-1.67,1.67-3.35.84c-7.53-4.18-16.73-4.18-25.94-5.02-5.86,0-4.18-9.2-9.2-10.88,1.67-17.57,5.86-34.3,10.88-51.04,4.18-12.55-1.67-24.26,1.67-35.98,4.18-10.88,9.2-21.75,8.37-32.63-.84-6.69-.84-11.71,1.67-18.41,3.35-7.53,5.02-16.73,5.86-25.1,5.02-32.63,8.37-65.26,13.39-97.89.84-5.86,2.51-12.55,0-18.41-2.51-3.35-1.67-7.53.84-10.88,6.69-10.04,5.02-19.24,3.35-29.28-3.35-11.71-8.37-8.37.84-21.75.84-10.88,1.67-20.92-3.35-30.96-.84-1.67,4.18-8.37,6.69-7.53,5.86,2.51,10.88-1.67,16.73-3.35,2.51-.84,6.69-3.35,7.53-2.51,8.37,5.86,15.9,0,19.24-2.51,5.02-.84,10.88,0,14.22,3.35,1.67,1.67,5.02,5.02,3.35,5.86-4.18,6.69,2.51,10.88.84,15.9-5.02,20.92,4.18,8.37,1.67,28.45-1.67,5.86.84,10.88,3.35,15.06,4.18-.84,4.18-4.18,6.69-7.53,2.51-6.69,5.86-13.39,10.88-20.08,13.39-17.57,16.73-31.79,27.61-41,8.37-7.53,17.57-15.9,25.1-24.26,7.53-7.53,16.73-10.88,25.1-15.06,5.02-2.51,10.04-3.35,15.9-5.86,13.39-6.69,26.77-7.53,40.16-7.53,15.06.84,25.94,15.06,25.1,30.96-.84,5.02-4.18,8.37-7.53,11.71-5.86,3.35-10.88,3.35-16.73,4.18-2.51,0-4.18,1.67-6.69,5.02,0,.84-1.67,6.69-4.18,2.51-1.67-2.51-1.67-5.02-2.51-7.53-10.04-17.57-15.06-14.22-30.12-2.51-5.02,4.18-8.37,10.88-13.39,15.9-17.57,18.41-35.14,47.69-51.03,67.77-5.02,5.86-5.02,14.22-10.04,20.92-1.67-12.55-4.18,10.04-9.2,14.22-3.35,3.35-5.02,8.37-6.69,12.55-4.18,17.57-12.55,51.87-21.75,67.77-4.18,7.53-5.86,14.22-7.53,21.75l-14.22,109.6c-1.67,10.04,3.35,19.24.84,30.12-3.35,10.04-3.35,20.08,0,30.12,1.67,4.18-1.67,10.88-2.51,15.9-.84,5.02-4.18,6.69-7.53,6.69-10.04.84-20.08,1.67-29.28-2.51Zm-22.59-91.19c.84-2.51-.84-4.18-.84-6.69l-.84,1.67c-3.35,0-2.51,11.71-.84,11.71.84,0,1.67-1.67,2.51-6.69Zm5.86-14.22c.84-10.04,2.51-20.92-1.67-29.28l-.84-.84-2.51,10.88c-1.67,11.71-3.35,19.24,7.53,25.94,2.51.84-1.67-4.18-2.51-6.69Zm7.53-51.87c0-12.55.84-15.9.84-20.08,1.67-9.2,2.51-10.88.84-15.06l-4.18-2.51-2.51,16.73c0,1.67-3.35,4.18-1.67,5.02,3.35,3.35,5.86,5.02,5.02,9.2l-1.67,3.35c0,1.67-3.35,6.69-3.35,8.37,0,.84,0,1.67.84,1.67,1.67,0,5.86-4.18,5.86-6.69Zm3.35-62.75l.84-1.67c-.84-.84-1.67-3.35-1.67-4.18l-1.67.84c-.84,2.51-3.35,7.53-4.18,11.71,0,1.67.84,3.35,2.51,3.35s4.18-6.69,4.18-10.04Zm3.35,76.97c8.37-34.3,10.88-71.95,10.88-99.56v-2.51l-5.86,35.97c-6.69,39.32-11.71,74.46-5.86,87.85.84,2.51-.84-13.39.84-21.75Zm65.26-190.75c-2.51.84-4.18.84-2.51,4.18l2.51-4.18Z"/>
      <path class="cls-2" d="m1178.07,651.28c-2.51-3.35-3.35-7.53-6.69-10.88-7.53-9.2-9.2-20.08-6.69-32.63.84-2.51,2.51-6.69,4.18-8.37,1.67-2.51,2.51-5.86.84-8.37-.84-4.18-5.02-6.69-5.86-11.71,0-7.53-2.51-10.88-9.2-14.22-2.51-1.67-4.18-4.18-5.86-5.86-.84-2.51,0-4.18.84-5.86.84-.84,2.51,0,3.35,0,2.51.84,3.35.84,3.35-.84,1.67-5.86,3.35-12.55,3.35-18.41.84-1.67,0-3.35-2.51-3.35,0,0-1.67,1.67-2.51,3.35,0,3.35-.84,6.69-1.67,11.71-4.18-5.02-1.67-10.88-1.67-15.06,0-5.02.84-9.2.84-13.39,1.67-5.86-4.18-9.2.84-15.06,3.35-4.18,5.02-9.2,10.04-13.39,4.18-5.86,4.18-11.71-.84-17.57-2.51-2.51-2.51-5.86-1.67-8.37,6.69-9.2,6.69-20.08,12.55-29.28,2.51-2.51,5.02-7.53,5.02-10.04,1.67-9.2,5.02-18.41,10.04-26.77,2.51-2.51,0-3.35-1.67-4.18-2.51-.84-3.35-2.51,0-3.35,1.67-.84,4.18-1.67,5.86-4.18,0-5.02,0-10.88,4.18-15.06,4.18-5.02,1.67-10.88,6.69-13.39,8.37-1.67,2.51-6.69,5.02-10.04,8.37-11.71,15.06-25.94,23.43-37.65,1.67-7.53,7.53-11.71,10.88-16.73,3.35-3.35,5.86-6.69,8.37-10.04.84-1.67,1.67-4.18,1.67-5.02-.84-2.51-2.51-3.35-5.86-5.02,6.69-.84,10.88-.84,15.06-3.35l12.55-7.53c5.02-3.35,10.88-5.86,16.73-8.37,5.86-3.35,14.22-5.86,21.75-5.86,6.69,0,12.55-.84,18.41,0,18.41,0,29.28,9.2,30.96,27.61,3.35,13.39,2.51,28.45.84,42.67l-3.35,20.92c0,1.67,1.67,5.02,3.35,5.86,1.67,1.67,5.02,2.51.84,5.86-8.37,6.69-6.69,14.22-3.35,20.92-1.67.84-3.35.84-4.18,2.51-1.67,3.35,0,5.02,0,8.37,2.51,6.69,1.67,12.55-3.35,19.24-3.35,5.02-5.02,10.88-9.2,14.22-8.37,10.88-11.71,23.43-21.75,33.47-5.86,6.69-14.22,12.55-20.08,20.08-13.39,6.69-22.59,20.92-37.65,22.59-2.51,0-6.69,2.51-9.2,3.35-5.02,2.51-10.04,5.86-14.22,2.51-7.53,2.51-9.2-2.51-14.22-4.18-2.51-1.67-5.86-1.67-7.53,2.51-4.18,1.67-5.02,5.02-5.02,9.2,0,.84,1.67,2.51,1.67,2.51,5.86-2.51,6.69,1.67,5.02,5.86,0,1.67-1.67,3.35-3.35,5.02-5.86,7.53-5.86,15.06-2.51,22.59,3.35,4.18,1.67,6.69-.84,10.88-2.51,1.67-2.51,5.02-2.51,8.37,4.18,9.2,3.35,19.24,5.02,28.45,4.18,14.22,9.2,26.77,14.22,40.16,5.02,10.04,15.9,14.22,28.45,8.37,10.04-3.35,17.57-8.37,24.26-16.73,10.04-10.04,20.08-20.08,25.1-33.46,2.51-5.02,3.35-10.88,4.18-15.06,1.67-5.02,7.53-7.53,10.88-5.86,5.86,5.02,11.71,9.2,10.88,17.57,0,4.18,0,7.53,3.35,10.04-.84,4.18-1.67,8.37-3.35,11.71-4.18,6.69-8.37,12.55-10.04,19.24-4.18,17.57-16.73,26.77-33.47,33.47-9.2,2.51-16.73,6.69-25.94,9.2-16.73,6.69-34.3,10.04-50.2,7.53-16.73-1.67-26.77-13.39-36.81-23.43Zm-9.2-149.76c0-2.51-.84-5.02-.84-6.69h-1.67l-1.67,5.86c0,1.67.84,2.51,1.67,3.35.84-.84,2.51-1.67,2.51-2.51Zm18.41-17.57c-3.35,5.86-2.51,11.71-7.53,15.9-4.18,6.69-5.02,10.88-5.02,16.73.84,10.88,3.35,21.75,1.67,34.3-.84,1.67.84,3.35,3.35,3.35,3.35-23.43,5.86-46.02,7.53-70.28Zm7.53,130.52v-1.67c-1.67-5.02-5.86-8.37-5.86-13.39,1.67-15.06-6.69-28.45-5.86-42.67,0-.84-1.67-1.67-2.51-1.67-1.67,5.86-1.67,9.2-5.02,14.22,1.67,12.55.84,24.26,5.86,35.98,1.67,5.02,5.02,7.53,9.2,10.04,2.51.84,3.35,1.67,4.18-.84Zm.84,17.57s-.84,0-.84.84c0,1.67,0,2.51,1.67,2.51,0-.84,0-1.67-.84-3.35Zm2.51,4.18c0,1.67.84,3.35,3.35,3.35-.84-1.67-1.67-2.51-3.35-3.35Zm11.71,8.37c-2.51-.84-5.86-2.51-8.37-4.18,0,9.2,5.02,11.71,16.73,11.71-2.51-3.35-4.18-5.86-8.37-7.53Zm14.22,10.04c-.84-.84-.84-1.67-2.51-1.67h-3.35c0,.84,0,1.67.84,3.35.84.84,2.51.84,3.35.84s1.67-.84,1.67-2.51Zm-5.02-158.96c.84,1.67,1.67,1.67,3.35,2.51,0,1.67-.84,2.51-2.51,1.67-.84-.84,0-2.51-.84-4.18Zm4.18-35.14v-.84c7.53.84,15.9-3.35,21.75,1.67,2.51,1.67,5.86.84,7.53-1.67,12.55-11.71,22.59-23.43,31.79-37.65,7.53-15.06,15.06-28.45,16.73-43.5,0-3.35,1.67-7.53,3.35-10.88,7.53-14.22,1.67-29.28,5.02-43.5,1.67-5.02-6.69-6.69-6.69-12.55,0-.84-3.35-.84-5.86-.84s-5.86,0-8.37,1.67c-10.88,5.02-20.08,11.71-26.77,22.59-4.18,9.2-9.2,16.73-12.55,25.1-9.2,20.08-18.41,40.16-24.26,61.07-3.35,12.55-6.69,25.94-1.67,39.32-1.67,0-4.18,0-2.51,2.51l2.51-2.51Zm49.36-156.45c0-.84.84-1.67,1.67-2.51-1.67,0-3.35.84-2.51,2.51h.84Zm8.37-4.18c.84,0,1.67-2.51,1.67-3.35.84-1.67-.84-2.51-1.67-2.51s-4.18,0-4.18.84c-1.67,1.67-1.67,5.02-1.67,6.69,2.51-.84,4.18-.84,5.86-1.67Zm80.32,71.95c.84,0,2.51.84.84,3.35h-.84c-.84-.84,0-2.51,0-3.35Zm2.51-10.88c0-1.67,1.67-1.67,2.51-2.51-.84.84-.84,2.51-2.51,3.35-.84.84-1.67,0,0-.84Zm5.86-6.69c1.67,4.18-.84,4.18-3.35,4.18.84-1.67,2.51-2.51,3.35-4.18Z"/>
      <path class="cls-2" d="m1344.57,706.5c-10.88-6.69-17.57-20.08-20.92-31.79-1.67-2.51-1.67-7.53.84-10.04,5.02-8.37,2.51-16.73,7.53-24.26,10.04-17.57,18.41-35.98,31.79-50.2,4.18-3.35,4.18-11.71,9.2-15.06,5.02-4.18,8.37-8.37,10.88-13.39,4.18-9.2,11.71-19.24,18.41-27.61,11.71-13.39,19.24-24.26,25.94-40.16.84-1.67,1.67-3.35,1.67-5.02-4.18-12.55,5.02-25.1,10.04-35.97,1.67-3.35,1.67-6.69-2.51-7.53-6.69-1.67-20.08,7.53-31.79,15.06-4.18-2.51-9.2-3.35-10.88-7.53-10.88-11.71-20.08-24.26-29.28-37.65-2.51-3.35-5.02-7.53-3.35-10.88,8.37-9.2,17.57-37.65,21.75-46.85,7.53-16.73,20.08-27.61,29.28-43.51,3.35-4.18,8.37-8.37,10.88-13.39,7.53-18.41,18.41-31.79,32.63-47.69,2.51-4.18,5.86-9.2,10.04-13.39,3.35-5.02,5.86-5.86,8.37,0,2.51,5.02,10.04,7.53,14.22,10.04,9.2,4.18,15.06,10.88,20.92,19.24,3.35,5.02,4.18,6.69,3.35,14.22-.84,5.86-3.35,10.04-7.53,14.22-12.55,7.53-19.24,18.41-29.28,29.28-8.37,8.37-17.57,19.24-25.1,30.12-6.69,8.37-13.39,16.73-19.24,26.77-6.69,5.86-10.04,12.55-14.22,18.41,4.18,3.35,9.2,8.37,15.06,8.37,1.67.84,4.18,0,6.69.84,23.43,8.37,45.18,18.41,61.07,38.49,5.86,8.37,10.88,18.41,10.88,30.12-.84,8.37,1.67,19.24-5.02,27.61-.84,10.88-10.88,16.73-12.55,25.94-2.51,10.88-12.55,18.41-18.41,27.61-2.51,3.35-4.18,6.69-7.53,10.04-5.02,8.37-13.39,17.57-21.75,23.43-5.86,5.02-12.55,9.2-15.06,20.08,0,2.51-4.18,4.18-8.37,6.69-3.35,3.35-7.53,5.02-7.53,10.88-.84,6.69-8.37,5.02-10.88,9.2-2.51,4.18-5.86,8.37-8.37,11.71-3.35,4.18-9.2,7.53-11.71,12.55-10.04,13.39-14.22,28.45-12.55,44.34.84,1.67,0,4.18,0,6.69.84.84-.84,2.51-.84,5.02-.84.84-2.51.84-4.18,0-6.69-5.86-15.9-10.04-22.59-15.06Zm9.2-65.26c0-2.51-.84-5.02-3.35-5.86l-.84-2.51c-.84,9.2-12.55,15.9-13.39,24.26l-2.51,10.04c0,.84,0,1.67.84,1.67,4.18,0,17.57-18.41,19.24-27.61Zm6.69-20.08c0-1.67,0-4.18-.84-7.53l-.84-1.67c-1.67,4.18-3.35,7.53-3.35,9.2-.84,3.35.84,5.02,1.67,5.02s2.51-1.67,3.35-5.02Zm21.75-27.61c1.67-3.35,1.67-7.53,1.67-11.71.84-.84.84-2.51,1.67-4.18l.84-3.35c-6.69,7.53-12.55,14.22-16.73,22.59-2.51,4.18-3.35,7.53-4.18,10.04,0,.84.84,1.67,1.67,1.67,1.67,0,10.04-8.37,15.06-15.06Zm-5.86,21.75l-.84-1.67c-4.18,1.67-6.69,3.35-7.53,5.02,0,.84,1.67,1.67,3.35,1.67s3.35-.84,5.02-5.02Z"/>
    </g>
  </g>
</svg>