<?xml version="1.0" encoding="UTF-8"?>
<svg id="Layer_2" data-name="Layer 2" xmlns="http://www.w3.org/2000/svg" viewBox="0 0 1037.8 783.93">
  <defs>
    <style>
      .cls-1 {
        opacity: .3;
      }

      .cls-2 {
        fill: #ccc;
        stroke-width: 0px;
      }
    </style>
  </defs>
  <g id="Layer_1-2" data-name="Layer 1">
    <g class="cls-1">
      <path class="cls-2" d="m16.81,731.59c-10.04-14.22-12.55-21.75-10.88-41,.84-5.86,2.51-10.88.84-16.73-1.67-5.02,0-10.04,2.51-15.06,2.51-7.53-1.67-15.06,4.18-22.59,4.18-5.86,1.67-14.22,7.53-20.92,0-.84-1.67-2.51-1.67-4.18-.84-2.51-.84-5.02,4.18-6.69.84,0,1.67-1.67,2.51-2.51-.84-.84-1.67-1.67-3.35-1.67-4.18,0-6.69-1.67-5.02-6.69,3.35-6.69,1.67-13.39,4.18-20.08,1.67-6.69,2.51-13.39,4.18-19.24.84-4.18.84-8.37,2.51-10.88,6.69-9.2,5.02-20.92,13.39-29.28,0-.84,2.51-.84,3.35-1.67,2.51,5.02,5.86,9.2,0,15.06-2.51,1.67-2.51,4.18-2.51,5.86,0,5.86-3.35,11.71-.84,18.41,8.37-18.41,11.71-35.14,14.22-53.54,0-2.51-2.51-2.51-5.02-1.67-1.67,1.67-2.51.84-2.51-.84,0-2.51,0-5.02.84-6.69,6.69-9.2,5.86-18.41,5.86-27.61-.84-4.18.84-6.69,3.35-9.2,5.02-3.35,4.18-5.86-.84-6.69-.84,0-.84-.84-.84-1.67,5.02-8.37,3.35-18.41,7.53-27.61l3.35-5.02h4.18c.84-2.51-.84-4.18-2.51-5.02.84-5.02-2.51-8.37-3.35-12.55,5.86-2.51,5.02-6.69,5.02-10.88,0,0-.84-.84-1.67-.84,0,0-.84.84-.84,1.67l-2.51,10.04c-2.51-1.67-3.35-3.35-3.35-6.69,2.51-15.9,2.51-19.24,4.18-35.14.84-5.86,4.18-11.71,0-16.73-3.35-4.18-9.2-2.51-13.39-4.18-3.35-.84-6.69-2.51-9.2-4.18-1.67-.84-1.67-1.67-2.51-3.35s2.51-35.14,3.35-37.65c1.67-2.51,2.51-5.02,5.02-6.69,8.37-4.18,15.06-5.02,23.43-4.18,3.35-4.18,5.86-8.37,6.69-13.39l12.55-87.85c.84-3.35-.84-6.69,1.67-9.2,6.69-10.88,5.86-21.75,5.02-33.47-.84-5.02,1.67-10.04,1.67-15.06l-1.67-23.43-3.35-2.51c-2.51,0-5.02,0-6.69.84-17.57,7.53-36.81,10.04-54.38,15.06l-10.88,2.51c-14.22.84-17.57-1.67-23.43-13.39-2.51-5.02.84-20.08,1.67-25.1.84-.84,4.18-2.51,5.86-3.35h1.67c8.37,7.53,18.41,2.51,27.61,0,20.08-6.69,39.32-14.22,60.24-18.41,5.86-.84,9.2-5.02,10.04-10.88,0-1.67,0-3.35.84-4.18.84-4.18-5.02-6.69-.84-9.2,2.51-1.67,5.86-1.67,9.2-1.67,5.02,0,9.2.84,15.06,0,5.02,0,9.2,1.67,14.22,3.35q8.37,4.18,20.08,1.67l49.36-10.88c16.73-4.18,32.63-5.86,48.52-10.04,10.04-2.51,18.41-.84,29.28-3.35,8.37-2.51,18.41-2.51,27.61-2.51,10.04-.84,19.24,0,28.45,0,9.2-.84,15.9,5.02,25.1,6.69-4.18,2.51-7.53,10.04-10.88,10.88-6.69,3.35-15.9,5.02-23.43,7.53-6.69,2.51-13.39,7.53-20.08,10.88-1.67.84-3.35.84-4.18.84-1.67,0-3.35-.84-4.18-.84,0-1.67.84-2.51,1.67-3.35q2.51-8.37-4.18-8.37c-4.18,0-9.2,0-13.39.84-10.88,2.51-22.59,5.86-34.3,7.53-11.71,1.67-22.59,5.02-32.63,9.2-10.88,5.02-22.59,7.53-33.47,12.55-10.04,4.18-19.24,6.69-30.12,10.04,4.18,13.39,5.86,21.75,3.35,35.14-.84,5.86-2.51,11.71,0,17.57.84,2.51-.84,5.86,0,8.37.84,6.69-4.18,13.39-2.51,20.92,0,6.69-2.51,15.06-3.35,21.75l-2.51,20.08c-1.67,7.53-2.51,15.06-2.51,21.75-.84,5.02-2.51,9.2-5.02,12.55l-3.35,9.2c0,.84,0,3.35.84,4.18,5.02,5.02-4.18,10.88-.84,15.9,4.18,5.02,1.67,9.2,4.18,17.57,3.35,15.06,10.88-3.35,17.57-4.18,17.57-4.18,35.98-8.37,54.38-11.71,12.55-2.51,25.94-2.51,39.32-.84,1.67,0,3.35,1.67,5.02,2.51,1.67.84,2.51,4.18.84,5.86-20.08,24.26-37.65,36.81-58.56,40.16-10.04.84-19.24,5.02-28.45,9.2-7.53,3.35-14.22,5.02-20.92,6.69-5.02,1.67-11.71-1.67-15.06,4.18-1.67,3.35-1.67,8.37-3.35,12.55-3.35,22.59-4.18,32.63-8.37,55.22-.84,5.02-2.51,8.37-8.37,8.37-3.35,0-5.86,2.51-6.69,5.86,0,5.86-1.67,10.88-5.02,16.73l-.84,1.67c.84,1.67,2.51,1.67,3.35,0l5.86-5.02c1.67-1.67,5.02-3.35,5.02-6.69,1.67-3.35,4.18-2.51,4.18-.84,5.02,6.69-3.35,13.39-2.51,20.92,0,2.51-.84,8.37-3.35,10.04-7.53,5.86.84,12.55-4.18,17.57,5.86,9.2.84,20.08-.84,30.12,0,2.51-1.67,5.86-4.18,7.53-4.18,3.35-6.69,5.86,0,8.37,2.51,1.67-.84,7.53,0,10.88.84,5.02-11.71,6.69-5.86,13.39-.84,5.86-2.51,10.88-5.02,16.73-3.35,8.37-5.02,16.73-2.51,25.1,2.51,7.53.84,17.57-3.35,23.43-5.86,7.53-5.02,13.39-5.86,20.08,0,8.37-2.51,15.9-3.35,24.26,0,9.2-3.35,18.41-9.2,26.77-5.02,6.69-9.2,12.55-6.69,20.08.84,1.67.84,3.35-.84,4.18-2.51,5.86-4.18,10.88-5.86,16.73-2.51,10.04-5.86,17.57-17.57,17.57-6.69,5.02-15.06,8.37-22.59,10.88s-10.04,2.51-13.39-2.51Zm52.71-302.86c-.84-.84-1.67-1.67-.84-2.51-.84,0-2.51.84-2.51,1.67l.84,3.35,2.51-2.51Zm5.02-142.23c1.67-1.67,2.51-3.35,3.35-5.86,0-2.51-.84-4.18-3.35-5.86,0,3.35-1.67,6.69-4.18,9.2-1.67,1.67-1.67,3.35.84,3.35.84.84,3.35,0,3.35-.84Zm0,130.52c1.67-2.51,1.67-5.02-1.67-5.86l-.84,5.86c0,.84.84,1.67,1.67,1.67,0,0,.84-.84.84-1.67Zm57.73-59.4c0-.84,0-2.51-.84-3.35,0,.84-.84.84-1.67,1.67v3.35c.84,1.67,2.51,0,2.51-1.67Zm.84-10.88s0-.84-.84-1.67c0,.84-.84.84-.84,1.67,0,1.67.84,1.67,1.67,0Zm2.51-14.22c.84-1.67,0-2.51,0-5.02-.84,1.67-2.51,2.51-2.51,3.35v3.35l2.51-1.67Zm8.37-64.42l-.84-.84c-1.67,0-1.67.84,0,1.67l.84-.84Z"/>
      <path class="cls-2" d="m404.18,735.78c-.84-1.67-2.51-4.18-.84-6.69,5.02-14.22-2.51-25.1-7.53-35.98-2.51-4.18-.84-7.53,3.35-9.2l2.51-1.67c0-1.67-.84-2.51-.84-4.18-.84-10.88-4.18-39.32-2.51-51.04,1.67-10.88-5.02-20.08-2.51-30.12,0-1.67.84-5.02,0-6.69-4.18-6.69,2.51-17.57-1.67-22.59-4.18-8.37,3.35-13.39,4.18-20.92,1.67-6.69,1.67-14.22,2.51-20.92-.84-.84-2.51-1.67-3.35-1.67h-.84s0,.84-.84,1.67c-.84.84-.84,4.18-5.02,2.51-3.35-3.35-8.37-2.51-13.39-1.67-31.79,10.04-63.58,11.71-95.38,15.06-5.02,0-7.53,3.35-10.88,8.37-5.02,12.55-12.55,25.94-15.9,38.49-2.51,10.88-2.51,15.9-10.88,22.59-.84,3.35-.84,6.69-.84,10.04-1.67,10.04-6.69,20.92-10.04,32.63-3.35,6.69-8.37,14.22-10.88,21.75-2.51,8.37-5.86,15.06-7.53,23.43-3.35,8.37-10.04,11.71-17.57,12.55-4.18,0-11.71-1.67-15.9-.84-8.37.84,18.41-66.93-11.71-5.86-2.51-5.02-6.69-13.39-2.51-17.57,7.53-8.37,7.53-20.08,12.55-29.28,4.18-11.71,6.69-23.43,10.04-35.14.84-1.67,0-3.35.84-5.02,13.39-15.9,10.04-30.96,19.24-46.85,5.86-8.37,3.35-15.9,8.37-23.43,3.35-5.02,3.35-7.53-2.51-8.37-13.39-1.67-19.24-12.55-24.26-24.26-1.67-1.67,0-3.35,1.67-4.18,1.67,0,5.02-.84,8.37-.84,5.86,0,10.04.84,15.06.84,15.9,0,20.92-1.67,24.26-15.9,5.02-20.92,15.06-39.32,21.75-57.73,6.69-18.41,15.06-35.98,16.73-53.54,0-4.18,1.67-6.69,4.18-10.04,8.37-17.57,15.9-35.98,23.43-54.38,2.51-10.88,6.69-21.75,10.04-32.63,5.02-15.9,13.39-29.28,18.41-44.34,4.18-13.39,10.04-27.61,15.9-39.32,5.02-10.04,5.02-20.08,9.2-28.45,5.02-9.2,9.2-18.41,10.04-27.61-.84-1.67,0-3.35,0-5.02,2.51-5.02,6.69-9.2,9.2-12.55,1.67-4.18,1.67-9.2,4.18-11.71,4.18-5.86.84-9.2,3.35-13.39,2.51-4.18,4.18-8.37,7.53-12.55,3.35-4.18-1.67-6.69.84-11.71,3.35-5.02,4.18-12.55,7.53-17.57,3.35-6.69,2.51-12.55,4.18-18.41,0-2.51,1.67-5.02,3.35-6.69,5.02-5.86,11.71-9.2,15.06-16.73,1.67-2.51,3.35,1.67,3.35,3.35.84,3.35,3.35,2.51,4.18,0,5.02-2.51,6.69-6.69,7.53-10.88.84-5.02,3.35-4.18,6.69-3.35.84.84,4.18.84,6.69,0,5.86-2.51,13.39-2.51,20.92-3.35,1.67,0,24.26-3.35,24.26-1.67,1.67,5.86,7.53,10.88,5.02,17.57-1.67,5.02-6.69,10.04-5.02,15.9,3.35,5.86-4.18,10.88,0,15.9.84.84.84,2.51.84,4.18-.84,25.94-.84,50.2-3.35,75.3-2.51,12.55-5.86,25.1-1.67,35.98.84,2.51.84,4.18-.84,5.02-9.2,15.06-4.18,31.79-13.39,46.85-.84.84,0,5.02.84,7.53,1.67,5.02,0,10.04-2.51,15.9-3.35,5.02-5.02,13.39-3.35,18.41,5.02,13.39-1.67,28.45-1.67,42.67-.84,8.37-8.37,14.22-6.69,23.43,0,5.86,3.35,11.71.84,19.24-1.67,5.02-2.51,10.88-12.55,15.06-3.35,5.86-4.18,13.39-1.67,20.92,0,.84.84,2.51,1.67,3.35-2.51,4.18-3.35,8.37-5.86,13.39h-1.67l-3.35.84v2.51c2.51,0,3.35-1.67,3.35-3.35,4.18.84,5.86,3.35,4.18,5.86-4.18,5.86-3.35,9.2,1.67,12.55,1.67,1.67,3.35,5.86,0,7.53,3.35,5.02,8.37,11.71,5.02,19.24-2.51,5.02,3.35,10.04,1.67,16.73,5.02,2.51,20.08,4.18,15.9,8.37,7.53,2.51,5.02,2.51,1.67,7.53-1.67,4.18-4.18,9.2-9.2,12.55-5.02,2.51-16.73,5.02-21.75,7.53,2.51,5.02,3.35,9.2,2.51,14.22,0,2.51-.84,7.53,0,9.2,12.55,6.69,10.04,15.06,10.04,23.43.84,5.86-7.53,9.2-3.35,15.9.84,4.18,0,10.04.84,15.9,0,4.18-.84,5.02-4.18,6.69-4.18,1.67-13.39,8.37-12.55,10.04,15.06,3.35,12.55,7.53,12.55,13.39-.84,5.02,2.51,9.2,2.51,15.06,0,5.02,1.67,9.2,1.67,15.9-1.67,5.86-.84,30.12-1.67,35.14-1.67,0-2.51-.84-3.35-.84-1.67-1.67-3.35-3.35-4.18.84-.84,2.51-.84,5.86-.84,9.2,4.18,11.71,2.51,25.1,6.69,37.65-3.35,6.69-1.67,12.55-2.51,17.57-1.67,5.86-7.53,8.37-11.71,6.69-6.69-3.35-33.47-1.67-35.98-9.2Zm-82.83-254.34c14.22-3.35,28.45-9.2,41.83-7.53,5.02.84,10.88-5.02,18.41-3.35,5.86,1.67,13.39-1.67,20.92-3.35-1.67-7.53-6.69-12.55-5.86-20.92-.84-6.69,2.51-14.22-1.67-19.24,0-.84.84-3.35,1.67-4.18,8.37-7.53,6.69-15.06,5.02-21.75-1.67-5.86-2.51-11.71-1.67-18.41,1.67-13.39,3.35-27.61,3.35-41,.84-4.18,2.51-9.2.84-13.39-5.02-18.41,5.86-38.49.84-56.89-.84-2.51,4.18-7.53,2.51-10.88-2.51-16.73,2.51-34.3,3.35-50.2,0-9.2-1.67-19.24-3.35-30.96l-17.57,43.5c-5.02,9.2-6.69,17.57-9.2,27.61-3.35,10.04-5.86,18.41-7.53,28.45,0,8.37-2.51,16.73-9.2,25.94-4.18,4.18-5.02,9.2-5.86,15.06-.84,6.69,0,15.9-3.35,20.92-5.86,11.71-10.88,24.26-15.9,36.81-3.35,10.88-31.79,38.49-21.75,36.81,15.06-3.35,0,16.73-5.02,29.28-6.69,13.39-10.88,28.45-16.73,42.67,9.2-2.51,18.41-3.35,25.94-5.02Zm81.99,122.99h-.84c0,.84-1.67,2.51-.84,3.35-1.67,1.67.84,2.51.84,2.51,1.67,0,2.51-4.18.84-5.86Zm0-32.63c0-1.67-.84-1.67-1.67,0l.84.84c.84,0,.84-.84.84-.84Zm13.39,127.17c0-.84-1.67-2.51-2.51-3.35,0,.84-2.51.84-1.67,1.67v4.18c1.67-1.67,4.18-1.67,4.18-2.51Zm25.94-242.63c-1.67-.84-1.67-1.67-2.51-1.67l-.84.84v1.67c.84-.84,1.67-.84,3.35-.84Zm0-20.92l-.84.84c-.84,3.35,0,3.35,1.67.84,1.67-.84,0-.84-.84-1.67Zm-.84-36.81c.84.84,1.67.84,2.51.84,0-1.67.84-2.51-2.51-.84Zm9.2,244.3l1.67-3.35c0-3.35-.84-5.02-.84-7.53l-3.35,6.69c.84,1.67.84,2.51,0,4.18,0,.84.84.84,1.67,1.67,0-.84.84-.84.84-1.67Z"/>
      <path class="cls-2" d="m894.44,270.61c-.84,5.02-1.67,8.37-.84,12.55-.84,1.67-.84,5.02,0,5.02,3.35,5.02,6.69,9.2,1.67,15.9,2.51,5.02.84,10.88,0,15.9l-2.51,17.57c-1.67,1.67-3.35,4.18-2.51,5.02,1.67,8.37-.84,15.9-4.18,24.26-3.35,6.69-1.67,15.06-4.18,22.59-7.53,18.41-10.88,37.65-20.92,56.89-8.37,15.9-14.22,32.63-19.24,49.36-2.51,7.53-7.53,15.9-10.88,23.43-9.2,21.75-20.08,42.67-31.79,64.42-4.18,8.37-13.39,17.57-18.41,25.94-10.88,14.22-21.75,38.49-48.52,52.71-3.35,4.18-4.18,8.37-4.18,12.55,1.67,7.53,3.35,6.69,5.86,12.55,4.18,11.71,9.2,23.43,14.22,34.3,6.69,15.06,20.08,25.94,35.14,35.14,10.88,5.86,23.43,8.37,36.81,7.53,1.67,0,4.18,1.67,4.18,2.51,1.67,2.51.84,5.86-1.67,7.53l-13.39,7.53c-1.67.84-2.51,1.67-4.18,1.67-20.08.84-38.49,1.67-54.38-8.37-9.2-5.86-19.24-10.88-22.59-21.75,0-2.51-2.51-3.35-4.18-4.18-13.39-10.88-21.75-24.26-27.61-39.32-1.67-.84-2.51-2.51-3.35-4.18-2.51-2.51-6.69-3.35-10.04-2.51l-3.35,2.51c-8.37,7.53-20.08,7.53-28.45,11.71-.84.84-2.51-.84-3.35-1.67-.84-1.67.84-4.18-3.35-2.51-8.37,3.35-16.73,5.86-25.94,5.86-12.55,0-23.43-.84-34.3-6.69s-23.43-10.88-31.79-20.08c-10.88-10.04-17.57-21.75-22.59-35.14-9.2-22.59-18.41-46.85-24.26-71.11-1.67-5.86-5.86-10.88-3.35-17.57,2.51-6.69-6.69-11.71,0-18.41.84-1.67,0-5.86-1.67-8.37-.84-5.02-2.51-9.2-4.18-14.22,5.02-9.2,3.35-18.41,7.53-27.61.84-1.67,2.51-3.35,1.67-5.02-3.35-5.02-.84-10.88,0-16.73,0-3.35.84-6.69-.84-9.2-3.35-7.53,0-15.9,5.02-20.92,4.18-5.02,7.53-10.04,3.35-15.06-.84-1.67,1.67-2.51,2.51-5.02,1.67-6.69,5.86-15.06,3.35-22.59-.84-4.18,0-5.86,4.18-9.2,1.67-1.67,2.51-4.18,1.67-6.69-1.67-5.02-1.67-8.37.84-12.55,4.18-6.69,5.86-13.39,5.02-19.24-1.67-5.02,0-9.2,3.35-13.39,9.2-10.04,12.55-20.08,12.55-31.79-.84,0-2.51-.84-3.35-1.67-2.51-.84-5.02-1.67-5.02,1.67-.84,1.67-1.67,2.51-1.67,3.35-3.35,0-7.53,0-5.86-1.67,2.51-5.02,2.51-8.37.84-12.55-.84-2.51,0-5.02,1.67-7.53,1.67-2.51,4.18-5.86,5.86-7.53,3.35-3.35,5.86-4.18,9.2-2.51l12.55-16.73c.84,0,.84-1.67.84-3.35,0-3.35-2.51-7.53,1.67-12.55,1.67-2.51,2.51-6.69,5.02-10.04,1.67-2.51,1.67-5.86,1.67-9.2,0-.84,0-1.67-.84-2.51l-3.35,3.35c-.84.84-1.67,1.67-2.51,1.67-.84-.84-1.67-2.51,0-4.18,1.67-5.02,5.02-10.04,8.37-15.06,3.35-4.18.84-10.04,5.86-14.22,1.67-.84,1.67-2.51,2.51-3.35,3.35,0,6.69,0,9.2-4.18,1.67-3.35,0-5.86-3.35-6.69,0-8.37,5.02-17.57,0-25.94-1.67-2.51,0-5.86,3.35-8.37,4.18-3.35,7.53-7.53,10.04-11.71.84-1.67,1.67-4.18.84-5.02-5.86-5.86,1.67-10.88,3.35-15.9,5.86-12.55,13.39-24.26,15.9-38.49,0-1.67,1.67-4.18,4.18-5.86,1.67-2.51,4.18-4.18,5.86-5.86,17.57-11.71,19.24-12.55,26.77-31.79,0-.84,1.67-2.51,3.35-2.51.84,0,3.35.84,3.35,1.67.84,3.35,2.51,5.86,7.53.84,2.51-2.51,3.35-.84,10.04-3.35,14.22-5.02,30.12-2.51,43.51-9.2,5.86-3.35,13.39-3.35,16.73-.84,7.53,2.51,16.73,0,21.75,5.86,4.18,5.02,11.71,8.37,10.88,16.73,5.86,5.02,5.02,12.55,5.86,18.41,1.67,6.69,5.02,11.71,5.86,18.41,0,4.18,2.51,9.2,3.35,13.39.84,3.35,2.51,5.86,6.69,5.86,2.51-2.51,5.86-5.02,8.37-1.67l7.53,12.55c6.69-1.67,5.86-5.86,6.69-10.88,2.51,0,2.51,2.51,3.35,4.18q2.51,3.35,5.02,0c1.67-4.18,4.18-5.02,6.69-3.35,6.69,4.18,13.39,9.2,20.08,14.22,6.69,5.02,11.71,11.71,15.06,20.08,4.18,15.06,10.88,28.45,15.06,44.34.84,3.35.84,5.86-1.67,9.2-.84,1.67-2.51,5.86-1.67,6.69,5.86,5.02,15.06,11.71,16.73,17.57,1.67,5.02,0,10.88-.84,16.73-.84,5.86,1.67,10.88,2.51,16.73,0,5.02-2.51,10.88,1.67,15.06,0,1.67-.84,3.35-.84,5.86h-4.18Zm-348.04,41c.84,0,2.51,0,3.35-.84,2.51-4.18,2.51-8.37,0-12.55-2.51,5.02-3.35,8.37-3.35,13.39Zm249.32,117.13c4.18-7.53,5.02-15.06,6.69-22.59.84-3.35,0-7.53,2.51-11.71,5.02-7.53,4.18-15.9,5.86-23.43.84-3.35,0-7.53,1.67-9.2,6.69-5.86,3.35-11.71,5.86-17.57,3.35-7.53,4.18-15.06.84-22.59-1.67-5.86-1.67-11.71,3.35-17.57.84-.84,2.51-2.51,2.51-4.18,0-5.02-.84-9.2-1.67-14.22-.84-5.86,5.86-10.88,4.18-15.9-2.51-5.86,0-11.71,0-16.73,0-6.69-1.67-12.55-1.67-18.41.84-6.69-.84-12.55-4.18-17.57-4.18-3.35,9.2-8.37,9.2-12.55-1.67-7.53-5.86-13.39-9.2-20.08-2.51-5.86-5.86-10.88-5.02-17.57,1.67-5.86-1.67-9.2-8.37-10.88l-10.04-2.51c-.84-.84-5.86,1.67-5.86,3.35l-.84,5.86c-.84,5.86-1.67,11.71-3.35,17.57-1.67,5.02-4.18,10.88-6.69,15.9-4.18,10.88-10.04,18.41-25.94,17.57-.84,0-2.51,0-4.18.84-4.18,2.51-8.37.84-11.71-.84-4.18-4.18-8.37-7.53-13.39-10.88-1.67-1.67-.84-4.18,2.51-5.02.84,0,3.35,0,3.35-.84,2.51-4.18,5.02-10.04,6.69-14.22.84-.84-.84-2.51-1.67-3.35-5.02-2.51-5.86-6.69-1.67-10.88,1.67-2.51,1.67-5.86.84-8.37.84-8.37-3.35-15.9-3.35-23.43.84-2.51-2.51-3.35-5.86-2.51-5.86,2.51-10.88,5.02-15.9,6.69l-.84.84c.84-2.51,0-5.02,2.51-7.53,4.18-5.02,9.2-8.37,14.22-10.88,12.55-8.37,15.06-18.41,6.69-26.77-3.35-3.35-5.86-6.69-7.53-10.04l-6.69-10.04c-4.18-5.86-14.22-9.2-22.59-6.69-6.69,2.51-14.22,6.69-19.24,13.39-6.69,8.37-11.71,18.41-17.57,27.61-11.71,15.06-18.41,32.63-26.77,49.36-2.51,5.86-5.86,11.71-6.69,18.41-1.67,6.69-4.18,12.55-7.53,18.41-5.02,8.37-10.04,16.73-11.71,26.77-1.67,10.04-5.02,20.08-7.53,29.28-4.18,10.88-5.02,21.75-6.69,32.63,0,2.51,0,3.35-1.67,5.86-6.69,11.71-5.02,25.1-15.9,35.98-1.67,1.67-.84,3.35-1.67,5.02-.84,9.2-8.37,18.41-5.02,27.61.84.84,0,2.51-.84,3.35-5.86,7.53-5.02,15.06-6.69,22.59-1.67,11.71-2.51,24.26-8.37,35.14-.84,1.67-.84,5.02-.84,5.86,5.86,5.02-.84,11.71.84,17.57.84,8.37-.84,18.41-5.02,25.94-1.67,4.18,0,4.18,2.51,5.86.84,0,2.51,1.67,2.51,3.35-.84,5.02-2.51,10.88-1.67,15.9.84,5.86-.84,10.88.84,15.9,1.67,4.18-5.02,7.53-4.18,10.88,2.51,4.18,2.51,7.53,2.51,10.88-.84,3.35-2.51,7.53,0,10.04,2.51,3.35-3.35,5.86-2.51,10.04.84,3.35-1.67,6.69,1.67,10.88,3.35,2.51,3.35,6.69,2.51,11.71,0,2.51,0,5.86,1.67,9.2,2.51,5.02,1.67,10.04,1.67,15.9s.84,11.71,0,17.57c-.84,5.02,0,9.2,5.86,10.04,1.67,5.86,8.37,10.04,0,16.73-1.67,1.67,0,5.02,3.35,5.02h-.84c.84,4.18,3.35,6.69,9.2,7.53h-.84c0,2.51-.84,5.02.84,6.69,9.2,10.04,21.75,17.57,35.14,22.59.84.84,2.51.84,4.18.84-.84,2.51.84,4.18,3.35,4.18.84,0,.84.84,1.67,2.51l1.67-.84c0-1.67-2.51-1.67-3.35-1.67l.84-4.18c2.51,0,5.86,0,7.53.84,1.67,0,2.51.84,3.35,1.67-4.18,5.02-.84,5.02,4.18,4.18,1.67,0,2.51-1.67,3.35-2.51,8.37-.84,15.9-3.35,20.08-10.88,5.86-4.18,11.71-10.88,20.08-12.55,5.02,0,2.51-2.51,3.35-5.02.84-3.35,2.51-6.69,2.51-10.88-2.51-10.04-1.67-20.92-3.35-30.96-.84-8.37-2.51-15.9,0-24.26,1.67-9.2-1.67-16.73-1.67-25.94.84-9.2,0-18.41-.84-27.61-.84-8.37-.84-16.73.84-25.94,1.67-11.71,2.51-23.43-3.35-34.3-1.67-2.51,1.67-4.18,3.35-4.18h6.69c4.18,0,6.69-2.51,7.53-5.86.84-1.67.84-5.02,3.35-4.18,5.02.84,6.69-.84,10.04-3.35,2.51-.84,4.18-.84,5.86,0,7.53,2.51,10.88,5.86,7.53,13.39-3.35,9.2-1.67,15.9-2.51,24.26-.84,6.69,5.02,11.71,10.04,15.06.84.84.84,1.67,1.67,1.67,3.35,3.35,5.86,7.53,6.69,12.55,0,3.35-1.67,6.69-4.18,10.04-6.69-1.67-10.04-8.37-14.22-14.22-.84,4.18-2.51,5.86-2.51,7.53.84,2.51,0,6.69.84,9.2,1.67,4.18.84,8.37,0,13.39,0,5.02.84,9.2,1.67,14.22,2.51,11.71,5.02,23.43.84,36.81-.84,1.67,0,3.35,0,5.86,0,0-.84,1.67,0,1.67s1.67.84,3.35.84l3.35-.84c2.51-5.02,4.18-9.2,7.53-12.55,2.51-4.18.84-9.2,5.02-11.71,5.02-5.02,5.02-12.55,10.88-17.57,24.26-5.02,5.02-10.88,7.53-16.73l6.69-10.04c3.35-5.86,2.51-10.88,3.35-15.9,1.67-8.37,6.69-15.9,9.2-23.43l3.35-3.35c0-13.39.84-22.59,5.86-34.3,10.88-5.86,8.37-15.9,14.22-24.26.84-.84.84-3.35-.84-5.02-3.35-5.02-2.51-10.04.84-14.22Zm-222.55-204.14s1.67-.84,1.67-1.67c0,0,0-.84-.84-.84l-.84.84c-.84.84,0,.84,0,1.67Zm10.88,468.52l-3.35-.84-1.67-2.51h-1.67c0,2.51,1.67,2.51,3.35,2.51.84.84-.84,3.35,3.35.84Zm11.71,5.02c-1.67-.84-2.51-.84-3.35-1.67-.84,0-1.67.84-1.67,1.67-.84,0,1.67.84,3.35,0h1.67Zm3.35-532.1c.84,0,.84-.84,2.51-1.67l-1.67-2.51-.84.84c0,1.67-.84,2.51,0,3.35Zm8.37-17.57h1.67c3.35-1.67,4.18-3.35,3.35-4.18,0-.84,0-1.67-.84-2.51-1.67,1.67-3.35,2.51-4.18,3.35-1.67,1.67-1.67,2.51,0,3.35Zm5.86-15.9l1.67-2.51c-1.67,0-2.51,0-1.67,2.51Zm3.35-3.35c2.51,0,3.35-1.67,2.51-4.18,0-.84-.84-.84-.84-1.67-.84.84-1.67.84-1.67,1.67v4.18Zm2.51-16.73l.84.84q.84,0,1.67-.84-.84,0-1.67-.84c0,.84-.84.84-.84.84Zm176.53-6.69c1.67.84,2.51,0,2.51-.84s-.84-1.67-2.51-1.67c0,.84-.84,2.51,0,2.51Zm35.98,245.14c-5.86,12.55-15.9,51.87-20.08,64.42-.84,2.51,5.86,1.67,5.86,4.18s-5.86,5.86-8.37,8.37c-.84,2.51-6.69,25.1-7.53,30.12v.84l.84-.84c6.69-4.18,11.71-19.24,15.9-25.1,3.35-4.18,1.67-15.06,3.35-24.26,1.67-11.71,8.37-25.94,8.37-32.63l1.67-25.1Zm-22.59-233.42l1.67-2.51c-1.67,0-2.51,0-1.67,2.51Zm11.71,0c.84.84,1.67.84,2.51.84-.84,0,0-1.67-.84-2.51-.84-.84-1.67,0-1.67,1.67Zm3.35,5.86c.84.84,3.35.84,5.02,1.67,0,0,1.67-.84.84-1.67.84-.84.84-3.35-.84-4.18s-3.35-.84-5.02-.84v5.02Zm69.44,146.41l-1.67-2.51c-.84,0-1.67.84-.84,1.67.84.84,1.67.84,2.51.84Z"/>
      <path class="cls-2" d="m868.5,706.5c-10.88-6.69-17.57-20.08-20.92-31.79-1.67-2.51-1.67-7.53.84-10.04,5.02-8.37,2.51-16.73,7.53-24.26,10.04-17.57,18.41-35.98,31.79-50.2,4.18-3.35,4.18-11.71,9.2-15.06,5.02-4.18,8.37-8.37,10.88-13.39,4.18-9.2,11.71-19.24,18.41-27.61,11.71-13.39,19.24-24.26,25.94-40.16.84-1.67,1.67-3.35,1.67-5.02-4.18-12.55,5.02-25.1,10.04-35.97,1.67-3.35,1.67-6.69-2.51-7.53-6.69-1.67-20.08,7.53-31.79,15.06-4.18-2.51-9.2-3.35-10.88-7.53-10.88-11.71-20.08-24.26-29.28-37.65-2.51-3.35-5.02-7.53-3.35-10.88,8.37-9.2,17.57-37.65,21.75-46.85,7.53-16.73,20.08-27.61,29.28-43.51,3.35-4.18,8.37-8.37,10.88-13.39,7.53-18.41,18.41-31.79,32.63-47.69,2.51-4.18,5.86-9.2,10.04-13.39,3.35-5.02,5.86-5.86,8.37,0,2.51,5.02,10.04,7.53,14.22,10.04,9.2,4.18,15.06,10.88,20.92,19.24,3.35,5.02,4.18,6.69,3.35,14.22-.84,5.86-3.35,10.04-7.53,14.22-12.55,7.53-19.24,18.41-29.28,29.28-8.37,8.37-17.57,19.24-25.1,30.12-6.69,8.37-13.39,16.73-19.24,26.77-6.69,5.86-10.04,12.55-14.22,18.41,4.18,3.35,9.2,8.37,15.06,8.37,1.67.84,4.18,0,6.69.84,23.43,8.37,45.18,18.41,61.07,38.49,5.86,8.37,10.88,18.41,10.88,30.12-.84,8.37,1.67,19.24-5.02,27.61-.84,10.88-10.88,16.73-12.55,25.94-2.51,10.88-12.55,18.41-18.41,27.61-2.51,3.35-4.18,6.69-7.53,10.04-5.02,8.37-13.39,17.57-21.75,23.43-5.86,5.02-12.55,9.2-15.06,20.08,0,2.51-4.18,4.18-8.37,6.69-3.35,3.35-7.53,5.02-7.53,10.88-.84,6.69-8.37,5.02-10.88,9.2-2.51,4.18-5.86,8.37-8.37,11.71-3.35,4.18-9.2,7.53-11.71,12.55-10.04,13.39-14.22,28.45-12.55,44.34.84,1.67,0,4.18,0,6.69.84.84-.84,2.51-.84,5.02-.84.84-2.51.84-4.18,0-6.69-5.86-15.9-10.04-22.59-15.06Zm9.2-65.26c0-2.51-.84-5.02-3.35-5.86l-.84-2.51c-.84,9.2-12.55,15.9-13.39,24.26l-2.51,10.04c0,.84,0,1.67.84,1.67,4.18,0,17.57-18.41,19.24-27.61Zm6.69-20.08c0-1.67,0-4.18-.84-7.53l-.84-1.67c-1.67,4.18-3.35,7.53-3.35,9.2-.84,3.35.84,5.02,1.67,5.02s2.51-1.67,3.35-5.02Zm21.75-27.61c1.67-3.35,1.67-7.53,1.67-11.71.84-.84.84-2.51,1.67-4.18l.84-3.35c-6.69,7.53-12.55,14.22-16.73,22.59-2.51,4.18-3.35,7.53-4.18,10.04,0,.84.84,1.67,1.67,1.67,1.67,0,10.04-8.37,15.06-15.06Zm-5.86,21.75l-.84-1.67c-4.18,1.67-6.69,3.35-7.53,5.02,0,.84,1.67,1.67,3.35,1.67s3.35-.84,5.02-5.02Z"/>
    </g>
  </g>
</svg>