<?xml version="1.0" encoding="UTF-8"?>
<svg id="Layer_2" data-name="Layer 2" xmlns="http://www.w3.org/2000/svg" viewBox="0 0 1702.95 741.4">
  <defs>
    <style>
      .cls-1 {
        opacity: .3;
      }

      .cls-2 {
        fill: #ccc;
        stroke-width: 0px;
      }
    </style>
  </defs>
  <g id="Layer_1-2" data-name="Layer 1">
    <g class="cls-1">
      <path class="cls-2" d="m238.55,731.69c-.84-1.67-2.51-4.18-.84-6.69,5.02-14.22-2.51-25.1-7.53-35.98-2.51-4.18-.84-7.53,3.35-9.2l2.51-1.67c0-1.67-.84-2.51-.84-4.18-.84-10.88-4.18-39.32-2.51-51.04,1.67-10.88-5.02-20.08-2.51-30.12,0-1.67.84-5.02,0-6.69-4.18-6.69,2.51-17.57-1.67-22.59-4.18-8.37,3.35-13.39,4.18-20.92,1.67-6.69,1.67-14.22,2.51-20.92-.84-.84-2.51-1.67-3.35-1.67h-.84s0,.84-.84,1.67c-.84.84-.84,4.18-5.02,2.51-3.35-3.35-8.37-2.51-13.39-1.67-31.79,10.04-63.58,11.71-95.38,15.06-5.02,0-7.53,3.35-10.88,8.37-5.02,12.55-12.55,25.94-15.9,38.49-2.51,10.88-2.51,15.9-10.88,22.59-.84,3.35-.84,6.69-.84,10.04-1.67,10.04-6.69,20.92-10.04,32.63-3.35,6.69-8.37,14.22-10.88,21.75-2.51,8.37-5.86,15.06-7.53,23.43-3.35,8.37-10.04,11.71-17.57,12.55-4.18,0-11.71-1.67-15.9-.84-8.37.84,18.41-66.93-11.71-5.86-2.51-5.02-6.69-13.39-2.51-17.57,7.53-8.37,7.53-20.08,12.55-29.28,4.18-11.71,6.69-23.43,10.04-35.14.84-1.67,0-3.35.84-5.02,13.39-15.9,10.04-30.96,19.24-46.85,5.86-8.37,3.35-15.9,8.37-23.43,3.35-5.02,3.35-7.53-2.51-8.37-13.39-1.67-19.24-12.55-24.26-24.26-1.67-1.67,0-3.35,1.67-4.18,1.67,0,5.02-.84,8.37-.84,5.86,0,10.04.84,15.06.84,15.9,0,20.92-1.67,24.26-15.9,5.02-20.92,15.06-39.32,21.75-57.73,6.69-18.41,15.06-35.98,16.73-53.54,0-4.18,1.67-6.69,4.18-10.04,8.37-17.57,15.9-35.98,23.43-54.38,2.51-10.88,6.69-21.75,10.04-32.63,5.02-15.9,13.39-29.28,18.41-44.34,4.18-13.39,10.04-27.61,15.9-39.32,5.02-10.04,5.02-20.08,9.2-28.45,5.02-9.2,9.2-18.41,10.04-27.61-.84-1.67,0-3.35,0-5.02,2.51-5.02,6.69-9.2,9.2-12.55,1.67-4.18,1.67-9.2,4.18-11.71,4.18-5.86.84-9.2,3.35-13.39,2.51-4.18,4.18-8.37,7.53-12.55,3.35-4.18-1.67-6.69.84-11.71,3.35-5.02,4.18-12.55,7.53-17.57,3.35-6.69,2.51-12.55,4.18-18.41,0-2.51,1.67-5.02,3.35-6.69,5.02-5.86,11.71-9.2,15.06-16.73,1.67-2.51,3.35,1.67,3.35,3.35.84,3.35,3.35,2.51,4.18,0,5.02-2.51,6.69-6.69,7.53-10.88.84-5.02,3.35-4.18,6.69-3.35.84.84,4.18.84,6.69,0,5.86-2.51,13.39-2.51,20.92-3.35,1.67,0,24.26-3.35,24.26-1.67,1.67,5.86,7.53,10.88,5.02,17.57-1.67,5.02-6.69,10.04-5.02,15.9,3.35,5.86-4.18,10.88,0,15.9.84.84.84,2.51.84,4.18-.84,25.94-.84,50.2-3.35,75.3-2.51,12.55-5.86,25.1-1.67,35.98.84,2.51.84,4.18-.84,5.02-9.2,15.06-4.18,31.79-13.39,46.85-.84.84,0,5.02.84,7.53,1.67,5.02,0,10.04-2.51,15.9-3.35,5.02-5.02,13.39-3.35,18.41,5.02,13.39-1.67,28.45-1.67,42.67-.84,8.37-8.37,14.22-6.69,23.43,0,5.86,3.35,11.71.84,19.24-1.67,5.02-2.51,10.88-12.55,15.06-3.35,5.86-4.18,13.39-1.67,20.92,0,.84.84,2.51,1.67,3.35-2.51,4.18-3.35,8.37-5.86,13.39h-1.67l-3.35.84v2.51c2.51,0,3.35-1.67,3.35-3.35,4.18.84,5.86,3.35,4.18,5.86-4.18,5.86-3.35,9.2,1.67,12.55,1.67,1.67,3.35,5.86,0,7.53,3.35,5.02,8.37,11.71,5.02,19.24-2.51,5.02,3.35,10.04,1.67,16.73,5.02,2.51,20.08,4.18,15.9,8.37,7.53,2.51,5.02,2.51,1.67,7.53-1.67,4.18-4.18,9.2-9.2,12.55-5.02,2.51-16.73,5.02-21.75,7.53,2.51,5.02,3.35,9.2,2.51,14.22,0,2.51-.84,7.53,0,9.2,12.55,6.69,10.04,15.06,10.04,23.43.84,5.86-7.53,9.2-3.35,15.9.84,4.18,0,10.04.84,15.9,0,4.18-.84,5.02-4.18,6.69-4.18,1.67-13.39,8.37-12.55,10.04,15.06,3.35,12.55,7.53,12.55,13.39-.84,5.02,2.51,9.2,2.51,15.06,0,5.02,1.67,9.2,1.67,15.9-1.67,5.86-.84,30.12-1.67,35.14-1.67,0-2.51-.84-3.35-.84-1.67-1.67-3.35-3.35-4.18.84-.84,2.51-.84,5.86-.84,9.2,4.18,11.71,2.51,25.1,6.69,37.65-3.35,6.69-1.67,12.55-2.51,17.57-1.67,5.86-7.53,8.37-11.71,6.69-6.69-3.35-33.47-1.67-35.98-9.2Zm-82.83-254.34c14.22-3.35,28.45-9.2,41.83-7.53,5.02.84,10.88-5.02,18.41-3.35,5.86,1.67,13.39-1.67,20.92-3.35-1.67-7.53-6.69-12.55-5.86-20.92-.84-6.69,2.51-14.22-1.67-19.24,0-.84.84-3.35,1.67-4.18,8.37-7.53,6.69-15.06,5.02-21.75-1.67-5.86-2.51-11.71-1.67-18.41,1.67-13.39,3.35-27.61,3.35-41,.84-4.18,2.51-9.2.84-13.39-5.02-18.41,5.86-38.49.84-56.89-.84-2.51,4.18-7.53,2.51-10.88-2.51-16.73,2.51-34.3,3.35-50.2,0-9.2-1.67-19.24-3.35-30.96l-17.57,43.5c-5.02,9.2-6.69,17.57-9.2,27.61-3.35,10.04-5.86,18.41-7.53,28.45,0,8.37-2.51,16.73-9.2,25.94-4.18,4.18-5.02,9.2-5.86,15.06-.84,6.69,0,15.9-3.35,20.92-5.86,11.71-10.88,24.26-15.9,36.81-3.35,10.88-31.79,38.49-21.75,36.81,15.06-3.35,0,16.73-5.02,29.28-6.69,13.39-10.88,28.45-16.73,42.67,9.2-2.51,18.41-3.35,25.94-5.02Zm81.99,122.99h-.84c0,.84-1.67,2.51-.84,3.35-1.67,1.67.84,2.51.84,2.51,1.67,0,2.51-4.18.84-5.86Zm0-32.63c0-1.67-.84-1.67-1.67,0l.84.84c.84,0,.84-.84.84-.84Zm13.39,127.17c0-.84-1.67-2.51-2.51-3.35,0,.84-2.51.84-1.67,1.67v4.18c1.67-1.67,4.18-1.67,4.18-2.51Zm25.94-242.63c-1.67-.84-1.67-1.67-2.51-1.67l-.84.84v1.67c.84-.84,1.67-.84,3.35-.84Zm0-20.92l-.84.84c-.84,3.35,0,3.35,1.67.84,1.67-.84,0-.84-.84-1.67Zm-.84-36.81c.84.84,1.67.84,2.51.84,0-1.67.84-2.51-2.51-.84Zm9.2,244.3l1.67-3.35c0-3.35-.84-5.02-.84-7.53l-3.35,6.69c.84,1.67.84,2.51,0,4.18,0,.84.84.84,1.67,1.67,0-.84.84-.84.84-1.67Z"/>
      <path class="cls-2" d="m299.61,694.88c.84-5.02-1.67-10.04-2.51-14.22-.84-.84,1.67-5.02,2.51-5.02,10.04-3.35,10.88-12.55,13.39-19.24,1.67-7.53,7.53-14.22,13.39-19.24,3.35-5.02,7.53-10.04,12.55-15.06.84-1.67,1.67-2.51,0-3.35-5.86-5.02-11.71-9.2-18.41-13.39-5.86-3.35-7.53-8.37-5.02-15.06.84-5.02.84-10.88,4.18-15.06,8.37-13.39,9.2-27.61,12.55-40.16,5.86-20.08,9.2-40.16,13.39-60.24,0-10.04-1.67-20.08.84-30.96,2.51-10.04,5.02-20.08,1.67-30.12-.84-.84,0-2.51.84-5.02,5.86-7.53,4.18-15.9,5.02-25.1,1.67-6.69,3.35-15.06,3.35-22.59,0-1.67-.84-4.18-3.35-5.02-3.35-3.35-2.51-6.69-1.67-9.2,7.53-9.2,8.37-19.24,7.53-27.61-.84-21.75-.84-42.67,5.86-64.42,0-3.35.84-5.86,0-8.37-1.67-14.22,2.51-28.45,5.02-42.67,7.53-40.16,5.86-56.89,8.37-75.3,2.51-3.35,0-5.86-2.51-9.2-2.51-1.67-5.02-5.86-5.86-10.04-.84-2.51.84-5.86,5.02-7.53,5.02-.84,9.2,2.51,14.22-2.51,3.35-2.51,8.37-3.35,11.71-3.35l20.92,1.67c7.53,0,10.88,2.51,13.39,6.69,9.2,12.55,5.86,28.45,5.02,43.51-2.51,29.28-10.88,78.64-19.24,107.93l-10.88,49.36c0,.84.84,3.35.84,5.02l3.35-5.02c3.35-11.71,11.71-15.9,21.75-23.43,10.04-8.37,22.59-14.22,34.3-13.39,10.04,1.67,20.08-3.35,30.96-1.67,5.02.84,8.37,1.67,12.55,5.86l15.06,19.24,2.51,9.2c1.67,5.86,1.67,11.71,4.18,16.73,2.51,9.2,6.69,16.73,0,26.77-1.67,1.67.84,4.18.84,7.53.84,23.43,3.35,46.02-3.35,71.11-.84,5.02,0,10.04-.84,15.06-.84,10.04-.84,20.92-6.69,30.96-2.51,4.18-4.18,7.53-5.02,12.55-2.51,14.22-10.88,27.61-15.9,41.83-4.18,7.53-9.2,14.22-15.06,20.08-7.53,7.53-13.39,16.73-20.08,25.1-6.69,9.2-10.88,17.57-20.92,22.59-3.35.84-5.02,4.18-7.53,7.53-4.18,4.18-6.69,10.04-14.22,5.02l-4.18,1.67c-1.67,5.86-10.04,9.2-10.88,15.9,0,4.18-3.35,7.53-8.37,9.2-7.53,1.67-11.71,7.53-17.57,12.55-15.9,13.39-25.94,30.12-41,43.51-8.37,6.69-15.9,10.88-23.43,9.2-5.86-.84-11.71.84-17.57,2.51-1.67.84-5.02,0-5.02-3.35Zm71.95-103.74c11.71-6.69,20.92-15.9,28.45-29.28,1.67-3.35,3.35-6.69,5.86-8.37,11.71-10.88,22.59-20.92,32.63-33.46,8.37-10.04,20.92-15.9,24.26-30.12,1.67-5.86,9.2-10.04,11.71-15.9,4.18-15.06,13.39-29.28,15.9-46.01,5.86-16.73-.84-34.3,5.02-53.54,1.67-1.67-.84-3.35-.84-6.69-1.67-5.86-3.35-12.55-4.18-19.24-2.51-14.22-5.86-27.61-8.37-41-1.67-2.51-5.02-4.18-7.53-.84-10.04,9.2-18.41,20.92-25.94,34.3-8.37,20.08-20.92,38.49-25.94,59.4-15.06,30.12-24.26,60.24-29.28,92.03-.84,5.02-4.18,9.2-5.02,12.55-1.67,3.35-4.18,7.53-3.35,10.04,0,13.39-6.69,25.1-9.2,37.65,0,6.69-.84,11.71.84,17.57-.84,5.02-5.02,10.88-7.53,16.73-.84,1.67,0,3.35,0,5.02.84,0,2.51-.84,2.51-.84Zm7.53-284.46c0-2.51,0-5.02-.84-8.37l-.84-3.35c-1.67,3.35-1.67,5.86-4.18,7.53-5.86,5.02-1.67,10.88,2.51,11.71,2.51,0,2.51-2.51,3.35-7.53Zm4.18-56.05c0-1.67.84-15.06-.84-15.9l-1.67-3.35-5.86,25.1c-.84,5.86-.84,11.71-1.67,17.57v10.04c3.35,20.08,5.86-25.1,10.04-33.47Zm3.35-35.98c.84-1.67-.84-3.35-3.35-5.02l-3.35-.84c-4.18,7.53-.84,10.04,1.67,10.04s5.02-1.67,5.02-4.18Z"/>
      <path class="cls-2" d="m559.8,655.56c.84-.84.84-1.67,0-1.67-11.71-.84-11.71-13.39-16.73-18.41-5.02-4.18-5.02-10.88-9.2-16.73-2.51-1.67-2.51-5.86-3.35-8.37l-3.35-16.73c-.84-4.18,0-9.2-2.51-14.22-1.67-5.02-.84-11.71-.84-16.73v-18.41c.84-5.86.84-12.55.84-19.24l2.51-20.08c.84-7.53.84-14.22,2.51-21.75,3.35-15.06,5.86-30.12,8.37-45.18,3.35-18.41,10.88-35.14,17.57-53.54,3.35-11.71,8.37-22.59,10.88-35.14,1.67-8.37,9.2-17.57,13.39-25.94,3.35-6.69,6.69-13.39,9.2-20.08,1.67-5.02,5.02-10.04.84-13.39-2.51-.84-.84-2.51,0-2.51,5.86,0,9.2-5.86,15.06-5.02,1.67,0,5.86-2.51,5.02-4.18.84-6.69,5.02-4.18,9.2-5.86,6.69-3.35,15.9.84,21.75-7.53,8.37,2.51,14.22-7.53,23.43-5.02,3.35,0,5.86-.84,8.37,0,5.86,1.67,10.88,4.18,11.71,11.71.84,7.53,5.86,10.88,12.55,12.55,6.69,1.67,11.71,4.18,15.9,8.37,2.51,2.51,3.35,5.86,5.86,8.37,5.02,5.02,2.51,13.39,6.69,18.41,4.18,4.18,5.02,11.71,4.18,17.57,0,5.02,5.02,6.69,2.51,10.88-2.51,4.18,0,7.53-1.67,10.88v5.02c4.18,6.69,1.67,13.39-.84,20.08-1.67,5.02-.84,9.2-1.67,14.22l-2.51,14.22c-.84,8.37-1.67,16.73-5.86,24.26,4.18,6.69-1.67,13.39.84,20.08,1.67,4.18-6.69,8.37-2.51,12.55-5.02,4.18-4.18,10.04-5.02,15.06,0,.84,0,2.51-.84,3.35-5.86,8.37-6.69,16.73-5.86,25.1,0,1.67,0,5.02-1.67,5.86-5.02,3.35-3.35,9.2-4.18,12.55-.84,9.2-5.86,18.41-8.37,26.77-3.35,9.2-5.86,17.57-8.37,26.77-.84,2.51-4.18,5.86-4.18,8.37-4.18,8.37-8.37,17.57-10.88,25.94-1.67,4.18-4.18,6.69-5.86,10.04-2.51,4.18-5.86,9.2-5.86,13.39-1.67,4.18-3.35,6.69-8.37,9.2l-16.73,10.04c-5.02,2.51-10.04,3.35-15.9,1.67-5.86-2.51-14.22-.84-21.75,0-9.2,1.67-18.41,1.67-25.94,0-5.02-.84-9.2-1.67-8.37-7.53Zm-18.41-76.13c.84-10.04.84-20.08-3.35-29.28-8.37,10.04-6.69,17.57-4.18,25.1,0,1.67,5.86,3.35,7.53,4.18.84,0,0,1.67,1.67.84-.84,0-.84-.84-1.67-.84Zm2.51,9.2c0-.84-.84-2.51-2.51-5.02l-3.35,4.18c-5.86,0,3.35,3.35,4.18,3.35,1.67,0,1.67-.84,1.67-2.51Zm2.51,6.69s-.84-.84-1.67-.84c-2.51,0-8.37,1.67-8.37,3.35,0,.84,6.69,2.51,6.69,4.18l3.35-6.69Zm13.39,36.81c.84-1.67-2.51-.84-4.18-.84.84-2.51,1.67-5.02.84-5.86-4.18-5.86-5.02-13.39-9.2-17.57-1.67.84-7.53,1.67-7.53,2.51,2.51,7.53,5.02,14.22,7.53,20.08-.84.84,7.53.84,8.37.84-5.02,9.2-3.35,10.88,12.55,15.9-3.35-5.02-7.53-9.2-8.37-15.06Zm-1.67-46.02c0-1.67-.84-2.51-2.51-2.51-2.51,0-2.51,1.67-1.67,3.35,0,.84,1.67.84,1.67,1.67,1.67-.84,2.51-1.67,2.51-2.51Zm4.18,12.55c1.67-.84,3.35,2.51,5.02,0,.84-.84,1.67-3.35-.84-4.18,0-.84-1.67-.84-1.67-.84-3.35.84-2.51,2.51-3.35,4.18-2.51,0-2.51-3.35-6.69-4.18,1.67,5.86.84,10.88,5.02,14.22,2.51-3.35,2.51-6.69,2.51-9.2Zm41,32.63c2.51-1.67,2.51-3.35,4.18-5.86,5.02-8.37,10.04-16.73,14.22-25.94,1.67-5.86,6.69-10.88,5.86-17.57-.84-2.51.84-1.67,3.35-1.67q7.53-1.67,10.04-10.04c-.84-3.35,0-5.86,2.51-8.37,5.02-4.18,6.69-9.2,4.18-14.22-1.67-1.67,0-3.35-.84-5.86,6.69-5.02,3.35-11.71,7.53-17.57,2.51-4.18,4.18-9.2,2.51-12.55-1.67-4.18,1.67-9.2,4.18-12.55q4.18-9.2-3.35-14.22,7.53-5.86,8.37-10.88c.84-10.88,5.02-20.92,6.69-30.96,1.67-7.53,5.02-15.9,5.02-23.43,0-5.86-.84-10.88,0-16.73,0-5.86-7.53-8.37-7.53-14.22-10.04-6.69-14.22-19.24-21.75-26.77-3.35-2.51-5.02-7.53-7.53-11.71-2.51-4.18-4.18-8.37-6.69-10.88-4.18-1.67-.84-8.37-5.86-10.88-.84,0-1.67,0-1.67-.84-4.18,11.71-8.37,24.26-14.22,35.14-2.51,4.18-2.51,8.37-1.67,12.55,0,1.67,2.51,3.35.84,4.18-6.69,1.67-6.69,6.69-7.53,10.88-1.67,10.88-.84,22.59-8.37,32.63-.84,2.51,0,3.35,1.67,5.02,0,2.51.84,5.86-1.67,8.37-3.35,5.02-2.51,8.37-3.35,13.39,0,4.18,1.67,8.37-.84,11.71-5.02,9.2-3.35,17.57-5.02,25.94-2.51,7.53-1.67,15.9-5.02,23.43-.84,1.67-.84,4.18,0,5.02,1.67,3.35,0,6.69-.84,9.2-5.02,9.2-5.02,17.57-2.51,25.94.84,1.67,2.51,1.67,0,4.18-3.35,4.18-1.67,7.53-.84,10.88,2.51,2.51,3.35,5.86,2.51,9.2-.84,5.02.84,10.04-1.67,15.06-1.67,6.69,5.02,8.37,5.86,14.22,0,10.88,5.86,19.24,10.88,26.77,4.18,4.18,5.02,4.18,8.37,0Z"/>
      <path class="cls-2" d="m729.65,647.19c-3.35-11.71-5.02-23.43-5.86-35.98-.84-22.59,0-45.18-.84-66.93,0-5.86,1.67-11.71,2.51-18.41,1.67-13.39,5.02-26.77,5.02-41-.84-14.22,1.67-12.55,5.02-27.61,1.67-10.88,4.18-20.92,2.51-31.79-.84-5.86,1.67-11.71,2.51-17.57,3.35-15.06,6.69-37.65,11.71-60.24,2.51-11.71,2.51-24.26-.84-34.3-3.35-11.71,5.86-18.41,10.04-27.61,0-.84,3.35-2.51,5.02-2.51,6.69.84,12.55,2.51,19.24,2.51,12.55-.84,19.24,4.18,16.73,18.41-.84,5.02,2.51,8.37,5.02,12.55,3.35,2.51,2.51,6.69-.84,10.04-4.18,5.02-6.69,10.88-5.02,16.73,1.67,6.69-.84,13.39-1.67,20.08,0,10.04-7.53,18.41-6.69,29.28,0,9.2-1.67,10.88-4.18,20.92-1.67,10.88-1.67,21.75-5.02,32.63l-5.02,12.55c-2.51,10.04-3.35,20.08-5.86,30.12-2.51,11.71-5.02,23.43-3.35,35.14-5.86,10.88-1.67,22.59-4.18,34.3-3.35,11.71-2.51,23.43-2.51,35.14-.84,2.51-1.67,6.69,1.67,5.86,2.51-.84,5.86-3.35,6.69-5.86,7.53-20.08,21.75-37.65,26.77-58.56,1.67-5.86,5.02-10.88,8.37-15.9q15.06-19.24,17.57-32.63c1.67-5.02,4.18-10.04,5.86-15.06.84-2.51,19.24-10.04,27.61-35.98,6.69-12.55-17.57,22.59-14.22,10.88,3.35-10.04,14.22-31.79,15.9-42.67.84-10.04,5.86-20.08,10.88-28.45,7.53-11.71,11.71-23.43,13.39-36.81l2.51-15.06c3.35-17.57,8.37-35.14,6.69-52.71-.84-1.67,0-5.02.84-5.86,7.53-6.69,12.55-15.9,22.59-20.92,5.02-3.35,10.04-5.02,15.9-4.18,3.35.84,7.53,0,10.88.84,5.86,0,21.75,6.69,20.92,12.55,0,1.67,0,4.18-.84,5.86-2.51,13.39-5.86,25.94-6.69,38.49-2.51,12.55-5.86,25.1-8.37,37.65-10.88,54.38-22.59,108.76-33.47,163.14-5.86,27.61-9.2,56.05-12.55,84.5,4.18,21.75-6.69,45.18-3.35,66.93.84,4.18-1.67,10.04-2.51,15.06,0,.84-12.55.84-13.39.84-1.67.84-3.35.84-4.18,0-8.37-7.53-15.9-15.06-18.41-25.94-5.02-20.08-10.88-39.32-9.2-61.91.84-3.35,1.67-7.53,0-11.71-1.67-7.53.84-14.22,5.02-22.59,3.35-4.18,3.35-10.88,4.18-16.73,0-2.51-.84-3.35-4.18-2.51-3.35.84,0-3.35-2.51,0-.84,1.67-1.67,1.67-1.67,2.51-5.02,15.9-11.71,30.12-20.08,45.18-4.18,6.69-3.35,15.9-7.53,24.26-8.37,22.59-21.75,42.67-35.14,61.91-8.37,11.71-25.94,18.41-35.98,13.39-10.04-5.02-20.08-11.71-23.43-24.26Z"/>
      <path class="cls-2" d="m983.98,691.53c-1.67-1.67-4.18-19.24-6.69-20.08-1.67-.84-2.51,15.06-3.35,15.06-7.53-3.35-12.55-5.86-14.22-11.71,0-2.51-2.51-5.02-2.51-7.53,3.35-14.22-5.86-27.61,2.51-41.83,6.69-10.88,10.04-22.59,7.53-33.47-1.67-9.2-1.67-23.43,0-33.46h-.84l5.02-34.3c1.67-6.69,10.88-61.91,9.2-67.77,0-34.3,7.53-50.2,8.37-61.91.84-10.04,0-20.92,6.69-30.96,2.51-4.18,4.18-19.24,2.51-23.43-2.51-5.86.84-17.57,3.35-22.59,3.35-6.69-6.69,4.18-12.55,3.35-5.02-.84-16.73,7.53-19.24,5.02-13.39,0-7.53-17.57-19.24-25.94-2.51-2.51-11.71-13.39-11.71-18.41l10.88-2.51c11.71-2.51,23.43,2.51,27.61-1.67,4.18-4.18,10.04-3.35,15.9-4.18,16.73-2.51,22.59-10.88,22.59-27.61v-2.51c0-1.67-.84-3.35.84-5.02,7.53-12.55,0-17.57,5.02-29.28,3.35-6.69,2.51-5.02,4.18-10.88,1.67-10.88-3.35-20.92,1.67-31.79,6.69-15.9,8.37-31.79,6.69-47.69l-.84-13.39c0-7.53,2.51-10.04,10.04-10.04,8.37,0,16.73.84,33.47.84,13.39-.84,20.08,5.02,23.43,15.9,1.67,5.86,2.51,11.71,1.67,18.41l-5.02,34.3c-.84,10.88.84,20.92-4.18,31.79-1.67,2.51-1.67,6.69-.84,10.04,2.51,13.39,1.67,20.08-5.02,34.3-2.51,6.69,0,12.55,6.69,14.22,12.55-.84,20.08-4.18,24.26-3.35,6.69.84,11.71-.84,18.41-.84,7.53,0,5.86,10.88,12.55,14.22,0,0-10.04,12.55-18.41,12.55-15.9,10.88-29.28,9.2-37.65,12.55-4.18.84-15.06,6.69-15.9,10.88-2.51,12.55-5.02,32.63-9.2,52.71-1.67,9.2-1.67,19.24-8.37,28.45-1.67,2.51-1.67,7.53,0,10.04,2.51,8.37,0,15.9-.84,24.26-.84,8.37-10.88,15.9-5.86,25.1-8.37,8.37.84,16.73-2.51,25.1v8.37c-2.51,8.37-1.67,17.57-6.69,26.77-2.51,7.53,3.35,15.06-.84,22.59-.84,4.18,0,10.04-3.35,13.39-5.02,5.02-1.67,9.2-4.18,14.22-1.67,5.86.84,11.71.84,17.57s-.84,5.86-.84,12.55c-1.67,11.71-5.02,23.43-1.67,34.3.84,4.18-.84,9.2-1.67,13.39-6.69,12.55-7.53,23.43-5.86,36.81,0,13.39-2.51,20.08-4.18,34.3-.84,4.18-4.18,5.86-8.37,5.86-14.22,0-21.75-3.35-29.28-15.06Zm0-69.44c-.84,0-1.67,2.51-3.35,8.37l-1.67-.84c0,4.18-3.35,46.85,3.35,26.77,1.67-5.02,4.18-34.3,1.67-34.3Zm3.35-30.12c0-2.51-1.67-7.53-3.35-10.04l-.84,2.51c0,3.35-2.51,9.2-3.35,14.22-.84,3.35,0,6.69,4.18,6.69,5.02,0,3.35-9.2,3.35-13.39Zm16.73-194.1c-.84,0-2.51,6.69-11.71,61.91l-.84-2.51c-.84,10.04-5.02,61.07,2.51,38.49,4.18-12.55,12.55-97.89,10.04-97.89Z"/>
      <path class="cls-2" d="m1506.04,721.65c1.67-3.35,2.51-4.18-1.67-5.02-3.35-.84-6.69,0-6.69-4.18-1.67-.84-2.51-.84-2.51-1.67-1.67-10.88-14.22-19.24-14.22-30.12,0-8.37-1.67-15.06-7.53-20.92-2.51-2.51-2.51-6.69-3.35-10.04v-7.53c0-8.37-6.69-15.06-5.02-22.59,3.35-9.2-.84-17.57,0-25.94-.84-8.37.84-16.73,0-24.26.84-21.75,5.02-35.14,0-56.05-.84-5.86,1.67-20.08,2.51-26.77-5.86,13.39-10.88,25.1-16.73,37.65l-3.35,5.86c-.84,15.9-8.37,30.96-12.55,46.85-2.51,12.55-6.69,24.26-13.39,35.14-5.02,8.37-9.2,16.73-12.55,25.1-2.51,8.37-6.69,14.22-13.39,19.24-1.67.84-2.51,1.67-3.35,3.35-10.04,13.39-25.1,20.08-39.32,27.61-3.35,2.51-8.37-1.67-11.71,2.51-3.35,4.18-8.37,2.51-13.39,2.51-4.18.84-10.88,2.51-15.9,1.67-7.53-1.67-13.39-5.86-20.92-9.2-19.24-9.2-31.79-24.26-41-41.83-10.88-16.73-20.92-34.3-25.1-54.38-3.35-8.37-5.02-16.73-2.51-25.1,1.67-5.86,2.51-11.71,3.35-16.73.84-7.53,3.35-14.22.84-20.92-.84-2.51,0-5.86.84-10.04,2.51-16.73,5.02-33.47,5.02-51.04.84-10.88,3.35-20.92,2.51-31.79,0-8.37,0-16.73,5.86-24.26.84-.84.84-3.35.84-4.18-4.18-4.18,4.18-8.37,1.67-13.39-1.67-5.02,0-10.88,2.51-15.06,2.51-2.51.84-4.18.84-6.69,1.67-15.06,5.02-30.12,8.37-44.34,5.02-4.18,0-8.37.84-11.71.84-.84,2.51-.84,3.35-1.67,1.67-5.86,3.35-20.92,1.67-25.1-3.35-5.02-3.35-10.04,2.51-15.9,5.02-5.02,8.37-10.88,4.18-17.57,10.04-12.55,6.69-26.77,13.39-40.16,0-5.86.84-10.88,4.18-17.57,1.67-4.18.84-10.04,3.35-15.06,1.67-6.69,1.67-12.55,0-18.41-1.67-4.18-1.67-9.2-.84-13.39,2.51-15.06,5.02-30.96,8.37-46.02,2.51-6.69,5.86-14.22,4.18-20.92,0-4.18,0-9.2.84-12.55,0-3.35,0-6.69-1.67-10.04-3.35-8.37-2.51-10.88,5.02-14.22,10.04-3.35,19.24-7.53,28.45-10.04,5.86-.84,10.88-.84,16.73,0,1.67,0,3.35.84,2.51,1.67,0,5.86,2.51,11.71.84,15.9-5.02,20.08-2.51,39.32-5.86,57.73-4.18,23.43-8.37,46.85-13.39,70.28,0,4.18-2.51,8.37-4.18,11.71,0,2.51-.84,4.18-1.67,6.69-2.51,5.02,0,10.88-2.51,16.73-1.67,5.86-3.35,12.55-4.18,18.41-1.67,5.86-3.35,10.88-4.18,16.73,0,5.02-2.51,11.71-3.35,17.57l-2.51,19.24c0,1.67,1.67,3.35,3.35,4.18-.84,5.02-.84,10.04-1.67,15.9-.84,5.86-2.51,10.04-8.37,13.39-3.35.84-5.02,3.35-3.35,5.86,3.35,6.69.84,13.39-2.51,20.08-2.51,4.18.84,9.2-3.35,12.55,1.67,4.18-4.18,8.37-.84,13.39,0,2.51-1.67,6.69-1.67,10.04.84,7.53-5.02,14.22-4.18,21.75,0,7.53-2.51,15.06-3.35,22.59-1.67,7.53-3.35,15.06-4.18,22.59,0,1.67-.84,5.02-1.67,6.69-5.86,7.53-3.35,13.39-2.51,21.75,2.51,9.2,1.67,18.41,1.67,27.61,0,10.88-1.67,20.92,0,30.12.84,8.37,0,15.9,5.86,22.59,2.51,3.35,1.67,10.88,2.51,15.06h-4.18c.84,1.67,0,3.35,2.51,2.51.84,0,.84-1.67,1.67-2.51.84.84,2.51,2.51,2.51,4.18,4.18,15.06,10.88,28.45,16.73,41.83,5.86,10.04,15.06,14.22,21.75,21.75,1.67,1.67,6.69.84,8.37-2.51,5.86-8.37,12.55-17.57,17.57-26.77,3.35-7.53,6.69-14.22,11.71-20.92,3.35-5.02,6.69-10.04,7.53-15.9,1.67-10.88,8.37-20.92,15.06-30.12,3.35-6.69,6.69-11.71,6.69-18.41.84-7.53,5.86-13.39,6.69-21.75.84-7.53,5.02-14.22,6.69-21.75,5.86-15.06,11.71-29.28,13.39-44.34,1.67-10.04,4.18-19.24,5.86-29.28.84-5.02-1.67-9.2,0-13.39.84-4.18,3.35-8.37,4.18-11.71l9.2-50.2c-2.51-6.69,5.02-13.39,2.51-20.08,3.35-11.71,1.67-24.26,4.18-35.98s4.18-23.43,6.69-35.14c.84-6.69,1.67-11.71.84-18.41-1.67-4.18,0-7.53.84-12.55,2.51-10.88,5.02-22.59,6.69-34.3s3.35-22.59,2.51-33.47c-.84-6.69,1.67-13.39,2.51-20.92,1.67-13.39,6.69-27.61,5.86-41,2.51-4.18,2.51-6.69-.84-10.88-5.02-4.18-5.02-12.55-7.53-17.57,4.18-4.18.84-9.2,6.69-13.39,10.04-9.2,21.75-19.24,37.65-20.92,1.67-.84,3.35-1.67,5.02-1.67,7.53-2.51,15.06-8.37,21.75-4.18,9.2,4.18,13.39,12.55,15.9,21.75,2.51,12.55,5.02,25.1,1.67,40.16-3.35,10.88,0,22.59-2.51,34.3-3.35,15.06-6.69,30.12-8.37,45.18-1.67,11.71-1.67,22.59-5.02,33.47-.84,7.53-5.02,15.9-5.86,23.43,0,3.35,2.51,6.69.84,8.37-6.69,8.37-3.35,17.57-8.37,26.77-.84,0-1.67.84-2.51,2.51q-4.18,5.02,0,8.37c0,.84.84.84,1.67.84.84,7.53,2.51,16.73-.84,25.1-2.51,6.69,4.18,12.55-2.51,19.24-1.67.84-.84,2.51,0,3.35.84,5.86,3.35,10.88.84,16.73-2.51,5.86,1.67,12.55-2.51,18.41-1.67,2.51.84,8.37-1.67,10.88-2.51,5.02-2.51,8.37-1.67,11.71.84.84,1.67,2.51,1.67,3.35-.84,13.39-3.35,25.94-3.35,39.32v41.83c0,5.02,0,8.37-2.51,13.39-2.51,5.86-1.67,13.39-3.35,20.08-.84,5.86-1.67,11.71-7.53,15.06-7.53,5.02,4.18,9.2,5.86,14.22-1.67.84-3.35,1.67-3.35,2.51l-4.18,15.06c0,1.67,2.51,3.35,3.35,4.18l-.84,3.35c-1.67,0-4.18,1.67-4.18,4.18-1.67,5.86-3.35,12.55-2.51,20.08,2.51-1.67,3.35-4.18,4.18-5.86,5.02-4.18,5.86-7.53,1.67-12.55l.84-5.86c4.18-.84,4.18,5.02,8.37,3.35,1.67-1.67,2.51-1.67,3.35.84v.84c-5.86,10.04-6.69,19.24-1.67,27.61-5.86,9.2,1.67,20.08-6.69,29.28-4.18,5.02-4.18,11.71-5.02,17.57-.84,4.18-1.67,7.53,3.35,9.2,1.67.84.84,1.67.84,3.35-2.51,7.53-.84,14.22.84,22.59,2.51,2.51,3.35,6.69,3.35,9.2-2.51,6.69.84,11.71,4.18,16.73,3.35,7.53-1.67,15.9-.84,25.94.84,10.04,4.18,20.08,3.35,30.96-9.2-6.69-10.04-7.53-8.37-12.55Zm-225.06-150.6l.84,1.67c.84-.84,1.67-2.51-.84-1.67Zm204.14-112.95c-4.18,5.02-4.18,10.04-3.35,15.06,3.35-5.86,4.18-10.04,3.35-15.06Zm10.04-74.46l-1.67-.84c-.84,0-1.67,0-2.51.84-4.18,5.86-3.35,5.86-2.51,18.41,1.67-6.69,4.18-12.55,6.69-18.41Zm-4.18,91.19c0-1.67-.84-2.51-.84-4.18l-1.67,1.67v4.18c0,.84,1.67,0,2.51-1.67Zm4.18,135.54v-2.51q.84-1.67,0-3.35c-.84.84-1.67,1.67-2.51,3.35-.84,0-.84.84,0,1.67,0,1.67-2.51,4.18.84,4.18l1.67-3.35Zm1.67-192.43c-.84,0-.84-.84-1.67-.84l-.84.84c0,.84.84.84.84,1.67l1.67-1.67Zm1.67,177.37l-3.35,1.67v.84c2.51,0,2.51-.84,3.35-2.51Zm0-119.64h-.84c-1.67.84-2.51,2.51-1.67,3.35,0,2.51,1.67,2.51,2.51.84v-4.18Zm4.18,116.29c-2.51-7.53,0-15.06.84-22.59v-5.02c0-.84-.84-.84-.84-.84-.84,0-1.67,0-1.67.84-3.35,10.88-6.69,20.92-2.51,30.12,2.51.84,5.02-.84,4.18-2.51Zm-.84-124.66c.84-6.69,2.51-13.39,2.51-21.75-5.86,7.53-5.86,14.22-6.69,20.92,0,.84,1.67,1.67,2.51,2.51l1.67-1.67Zm1.67,227.57c.84-1.67-.84-5.86-3.35-5.86l-.84.84c-2.51,2.51,0,5.02,2.51,5.86.84,0,1.67,0,1.67-.84Zm0,12.55c-.84-1.67-1.67-4.18-.84-5.86h-1.67l-1.67,1.67-.84,8.37c2.51,0,4.18-.84,5.02-4.18Zm1.67-307.05c1.67-2.51,0-3.35-2.51-4.18-1.67-.84-3.35.84-3.35,2.51-.84,1.67-.84,3.35,1.67,4.18s3.35-.84,4.18-2.51Zm0-108.76l.84-8.37c-.84-.84-.84-2.51,0-3.35-1.67.84-2.51,1.67-2.51,3.35-.84,2.51-2.51,5.86-1.67,7.53,0,.84.84.84.84,1.67.84,0,1.67,0,2.51-.84Zm0,16.73c0-.84-.84-1.67-.84-2.51-.84,0-1.67.84-1.67.84,0,.84.84,1.67,0,3.35l2.51-1.67Zm4.18-42.67v-3.35c1.67-.84,4.18.84,2.51-2.51,0,.84-.84,1.67-2.51,2.51-.84.84-1.67.84-1.67.84-1.67,1.67-1.67,4.18-.84,5.86.84-1.67,1.67-2.51,2.51-3.35Z"/>
      <path class="cls-2" d="m1533.65,702.41c-10.88-6.69-17.57-20.08-20.92-31.79-1.67-2.51-1.67-7.53.84-10.04,5.02-8.37,2.51-16.73,7.53-24.26,10.04-17.57,18.41-35.98,31.79-50.2,4.18-3.35,4.18-11.71,9.2-15.06,5.02-4.18,8.37-8.37,10.88-13.39,4.18-9.2,11.71-19.24,18.41-27.61,11.71-13.39,19.24-24.26,25.94-40.16.84-1.67,1.67-3.35,1.67-5.02-4.18-12.55,5.02-25.1,10.04-35.97,1.67-3.35,1.67-6.69-2.51-7.53-6.69-1.67-20.08,7.53-31.79,15.06-4.18-2.51-9.2-3.35-10.88-7.53-10.88-11.71-20.08-24.26-29.28-37.65-2.51-3.35-5.02-7.53-3.35-10.88,8.37-9.2,17.57-37.65,21.75-46.85,7.53-16.73,20.08-27.61,29.28-43.51,3.35-4.18,8.37-8.37,10.88-13.39,7.53-18.41,18.41-31.79,32.63-47.69,2.51-4.18,5.86-9.2,10.04-13.39,3.35-5.02,5.86-5.86,8.37,0,2.51,5.02,10.04,7.53,14.22,10.04,9.2,4.18,15.06,10.88,20.92,19.24,3.35,5.02,4.18,6.69,3.35,14.22-.84,5.86-3.35,10.04-7.53,14.22-12.55,7.53-19.24,18.41-29.28,29.28-8.37,8.37-17.57,19.24-25.1,30.12-6.69,8.37-13.39,16.73-19.24,26.77-6.69,5.86-10.04,12.55-14.22,18.41,4.18,3.35,9.2,8.37,15.06,8.37,1.67.84,4.18,0,6.69.84,23.43,8.37,45.18,18.41,61.07,38.49,5.86,8.37,10.88,18.41,10.88,30.12-.84,8.37,1.67,19.24-5.02,27.61-.84,10.88-10.88,16.73-12.55,25.94-2.51,10.88-12.55,18.41-18.41,27.61-2.51,3.35-4.18,6.69-7.53,10.04-5.02,8.37-13.39,17.57-21.75,23.43-5.86,5.02-12.55,9.2-15.06,20.08,0,2.51-4.18,4.18-8.37,6.69-3.35,3.35-7.53,5.02-7.53,10.88-.84,6.69-8.37,5.02-10.88,9.2-2.51,4.18-5.86,8.37-8.37,11.71-3.35,4.18-9.2,7.53-11.71,12.55-10.04,13.39-14.22,28.45-12.55,44.34.84,1.67,0,4.18,0,6.69.84.84-.84,2.51-.84,5.02-.84.84-2.51.84-4.18,0-6.69-5.86-15.9-10.04-22.59-15.06Zm9.2-65.26c0-2.51-.84-5.02-3.35-5.86l-.84-2.51c-.84,9.2-12.55,15.9-13.39,24.26l-2.51,10.04c0,.84,0,1.67.84,1.67,4.18,0,17.57-18.41,19.24-27.61Zm6.69-20.08c0-1.67,0-4.18-.84-7.53l-.84-1.67c-1.67,4.18-3.35,7.53-3.35,9.2-.84,3.35.84,5.02,1.67,5.02s2.51-1.67,3.35-5.02Zm21.75-27.61c1.67-3.35,1.67-7.53,1.67-11.71.84-.84.84-2.51,1.67-4.18l.84-3.35c-6.69,7.53-12.55,14.22-16.73,22.59-2.51,4.18-3.35,7.53-4.18,10.04,0,.84.84,1.67,1.67,1.67,1.67,0,10.04-8.37,15.06-15.06Zm-5.86,21.75l-.84-1.67c-4.18,1.67-6.69,3.35-7.53,5.02,0,.84,1.67,1.67,3.35,1.67s3.35-.84,5.02-5.02Z"/>
    </g>
  </g>
</svg>