<?xml version="1.0" encoding="UTF-8"?>
<svg id="Layer_2" data-name="Layer 2" xmlns="http://www.w3.org/2000/svg" xmlns:xlink="http://www.w3.org/1999/xlink" viewBox="0 0 1830.29 1107.84">
  <defs>
    <style>
      .cls-1 {
        clip-path: url(#clippath);
      }

      .cls-2 {
        fill: none;
      }

      .cls-2, .cls-3, .cls-4 {
        stroke-width: 0px;
      }

      .cls-5 {
        clip-path: url(#clippath-1);
      }

      .cls-6 {
        isolation: isolate;
      }

      .cls-3 {
        fill: #fff;
      }

      .cls-4 {
        fill: #0023b4;
      }
    </style>
    <clipPath id="clippath">
      <polygon class="cls-2" points=".89 830.17 0 822.22 644.11 0 645.01 7.95 .89 830.17"/>
    </clipPath>
    <clipPath id="clippath-1">
      <path class="cls-2" d="m1186.18,1104.01c-48.4-11.17-70.79-6.51-94.49-1.58-23.52,4.89-47.85,9.95-98.21-1.68-50.46-11.66-77.27-28.53-103.2-44.85-26.14-16.46-50.84-31.99-99.21-43.17-48.4-11.17-70.79-6.51-94.49-1.58-23.52,4.89-47.85,9.94-98.2-1.68-50.46-11.66-77.27-28.53-103.21-44.85-26.14-16.45-50.83-31.99-99.2-43.16-48.4-11.17-70.78-6.52-94.49-1.58-23.52,4.89-47.84,9.94-98.2-1.68-50.46-11.66-77.26-28.53-103.2-44.85-26.14-16.45-50.83-31.99-99.2-43.17L645.01,7.95c48.37,11.17,73.06,26.72,99.2,43.17,25.93,16.32,52.74,33.19,103.2,44.85,50.36,11.63,74.68,6.57,98.2,1.68,23.71-4.93,46.09-9.59,94.49,1.58,48.37,11.17,73.06,26.71,99.2,43.16,25.93,16.32,52.74,33.19,103.21,44.85,50.35,11.62,74.68,6.57,98.2,1.68,23.7-4.93,46.09-9.59,94.49,1.58,48.37,11.17,73.06,26.71,99.21,43.17,25.93,16.32,52.74,33.19,103.2,44.85,50.36,11.63,74.69,6.57,98.21,1.68,23.7-4.93,46.09-9.59,94.49,1.58-193.23,246.66-450.88,575.55-644.11,822.22Z"/>
    </clipPath>
  </defs>
  <g id="Layer_1-2" data-name="Layer 1">
    <g class="cls-6">
      <g class="cls-6">
        <g class="cls-1">
          <g>
            <path class="cls-4" d="m603.14,60.66c0,.08-1.12,1.6-3.21,4.33-2.09,2.74-5.12,6.66-9.13,11.81-2.67,3.43-5.78,7.42-9.34,11.99-4.75,6.08-10.29,13.17-16.58,21.19-6.85,8.75-12.81,16.34-18.61,23.71-5.79,7.36-11.49,14.58-17.7,22.44-4.14,5.24-8.51,10.75-13.26,16.75h0c-5.68,7.16-10.55,13.31-15.26,19.27-4.71,5.96-9.31,11.8-14.21,18.04-3.27,4.17-6.65,8.47-10.28,13.1s-6.83,8.73-9.51,12.16c-2.67,3.42-4.91,6.3-6.56,8.43-1.1,1.42-1.93,2.5-2.49,3.23-.75.99-1.05,1.4-1.05,1.43,0,.03.39-.42,1.35-1.62.96-1.19,2.53-3.17,4.64-5.84,1.4-1.78,3.02-3.83,4.83-6.14,2.41-3.07,5.18-6.59,8.35-10.65l8.38-10.7.02.22-6.49,8.28v.04s0-.04,0-.04c-7.22,9.22-13.46,17.17-18.66,23.78-5.2,6.62-9.34,11.86-12.51,15.85-2.11,2.66-3.79,4.77-5.05,6.33-1.68,2.08-2.59,3.17-2.59,3.1,0-.08,1.12-1.61,3.23-4.36,2.11-2.76,5.18-6.73,9.27-11.99,2.72-3.5,5.91-7.59,9.57-12.28,4.87-6.24,10.6-13.57,17.13-21.9,7.51-9.59,13.84-17.65,19.83-25.27,5.99-7.62,11.7-14.86,17.92-22.72,4.14-5.24,8.5-10.73,13.24-16.72h0c5.68-7.16,10.54-13.29,15.14-19.11,4.6-5.82,8.99-11.39,13.56-17.21,3.04-3.87,6.14-7.83,9.39-11.97,3.43-4.37,6.38-8.15,8.94-11.43,2.55-3.27,4.72-6.06,6.37-8.18,1.09-1.41,1.93-2.5,2.5-3.25.76-1,1.08-1.44,1.08-1.47,0-.02-.24.25-.78.92-.54.66-1.41,1.75-2.62,3.28-.81,1.02-1.76,2.22-2.82,3.57-1.42,1.8-3.05,3.87-4.87,6.18-2.42,3.08-5.17,6.58-8.32,10.61l-5.54,7.07-.02-.22,3.87-4.95c7.23-9.22,13.48-17.2,18.68-23.81,5.2-6.62,9.35-11.87,12.5-15.84,2.11-2.66,3.79-4.77,5.05-6.33,1.67-2.07,2.58-3.16,2.59-3.09"/>
            <path class="cls-3" d="m609.16,52.98c0,.08-.99,1.43-2.98,4.05-1.48,1.95-3.54,4.62-6.11,7.95-3.87,5-8.88,11.45-14.8,19.04-5.92,7.59-12.74,16.31-20.37,26.04-4.92,6.28-9.56,12.2-14.05,17.92-6.75,8.59-13.12,16.69-19.58,24.87-6.47,8.19-13.04,16.49-20.36,25.72h0c-3.7,4.67-6.99,8.82-10.02,12.65-4.55,5.75-8.49,10.74-12.44,15.76-3.94,5.01-7.96,10.13-12.86,16.39-2.88,3.68-5.21,6.65-7,8.95-1.35,1.73-2.4,3.08-3.22,4.13-1.23,1.58-1.98,2.55-2.54,3.28-.54.71-.84,1.11-.83,1.13,0,.02.24-.26.67-.79.33-.4.75-.94,1.32-1.65.84-1.06,2.02-2.55,3.83-4.85,1.8-2.29,4.23-5.38,7.33-9.34l14.4-18.39.04.37-12.51,15.97v-.04s0-.04,0-.04l6.49-8.28-.02-.22-8.38,10.7c-3.18,4.05-5.94,7.58-8.35,10.65-1.82,2.31-3.43,4.36-4.83,6.14-2.11,2.67-3.68,4.65-4.64,5.84-.96,1.2-1.35,1.65-1.35,1.62,0-.03.3-.44,1.05-1.43.56-.74,1.38-1.81,2.49-3.23,1.65-2.13,3.89-5.01,6.56-8.43,2.68-3.43,5.82-7.44,9.51-12.16s7-8.93,10.28-13.1c4.9-6.24,9.5-12.08,14.21-18.04,4.71-5.96,9.58-12.11,15.26-19.28h0c4.75-5.99,9.12-11.5,13.26-16.74,6.22-7.86,11.91-15.08,17.7-22.44,5.8-7.37,11.75-14.96,18.61-23.71,6.28-8.02,11.83-15.11,16.58-21.19,3.56-4.56,6.67-8.56,9.34-11.99,4.01-5.15,7.03-9.07,9.13-11.81,2.09-2.73,3.22-4.25,3.21-4.33,0-.07-.92,1.02-2.59,3.09-1.26,1.56-2.94,3.67-5.05,6.33-3.15,3.98-7.3,9.23-12.5,15.84-5.2,6.61-11.46,14.58-18.68,23.81l-3.87,4.95.02.22,5.54-7.07c3.16-4.03,5.91-7.53,8.32-10.61,1.82-2.31,3.44-4.38,4.87-6.18,1.06-1.35,2.01-2.55,2.82-3.57,1.21-1.53,2.08-2.62,2.62-3.28.54-.67.78-.94.78-.92,0,.03-.32.47-1.08,1.47-.57.75-1.41,1.84-2.5,3.25-1.64,2.12-3.81,4.91-6.37,8.18-2.57,3.29-5.52,7.06-8.94,11.43-3.24,4.14-6.35,8.1-9.39,11.97-4.57,5.82-8.96,11.39-13.56,17.21-4.6,5.83-9.46,11.96-15.14,19.12h0c-4.75,5.98-9.1,11.47-13.24,16.71-6.22,7.86-11.93,15.11-17.92,22.72-6,7.62-12.32,15.69-19.83,25.27-6.53,8.33-12.26,15.66-17.13,21.9-3.66,4.69-6.85,8.78-9.57,12.28-4.09,5.26-7.16,9.23-9.27,11.99-2.11,2.76-3.24,4.28-3.23,4.36,0,.07.92-1.01,2.59-3.1,1.26-1.56,2.94-3.67,5.05-6.33,3.17-3.99,7.3-9.23,12.51-15.85,5.2-6.61,11.44-14.57,18.66-23.78v.04s0,.04,0,.04c-6.87,8.77-13.09,16.7-18.59,23.7-4.13,5.26-7.86,9.99-11.13,14.13-4.9,6.21-8.74,11.05-11.29,14.22-2.55,3.17-3.82,4.71-3.83,4.62,0-.08.98-1.43,2.98-4.06,1.51-1.98,3.58-4.67,6.19-8.05,3.91-5.06,9.02-11.63,15.08-19.39,6.06-7.76,13.07-16.73,20.96-26.8,5.32-6.79,10.24-13.07,14.93-19.04,7.05-8.98,13.58-17.27,20.1-25.53,6.53-8.27,13.06-16.53,20.38-25.75h0c7.4-9.34,13.18-16.64,18.34-23.19,2.58-3.27,5.02-6.36,7.49-9.51,2.48-3.16,5.01-6.38,7.83-9.98,2.65-3.38,4.81-6.15,6.51-8.32,1.27-1.62,2.27-2.91,3.07-3.93,1.18-1.52,1.92-2.48,2.47-3.19.53-.7.84-1.11.84-1.14,0-.02-.25.27-.68.81-.33.41-.76.95-1.32,1.66-.85,1.08-2.07,2.62-3.93,4.99-1.85,2.35-4.32,5.5-7.44,9.49l-11.56,14.76-.04-.37,9.89-12.63c6.87-8.77,13.08-16.69,18.59-23.69,4.13-5.25,7.85-9.98,11.12-14.12,4.9-6.21,8.75-11.06,11.3-14.24,2.55-3.18,3.83-4.72,3.84-4.63"/>
            <path class="cls-4" d="m525.86,157.99l57.06-72.83-.02-.19s-.19.19-.66.77c-.48.58-1.26,1.56-2.4,2.99-.76.96-1.67,2.11-2.7,3.41-1.38,1.74-2.96,3.75-4.72,6-2.36,3.01-5.07,6.46-8.22,10.47l-19.7,25.15c-2.65,3.39-5,6.38-7.08,9.04-2.09,2.67-3.92,5.02-5.5,7.05-1.06,1.36-1.99,2.56-2.78,3.58-1.06,1.36-1.83,2.38-2.35,3.06-.69.91-.95,1.27-.95,1.3l.02.19m74.75-95.63l.05.43-160.14,204.42-.03-.24,67.65-86.36-.02-.19c0-.08,1.07-1.55,3.1-4.2,2.03-2.65,4.96-6.45,8.89-11.51,2.62-3.37,5.7-7.32,9.26-11.88,4.74-6.08,10.34-13.24,16.76-21.42l16.38-20.91c7.22-9.22,13.41-17.1,18.51-23.59,5.11-6.5,9.13-11.59,12.19-15.45,2.05-2.58,3.68-4.62,4.89-6.13,1.62-2.01,2.49-3.05,2.5-2.97"/>
            <path class="cls-3" d="m531.87,150.23l45.02-57.46v-.11s-.23.23-.62.72c-.29.36-.67.83-1.17,1.46-.37.47-.83,1.04-1.41,1.78-.87,1.1-2.05,2.6-3.61,4.59-1.57,2-3.52,4.49-5.87,7.49l-19.7,25.15c-2.78,3.55-5,6.39-6.7,8.56-1.27,1.63-2.23,2.86-2.97,3.81-.55.71-.98,1.26-1.34,1.73-.53.69-.93,1.2-1.21,1.58-.28.37-.43.58-.43.6v.11m51.04-65.26l.02.19-57.06,72.83-.02-.19s.26-.39.95-1.3c.52-.68,1.3-1.7,2.35-3.06.79-1.02,1.72-2.23,2.78-3.58,1.58-2.03,3.42-4.39,5.5-7.05,2.08-2.66,4.42-5.65,7.08-9.04l19.7-25.15c3.15-4.02,5.85-7.47,8.22-10.47,1.77-2.25,3.35-4.26,4.72-6,1.03-1.31,1.94-2.45,2.7-3.41,1.14-1.43,1.92-2.41,2.4-2.99.48-.58.66-.79.66-.77m17.76-22.19l-.05-.43c0-.08-.88.96-2.5,2.97-1.22,1.51-2.85,3.55-4.89,6.13-3.07,3.86-7.09,8.96-12.19,15.45-5.1,6.49-11.29,14.38-18.51,23.59l-16.38,20.91c-6.41,8.19-12.01,15.35-16.76,21.42-3.56,4.56-6.64,8.51-9.26,11.88-3.93,5.06-6.87,8.85-8.89,11.51-2.02,2.65-3.11,4.11-3.1,4.2l.02.19-67.65,86.36.03.24,160.14-204.42m5.97-8.11l.06.5-3.01,3.84v-.04s0,.04,0,.04l-169.17,215.95-.04-.39,67.65-86.35v-.11c-.02-.08.92-1.37,2.84-3.89,1.44-1.89,3.44-4.5,5.98-7.78,3.8-4.91,8.78-11.32,14.69-18.89,5.91-7.57,12.76-16.33,20.5-26.21l16.38-20.91c6.87-8.77,13.05-16.65,18.5-23.58,4.09-5.2,7.76-9.86,10.97-13.93,4.81-6.1,8.54-10.78,10.99-13.84s3.66-4.5,3.67-4.41"/>
            <path class="cls-4" d="m455.66,245.86s.41-.46,1.41-1.7c.99-1.23,2.61-3.28,4.74-5.97,1.42-1.8,3.05-3.87,4.87-6.19,2.43-3.09,5.21-6.63,8.39-10.69l90.68-115.75c3.57-4.56,6.64-8.48,9.28-11.86,2.63-3.36,4.84-6.21,6.5-8.35,1.1-1.42,1.93-2.51,2.51-3.26.77-1.01,1.09-1.45,1.09-1.48,0-.03-.41.46-1.41,1.7-.99,1.23-2.61,3.28-4.74,5.97-1.42,1.8-3.06,3.88-4.88,6.2-2.43,3.09-5.2,6.63-8.38,10.68l-90.68,115.75v.04s0-.04,0-.04c-3.57,4.56-6.64,8.48-9.28,11.86-2.63,3.37-4.84,6.21-6.5,8.35-1.1,1.42-1.93,2.51-2.51,3.27-.77,1.01-1.08,1.44-1.08,1.47m147.17-187.87c0,.08-1.12,1.61-3.23,4.36-2.11,2.76-5.16,6.71-9.21,11.92-2.69,3.46-5.84,7.5-9.45,12.13-4.81,6.17-10.44,13.36-16.84,21.53l-87.36,111.51v.04s0-.04,0-.04c-7.19,9.18-13.42,17.11-18.61,23.71-5.19,6.6-9.34,11.85-12.52,15.86-2.12,2.68-3.82,4.8-5.08,6.37-1.69,2.09-2.59,3.18-2.6,3.1,0-.08,1.12-1.61,3.22-4.35,2.11-2.76,5.17-6.72,9.21-11.92,2.7-3.47,5.85-7.51,9.45-12.13,4.81-6.17,10.44-13.36,16.83-21.52l87.36-111.51c7.2-9.19,13.42-17.12,18.61-23.71,5.19-6.6,9.34-11.85,12.53-15.87,2.12-2.67,3.82-4.8,5.08-6.37,1.69-2.09,2.59-3.18,2.6-3.1"/>
            <path class="cls-3" d="m585.12,80.61s-.32.47-1.09,1.48c-.57.75-1.41,1.84-2.51,3.26-1.66,2.14-3.87,4.99-6.5,8.35-2.64,3.38-5.71,7.3-9.28,11.86l-90.68,115.75c-3.18,4.05-5.95,7.59-8.39,10.69-1.82,2.32-3.45,4.38-4.87,6.19-2.13,2.7-3.75,4.74-4.74,5.97-1,1.24-1.41,1.73-1.41,1.7,0-.03.31-.46,1.08-1.47.58-.76,1.41-1.84,2.51-3.27,1.66-2.14,3.87-4.99,6.5-8.35,2.64-3.38,5.71-7.3,9.28-11.86v.04s0,.04,0,.04c-2.76,3.52-5,6.38-6.75,8.63-1.31,1.68-2.35,3.01-3.17,4.07-1.23,1.58-2.01,2.59-2.57,3.32-.55.72-.86,1.14-.86,1.17,0,.02.25-.27.7-.83.33-.41.77-.97,1.36-1.7.88-1.1,2.1-2.65,3.94-5,1.84-2.34,4.28-5.45,7.38-9.41l90.68-115.75c2.76-3.52,5-6.38,6.74-8.62,1.32-1.69,2.36-3.02,3.18-4.08,1.23-1.58,2.01-2.59,2.57-3.32.55-.72.86-1.14.86-1.17,0-.02-.25.27-.7.83-.33.41-.78.97-1.36,1.7-.88,1.1-2.1,2.66-3.94,5-1.84,2.33-4.28,5.45-7.38,9.41l-90.68,115.75v-.04s0-.04,0-.04l90.68-115.75c3.18-4.05,5.95-7.59,8.38-10.68,1.82-2.32,3.46-4.39,4.88-6.2,2.13-2.7,3.75-4.74,4.74-5.97,1-1.24,1.41-1.73,1.41-1.7m23.74-30.3c0,.08-.98,1.43-2.98,4.05-1.49,1.96-3.55,4.64-6.14,7.99-3.89,5.03-8.95,11.54-14.94,19.21-5.99,7.68-12.92,16.54-20.68,26.44l-87.36,111.51v-.04s0-.04,0-.04l87.36-111.51c6.4-8.17,12.03-15.36,16.84-21.53,3.61-4.62,6.75-8.66,9.45-12.13,4.05-5.21,7.1-9.16,9.21-11.92,2.11-2.76,3.24-4.28,3.23-4.36,0-.07-.92,1.01-2.6,3.1-1.26,1.57-2.97,3.7-5.08,6.37-3.19,4.02-7.34,9.27-12.53,15.87-5.18,6.59-11.41,14.52-18.61,23.71l-87.36,111.51c-6.39,8.16-12.02,15.35-16.83,21.52-3.61,4.62-6.75,8.66-9.45,12.13-4.04,5.2-7.1,9.16-9.21,11.92-2.1,2.75-3.23,4.27-3.22,4.35,0,.07.92-1.01,2.6-3.1,1.26-1.57,2.96-3.69,5.08-6.37,3.18-4.01,7.33-9.26,12.52-15.86,5.19-6.6,11.42-14.53,18.61-23.71v.04s0,.04,0,.04c-6.89,8.8-13.13,16.75-18.65,23.77-4.14,5.27-7.87,10-11.13,14.13-4.89,6.2-8.71,11.01-11.25,14.16s-3.81,4.69-3.82,4.6c0-.08.98-1.43,2.98-4.05,1.49-1.96,3.55-4.64,6.14-7.99,3.89-5.03,8.94-11.53,14.93-19.21,6-7.69,12.92-16.54,20.68-26.44l87.36-111.51c6.9-8.81,13.14-16.76,18.65-23.77,4.14-5.27,7.87-10,11.13-14.13,4.89-6.2,8.71-11.01,11.24-14.15,2.54-3.16,3.82-4.7,3.83-4.61"/>
            <path class="cls-4" d="m529.12,150.73l53.49-68.29-.02-.18s-.26.28-.88,1.03c-.61.75-1.57,1.95-2.88,3.6-.88,1.1-1.89,2.38-3,3.8-1.49,1.89-3.17,4.03-5.01,6.37-2.46,3.13-5.22,6.65-8.35,10.65l-12.82,16.36c-3.98,5.07-7.33,9.36-10.17,13-2.84,3.64-5.19,6.66-6.87,8.83-1.12,1.45-1.94,2.52-2.49,3.25-.73.97-1.02,1.37-1.02,1.4l.02.15m71.19-91.09h0s.05.43.05.43l-160.14,204.42-.03-.24,71.22-90.91-.02-.15s-.24.24-.84.97c-.59.73-1.57,1.95-3.01,3.76-.95,1.2-2.1,2.65-3.38,4.27-1.71,2.17-3.68,4.67-5.89,7.48-2.95,3.75-6.35,8.09-10.34,13.19l-30.39,38.79c-5.02,6.41-8.49,10.83-11.02,14.06-2.54,3.24-4.12,5.25-5.55,7.07-.28.36-.56.71-.84,1.07l-.03-.24c1.99-2.53,3.99-5.08,6.04-7.69,3.47-4.42,7.08-9.03,11.13-14.21l29.2-37.28c5.15-6.57,9.75-12.44,13.74-17.53,3.98-5.07,7.34-9.35,10.05-12.78,1.81-2.3,3.33-4.23,4.61-5.83,1.7-2.15,2.99-3.76,3.89-4.87l.67-.83,4.65-5.93.78-1.03c1.05-1.38,2.42-3.15,4.12-5.34,1.7-2.19,3.73-4.81,6.18-7.95,4.88-6.26,11.43-14.65,19.67-25.17l10.21-13.04c6.97-8.9,12.81-16.34,17.54-22.35,4.73-6.01,8.34-10.59,11.1-14.06,1.84-2.31,3.3-4.14,4.39-5.49,1.44-1.78,2.21-2.69,2.22-2.61"/>
            <path class="cls-3" d="m535.13,142.97l41.45-52.91v-.11s-.3.32-.78.92c-.36.45-.82,1.03-1.43,1.8-.46.58-1.02,1.29-1.71,2.17-1.03,1.31-2.38,3.02-4.08,5.19-1.69,2.16-3.73,4.76-6.1,7.77l-12.82,16.36c-3.11,3.97-5.59,7.14-7.5,9.58-1.43,1.83-2.53,3.25-3.4,4.37-1.3,1.67-2.13,2.75-2.74,3.55-.59.78-.9,1.2-.9,1.23v.08m47.47-60.7l.02.18-53.49,68.29-.02-.15s.28-.43,1.02-1.4c.55-.73,1.37-1.8,2.49-3.25,1.68-2.17,4.02-5.19,6.87-8.83,2.84-3.64,6.19-7.93,10.17-13l12.82-16.36c3.13-3.99,5.89-7.52,8.35-10.65,1.84-2.35,3.52-4.48,5.01-6.37,1.12-1.42,2.13-2.7,3-3.8,1.31-1.65,2.27-2.86,2.88-3.6.61-.76.87-1.06.88-1.03m17.76-22.19l-.05-.43h0c0-.08-.78.83-2.22,2.61-1.1,1.35-2.55,3.18-4.39,5.49-2.75,3.47-6.37,8.04-11.1,14.06-4.72,6-10.57,13.45-17.54,22.35l-10.21,13.04c-8.24,10.52-14.8,18.9-19.67,25.17-2.44,3.14-4.48,5.76-6.18,7.95-1.7,2.19-3.06,3.96-4.12,5.34l-.78,1.03-4.65,5.93-.67.83c-.9,1.11-2.19,2.72-3.89,4.87-1.28,1.61-2.8,3.54-4.61,5.83-2.7,3.43-6.06,7.7-10.05,12.78-3.99,5.08-8.6,10.96-13.74,17.53l-29.2,37.28c-4.06,5.18-7.67,9.79-11.13,14.21-2.05,2.61-4.05,5.16-6.04,7.69l.03.24c.28-.36.56-.71.84-1.07,1.43-1.82,3.01-3.83,5.55-7.07,2.53-3.23,6-7.66,11.02-14.06l30.39-38.79c4-5.1,7.4-9.44,10.34-13.19,2.21-2.81,4.17-5.31,5.89-7.48,1.28-1.62,2.43-3.07,3.38-4.27,1.44-1.81,2.42-3.03,3.01-3.76.59-.72.83-1,.84-.97l.02.15-71.22,90.91.03.24,160.14-204.42m5.97-8.11l.06.51-3.01,3.84v-.04s0,.04,0,.04l-169.17,215.95-.04-.39,71.21-90.9v-.07s-.31.32-.86,1c-.41.51-.94,1.18-1.65,2.07-.53.67-1.17,1.47-1.99,2.51-1.22,1.55-2.87,3.65-5.02,6.39-2.14,2.73-4.78,6.09-7.91,10.09l-30.39,38.79c-6.83,8.71-10.98,14.01-14.09,17.97-1.55,1.98-2.83,3.61-4,5.09-1.16,1.47-2.18,2.78-3.24,4.12l-2.1,2.67-.05-.41,4.13-5.25c2.81-3.56,5.53-7.03,8.59-10.93,3.06-3.9,6.45-8.23,10.46-13.35l29.2-37.28c4.79-6.12,9.22-11.77,13.27-16.93,6.07-7.73,11.33-14.43,15.6-19.84,2.13-2.7,4-5.06,5.54-7,.42-.53.82-1.04,1.2-1.5.77-1,1.62-2.1,2.55-3.29,3.32-4.29,7.61-9.8,12.66-16.27,5.06-6.49,10.9-13.95,17.54-22.42l10.21-13.04c6.62-8.45,12.5-15.95,17.65-22.5,3.86-4.91,7.32-9.3,10.31-13.09,4.49-5.69,7.89-9.96,10.08-12.67,2.2-2.72,3.23-3.95,3.24-3.85"/>
            <polyline class="cls-4" points="600.11 57.88 600.21 58.78 582.49 81.39 582.46 81.1 582.45 81.06 440.03 262.87 440 262.63 582.43 80.82 582.39 80.49 600.11 57.88"/>
            <path class="cls-3" d="m579.46,84.98v-.04s0,.04,0,.04m3.04-3.59l17.72-22.61-.1-.9-17.72,22.61.04.33-142.43,181.81.03.24,142.43-181.81v.04s.04.29.04.29m23.63-31.27l.12,1.05-29.76,37.99-.04-.33-142.42,181.8-.04-.39,142.42-181.8-.04-.33,29.76-37.99"/>
            <path class="cls-4" d="m602.39,54c0,.08-1.12,1.6-3.21,4.33-2.09,2.74-5.12,6.66-9.13,11.81-2.67,3.43-5.78,7.42-9.34,11.99-4.75,6.08-10.29,13.17-16.58,21.19-6.85,8.75-12.81,16.34-18.61,23.71-5.79,7.36-11.49,14.58-17.7,22.44-4.14,5.24-8.51,10.75-13.26,16.75h0c-5.68,7.16-10.55,13.31-15.26,19.27-4.71,5.96-9.31,11.8-14.21,18.04-3.27,4.17-6.65,8.47-10.28,13.1-3.7,4.72-6.83,8.73-9.51,12.16-2.67,3.42-4.91,6.3-6.56,8.43-1.1,1.42-1.93,2.5-2.49,3.23-.75.99-1.05,1.4-1.05,1.43,0,.03.39-.42,1.35-1.62.96-1.19,2.53-3.17,4.64-5.84,1.4-1.78,3.02-3.83,4.83-6.14,2.41-3.07,5.18-6.59,8.35-10.65l8.38-10.7.02.22-6.49,8.28v.04s0-.04,0-.04c-7.22,9.22-13.46,17.17-18.66,23.78-5.2,6.62-9.34,11.86-12.51,15.85-2.11,2.66-3.79,4.77-5.05,6.33-1.68,2.08-2.59,3.17-2.6,3.1,0-.08,1.12-1.61,3.23-4.36,2.11-2.76,5.18-6.73,9.27-11.99,2.72-3.5,5.91-7.59,9.57-12.28,4.87-6.24,10.6-13.57,17.13-21.9,7.51-9.59,13.84-17.65,19.83-25.27,5.99-7.62,11.7-14.86,17.92-22.72,4.14-5.24,8.5-10.73,13.24-16.72h0c5.68-7.16,10.54-13.29,15.14-19.11,4.6-5.82,8.99-11.39,13.56-17.21,3.04-3.87,6.14-7.83,9.39-11.97,3.43-4.37,6.38-8.15,8.94-11.44,2.55-3.27,4.72-6.06,6.37-8.18,1.09-1.41,1.93-2.5,2.5-3.25.76-1,1.08-1.44,1.08-1.47,0-.02-.24.25-.78.92-.54.66-1.41,1.75-2.62,3.28-.81,1.02-1.76,2.22-2.82,3.57-1.42,1.8-3.05,3.87-4.87,6.18-2.42,3.08-5.17,6.58-8.32,10.61l-5.54,7.07-.02-.22,3.87-4.95c7.23-9.22,13.48-17.2,18.68-23.81,5.2-6.62,9.35-11.87,12.5-15.84,2.11-2.66,3.79-4.77,5.05-6.33,1.67-2.07,2.58-3.16,2.59-3.09"/>
            <path class="cls-3" d="m608.41,46.32c0,.08-.99,1.43-2.98,4.05-1.48,1.95-3.54,4.62-6.11,7.95-3.87,5-8.88,11.45-14.8,19.04-5.92,7.59-12.74,16.31-20.37,26.04-4.92,6.28-9.56,12.2-14.05,17.92-6.75,8.59-13.12,16.69-19.58,24.87-6.47,8.19-13.04,16.49-20.36,25.72h0c-3.7,4.67-6.99,8.82-10.02,12.65-4.55,5.75-8.49,10.74-12.44,15.76-3.94,5.01-7.96,10.13-12.86,16.39-2.88,3.68-5.21,6.65-7,8.95-1.35,1.73-2.4,3.08-3.22,4.13-1.23,1.58-1.98,2.55-2.54,3.28-.54.71-.84,1.11-.83,1.13,0,.02.24-.26.67-.79.33-.4.75-.94,1.32-1.65.84-1.06,2.02-2.55,3.83-4.85,1.8-2.29,4.23-5.38,7.33-9.34l14.4-18.39.04.37-12.51,15.97v-.04s0-.04,0-.04l6.49-8.28-.02-.22-8.38,10.7c-3.18,4.05-5.94,7.58-8.35,10.65-1.82,2.31-3.43,4.36-4.83,6.14-2.11,2.67-3.68,4.65-4.64,5.84-.96,1.2-1.35,1.65-1.35,1.62,0-.03.3-.44,1.05-1.43.56-.74,1.38-1.81,2.49-3.23,1.65-2.13,3.89-5.01,6.56-8.43,2.68-3.43,5.82-7.44,9.51-12.16,3.62-4.63,7-8.93,10.28-13.1,4.9-6.24,9.5-12.08,14.21-18.04,4.71-5.96,9.58-12.11,15.26-19.28h0c4.75-5.99,9.12-11.5,13.26-16.74,6.22-7.86,11.91-15.08,17.7-22.44,5.8-7.37,11.75-14.96,18.61-23.71,6.28-8.02,11.83-15.11,16.58-21.19,3.56-4.56,6.67-8.56,9.34-11.99,4.01-5.15,7.03-9.07,9.13-11.81,2.09-2.73,3.22-4.25,3.21-4.33,0-.07-.92,1.02-2.59,3.09-1.26,1.56-2.94,3.67-5.05,6.33-3.15,3.98-7.3,9.23-12.5,15.84-5.2,6.61-11.46,14.58-18.68,23.81l-3.87,4.95.02.22,5.54-7.07c3.16-4.03,5.91-7.53,8.32-10.61,1.82-2.31,3.44-4.38,4.87-6.18,1.06-1.35,2.01-2.55,2.82-3.57,1.21-1.53,2.08-2.62,2.62-3.28.54-.67.78-.94.78-.92,0,.03-.32.47-1.08,1.47-.57.75-1.41,1.84-2.5,3.25-1.64,2.12-3.81,4.91-6.37,8.18-2.57,3.29-5.52,7.06-8.94,11.44-3.24,4.14-6.35,8.1-9.39,11.97-4.57,5.82-8.96,11.39-13.56,17.21-4.6,5.83-9.46,11.96-15.14,19.12h0c-4.75,5.98-9.1,11.47-13.24,16.71-6.22,7.86-11.93,15.11-17.92,22.72-6,7.62-12.32,15.69-19.83,25.27-6.53,8.33-12.26,15.66-17.13,21.9-3.66,4.69-6.85,8.78-9.57,12.28-4.09,5.26-7.16,9.23-9.27,11.99-2.11,2.76-3.24,4.28-3.23,4.36,0,.07.92-1.01,2.6-3.1,1.26-1.56,2.94-3.67,5.05-6.33,3.17-3.99,7.3-9.23,12.51-15.85,5.2-6.61,11.44-14.57,18.66-23.78v.04s0,.04,0,.04c-6.87,8.77-13.09,16.7-18.59,23.7-4.13,5.26-7.86,9.99-11.13,14.13-4.9,6.21-8.74,11.05-11.29,14.22-2.55,3.17-3.82,4.71-3.83,4.62,0-.08.98-1.43,2.98-4.06,1.51-1.98,3.58-4.67,6.19-8.05,3.91-5.06,9.02-11.63,15.08-19.39,6.06-7.76,13.07-16.73,20.96-26.8,5.32-6.79,10.24-13.07,14.93-19.04,7.05-8.98,13.58-17.27,20.1-25.53,6.53-8.27,13.06-16.53,20.38-25.75h0c7.4-9.34,13.18-16.64,18.34-23.19,2.58-3.27,5.02-6.36,7.49-9.51,2.48-3.16,5.01-6.38,7.83-9.98,2.65-3.38,4.81-6.15,6.51-8.32,1.27-1.62,2.27-2.91,3.07-3.93,1.18-1.52,1.92-2.48,2.47-3.19.53-.7.84-1.11.84-1.14,0-.02-.25.27-.68.81-.33.41-.76.95-1.32,1.66-.85,1.08-2.07,2.62-3.93,4.99-1.85,2.35-4.32,5.5-7.44,9.49l-11.56,14.76-.04-.37,9.89-12.63c6.87-8.77,13.08-16.69,18.59-23.69,4.13-5.25,7.85-9.98,11.12-14.12,4.9-6.21,8.75-11.06,11.3-14.24,2.55-3.18,3.83-4.72,3.84-4.63"/>
            <path class="cls-4" d="m405.32,313.15c0,.09-1.12,1.6-3.19,4.31-2.08,2.72-5.09,6.61-9.05,11.71-2.64,3.4-5.72,7.35-9.22,11.84-4.68,6-10.14,12.98-16.3,20.84l-89.25,113.93v.04s0-.04,0-.04c-6.93,8.85-12.98,16.55-18.02,22.97-5.06,6.43-9.13,11.59-12.26,15.53-2.08,2.62-3.76,4.73-5.01,6.28-1.67,2.07-2.57,3.14-2.57,3.07,0-.08,1.11-1.59,3.19-4.3,2.08-2.72,5.09-6.61,9.05-11.71,2.64-3.39,5.72-7.35,9.23-11.85,4.68-5.99,10.13-12.97,16.3-20.84l20.49-26.16.02.22-22.39,28.58c-3.33,4.25-6.21,7.93-8.69,11.12-2.47,3.17-4.56,5.85-6.11,7.86-1.03,1.33-1.82,2.36-2.36,3.07-.72.95-1.02,1.36-1.02,1.39,0,.03.39-.43,1.33-1.6.94-1.17,2.45-3.07,4.46-5.61,1.34-1.69,2.87-3.64,4.59-5.83,2.29-2.91,4.89-6.23,7.85-10.01l92.81-118.48c3.33-4.24,6.22-7.94,8.72-11.15,2.5-3.2,4.61-5.92,6.19-7.96,1.05-1.36,1.87-2.42,2.43-3.15.76-.99,1.08-1.43,1.07-1.46,0-.03-.42.47-1.39,1.68-.97,1.21-2.53,3.17-4.56,5.74-1.35,1.71-2.91,3.69-4.64,5.89-2.3,2.93-4.92,6.26-7.87,10.03l-16.22,20.7-.02-.22,14.55-18.58c6.93-8.85,12.98-16.55,18.03-22.98,5.05-6.43,9.12-11.58,12.25-15.52,2.08-2.62,3.76-4.73,5.01-6.28,1.67-2.07,2.57-3.14,2.58-3.08"/>
            <path class="cls-3" d="m411.34,305.47h0c0,.08-.98,1.42-2.96,4.03-1.48,1.95-3.53,4.61-6.09,7.92-3.83,4.96-8.81,11.36-14.66,18.85-5.85,7.5-12.58,16.1-20.07,25.66l-89.25,113.93v-.04s0-.04,0-.04l89.25-113.93c6.16-7.87,11.62-14.84,16.3-20.84,3.51-4.49,6.59-8.44,9.22-11.84,3.96-5.1,6.97-8.99,9.05-11.71,2.07-2.71,3.2-4.22,3.19-4.31-.01-.06-.92,1.02-2.58,3.08-1.25,1.55-2.93,3.65-5.01,6.28-3.13,3.94-7.19,9.09-12.25,15.52-5.05,6.43-11.1,14.12-18.03,22.98l-14.55,18.58.02.22,16.22-20.7c2.95-3.77,5.57-7.1,7.87-10.03,1.73-2.2,3.29-4.18,4.64-5.89,2.03-2.58,3.59-4.53,4.56-5.74.97-1.21,1.39-1.71,1.39-1.68,0,.03-.32.47-1.07,1.46-.56.74-1.37,1.79-2.43,3.15-1.58,2.05-3.69,4.76-6.19,7.96-2.5,3.21-5.4,6.91-8.72,11.15l-92.81,118.48c-2.96,3.78-5.56,7.09-7.85,10.01-1.71,2.18-3.25,4.13-4.59,5.83-2.01,2.54-3.52,4.45-4.46,5.61-.94,1.17-1.33,1.63-1.33,1.6,0-.03.3-.44,1.02-1.39.54-.71,1.33-1.74,2.36-3.07,1.55-2,3.64-4.69,6.11-7.86,2.48-3.18,5.36-6.86,8.69-11.12l22.39-28.58-.02-.22-20.49,26.16c-6.16,7.87-11.62,14.84-16.3,20.84-3.51,4.5-6.59,8.45-9.23,11.85-3.96,5.1-6.97,8.99-9.05,11.71-2.07,2.71-3.2,4.22-3.19,4.3,0,.07.91-1.01,2.57-3.07,1.25-1.55,2.93-3.65,5.01-6.28,3.13-3.94,7.19-9.09,12.26-15.53,5.05-6.42,11.09-14.12,18.02-22.97v.04s0,.04,0,.04c-6.66,8.5-12.71,16.22-18.09,23.06-4.03,5.13-7.68,9.77-10.88,13.82-4.81,6.1-8.59,10.85-11.11,13.99-2.52,3.14-3.8,4.68-3.81,4.59,0-.08.98-1.42,2.96-4.03,1.49-1.96,3.53-4.61,6.09-7.92,3.84-4.96,8.81-11.36,14.66-18.85,5.86-7.5,12.58-16.1,20.07-25.66l26.51-33.84.04.37-28.4,36.26c-2.51,3.2-4.53,5.79-6.11,7.82-1.19,1.53-2.13,2.73-2.88,3.69-1.12,1.45-1.85,2.39-2.38,3.08-.52.68-.8,1.06-.8,1.09,0,.02.23-.25.65-.77.31-.39.73-.91,1.27-1.59.81-1.02,1.92-2.42,3.59-4.54,1.66-2.11,3.88-4.93,6.69-8.53l92.81-118.48c2.5-3.19,4.54-5.8,6.15-7.87,1.21-1.55,2.18-2.79,2.95-3.79,1.16-1.5,1.92-2.48,2.47-3.19.53-.7.83-1.1.83-1.12,0-.02-.24.27-.67.8-.33.4-.75.94-1.32,1.65-.84,1.06-1.99,2.52-3.69,4.68-1.7,2.16-3.94,5.01-6.75,8.6l-22.24,28.39-.04-.37,20.57-26.26c6.66-8.5,12.71-16.22,18.09-23.06,4.03-5.13,7.68-9.77,10.89-13.83,4.81-6.09,8.58-10.85,11.1-13.98,2.51-3.13,3.8-4.68,3.81-4.59"/>
            <path class="cls-4" d="m258.03,499.93s.41-.46,1.41-1.7c.99-1.23,2.61-3.27,4.74-5.97,1.42-1.79,3.05-3.87,4.87-6.19,2.43-3.09,5.21-6.63,8.39-10.69l90.67-115.75c3.58-4.56,6.64-8.49,9.28-11.86,2.63-3.37,4.85-6.22,6.5-8.35,1.1-1.42,1.94-2.51,2.51-3.27.77-1.01,1.08-1.45,1.08-1.47,0-.03-.41.46-1.41,1.7-.99,1.23-2.61,3.27-4.74,5.97-1.42,1.8-3.05,3.87-4.87,6.19-2.43,3.09-5.21,6.63-8.39,10.69l-90.67,115.75v.04s0-.04,0-.04c-3.58,4.56-6.64,8.49-9.28,11.86-2.63,3.37-4.85,6.22-6.5,8.35-1.1,1.42-1.94,2.51-2.51,3.27-.77,1.01-1.08,1.44-1.08,1.47m147.17-187.87c0,.09-1.13,1.61-3.23,4.36-2.11,2.76-5.16,6.71-9.21,11.92-2.7,3.47-5.85,7.51-9.45,12.14-4.81,6.16-10.44,13.36-16.83,21.52l-87.35,111.51v.04s0-.04,0-.04c-7.19,9.18-13.42,17.12-18.61,23.71-5.19,6.6-9.34,11.85-12.52,15.86-2.12,2.68-3.82,4.8-5.08,6.37-1.69,2.09-2.59,3.18-2.6,3.1,0-.08,1.12-1.61,3.22-4.35,2.11-2.76,5.16-6.71,9.21-11.92,2.7-3.47,5.85-7.51,9.45-12.14,4.81-6.16,10.44-13.36,16.83-21.52l87.35-111.51c7.2-9.19,13.42-17.12,18.61-23.71,5.19-6.6,9.34-11.85,12.52-15.86,2.12-2.68,3.82-4.8,5.09-6.38,1.68-2.08,2.59-3.18,2.6-3.1"/>
            <path class="cls-3" d="m387.48,334.68s-.31.46-1.08,1.47c-.57.75-1.41,1.84-2.51,3.27-1.65,2.13-3.86,4.98-6.5,8.35-2.63,3.37-5.7,7.3-9.28,11.86l-90.67,115.75c-3.18,4.05-5.95,7.59-8.39,10.69-1.82,2.32-3.46,4.39-4.87,6.19-2.14,2.71-3.75,4.74-4.74,5.97-1,1.24-1.41,1.73-1.41,1.7,0-.03.31-.46,1.08-1.47.57-.75,1.41-1.84,2.51-3.27,1.65-2.13,3.86-4.98,6.5-8.35,2.63-3.37,5.7-7.3,9.28-11.86v.04s0,.04,0,.04c-2.76,3.52-5,6.38-6.75,8.63-1.31,1.68-2.36,3.02-3.17,4.07-1.23,1.58-2.01,2.59-2.58,3.33-.55.72-.86,1.13-.85,1.16,0,.02.25-.27.69-.82.34-.42.78-.97,1.36-1.71.88-1.1,2.09-2.65,3.94-4.99,1.84-2.33,4.29-5.46,7.39-9.42l90.67-115.75c2.76-3.53,5-6.38,6.75-8.63,1.32-1.69,2.36-3.02,3.18-4.08,1.22-1.58,2-2.58,2.57-3.32.55-.72.86-1.13.85-1.16,0-.02-.25.27-.69.82-.34.42-.78.97-1.36,1.71-.87,1.1-2.09,2.65-3.94,4.99-1.84,2.33-4.28,5.45-7.39,9.42l-90.67,115.75v-.04s0-.04,0-.04l90.67-115.75c3.18-4.05,5.95-7.59,8.39-10.69,1.82-2.32,3.46-4.39,4.87-6.19,2.14-2.71,3.75-4.74,4.74-5.97,1-1.24,1.41-1.73,1.41-1.7m23.74-30.3c0,.08-.98,1.43-2.97,4.04-1.5,1.97-3.56,4.65-6.15,8-3.88,5.02-8.94,11.53-14.93,19.21-6,7.69-12.92,16.54-20.68,26.44l-87.35,111.51v-.04s0-.04,0-.04l87.35-111.51c6.39-8.16,12.03-15.36,16.83-21.52,3.61-4.62,6.75-8.66,9.45-12.14,4.05-5.21,7.1-9.16,9.21-11.92,2.1-2.75,3.23-4.27,3.23-4.36,0-.07-.92,1.02-2.6,3.1-1.27,1.58-2.97,3.7-5.09,6.38-3.18,4.01-7.33,9.26-12.52,15.86-5.18,6.59-11.41,14.52-18.61,23.71l-87.35,111.51c-6.39,8.16-12.03,15.36-16.83,21.52-3.61,4.62-6.75,8.66-9.45,12.14-4.05,5.21-7.1,9.16-9.21,11.92-2.1,2.75-3.23,4.27-3.22,4.35,0,.07.92-1.01,2.6-3.1,1.26-1.57,2.96-3.69,5.08-6.37,3.18-4.01,7.33-9.26,12.52-15.86,5.18-6.59,11.42-14.53,18.61-23.71v.04s0,.04,0,.04c-6.89,8.8-13.13,16.75-18.65,23.77-4.13,5.26-7.87,10-11.13,14.13-4.89,6.2-8.71,11-11.24,14.15-2.54,3.16-3.81,4.69-3.82,4.6,0-.08.98-1.43,2.97-4.04,1.5-1.97,3.56-4.65,6.15-8,3.88-5.02,8.94-11.53,14.93-19.21,6-7.69,12.92-16.54,20.68-26.44l87.35-111.51c6.89-8.8,13.13-16.75,18.65-23.77,4.13-5.26,7.87-10,11.13-14.13,4.89-6.2,8.71-11,11.24-14.15,2.54-3.16,3.81-4.69,3.82-4.6"/>
            <polyline class="cls-4" points="402.64 313.48 402.67 313.68 303.21 440.64 303.22 440.72 402.71 314.07 402.75 314.39 242.6 518.82 242.58 518.61 363.88 363.77 363.87 363.7 242.53 518.16 242.5 517.9 402.64 313.48"/>
            <path class="cls-3" d="m303.22,440.72v-.07s99.45-126.96,99.45-126.96l-.02-.2-160.14,204.42.03.26,121.34-154.46v.07s-121.29,154.84-121.29,154.84l.02.2,160.14-204.42-.04-.33-99.49,126.65m105.44-135l.04.36-79.17,101.06,79.2-100.82.05.46-3.01,3.84v-.04s0,.04,0,.04l-169.18,215.96-.04-.36,101.29-129.3-101.33,128.98-.04-.39,172.18-219.79"/>
            <polyline class="cls-4" points="402.51 312.28 402.53 312.49 303.08 439.45 303.08 439.52 402.58 312.87 402.61 313.2 242.47 517.62 242.45 517.42 363.74 362.58 363.74 362.51 242.39 516.96 242.37 516.71 402.51 312.28"/>
            <path class="cls-3" d="m303.08,439.52v-.07s99.45-126.96,99.45-126.96l-.02-.2-160.14,204.42.03.26,121.34-154.46v.07s-121.29,154.84-121.29,154.84l.02.2,160.14-204.42-.04-.33-99.49,126.65m105.44-135l.04.36-79.2,101.1,79.23-100.85.05.46-3.01,3.84v-.04s0,.04,0,.04l-169.18,215.96-.04-.36,101.27-129.27-101.3,128.95-.04-.39,172.18-219.79"/>
            <polyline class="cls-4" points="402.39 311.22 402.48 312 242.33 516.43 242.25 515.64 259.96 493.03 260.02 493.57 317.08 420.74 317.03 420.31 334.75 397.69 334.8 398.12 384.73 334.38 384.67 333.83 402.39 311.22"/>
            <path class="cls-3" d="m402.48,312l-.09-.78-17.72,22.61.06.54-49.94,63.75-.05-.43-17.72,22.61.05.43-57.06,72.83-.06-.54-17.72,22.61.09.78,160.14-204.42m5.92-8.55l.11.94-3.01,3.84v-.04s0,.04,0,.04l-169.18,215.96-.11-.94,29.76-37.99.06.54,45.01-57.46-.05-.43,29.76-37.99.05.43,37.9-48.38-.06-.54,29.76-37.99"/>
            <path class="cls-4" d="m404.69,307.55c0,.09-1.12,1.6-3.19,4.31-2.08,2.72-5.09,6.61-9.05,11.71-2.64,3.4-5.72,7.35-9.22,11.84-4.68,6-10.14,12.98-16.3,20.84l-89.25,113.93v.04s0-.04,0-.04c-6.93,8.85-12.98,16.55-18.02,22.97-5.06,6.43-9.13,11.59-12.26,15.53-2.08,2.62-3.76,4.73-5.01,6.28-1.67,2.07-2.57,3.14-2.57,3.07,0-.08,1.11-1.59,3.19-4.3,2.08-2.72,5.09-6.61,9.05-11.71,2.64-3.39,5.72-7.35,9.23-11.85,4.68-5.99,10.13-12.97,16.3-20.84l20.49-26.16.02.22-22.39,28.58c-3.33,4.25-6.21,7.93-8.69,11.12-2.47,3.17-4.56,5.85-6.11,7.86-1.03,1.33-1.82,2.36-2.36,3.07-.72.95-1.02,1.37-1.02,1.39,0,.03.39-.43,1.33-1.6.94-1.17,2.45-3.07,4.46-5.61,1.34-1.69,2.87-3.64,4.59-5.83,2.29-2.91,4.89-6.23,7.85-10.01l92.81-118.48c3.33-4.24,6.22-7.94,8.72-11.15,2.5-3.2,4.61-5.92,6.19-7.96,1.05-1.36,1.87-2.42,2.43-3.15.76-.99,1.08-1.43,1.07-1.46,0-.03-.42.47-1.39,1.68-.97,1.21-2.53,3.17-4.56,5.74-1.35,1.71-2.91,3.69-4.64,5.89-2.3,2.93-4.92,6.26-7.87,10.03l-16.22,20.7-.02-.22,14.55-18.58c6.93-8.85,12.98-16.55,18.03-22.98,5.05-6.43,9.12-11.58,12.25-15.52,2.08-2.62,3.76-4.73,5.01-6.28,1.67-2.07,2.57-3.14,2.58-3.08"/>
            <path class="cls-3" d="m410.71,299.87h0c0,.08-.98,1.42-2.96,4.03-1.48,1.95-3.53,4.61-6.09,7.92-3.83,4.96-8.81,11.36-14.66,18.85-5.85,7.5-12.58,16.1-20.07,25.66l-89.25,113.93v-.04s0-.04,0-.04l89.25-113.93c6.16-7.87,11.62-14.84,16.3-20.84,3.51-4.49,6.59-8.44,9.22-11.84,3.96-5.1,6.97-8.99,9.05-11.71,2.07-2.71,3.2-4.22,3.19-4.31-.01-.06-.92,1.02-2.58,3.08-1.25,1.55-2.93,3.65-5.01,6.28-3.13,3.94-7.19,9.09-12.25,15.52-5.05,6.43-11.1,14.12-18.03,22.98l-14.55,18.58.02.22,16.22-20.7c2.95-3.77,5.57-7.1,7.87-10.03,1.73-2.2,3.29-4.18,4.64-5.89,2.03-2.58,3.59-4.53,4.56-5.74.97-1.21,1.39-1.71,1.39-1.68,0,.03-.32.47-1.07,1.46-.56.74-1.37,1.79-2.43,3.15-1.58,2.05-3.69,4.76-6.19,7.96-2.5,3.21-5.4,6.91-8.72,11.15l-92.81,118.48c-2.96,3.78-5.56,7.09-7.85,10.01-1.71,2.18-3.25,4.13-4.59,5.83-2.01,2.54-3.52,4.45-4.46,5.61-.94,1.17-1.33,1.63-1.33,1.6,0-.03.3-.44,1.02-1.39.54-.71,1.33-1.74,2.36-3.07,1.55-2,3.64-4.69,6.11-7.86,2.48-3.18,5.36-6.86,8.69-11.12l22.39-28.58-.02-.22-20.49,26.16c-6.16,7.87-11.62,14.84-16.3,20.84-3.51,4.5-6.59,8.45-9.23,11.85-3.96,5.1-6.97,8.99-9.05,11.71-2.07,2.71-3.2,4.22-3.19,4.3,0,.07.91-1.01,2.57-3.07,1.25-1.55,2.93-3.65,5.01-6.28,3.13-3.94,7.19-9.09,12.26-15.53,5.05-6.42,11.09-14.12,18.02-22.97v.04s0,.04,0,.04c-6.66,8.5-12.71,16.22-18.09,23.06-4.03,5.13-7.68,9.77-10.88,13.82-4.81,6.1-8.59,10.85-11.11,13.99-2.52,3.14-3.8,4.68-3.81,4.59,0-.08.98-1.42,2.96-4.03,1.49-1.96,3.53-4.61,6.09-7.92,3.84-4.96,8.81-11.36,14.66-18.85,5.86-7.5,12.58-16.1,20.07-25.66l26.51-33.84.04.37-28.4,36.26c-2.51,3.2-4.53,5.79-6.11,7.82-1.19,1.53-2.13,2.73-2.88,3.69-1.12,1.45-1.85,2.39-2.38,3.08-.52.68-.8,1.06-.8,1.09,0,.02.23-.25.65-.77.31-.39.73-.91,1.27-1.59.81-1.02,1.92-2.42,3.59-4.54,1.66-2.11,3.88-4.93,6.69-8.53l92.81-118.48c2.5-3.19,4.54-5.8,6.15-7.87,1.21-1.55,2.18-2.79,2.95-3.79,1.16-1.5,1.92-2.48,2.47-3.19.53-.7.83-1.1.83-1.12,0-.02-.24.27-.67.8-.33.4-.75.94-1.32,1.65-.84,1.06-1.99,2.52-3.69,4.68-1.7,2.16-3.94,5.01-6.75,8.6l-22.24,28.39-.04-.37,20.57-26.26c6.66-8.5,12.71-16.22,18.09-23.06,4.03-5.13,7.68-9.77,10.89-13.83,4.81-6.09,8.58-10.85,11.1-13.98,2.51-3.13,3.8-4.68,3.81-4.59"/>
            <polyline class="cls-4" points="402.15 309.11 402.25 310 384.54 332.62 384.5 332.33 384.5 332.29 242.07 514.1 242.05 513.86 384.47 332.05 384.44 331.72 402.15 309.11"/>
            <path class="cls-3" d="m381.49,336.21v-.04s0,.04,0,.04m3.04-3.59l17.72-22.61-.1-.9-17.72,22.61.04.33-142.43,181.81.03.24,142.43-181.81v.04s.04.29.04.29m23.63-31.27l.12,1.05-29.76,37.99-.04-.33-142.43,181.81-.04-.39,142.43-181.81-.04-.33,29.76-37.99"/>
            <path class="cls-4" d="m130.38,664.3l57.06-72.83-.02-.19s-.19.2-.67.78-1.26,1.56-2.4,2.99c-.76.96-1.67,2.11-2.7,3.41-1.38,1.74-2.96,3.75-4.72,6-2.36,3-5.06,6.45-8.21,10.47l-19.71,25.16c-2.65,3.39-4.99,6.37-7.08,9.04-2.08,2.66-3.91,5.01-5.5,7.05-1.06,1.36-1.99,2.56-2.78,3.58-1.06,1.36-1.83,2.37-2.34,3.05-.69.92-.95,1.27-.95,1.3l.02.19m74.75-95.63l.05.43-160.14,204.42-.03-.24,67.65-86.35-.02-.19c0-.08,1.08-1.56,3.1-4.2,2.03-2.65,4.96-6.45,8.89-11.51,2.62-3.37,5.7-7.32,9.26-11.88,4.74-6.08,10.34-13.24,16.76-21.43l16.38-20.9c7.22-9.22,13.41-17.1,18.51-23.59,5.11-6.5,9.13-11.59,12.19-15.45,2.05-2.58,3.68-4.63,4.9-6.14,1.62-2,2.49-3.05,2.5-2.97"/>
            <path class="cls-3" d="m136.4,656.54l45.01-57.46v-.11s-.23.24-.62.72c-.3.37-.67.84-1.17,1.46-.38.48-.83,1.04-1.41,1.78-.87,1.1-2.05,2.6-3.62,4.6-1.56,1.99-3.52,4.48-5.87,7.48l-19.71,25.16c-2.78,3.55-5,6.39-6.7,8.56-1.27,1.62-2.23,2.86-2.97,3.81-.55.7-.97,1.25-1.33,1.72-.53.69-.93,1.2-1.21,1.58s-.43.58-.43.6c0,0,0,0,0,0v.11m51.04-65.26l.02.19-57.06,72.83-.02-.19s.25-.38.95-1.3c.51-.68,1.29-1.69,2.34-3.05.79-1.02,1.72-2.23,2.78-3.58,1.59-2.04,3.42-4.39,5.5-7.05,2.09-2.67,4.42-5.65,7.08-9.04l19.71-25.16c3.15-4.02,5.85-7.47,8.21-10.47,1.77-2.25,3.35-4.26,4.72-6,1.03-1.31,1.94-2.45,2.7-3.41,1.14-1.43,1.92-2.41,2.4-2.99s.66-.79.67-.78m17.76-22.19l-.05-.43c0-.08-.88.97-2.5,2.97-1.22,1.51-2.85,3.56-4.9,6.14-3.07,3.86-7.09,8.96-12.19,15.45-5.1,6.49-11.29,14.38-18.51,23.59l-16.38,20.9c-6.42,8.2-12.02,15.35-16.76,21.43-3.56,4.56-6.64,8.51-9.26,11.88-3.93,5.06-6.87,8.85-8.89,11.51-2.02,2.64-3.11,4.11-3.1,4.2l.02.19-67.65,86.35.03.24,160.14-204.42m5.97-8.11l.06.5-3.01,3.85v-.04s0,.04,0,.04l-169.17,215.95-.04-.39,67.65-86.36v-.11c-.02-.08.91-1.36,2.83-3.89,1.44-1.9,3.44-4.5,5.98-7.78,3.8-4.91,8.78-11.32,14.69-18.89,5.92-7.58,12.77-16.34,20.5-26.22l16.38-20.9c6.88-8.78,13.06-16.66,18.51-23.59,4.09-5.2,7.76-9.86,10.96-13.92,4.81-6.1,8.54-10.79,10.99-13.84,2.46-3.06,3.67-4.51,3.68-4.42"/>
            <polyline class="cls-4" points="204.94 566.97 205.03 567.76 44.89 772.18 44.8 771.4 62.52 748.78 62.58 749.33 119.63 676.49 119.59 676.06 137.3 653.45 137.35 653.88 187.29 590.13 187.23 589.59 204.94 566.97"/>
            <path class="cls-3" d="m205.03,567.76l-.09-.78-17.72,22.62.06.54-49.94,63.75-.05-.43-17.72,22.61.05.43-57.06,72.83-.06-.54-17.72,22.61.09.78,160.14-204.42m5.92-8.55l.11.94-3.01,3.85v-.04s0,.04,0,.04l-169.17,215.95-.11-.94,29.76-37.99.06.54,45.02-57.46-.05-.43,29.76-37.99.05.43,37.9-48.38-.06-.54,29.76-37.99"/>
            <path class="cls-4" d="m60.05,750.9s.41-.45,1.41-1.7c.99-1.23,2.61-3.27,4.74-5.97,1.42-1.8,3.05-3.87,4.87-6.19,2.43-3.09,5.21-6.63,8.39-10.69l90.67-115.75c3.58-4.56,6.64-8.48,9.28-11.86,2.63-3.36,4.85-6.22,6.5-8.35,1.1-1.42,1.94-2.51,2.51-3.27.77-1.01,1.08-1.44,1.08-1.47,0-.03-.41.46-1.41,1.7-.99,1.23-2.61,3.28-4.74,5.97-1.42,1.79-3.05,3.87-4.87,6.19-2.43,3.09-5.21,6.64-8.39,10.69l-90.67,115.75v.04s0-.04,0-.04c-3.58,4.56-6.64,8.49-9.28,11.86-2.63,3.37-4.85,6.22-6.5,8.35-1.1,1.42-1.94,2.51-2.51,3.27-.77,1.01-1.08,1.45-1.08,1.47m147.17-187.86c0,.08-1.12,1.61-3.22,4.35-2.11,2.76-5.16,6.71-9.21,11.92-2.7,3.47-5.85,7.51-9.45,12.13-4.81,6.16-10.44,13.36-16.83,21.52l-87.35,111.51v.04s0-.04,0-.04c-7.2,9.19-13.42,17.12-18.61,23.71-5.19,6.6-9.34,11.85-12.52,15.86-2.12,2.68-3.82,4.8-5.09,6.38-1.69,2.09-2.59,3.18-2.6,3.1,0-.08,1.13-1.61,3.23-4.36,2.11-2.76,5.16-6.71,9.21-11.92,2.7-3.47,5.85-7.51,9.45-12.14,4.81-6.16,10.43-13.35,16.83-21.52l87.35-111.51c7.19-9.18,13.42-17.12,18.61-23.71,5.19-6.6,9.34-11.85,12.52-15.86,2.12-2.68,3.82-4.8,5.08-6.37,1.69-2.09,2.59-3.18,2.6-3.1"/>
            <path class="cls-3" d="m189.5,585.66s-.31.46-1.08,1.47c-.57.75-1.41,1.84-2.51,3.27-1.65,2.13-3.87,4.99-6.5,8.35-2.64,3.38-5.7,7.3-9.28,11.86l-90.67,115.75c-3.18,4.05-5.95,7.59-8.39,10.69-1.82,2.32-3.46,4.39-4.87,6.19-2.14,2.71-3.75,4.74-4.74,5.97-1.01,1.25-1.41,1.73-1.41,1.7,0-.03.31-.46,1.08-1.47.57-.75,1.41-1.84,2.51-3.27,1.65-2.13,3.86-4.98,6.5-8.35,2.63-3.37,5.7-7.3,9.28-11.86v.04s0,.04,0,.04c-2.76,3.53-5,6.39-6.75,8.63-1.32,1.69-2.36,3.02-3.18,4.08-1.22,1.58-2,2.58-2.57,3.32-.55.72-.86,1.14-.86,1.17,0,.02.25-.27.7-.83.34-.42.78-.97,1.36-1.71.87-1.09,2.09-2.65,3.94-4.99,1.84-2.34,4.28-5.45,7.39-9.42l90.67-115.75c2.76-3.52,5-6.38,6.75-8.63,1.31-1.68,2.36-3.02,3.17-4.07,1.23-1.58,2.01-2.59,2.57-3.32s.86-1.14.86-1.17c0-.02-.25.27-.7.83-.33.41-.77.97-1.36,1.7-.88,1.1-2.09,2.65-3.94,4.99-1.84,2.34-4.29,5.46-7.39,9.42l-90.67,115.75v-.04s0-.04,0-.04l90.67-115.75c3.18-4.05,5.95-7.59,8.39-10.69,1.82-2.32,3.46-4.39,4.87-6.19,2.13-2.7,3.75-4.74,4.74-5.97,1-1.24,1.41-1.73,1.41-1.7m23.74-30.3c0,.08-.98,1.43-2.98,4.05-1.49,1.96-3.55,4.64-6.14,7.99-3.88,5.02-8.94,11.53-14.93,19.21-6,7.69-12.92,16.54-20.68,26.44l-87.35,111.51v-.04s0-.04,0-.04l87.35-111.51c6.39-8.16,12.03-15.36,16.83-21.52,3.61-4.62,6.75-8.66,9.45-12.13,4.05-5.21,7.1-9.16,9.21-11.92,2.1-2.75,3.23-4.27,3.22-4.35,0-.07-.92,1.01-2.6,3.1-1.26,1.57-2.96,3.69-5.08,6.37-3.18,4.01-7.33,9.26-12.52,15.86-5.18,6.59-11.42,14.53-18.61,23.71l-87.35,111.51c-6.4,8.17-12.03,15.36-16.83,21.52-3.61,4.62-6.75,8.66-9.45,12.14-4.05,5.21-7.1,9.16-9.21,11.92-2.1,2.75-3.24,4.28-3.23,4.36,0,.07.92-1.01,2.6-3.1,1.27-1.58,2.97-3.7,5.09-6.38,3.18-4.01,7.33-9.26,12.52-15.86,5.18-6.59,11.41-14.52,18.61-23.71v.04s0,.04,0,.04c-6.9,8.81-13.14,16.76-18.65,23.77-4.13,5.26-7.87,10-11.13,14.13-4.89,6.2-8.71,11-11.24,14.15-2.54,3.16-3.82,4.7-3.83,4.61,0-.08.98-1.43,2.98-4.05,1.49-1.96,3.55-4.64,6.15-8,3.88-5.02,8.94-11.53,14.93-19.21,5.99-7.68,12.92-16.54,20.68-26.44l87.35-111.51c6.89-8.8,13.13-16.75,18.65-23.77,4.13-5.26,7.86-9.99,11.13-14.13,4.89-6.2,8.71-11,11.24-14.15,2.54-3.16,3.81-4.69,3.82-4.6"/>
            <path class="cls-4" d="m129.94,660.32l57.06-72.83-.02-.19s-.19.2-.67.78-1.26,1.56-2.4,2.99c-.76.96-1.67,2.11-2.7,3.41-1.38,1.74-2.96,3.75-4.72,6-2.36,3-5.06,6.45-8.21,10.47l-19.71,25.16c-2.65,3.39-4.99,6.37-7.08,9.04-2.08,2.66-3.91,5.01-5.5,7.05-1.06,1.36-1.99,2.56-2.78,3.58-1.06,1.36-1.83,2.37-2.34,3.05-.69.92-.95,1.27-.95,1.3l.02.19m74.75-95.63l.05.43-160.14,204.42-.03-.24,67.65-86.35-.02-.19c0-.08,1.08-1.56,3.1-4.2,2.03-2.65,4.96-6.45,8.89-11.51,2.62-3.37,5.7-7.32,9.26-11.88,4.74-6.08,10.34-13.24,16.76-21.43l16.38-20.9c7.22-9.22,13.41-17.1,18.51-23.59,5.11-6.5,9.13-11.59,12.19-15.45,2.05-2.58,3.68-4.63,4.9-6.14,1.62-2,2.49-3.05,2.5-2.97"/>
            <path class="cls-3" d="m135.95,652.56l45.01-57.46v-.11s-.23.24-.62.72c-.3.37-.67.84-1.17,1.46-.38.48-.83,1.04-1.41,1.78-.87,1.1-2.05,2.6-3.62,4.6-1.56,1.99-3.52,4.48-5.87,7.48l-19.71,25.16c-2.78,3.55-5,6.39-6.7,8.56-1.27,1.62-2.23,2.86-2.97,3.81-.55.7-.97,1.25-1.33,1.72-.53.69-.93,1.2-1.21,1.58s-.43.58-.43.6c0,0,0,0,0,0v.11m51.04-65.26l.02.19-57.06,72.83-.02-.19s.25-.38.95-1.3c.51-.68,1.29-1.69,2.34-3.05.79-1.02,1.72-2.23,2.78-3.58,1.59-2.04,3.42-4.39,5.5-7.05,2.09-2.67,4.42-5.65,7.08-9.04l19.71-25.16c3.15-4.02,5.85-7.47,8.21-10.47,1.77-2.25,3.35-4.26,4.72-6,1.03-1.31,1.94-2.45,2.7-3.41,1.14-1.43,1.92-2.41,2.4-2.99s.66-.79.67-.78m17.76-22.19l-.05-.43c0-.08-.88.97-2.5,2.97-1.22,1.51-2.85,3.56-4.9,6.14-3.07,3.86-7.09,8.96-12.19,15.45-5.1,6.49-11.29,14.38-18.51,23.59l-16.38,20.9c-6.42,8.2-12.02,15.35-16.76,21.43-3.56,4.56-6.64,8.51-9.26,11.88-3.93,5.06-6.87,8.85-8.89,11.51-2.02,2.64-3.11,4.11-3.1,4.2l.02.19-67.65,86.35.03.24,160.14-204.42m5.97-8.11l.06.5-3.01,3.85v-.04s0,.04,0,.04l-169.17,215.95-.04-.39,67.65-86.36v-.11c-.02-.08.91-1.36,2.83-3.89,1.44-1.9,3.44-4.5,5.98-7.78,3.8-4.91,8.78-11.32,14.69-18.89,5.92-7.58,12.77-16.34,20.5-26.22l16.38-20.9c6.88-8.78,13.06-16.66,18.51-23.59,4.09-5.2,7.76-9.86,10.96-13.92,4.81-6.1,8.54-10.79,10.99-13.84,2.46-3.06,3.67-4.51,3.68-4.42"/>
            <polyline class="cls-4" points="204.56 563.53 204.58 563.77 44.44 768.2 44.36 767.44 62.07 744.82 62.13 745.34 204.56 563.53"/>
            <path class="cls-3" d="m204.58,563.77l-.03-.24-142.43,181.81-.06-.52-17.72,22.61.09.76,160.14-204.42m5.99-8l.04.39-3.01,3.85v-.04s0,.04,0,.04l-169.17,215.95-.1-.91,29.76-37.99.06.52,142.43-181.81"/>
            <polyline class="cls-4" points="204.36 561.77 204.45 562.56 44.3 766.98 44.22 766.2 61.93 743.58 61.99 744.13 119.05 671.3 119 670.86 136.72 648.25 136.77 648.68 186.7 584.93 186.64 584.39 204.36 561.77"/>
            <path class="cls-3" d="m204.45,562.56l-.09-.78-17.72,22.62.06.54-49.94,63.75-.05-.43-17.72,22.61.05.43-57.06,72.83-.06-.54-17.72,22.61.09.78,160.14-204.42m5.92-8.55l.11.94-3.01,3.85v-.04s0,.04,0,.04l-169.17,215.95-.11-.94,29.76-37.99.06.54,45.02-57.46-.05-.43,29.76-37.99.05.43,37.9-48.38-.06-.54,29.76-37.99"/>
          </g>
        </g>
      </g>
      <g class="cls-6">
        <g class="cls-5">
          <g>
            <path class="cls-4" d="m732.7,107.03c-50.91-28.88-127.42.88-99.32,105.25,29.91,107.67-48.77,82.09-49.63,81.58-9.05-5.3-21.72-17.44-4.89-39.26l8.38-10.7c-8.93-5.61-17.85-11.08-27.75-16.29l-6.49,8.28c-1.71-.9-3.45-1.79-5.23-2.68,1.78.88,3.52,1.78,5.23,2.68-44.43,57.72,18.58,97.6,66.1,91.16,37.66-5.1,58.59-31.94,64.4-45.42,7.7-17.88,4.45-26.25-13.53-72.72-24.55-64.81,17.19-91.68,40.64-81.47,12.25,5.34,30.16,17.75,12.38,40.9l-5.54,7.07c11.3,4.97,24.1,9.65,39.22,13.83l3.87-4.95c8.9-11.63,32.55-42.51-27.83-77.27"/>
            <path class="cls-3" d="m738.73,99.35c-58.7-33.38-147.52-2.09-115.85,114.79h0c21.97,83.01-27.1,75.54-33.1,72.05-10.59-6.16-11.13-13.66-1.87-25.89l14.4-18.39c-1.7-1.06-3.38-2.12-5.06-3.18-13.38-8.42-26.38-16.61-42.38-24.09l-12.51,15.97c1.85.86,3.65,1.74,5.42,2.62s3.52,1.78,5.23,2.68l6.49-8.28c9.91,5.21,18.82,10.69,27.75,16.29l-8.38,10.7c-23.55,31,10.68,46.29,26.92,44.16,33.04-4.34,42.33-33.45,27.6-86.5-27.82-103.25,49.56-133.89,99.33-105.24,60.38,34.76,36.74,65.64,27.83,77.27l-3.87,4.95c-15.12-4.17-27.92-8.85-39.22-13.83l5.54-7.07c23.57-31.19-16.6-45.04-27.93-43.4-.54.08-51.76,13.46-25.08,83.98,20.42,52.67,24.67,63.63,2.38,89.64-23.78,27.76-65.06,37.07-98.16,22.14-10.72-4.83-62.11-31.65-21.19-84.82-1.71-.9-3.45-1.79-5.23-2.68s-3.58-1.75-5.42-2.62c-47.01,61.11,18.48,113.89,81.61,105.32,42.22-5.73,67.38-30.56,76.11-50.08,8.17-18.28,6.67-21.71-18.44-78.94-23.93-56.47,10.23-76.89,23.94-71.24,20.56,8.48,11.23,20.81,6.22,27.44l-11.56,14.76c17.15,8.53,37.64,16.44,65.16,22.8.58.13,1.16.27,1.74.4l9.89-12.63c8.8-11.5,35.57-46.49-38.3-89.08"/>
            <path class="cls-4" d="m834.14,238.9l57.06-72.83c.32-.07.64-.13.96-.2,6.54-1.36,12.97-2.7,19.88-3.69,11.97-1.64,20.92,3,6.73,21.51-.17.23-.41.52-.58.75l-19.7,25.15c-7.3,9.24-19.75,21.92-43.51,25.43-6.91.99-13.34,2.33-19.88,3.69-.32.07-.64.13-.96.2m95.61-99.34c-6.91.99-13.34,2.33-19.88,3.69-8.69,1.81-17.49,3.63-27.67,4.64l-160.14,204.42c9.8-.97,18.33-2.7,26.7-4.44l67.65-86.36c.32-.07.64-.13.96-.2,6.54-1.36,12.97-2.7,19.88-3.69,57.42-8.39,84.84-20.17,104.76-45.04l16.38-20.91c27.29-35.74,1.44-56.26-28.65-52.12"/>
            <path class="cls-3" d="m848.52,229.5l45.02-57.46c4.07-.81,8.18-1.56,12.48-2.18,7.12-.97,12.98-.11,2.51,13.65-.25.33-.6.77-.85,1.1l-19.7,25.15c-11.2,14.22-18.84,16.37-26.98,17.57-4.3.62-8.41,1.37-12.48,2.18m63.52-67.32c-6.91.99-13.34,2.33-19.88,3.69-.32.07-.64.13-.96.2l-57.06,72.83c.32-.07.64-.13.96-.2,6.54-1.36,12.97-2.7,19.88-3.69,23.76-3.51,36.21-16.19,43.51-25.43l19.7-25.15c19.34-24.94-3.03-22.67-5.64-22.32-.15.02-.36.05-.51.07m-29.83-14.29c10.18-1,18.98-2.83,27.67-4.64,6.54-1.36,12.97-2.7,19.88-3.69,33.54-4.42,53.76,19.23,28.65,52.12l-16.38,20.91c-19.92,24.86-47.33,36.65-104.76,45.04-6.91.99-13.34,2.33-19.88,3.69-.32.07-.64.13-.96.2l-67.65,86.36c-8.38,1.74-16.9,3.47-26.7,4.44l160.14-204.42m53.56-16.01c-6.91.99-13.34,2.33-19.88,3.69-11.37,2.36-22.92,4.76-37.51,5.3l-3.01,3.84c1.72-.06,3.4-.15,5.04-.27-1.64.11-3.32.2-5.04.27l-169.17,215.95c14.59-.54,26.14-2.94,37.51-5.3,2.47-.51,4.92-1.02,7.39-1.51l67.65-86.35c4.07-.81,8.18-1.56,12.48-2.18,77.44-11.25,106.02-22.21,127.44-48.85l16.38-20.91c29.85-39-3.19-68.6-39.29-63.67"/>
            <path class="cls-4" d="m984.37,388.31c-11.16-6.39-21.08-18.42-4.93-39.42l90.68-115.75c26.89-33.65,58.39-4.01,60.04,9.52,1.05,8.62-4.83,16.25-7.04,19.13l-90.68,115.75c-2.03-.84-4-1.69-5.94-2.55,1.93.86,3.91,1.71,5.94,2.55-15.34,19.2-34.88,18.15-48.06,10.77m147.17-187.87c-15-8.27-54.85-30.25-92.57,17.12l-87.36,111.51c-1.67-.91-3.37-1.81-5.1-2.71,1.73.89,3.43,1.8,5.1,2.71-44.77,58.26,21.11,98.46,70.08,91.95,16.35-2.17,39.52-9.35,57.09-31.21l87.36-111.51c8.54-11.23,31.23-41.07-34.6-77.86"/>
            <path class="cls-3" d="m1113.83,223.05c-17.21-9.33-30.69-6.22-43.71,10.08l-90.68,115.75c-24.45,31.79,10.65,46.41,27.81,44.11,14.37-1.92,22.51-12.12,25.19-15.46-2.03-.84-4-1.69-5.94-2.55s-3.83-1.73-5.69-2.61c-19.13,23.73-38.07,5.06-38.97-1.89-.83-6.44,4.72-13.64,6.54-16.01l90.68-115.75c20.21-25.05,37.77-1.04,38.34,2.84.92,6.23-4.22,12.88-5.91,15.06l-90.68,115.75c1.85.88,3.75,1.75,5.69,2.61s3.91,1.71,5.94,2.55l90.68-115.75c11.97-15.55,8.85-28.58-9.28-38.73m23.74-30.3c-42.96-23.75-79.62-17.21-108.96,19.44l-87.36,111.51c1.79.88,3.55,1.76,5.27,2.65s3.43,1.8,5.1,2.71l87.36-111.51c54.61-68.58,133.89,1.62,137.59,30.56,1.8,14.12-6.76,25.38-10.42,30.19l-87.36,111.51c-44.35,55.16-137.12,33.08-142.19-19.18-1.9-19.54,10.84-36.12,15.03-41.56-1.67-.91-3.37-1.81-5.1-2.71s-3.48-1.78-5.27-2.65c-45.74,59.53,13.8,115.74,85.74,106.08,43.9-5.9,62.33-28.81,68.39-36.34l87.36-111.51c10.24-13.39,34.23-44.74-45.17-89.18"/>
            <path class="cls-4" d="m1241.04,323.94l53.49-68.29c6.66-1.32,13.44-2.5,20.95-3.18,11.03-.92,25.12,3.45,7.94,25.63l-12.82,16.36c-7.74,9.73-21.57,23.07-52.11,26.65-6.14.7-11.84,1.71-17.45,2.82m93.36-94.19h-.13c-10.7.91-19.89,2.82-29.3,4.78-6.05,1.26-12.15,2.52-18.73,3.52l-160.14,204.42c6.58-.99,12.68-2.26,18.73-3.52,2.43-.51,4.85-1.01,7.28-1.49l71.22-90.91c5.4-1.07,10.88-2.05,16.76-2.74,8.2-.86,33.12-1.27,9.26,29.48l-30.39,38.79c-10.54,13.5-13.01,18.01-14.32,22.5,9.96,1,21.33,2.88,34.68,5.96,4.62,1.07,9.02,2.17,13.22,3.32,1.88-7.77,5.55-13.37,13.07-23l29.2-37.28c18.49-23.9,16.78-40.27-5.08-48.63l-3.93-1.41,4.65-5.93c30-3.28,52.74-7.45,72.12-31.44l10.21-13.04c28.37-37.14-8.73-55.66-38.39-53.37"/>
            <path class="cls-3" d="m1255.59,314.69l41.45-52.91c3.98-.66,8.08-1.22,12.42-1.62,7.22-.59,15.31.56,2.25,17.37l-12.82,16.36c-11.33,14.29-21.19,17.98-34.38,19.54-3.07.35-6.03.78-8.92,1.26m59.89-62.22c-7.5.68-14.28,1.86-20.95,3.18l-53.49,68.29c5.61-1.11,11.31-2.12,17.45-2.82,30.54-3.57,44.36-16.92,52.11-26.65l12.82-16.36c17.3-22.33,2.37-26.53-7.94-25.63m-29.24-14.42c6.58-.99,12.68-2.26,18.73-3.52,9.4-1.96,18.6-3.87,29.3-4.77,28.48-2.05,67.88,14.93,38.52,53.36l-10.21,13.04c-13.07,16.17-28.88,26.98-67.32,30.92l-4.81.52-4.65,5.93c25.84,9.26,28.62,24.69,9.01,50.04l-29.2,37.28c-6.53,8.39-11.28,14.94-13.07,23-4.21-1.14-8.61-2.25-13.22-3.32-13.35-3.08-24.72-4.96-34.68-5.96,1.39-4.37,3.04-8.06,14.32-22.5l30.39-38.79c24.4-31.76-3.44-30.13-9.26-29.48-5.88.7-11.35,1.67-16.76,2.74l-71.22,90.91c-2.43.48-4.85.99-7.28,1.49-6.05,1.26-12.15,2.52-18.73,3.52l160.14-204.42m54.05-15.97c-10.7.9-19.89,2.81-29.3,4.77-8.73,1.81-17.56,3.65-27.8,4.65l-3.01,3.84c1.57-.15,3.11-.33,4.62-.52-1.51.19-3.05.36-4.62.52l-169.17,215.95c10.23-1,19.07-2.84,27.8-4.65,5.23-1.09,10.4-2.16,15.8-3.06l71.21-90.9c2.67-.44,5.41-.84,8.23-1.18,15.64-1.48,16.6,4.26,3.54,21.18l-30.39,38.79c-13.42,17.2-14.92,21.01-16.8,27.36l-.81,2.74c12.02.63,26.15,2.6,43.7,6.65,12.81,2.96,23.96,6.23,33.92,9.73.8-13.67.97-16.52,13.62-32.77l29.2-37.28c24.12-31.1,14.85-44.21,1.25-53.74,12.52-6.28,27.22-4.8,39.72-11.13,14.79-7.48,23.55-18.43,26.85-22.56l10.21-13.04c36.96-48.16-21.03-67.43-47.79-65.37"/>
            <path class="cls-4" d="m1614.01,326.72c-3.87-.75-7.92-1.61-12.14-2.58-50.46-11.66-77.27-28.53-103.2-44.85-6.86-4.32-13.62-8.57-20.74-12.7l-17.72,22.61c7.11,4.13,13.88,8.38,20.74,12.7,4.7,2.96,9.43,5.93,14.32,8.89,1.53.93,3.08,1.85,4.65,2.78l-142.43,181.81c9.82,5.78,20.44,11.45,32.88,16.76l142.43-181.81c14.23,6.08,30.83,11.68,51.34,16.42,4.23.98,8.27,1.83,12.14,2.58l17.72-22.61"/>
            <path class="cls-3" d="m1487.7,311.84c1.51.93,3.03,1.86,4.57,2.79-1.54-.93-3.06-1.86-4.57-2.79m-27.48-22.64l17.72-22.61c7.11,4.13,13.88,8.38,20.74,12.7,25.93,16.32,52.74,33.19,103.2,44.85,4.23.98,8.27,1.83,12.14,2.58l-17.72,22.61c-3.87-.75-7.92-1.61-12.14-2.58-20.51-4.74-37.12-10.34-51.34-16.42l-142.43,181.81c-12.44-5.31-23.06-10.99-32.88-16.76l142.43-181.81c-1.57-.92-3.12-1.85-4.65-2.78-4.89-2.96-9.62-5.93-14.32-8.89-6.86-4.32-13.62-8.57-20.74-12.7m174.69,32.32c-8.12-1.12-17.06-2.77-27.02-5.07-50.46-11.66-77.27-28.53-103.2-44.85-9.95-6.27-19.7-12.4-30.61-18.21l-29.76,37.99c10.92,5.81,20.66,11.94,30.61,18.21,3.22,2.03,6.46,4.07,9.75,6.1l-142.42,181.8c15.45,9.54,32.15,19.02,54.63,27.31l142.42-181.8c11.29,4.16,24.04,8.02,38.81,11.44,9.96,2.3,18.9,3.95,27.02,5.07l29.76-37.99"/>
            <g>
              <path class="cls-4" d="m1553.02,487.93c-36.14,47.18-7.09,43.27,16.26,40.12,47.83-6.44,75.08-16.05,94.07-33.16l16.29-20.79c8.55-18.18,5.12-32.48-14.67-61.22-26.13-39,38.43-75.28,53.59-71.63,4.52,1.09,13.53,5.6-.46,23.93l-5.54,7.07c11.58.73,25.12,2.7,41.71,6.53l3.87-4.95c26.55-35.83.41-58-30.17-55.47-42.67,5.85-121.32,70.08-98.84,113.69,30.08,56.06-49.91,77.25-59.18,74.24-7.18-2.33-.8-12.09,5.55-20.33l8.38-10.7c-.36.07-.72.15-1.07.22-7.42,1.54-14.93,3.11-23.3,4.15l-6.49,8.28"/>
              <path class="cls-4" d="m1553.02,487.93c-1.51.19-3.05.36-4.62.51,1.57-.15,3.11-.32,4.62-.51"/>
            </g>
            <g>
              <path class="cls-3" d="m1541.09,492.09c-39.48,52.84-3.06,47.54,43.05,40.83,30.85-4.49,46.02-8.29,59.3-12.62l19.9-25.4c-19.7,17.75-46.3,24.75-69.73,29.26-59.02,11.36-58.33,4.24-57.47-4.78,1.03-10.76,12.13-25.26,16.88-31.45-1.51.19-3.05.36-4.62.51s-3.18.29-4.83.4c-.75.97-1.75,2.26-2.49,3.25"/>
              <path class="cls-3" d="m1543.58,488.84c1.64-.11,3.25-.24,4.83-.4s3.11-.32,4.62-.51l6.49-8.28c8.38-1.05,15.88-2.61,23.3-4.15.36-.07.72-.15,1.07-.22l-8.38,10.7c-15.02,19.48-8.92,22.2,4.86,20.3,18.19-2.51,74.39-26.43,48.76-74.22-25.02-48.49,73.05-126.95,119.18-111.95.4.13,39.67,13.48,9.83,53.74l-3.87,4.95c-16.6-3.83-30.13-5.8-41.71-6.53l5.54-7.07c15.78-20.66,3.39-25.72-8.79-24.07-12.81,1.73-69.66,33.94-44.33,71.78,19.79,28.71,23.22,43.01,14.67,61.21l20.61-26.31c-3.94-13.46-12.63-25.44-23.63-40.61-25.32-35.32,20.32-60.88,32.77-58.53,5.8,1.1,4.97,6.24-2.62,16.18l-11.56,14.76c11.63.12,26.29.76,53.08,6.88l37.31-47.63c-5.6-14.65-22.48-30.82-51.6-28.17-45.03,6.09-140.89,73.76-115.07,128.07,21.58,41.48-30.46,63.21-39.88,59.94-3.51-1.21-2.09-5.39,4.87-14.43l14.4-18.39c-3.18.61-6.32,1.26-9.48,1.92-10.1,2.1-20.35,4.23-32.75,5.06l-12.51,15.97"/>
            </g>
            <path class="cls-4" d="m537.8,361.19c-13.09-7.25-52.94-29.32-89.76,16.93l-89.25,113.93c-1.66-.91-3.35-1.82-5.07-2.72,1.72.9,3.4,1.8,5.07,2.72-43.85,57.04,19.62,95.96,67.11,89.39,15.48-2.14,37.51-9.14,54.53-30.32l20.49-26.16c-15.74-4.04-29.06-8.61-40.76-13.51l-22.39,28.58c-23.3,28.51-56.8,9.61-59.07-6.87-1.28-9.31,5.14-17.78,7.56-20.97l92.81-118.48c24.99-30.79,56.22-2.78,57.86,9.66,1.1,8.3-3.93,14.98-6.35,18.18l-16.22,20.7c11.71,4.9,25.02,9.47,40.76,13.51l14.55-18.58c7.65-10.05,30.94-40.65-31.88-76"/>
            <path class="cls-3" d="m543.9,353.57c-41.69-23.21-77.41-16.76-106.16,19.18l-89.25,113.93c1.78.88,3.52,1.77,5.23,2.66s3.4,1.8,5.07,2.72l89.25-113.93c51.97-65.28,129.23-1.03,132.19,29.77,1.32,13.7-7.31,25.03-10.55,29.3l-14.55,18.58c-15.74-4.04-29.06-8.61-40.76-13.51l16.22-20.7c20.88-27.69-16.33-43.55-29.55-41.91-11.93,1.48-19.48,10.95-21.97,14.07l-92.81,118.48c-22.53,29.7,11.12,44.03,27.37,42.11,14.06-1.66,21.65-11.15,24.15-14.27l22.39-28.58c11.71,4.9,25.02,9.47,40.76,13.51l-20.49,26.16c-45.09,56.13-130.75,28.54-136.3-17.36-2.37-19.56,10.46-36.23,14.67-41.71-1.66-.91-3.35-1.82-5.07-2.72s-3.46-1.78-5.23-2.66c-44.96,58.5,12.56,113.31,82.65,103.55,28.15-3.92,50.36-15.77,66.02-35.22l26.51-33.84c-2.59-.54-5.25-1.12-7.99-1.75-25.38-5.86-44.77-13.05-61.08-20.81l-28.4,36.26c-16.69,20.56-35.79,4.9-36.71-2.81-.7-5.9,4.14-12.2,5.73-14.27l92.81-118.48c18.2-22.48,35.98-2.38,36.31,4.38.26,5.26-3.66,10.48-5.33,12.7l-22.24,28.39c16.31,7.77,35.71,14.95,61.08,20.81,2.74.63,5.4,1.21,7.99,1.75l20.57-26.26c9.25-12.1,33.82-44.24-42.51-87.51"/>
            <path class="cls-4" d="m561.87,581.71c-13.22,2.44-15.53-4.11-6.17-17.53,1.01-1.45,2.2-2.98,2.71-3.64l90.67-115.75c21.45-27.1,51.63-33.48,53.52-25.64,1.23,5.12-6.15,14.63-8.58,17.75l-90.67,115.75c-1.46.23-2.89.48-4.32.74,1.43-.26,2.86-.51,4.32-.74-17.57,22.23-34.86,27.73-41.48,29.07m147.17-187.87c-19.55,4.11-68.06,17.47-96.23,52.77l-87.35,111.51c-2.17-.22-4.41-.48-6.71-.79,2.3.3,4.54.56,6.71.79-23.71,30.91-11.69,50.61,14.47,46.93.57-.08,59.46-10.88,95.78-56.54l87.35-111.51c21.47-27.89,18.32-47.35-7.18-44.3-1.15.14-3.57.47-6.84,1.13"/>
            <path class="cls-3" d="m691.32,416.46c-10.89,2.35-27.06,9.16-42.23,28.33l-90.67,115.75c-14,18.03-8.36,22.93,1.58,21.5,5.33-.77,24.19-5.15,43.36-29.4-1.46.23-2.89.48-4.32.74s-2.83.53-4.24.8c-19.13,24.04-33.96,21.59-34.08,17.7-.11-3.57,5.09-10.26,6.79-12.46l90.67-115.75c18.31-23.17,34.06-21.29,34.18-17.58.07,2.21-2.25,6.36-6.89,12.34l-90.67,115.75c1.4-.28,2.81-.54,4.24-.8s2.86-.51,4.32-.74l90.67-115.75c15.44-19.88,6.84-21.64.34-20.92-1.18.13-2.41.36-3.04.49m23.74-30.3c-24.93,5.2-86.15,21.31-116.09,58.62l-87.35,111.51c2.45.39,4.82.74,7.13,1.04s4.54.56,6.71.79l87.35-111.51c29.18-36.57,121.28-72.96,124.37-42.26.85,8.4-3.91,19.39-14.12,32.66l-87.35,111.51c-34.97,43.96-119.35,77.57-123.04,41.08-1.32-13.07,9.3-26.92,12.79-31.48-2.17-.22-4.41-.48-6.71-.79s-4.68-.65-7.13-1.04c-26.03,33.96-10.1,60.68,21.24,56.61.72-.09,76.79-15.9,114.89-63.58l87.35-111.51c23.96-31.14,17.61-56.82-13.07-52.83-2.07.27-4.35.66-6.97,1.19"/>
            <path class="cls-4" d="m938.79,460c-9.21-4.82-17.5-9.8-25.51-14.78l-99.46,126.96c-2.53-1.57-5.03-3.15-7.52-4.72-.38-.24-.76-.48-1.14-.72,32.57-78.5,42.4-102.19,60.35-149.31-15.56-7.46-33.91-14.25-58.3-19.93l-160.14,204.42c15.23,3.55,28.11,7.53,39.42,11.84l121.3-154.84c4.09,1.56,7.98,3.16,11.7,4.8-19.8,54.65-34.05,89.49-72.32,182.19,9.88,6.22,19.96,12.5,31.48,18.52l160.14-204.42"/>
            <path class="cls-3" d="m805.16,566.74c.38.24.76.48,1.14.72,2.49,1.57,4.99,3.14,7.52,4.72l99.46-126.96c8,4.98,16.29,9.96,25.51,14.78l-160.14,204.42c-11.52-6.03-21.6-12.31-31.48-18.52,38.17-92.66,53.97-131.01,72.32-182.19-3.72-1.64-7.61-3.24-11.7-4.8l-121.3,154.84c-11.31-4.31-24.19-8.29-39.42-11.84l160.14-204.42c24.39,5.68,42.73,12.47,58.3,19.93-18,47.25-26.97,68.87-60.35,149.31m150.4-109.1c-16.89-7.9-30.45-16.43-43.78-24.82-.48-.3-.96-.6-1.43-.9l-79.17,101.06c28.05-67.59,33.88-81.66,48.67-119.06-17.47-9.17-38.05-17.51-67.26-24.26-5.51-1.27-10.67-2.34-15.55-3.22l-3.01,3.84c2.53.46,5.14.97,7.84,1.53-2.7-.56-5.31-1.07-7.84-1.53l-169.18,215.96c4.87.88,10.04,1.95,15.55,3.22,21.24,4.91,37.91,10.65,52.15,16.95l101.29-129.3c-16.19,44.65-27.39,73.05-59.88,151.97,1.88,1.17,3.75,2.36,5.64,3.54,13.33,8.39,26.89,16.92,43.78,24.82l172.18-219.79"/>
            <path class="cls-4" d="m1120.48,484.41c-4.51.8-8.89,1.71-13.32,2.63-2.94.61-5.88,1.22-8.89,1.8l-99.46,126.96c-2.66.51-5.36,1-8.15,1.45,23.4-44.27,40.43-78.98,58.17-125.4-11.31-.91-24.36-2.91-39.88-6.49-9.04-2.09-17.31-4.34-24.96-6.73l-160.14,204.42c7.65,2.39,15.93,4.64,24.96,6.73,6.31,1.46,12.21,2.65,17.75,3.62l121.3-154.84c4.87.85,9.45,1.52,13.8,2.04-17.78,51.29-35.23,90.07-69.15,153.7,5-.86,9.76-1.85,14.5-2.83,4.43-.92,8.81-1.83,13.32-2.63l160.14-204.42"/>
            <path class="cls-3" d="m990.67,617.25c2.79-.44,5.49-.94,8.15-1.45l99.46-126.96c3.01-.58,5.96-1.2,8.89-1.8,4.43-.92,8.81-1.83,13.32-2.63l-160.14,204.42c-4.51.8-8.89,1.71-13.32,2.63-4.73.98-9.49,1.97-14.5,2.83,34.18-64.18,51.63-102.96,69.15-153.7-4.35-.52-8.93-1.19-13.8-2.04l-121.3,154.84c-5.54-.97-11.44-2.16-17.75-3.62-9.04-2.09-17.31-4.34-24.96-6.73l160.14-204.42c7.65,2.39,15.93,4.64,24.96,6.73,15.52,3.58,28.56,5.58,39.88,6.49-14.16,36.66-28.21,68.93-58.17,125.4m144.62-141.89c-7.76,1.01-14.87,2.49-22.1,3.99-5.61,1.17-11.27,2.34-17.31,3.3l-79.2,101.1c19.17-36.31,31.8-61.6,47.63-99.06-13.38-.41-29.29-2.39-49.31-7.01-14.77-3.41-27.52-7.27-38.81-11.44l-3.01,3.84c2.2.81,4.45,1.61,6.76,2.39-2.31-.79-4.56-1.58-6.76-2.39l-169.18,215.96c11.29,4.16,24.04,8.02,38.81,11.44,12.04,2.78,22.6,4.61,32.01,5.71l101.27-129.27c-13.55,38.88-26.55,70.97-56.38,129.13,7.58-1.03,14.48-2.47,21.3-3.89,7.23-1.5,14.34-2.98,22.1-3.99l172.18-219.79"/>
            <path class="cls-4" d="m1288.05,523.81c-22.04-13.44-45.93-25.84-86.4-35.19-18.18-4.2-32.69-6.16-44.98-6.71l-160.14,204.42c12.29.55,26.8,2.52,44.98,6.71,40.47,9.35,64.36,21.75,86.4,35.19l17.72-22.61c-22.04-13.44-45.93-25.84-86.4-35.19-.3-.07-.59-.14-.89-.2l57.06-72.83c.29.07.59.14.89.2,32.1,7.42,53.77,16.75,72.36,27l17.72-22.61c-18.59-10.25-40.26-19.59-72.36-27-.3-.07-.59-.14-.89-.2l49.94-63.75c.29.07.59.14.89.2,40.47,9.35,64.36,21.75,86.4,35.19l17.72-22.61"/>
            <path class="cls-3" d="m1156.68,481.91c12.29.55,26.8,2.52,44.98,6.71,40.47,9.35,64.36,21.75,86.4,35.19l-17.72,22.61c-22.04-13.44-45.93-25.84-86.4-35.19-.3-.07-.59-.14-.89-.2l-49.94,63.75c.29.07.59.14.89.2,32.1,7.42,53.77,16.75,72.36,27l-17.72,22.61c-18.59-10.25-40.26-19.59-72.36-27-.3-.07-.59-.14-.89-.2l-57.06,72.83c.29.07.59.14.89.2,40.47,9.35,64.36,21.75,86.4,35.19l-17.72,22.61c-22.04-13.44-45.93-25.84-86.4-35.19-18.18-4.2-32.69-6.16-44.98-6.71l160.14-204.42m146.67,39.97c-24.89-15.63-49.48-30.28-95.67-40.95-23.9-5.52-41.46-7.17-55.97-6.84l-3.01,3.84c1.74-.04,3.51-.05,5.34-.03-1.83-.02-3.61,0-5.34.03l-169.18,215.96c14.51-.33,32.07,1.33,55.97,6.84,46.19,10.67,70.78,25.32,95.67,40.95l29.76-37.99c-21.96-13.79-43.7-26.82-80.26-37.03l45.01-57.46c29.05,8.11,48.74,18,66.63,28.65l29.76-37.99c-17.89-10.64-37.58-20.54-66.63-28.65l37.9-48.38c36.55,10.2,58.29,23.23,80.26,37.03l29.76-37.99"/>
            <path class="cls-4" d="m1377.15,565.49c-32.98-10.76-67.09-21.88-99.71,19.04l-89.25,113.93c-1.52-.93-3.03-1.86-4.53-2.8,1.5.93,3.01,1.86,4.53,2.8-52.31,68.1,39.65,89.01,79.66,83.53,23.89-3.27,45.14-16.42,63.17-39.11l20.49-26.16c-10.86-.19-23.41-1.42-38.54-4.3l-22.39,28.58c-24.77,30.17-77.95,12.83-79.71-5.87-.71-7.51,4.4-14.31,6.58-17.21l92.81-118.48c25.96-31.67,77.9-3.2,78.46,10.22.23,5.45-3.53,10.45-5.33,12.86l-16.22,20.7c15.13,2.88,27.68,4.11,38.54,4.3l14.55-18.58c29.14-37.82,9.1-46.3-43.12-63.47"/>
            <path class="cls-3" d="m1383.29,557.85c-38.19-12.51-77.68-25.45-114.84,21.09l-89.25,113.93c1.48.93,2.96,1.86,4.46,2.79s3.01,1.86,4.53,2.8l89.25-113.93c17.7-22.21,36.58-31.04,61.21-28.62.93.09,93.26,17.21,94.84,43.96.65,11.08-9.42,24.16-13.22,29.09l-14.55,18.58c-10.86-.19-23.41-1.42-38.54-4.3l16.22-20.7c21.75-29-38.35-38.89-49-37.49-12.58,1.65-19.8,9.01-24.13,14.41l-92.81,118.48c-24,31.95,24.2,42.16,46.26,38.54,16.38-2.69,24-11.97,26.87-15.46l22.39-28.58c15.13,2.88,27.68,4.11,38.54,4.3l-20.49,26.16c-57.99,72.95-154.28,32.43-157.99-4.16-1.84-18.13,10.96-34.79,15.16-40.27-1.52-.93-3.03-1.86-4.53-2.8s-2.98-1.86-4.46-2.79c-56.47,73.33,33.32,104.09,86.35,97.44,28.25-3.54,53.87-19.55,76.14-47.59l26.51-33.84c-15.9.75-35.39-.7-62.33-6.91-1.15-.27-2.3-.54-3.42-.81l-28.4,36.26c-16.75,20.4-48.13,8.6-49.72-1.87-.68-4.47,2.21-9.01,4.8-12.48l92.81-118.48c17.62-21.62,48.18-4.39,48.99,4.15.41,4.33-2.96,8.75-4.07,10.2l-22.24,28.39c1.13.27,2.27.54,3.42.81,26.94,6.22,46.43,7.66,62.33,6.91l20.57-26.26c34.07-44.04,10.14-51.92-47.65-70.95"/>
            <path class="cls-4" d="m1458.48,605.41c9.51-1.03,17.84-2.76,26.07-4.48,2.07-.43,4.13-.86,6.2-1.28,1.4-.28,2.81-.56,4.22-.83l-142.43,181.81c8.84-1.67,18.04-2.99,28.99-3.18l142.43-181.81c14.33-.24,31.66,1.46,55.07,6.86l17.72-22.61c-48.4-11.17-70.79-6.51-94.49-1.58-8.23,1.71-16.56,3.44-26.07,4.48l-17.72,22.61"/>
            <path class="cls-3" d="m1483.55,604.36c1.4-.29,2.79-.58,4.19-.86-1.4.28-2.79.57-4.19.86m-25.06,1.05l17.72-22.61c9.51-1.03,17.84-2.76,26.07-4.48,23.7-4.93,46.09-9.59,94.49,1.58l-17.72,22.61c-23.41-5.41-40.74-7.11-55.07-6.86l-142.43,181.81c-10.95.19-20.16,1.51-28.99,3.18l142.43-181.81c-1.42.27-2.82.54-4.22.83-2.07.42-4.13.84-6.2,1.28-8.23,1.71-16.56,3.44-26.07,4.48m-15.7,8.44c13.77-.66,24.84-2.96,35.75-5.23.67-.14,1.34-.28,2.01-.42l-142.43,181.81c14.34-2.97,28.48-5.68,48.5-4.66l142.43-181.81c12.07.61,26.29,2.58,43.98,6.67l29.76-37.99c-48.4-11.17-70.79-6.51-94.49-1.58-10.9,2.27-21.98,4.57-35.75,5.23l-29.76,37.99"/>
            <path class="cls-4" d="m242.6,700.02l57.06-72.83c7.27,4.56,14.72,9.13,22.82,13.6,23.35,13.09,17.1,26.75,9.05,37.18l-19.71,25.16c-16.34,20.59-34.25,17.07-46.4,10.49-8.1-4.47-15.55-9.04-22.82-13.6m97.59-81.85c-9.79-5.39-18.61-10.95-27.33-16.43-8.09-5.09-16.04-10.09-24.6-14.91l-160.14,204.42c8.56,4.81,16.51,9.82,24.6,14.91,1.5.94,3,1.89,4.51,2.83l67.65-86.35c7.27,4.56,14.72,9.13,22.82,13.6,38.11,20.39,84.7,11.59,110.77-20.91l16.38-20.9c21.72-28.49,11.68-50.58-34.65-76.26"/>
            <path class="cls-3" d="m257.65,697.92l45.01-57.46c4.43,2.69,9,5.37,13.79,8.02,8.79,4.91,14.62,9.82,3.38,24.35l-19.71,25.16c-10.93,13.75-19.37,13.13-28.68,7.96-4.79-2.64-9.36-5.32-13.79-8.02m64.83-57.13c-8.1-4.47-15.55-9.04-22.82-13.6l-57.06,72.83c7.27,4.56,14.72,9.13,22.82,13.6,12.15,6.58,30.06,10.1,46.4-10.49l19.71-25.16c8.08-10.48,14.36-24.17-9.05-37.18m-34.21-53.96c8.56,4.81,16.51,9.82,24.6,14.91,8.72,5.49,17.54,11.04,27.33,16.43,46.26,25.77,56.3,47.86,34.65,76.26l-16.38,20.9c-26.08,32.5-72.67,41.3-110.77,20.91-8.1-4.47-15.55-9.04-22.82-13.6l-67.65,86.35c-1.51-.95-3.01-1.89-4.51-2.83-8.09-5.09-16.04-10.09-24.6-14.91l160.14-204.42m57.95,23.66c-9.79-5.39-18.61-10.95-27.33-16.43-11.18-7.04-22.1-13.91-34.72-20.34l-3.01,3.85c1.74.89,3.45,1.79,5.14,2.69-1.68-.9-3.39-1.8-5.14-2.69l-169.17,215.95c12.62,6.43,23.53,13.3,34.72,20.34,4.45,2.8,8.92,5.62,13.54,8.42l67.65-86.36c4.43,2.69,9,5.37,13.79,8.02,38.87,20.85,99.36,17.19,133.31-25.03l16.38-20.9c12.57-16.4,33.62-43.85-45.15-87.5"/>
            <path class="cls-4" d="m593.77,646.73c-38.33-7.03-58.39-2.86-79.51,1.53-7.28,1.51-14.64,3.04-22.83,4.09l-160.14,204.42c8.18-1.05,15.54-2.58,22.83-4.09,21.12-4.39,41.18-8.57,79.51-1.53l17.72-22.61c-36.26-6.65-56.18-3.28-76.1.83l57.06-72.83c15.84-3.26,31.66-6.06,55.7-3.74l17.72-22.61c-24.03-2.33-39.86.48-55.7,3.74l49.94-63.75c19.93-4.1,39.84-7.48,76.1-.83l17.72-22.62"/>
            <path class="cls-3" d="m491.43,652.35c8.18-1.05,15.54-2.58,22.83-4.09,21.12-4.39,41.18-8.57,79.51-1.53l-17.72,22.62c-36.26-6.65-56.18-3.28-76.1.83l-49.94,63.75c15.84-3.26,31.66-6.06,55.7-3.74l-17.72,22.61c-24.03-2.33-39.86.48-55.7,3.74l-57.06,72.83c19.93-4.1,39.84-7.48,76.1-.83l-17.72,22.61c-38.33-7.03-58.39-2.86-79.51,1.53-7.28,1.51-14.64,3.04-22.83,4.09l160.14-204.42m124.62-9.89c-.43-.1-.86-.2-1.29-.3-48.4-11.17-70.78-6.52-94.49-1.58-9.96,2.07-20.06,4.17-32.23,5.02l-3.01,3.85c1.63-.11,3.23-.25,4.79-.41-1.56.16-3.16.29-4.79.41l-169.17,215.95c12.16-.85,22.27-2.95,32.23-5.02,23.71-4.93,46.09-9.59,94.49,1.58.43.1.86.2,1.29.3l29.76-37.99c-.43-.1-.86-.2-1.29-.3-40.36-9.32-62.62-7.63-82.66-3.95l45.02-57.46c16.09-2.96,33.63-4.63,60.82-.34l29.76-37.99c-27.19-4.29-44.73-2.61-60.82.34l37.9-48.38c20.03-3.68,42.3-5.37,82.66,3.95.43.1.86.2,1.29.3l29.76-37.99"/>
            <path class="cls-4" d="m585.48,891.46c-15.95-9.59-17.54-22.88-4.72-39.49l90.67-115.75c26.06-32.71,57.41-3.94,59.19,9.2,1.19,8.8-4.88,16.69-7.17,19.66l-90.67,115.75c-1.96-.85-3.88-1.72-5.76-2.59,1.88.87,3.79,1.73,5.76,2.59-19.21,24.05-41.06,14.22-47.3,10.63m147.17-187.86c-13.47-7.62-54.45-30.79-92.71,17.13l-87.35,111.51c-1.71-.9-3.44-1.79-5.21-2.67,1.77.88,3.5,1.77,5.21,2.67-44.56,58.12,20.41,98.55,68.87,92.2,15.93-2.09,38.61-9.16,56.17-31.01l87.35-111.51c7.83-10.29,31.67-41.61-32.33-78.32"/>
            <path class="cls-3" d="m714.93,726.22c-10.57-5.88-26.57-11.24-43.5,10.01l-90.67,115.75c-24.49,31.74,10.12,46.5,27.12,44.27,14.07-1.85,22.22-12.06,24.9-15.41-1.96-.85-3.88-1.72-5.76-2.59s-3.72-1.75-5.52-2.64c-18.98,23.45-37.52,4.9-38.36-1.99-.79-6.44,4.76-13.65,6.59-16.02l90.67-115.75c19.73-24.45,37.46-3.58,37.88,3.78.33,5.89-4.51,12.16-6.1,14.22l-90.67,115.75c1.8.89,3.64,1.77,5.52,2.64s3.79,1.73,5.76,2.59l90.67-115.75c12.03-15.62,9.17-28.7-8.52-38.87m23.74-30.3c-53.27-30.2-88.87-6.05-109.36,19.53l-87.35,111.51c1.84.86,3.65,1.74,5.42,2.62s3.5,1.77,5.21,2.67l87.35-111.51c53.07-66.47,132.67-.55,135.84,30.91,1.43,14.19-7.14,25.46-10.81,30.27l-87.35,111.51c-47.11,58.63-134.76,28.69-139.84-19.69-1.84-17.5,7.57-32.07,14.8-41.5-1.71-.9-3.44-1.79-5.21-2.67s-3.57-1.75-5.42-2.62c-44.3,57.68,14.23,115.58,84.46,106.32,19.91-2.63,47.86-10.99,67.94-35.91l87.35-111.51c8.56-11.21,34.62-45.32-43.03-89.94"/>
            <path class="cls-4" d="m839.02,834.07l57.06-72.83c6.85-1.4,13.73-2.7,21.31-3.51,12.86-1.26,22.6,4.08,7.73,23.28l-19.71,25.16c-7.22,9.13-19.75,21.59-45.08,24.4-7.58.81-14.46,2.11-21.31,3.51m96.09-98.96c-9.22.99-17.41,2.69-25.76,4.43-6.95,1.44-13.97,2.9-21.72,3.94l-160.14,204.42c7.74-1.04,14.76-2.5,21.72-3.94,1.48-.31,2.96-.62,4.44-.92l67.65-86.35c6.85-1.4,13.73-2.7,21.31-3.51,55.35-6.02,87.52-14.15,109.76-41.87l16.38-20.9c26.76-35.1-1.21-58.57-33.64-55.29"/>
            <path class="cls-3" d="m853.5,824.75l45.01-57.46c4.13-.74,8.37-1.39,12.86-1.87,7.69-.77,14.01.45,2.48,15.29l-19.71,25.16c-10.24,12.94-17.67,15.96-27.79,17.02-4.48.48-8.73,1.13-12.86,1.87m63.9-67.02c-7.58.81-14.46,2.11-21.31,3.51l-57.06,72.83c6.85-1.4,13.73-2.7,21.31-3.51,25.32-2.81,37.85-15.27,45.08-24.4l19.71-25.16c15.99-20.65,2.67-24.35-7.73-23.28m-29.76-14.24c7.74-1.04,14.76-2.5,21.72-3.94,8.35-1.74,16.54-3.44,25.76-4.43,32.26-3.06,60.16,20.5,33.64,55.29l-16.38,20.9c-22.24,27.72-54.41,35.85-109.76,41.87-7.58.81-14.46,2.11-21.31,3.51l-67.65,86.35c-1.48.3-2.96.61-4.44.92-6.95,1.44-13.97,2.9-21.72,3.94l160.14-204.42m53.49-16.06c-9.22.99-17.41,2.69-25.76,4.43-9.63,2-19.39,4.03-31.02,4.93l-3.01,3.85c1.62-.13,3.19-.27,4.74-.44-1.55.17-3.13.31-4.74.44l-169.17,215.95c11.63-.9,21.39-2.93,31.02-4.93,4.29-.89,8.53-1.77,12.9-2.56l67.65-86.36c4.13-.74,8.37-1.39,12.86-1.87,78.82-8.51,106.42-13.91,131.66-45.35l16.38-20.9c34.29-44.75-12.83-70.25-43.51-67.18"/>
            <path class="cls-4" d="m1112.81,790.4c-3.29-2.03-6.53-4.07-9.75-6.1-6.28-3.96-12.48-7.86-18.95-11.66l-160.14,204.42c6.46,3.8,12.66,7.7,18.95,11.66,23.23,14.62,47.18,29.69,88.22,41.05l17.72-22.61c-35.34-9.79-58.01-22.32-78.46-34.95l142.43-181.81"/>
            <path class="cls-3" d="m1084.11,772.64c6.46,3.8,12.66,7.7,18.95,11.66,3.22,2.03,6.46,4.07,9.75,6.1l-142.43,181.81c20.45,12.63,43.12,25.17,78.46,34.95l-17.72,22.61c-41.04-11.37-64.98-26.43-88.22-41.05-6.28-3.96-12.48-7.86-18.95-11.66l160.14-204.42m43.93,15.64c-6.58-3.87-12.79-7.78-18.96-11.66-9.38-5.9-18.56-11.69-28.73-17.19l-3.01,3.85c1.67.91,3.32,1.82,4.95,2.74-1.63-.92-3.27-1.84-4.95-2.74l-169.17,215.95c10.16,5.51,19.35,11.29,28.73,17.19,25.93,16.32,52.74,33.19,103.2,44.85.5.12.99.23,1.49.34l29.76-37.99c-.49-.11-.99-.23-1.49-.34-38.45-8.89-63.17-20.8-84.24-33.19l142.43-181.81"/>
            <path class="cls-4" d="m1369.74,827.07c-29.4-3.71-46.95-.06-65.28,3.75-9.93,2.07-20.01,4.16-32.14,5.02l-160.14,204.42c12.12-.86,22.2-2.95,32.14-5.02,18.33-3.81,35.88-7.46,65.28-3.75l17.72-22.61c-29.4-3.71-46.95-.06-65.28,3.75-1.57.33-3.14.65-4.72.98l57.06-72.83c1.58-.32,3.15-.65,4.72-.98,14.23-2.96,27.99-5.82,47.19-5.22l17.72-22.61c-19.2-.6-32.96,2.26-47.19,5.22-1.57.33-3.14.65-4.72.98l49.94-63.75c1.58-.32,3.15-.65,4.72-.98,18.33-3.81,35.88-7.46,65.28-3.75l17.72-22.62"/>
            <path class="cls-3" d="m1272.32,835.84c12.12-.86,22.2-2.95,32.14-5.02,18.33-3.81,35.88-7.46,65.28-3.75l-17.72,22.62c-29.4-3.71-46.95-.06-65.28,3.75-1.57.33-3.14.65-4.72.98l-49.94,63.75c1.58-.32,3.15-.65,4.72-.98,14.23-2.96,27.99-5.82,47.19-5.22l-17.72,22.61c-19.2-.6-32.96,2.26-47.19,5.22-1.57.33-3.14.65-4.72.98l-57.06,72.83c1.58-.32,3.15-.65,4.72-.98,18.33-3.81,35.88-7.46,65.28-3.75l-17.72,22.61c-29.4-3.71-46.95-.06-65.28,3.75-9.93,2.07-20.01,4.16-32.14,5.02l160.14-204.42m117.81-14.21c-38.42-7.07-58.51-2.89-79.65,1.51-12.61,2.62-25.46,5.3-42.42,5.42l-3.01,3.85c1.8-.01,3.56-.05,5.27-.12-1.71.07-3.47.11-5.27.12l-169.17,215.95c16.97-.12,29.81-2.79,42.42-5.42,21.14-4.39,41.23-8.58,79.65-1.51l29.76-37.99c-36.3-6.68-56.24-3.31-76.17.79l45.02-57.46c15.83-3.26,31.68-6.05,55.74-3.71l29.76-37.99c-24.06-2.34-39.9.45-55.74,3.71l37.9-48.38c19.92-4.1,39.86-7.47,76.17-.79l29.76-37.99"/>
          </g>
        </g>
      </g>
    </g>
  </g>
</svg>