<?xml version="1.0" encoding="UTF-8"?>
<svg id="Layer_2" data-name="Layer 2" xmlns="http://www.w3.org/2000/svg" viewBox="0 0 1388.04 1016.08">
  <defs>
    <style>
      .cls-1 {
        font-size: 384.19px;
      }

      .cls-1, .cls-2, .cls-3 {
        fill: #67bff7;
        font-family: Trailmade-Italic, Trailmade;
        font-style: italic;
      }

      .cls-4 {
        letter-spacing: -.04em;
      }

      .cls-5 {
        letter-spacing: -.02em;
      }

      .cls-6 {
        letter-spacing: -.02em;
      }

      .cls-7 {
        letter-spacing: -.03em;
      }

      .cls-2 {
        font-size: 385.81px;
      }

      .cls-8 {
        letter-spacing: -.01em;
      }

      .cls-9 {
        letter-spacing: 0em;
      }

      .cls-10 {
        letter-spacing: 0em;
      }

      .cls-3 {
        font-size: 333.82px;
      }

      .cls-11 {
        letter-spacing: 0em;
      }

      .cls-12 {
        letter-spacing: -.01em;
      }

      .cls-13 {
        fill: #fff;
        stroke-width: 0px;
      }
    </style>
  </defs>
  <g id="Layer_1-2" data-name="Layer 1">
    <text class="cls-1" transform="translate(59.8 389.85) rotate(-2.64) scale(1.34 .98) skewX(-7.39)"><tspan x="0" y="0">S</tspan><tspan class="cls-9" x="135.23" y="0">P</tspan><tspan x="285.45" y="0">O</tspan><tspan class="cls-6" x="488.69" y="0">R</tspan><tspan class="cls-7" x="645.05" y="0">T</tspan><tspan x="760.3" y="0">S</tspan></text>
    <text class="cls-2" transform="translate(33.24 892.92) rotate(-1.26) scale(1.33 .98) skewX(-7.44)"><tspan x="0" y="0">P</tspan><tspan class="cls-4" x="153.55" y="0">E</tspan><tspan x="276.24" y="0">O</tspan><tspan class="cls-5" x="480.33" y="0">P</tspan><tspan x="626.17" y="0">LE</tspan></text>
    <text/>
    <g>
      <path class="cls-13" d="m1227.83,455.35c-4.93,6.67-4.59,19.16-13.31,21.17-6.01,1.43-12.06,2.6-19.33,4.15.81-11.01,1.51-20.52,2.22-30.03,1.61.22,3.22.49,4.83.64,2.77.26,4.3-1.87,3.53-5.05-1.06-4.38-3.48-1.65-5.12-.61-1.39.89-2.44,2.67-3.64,4.06-4.43,1.68-5.4-4.11-9.74-8.22,3.49,20.51-8.9,25.73-16.72,35.31,3.02,12.73,13.8,11.42,19.9,17.43-.94,6.59-4.19,6.4-6.91,7.09-14.59,3.71-15.52,2.55-14.4-17.43.08-1.48-.33-3.03-.5-4.55-4.23.59-6.25,4.85-6.26,9.27-.03,13.61-5.96,18.39-15.07,19.28l-3.39,4.73-2.2,1.29.75-3.01,3.25-4.92c1.83-11.08,11.91-17.36,8.73-32.21-1.19-5.54-11.21-15.46.81-21.55,1.8-.91-1.5-4.35-3.4-5.85-3.95-3.14-6.31-1.48-7.99,3.62-2.83,8.63-2.23,19.64-9.64,25.12l-.53,1.24.88-.83c2.74-.85,5.94-2.54,7.81,1.42,1.35,2.86-.41,5.9-2.49,7.15-8.2,4.94-16.5,9.64-24.75,14.48,1.62,2.24,3.4,4.51,3.04,7.86-.09.83-1.36,1.4-2.09,2.08l-2.27-8.41c-2.61,4.98-1.11,10.6-1.14,15.99l11.99.02c.07-.75.12-1.5.21-2.25.5-4.29-.3-9.68,3.84-11.37,3.15-1.28,3.88,2.52,4.19,5.44.66,6.23,1.38,12.84-6.2,11.18-2.7,10.68-12.94,9.24-16.8,18.02-.38.41-.72.92-1.15,1.17-.13.08-.78-.68-.73-.86.14-.6.49-1.11.76-1.65-.27-4.67-1.55-8.8-3.99-12.31-2.6-.37-7.93-1.72-6.82-2.97,7.6-8.54,3.36-20.07,5.04-29.91,1.36-7.98,3-15.86,4.71-24.72-5.31,1.56-9.74,6.11-14.15-2.45-3.05-5.92-9.04-13.16-12.4.69l-3.28,9.19-.52,1.22.89-.79c1.16-3.04,2.32-6.08,3.48-9.12,6.18-1.93,10.11,6.96,8.55,9.11-6.55,9.09,3.72,10.91,3.41,16.65,2.47,3.33,2.76,6.79.58,10.4.94,3.55,2.6,8.75-2.09,7.98-4.26-.7-6.32,2.3-9.09,4.58-2.39,2.18-6.71-4.66-7.89,2.6-.17,1.05.59,3.14,1.33,3.63,4.39,2.88,5.45-1.84,6.94-5.46,9.63,5.35,7.13,11.85,1.43,18.67,2,.56,4.63.16,4.2,4.55-.05.55-.63,1.35-1.03,1.43-3.34.61-2.82-3.12-3.49-5.51-9.65-8.25-12.78,4.3-18.13,9.84-6.18-24.41-4.87-31.04,8.93-44.27-7.99-3.47-12.47,1.9-17.34,8.51-3.66,4.96-5.86.71-6.27-4.91.87-12.3,1.75-24.59,2.62-36.89-4.48,6.68-7.74,12.59-11.21,18.3l-6.32.57c-8.13-10.14,5.28-15.15,2.98-23.92-14.21-1.61-15.91.06-12.15,14.52,2.19,8.43,2.53,18.6,9.65,23.92l1,.77-.69-1.23c-.22-3.02-.45-6.04-.67-9.06,2.45-1.11,5-2.03,6.48-5.16,4.87,4.36,7.48,10.39,8.02,17.95-4.9,7.35-14.74,3.57-18.49,12.03.12,3.58,1.42,3.34,2.26,4.12,4.94,4.62,9.21-12.71,12.19-1.6,1.15,4.3-.92,6.21-3.66,7.8-2.74,1.6-6.16,2.88-7.7,5.85l1.21,2.48-2.01-1.28c-2.49-1.92-4.98-3.84-10.82-8.34,8.81,18.22,1.31,23.19-9.2,28.52,5.24-15.04-9.83-20.85-7.18-36.16,1.1-6.32-7.52-5.4-11.35-3.3-4.38,2.4-3.58,6.67.8,9.48,1.83,1.17,2.4,3.29,1.72,5.54-5.42,18-30.23,29.81-46.49,22.34,13-1,7.84-14.45,8.97-23.61-3.19,2.23-5.96,5.83-10.11,4.89l-6.9-4.42c-.62-4.44.93-9.14,3.94-7.85,8.67,3.73,9.44-5.22,12.27-11.16l.54-1.22-.9.81c-11.65,1.54-23.14,3.71-32.15,17.18,6.37-2.86,10.92,2.68,16.05,2.67,1.77,3.01,4.35,3.73,6.93,4.42-2.08,6.26,1.67,12.06,1.27,18.19l-6.29,1.39c-.41.43-.78.99-1.25,1.21-.18.08-.88-.71-.84-.96.1-.65.47-1.21.73-1.81-.19-8.78-2.71-14.05-9.21-7.73-4.19,4.07-6.7,7.31-10.96-.41-2.49-4.51-6.31-1.3-9.25.79-4.99,3.56-9.88,7.36-14.85,10.95-4.56,3.29-9.27,4.25-10.84-4.35-1.54-8.42,3.06-7.36,7.48-6.87,7.34.83,6.65-5.45,5.17-11.96,1.56-4.57,2.57-9.7,4.79-13.62,6.78-11.99-3.47-5.71-5.55-10.91.2,9.7.35,17,.49,24.31-6.46-7.51-4.89-20.2-11.96-28.67-7.25,2.66-7.58,11.04-6.09,18.84,3,15.67,3.43,15.55-9.27,16.67-1.02,2.39-2.4,2.64-4.09.96-3.15,5.26-6.02,10.86-9.5,15.69-6.88,9.56-9.23,3.51-10.26-6.08.3-1.45,2.78-2.25.67-4.44l-1.15,4.01c-5.16,1.84-7.93-2.03-8.58-7.88-.98-8.88,8.04-3.25,9.07-9.77-6.36-8.46-10.1-1.87-12.96,4.11-2.64,5.52-3.4,13.87-10.61,9.91-7.93-4.35-4.08-12.4-3.46-19.48.53-6.1,4.59-8.08,7.09-11.88l.57-1.23-.92.83c-6.59,4.15-14.07-3.71-21.39,4.14-7.95,8.53-12.55,16.12-8.85,29.86.54-2.87.83-5.9,1.67-8.6,2.32-7.46,4.07-16.71,12.72-13.22,4.22,1.7,6.57,23.46,3.13,29.21-1.93,3.22-5.09,7.6-8.47,5.19-3.93-2.81-.58-7.96-.57-12.09l.56-1.41-.81,1.14-6.08,2.24c-.49,3.93-1.49,7.46-5,7.79-3.76.35-7.3-1.76-8.63-6.28-1.38-4.68-.12-11.42-6.66-9.88-4.84,1.14-4.96,5.59-6.08,11.18-2.36,11.77-5.3,11.12-12.87-1.82l-.96-.7.66,1.18c1.42,6.58-.81,10.86-5.48,10.92-5.97.07-3.04-6.75-3.21-10.15-.48-9.52,1.96-20.52-9.68-21.68l-6.36,5.38c-2.09,6.89-5.21,12.76-8.98,18.25-5.39,7.83-8.44,3.52-11.35-3.55,1.39-1.08,3.1-1.81,4.07-3.36.88-1.39-.15-2.84-1.23-1.8-1.26,1.22-2.09,3.19-3.11,4.83-1.84,2.4-2.12,5.54-2.16,8.8.3.5.88,1.05.86,1.5-.08,1.38-.82,1.4-1.88.13-5.65,4.31-10.84,4.51-10.08-6.51.54-7.84,1.25-16.17,6.79-24.77-5,2.43-9.76,3.43-13.93,4.89-4.17,1.49-7.75,3.42-10.38,7.66-1.96,3.16-12.37,6.48-2,14.55,1.43,1.11-.27,4.99-1.89,4.86-6.42-.51-12.87-2.85-19.18-.06-.52-2.1-1.99-5.25-1.42-6.15,5.59-8.86,2.95-22.42,9.49-30.71,1.51-1.92,3.04-4.47,1.76-8.53-4.61-.94-11.04,16.06-13.25-3.78-5.22,5.75-.49,9.33.14,13.23,2.54,15.68-2.96,28.83-13.96,33.86-8.04,3.67-12.34.43-13.14-11l3-4.43.48-1.43-.87.99-3.02,4.42c-6.13,8.4-11.54,18.67-22.86,11.4-1.07-.68-3.19,1.19-4.65,2.25-3.5,2.56-7.41,6.09-10.61.08-3.73-6.99,2.53-9.92,5.59-15.19-6.14-3.74-12.3,4.53-16.62-3.51-1.2-.32-.37-4.15-2.61-2.67l2.26,3.13c-5.55,14.34-11.69-3.97-17.43-.68-2.57,19.98-15.76,25.19-28.26,10.73-3.34-3.86-5.79-4.44-8.96-1.44,2.5,1.04,5.79.94,5.71,6.02-.02,1.03-.98,2.59-1.73,2.81-3.74,1.1-4.31-3.2-5.59-6.22l-6.47-5.41-1.05-.75.8,1.16c-.08,2.92.15,8.35-.27,8.41-8.98,1.24-18.15,3.61-27,1.86-3.99-.79,2.15-6.44,2.03-10.62-4.17-.73-9.58-1.47-10.8,3.78-3.33,14.38-11.34,8.4-18.33,7.6-.41.49-.77,1.13-1.26,1.4-.18.1-.99-.75-.96-1.01.09-.7.47-1.31.74-1.95.41-2.16,1.52-4.56,1.08-6.43-.91-3.83-3.21-4.06-5.46-1.91-4.05,3.89-7.47,9.03-12.58,10.82-2.68.94-5.66,2.47-8.21,1.67-4.37-1.37-2.12-11.22-7.16-11.85-6.73-.84-.2,9.86-4.77,11.27-4.28,1.32-7.87-1.7-11.25-4.79-1.86-1.71-4.5-5.37-5.53-1.98-5.05,16.54-12.94,2.59-19.5,2.23-1.31-1.49-2.49-3.37-3.98-4.35-1.24-.81-2.08.9-1,2.16,1.22,1.44,3.05,1.98,4.62,2.92-.66,7.46-3.6,10.26-9.52,8.46-4.56-1.38-8.64-3.41-11.74-8.36-3.23,4.84-6.45,7.44-11.55,1.94-3.11-3.37-6.53-.74-9.78.99-5.8,3.05-11.67,6.13-17.77,7.96-7.19,2.16-8.1-.12-6.12-13.24l2.86-4.58c2.65-8.35,1.85-16.28-2.81-23.73l-1.1-.66.86,1.08c2.08,7.51,2.54,15.23,2.75,22.98l-3.03,4.41c-6.16,4.1-19.26-5.98-17.81,14.04.15,2.03-2.85,2.67-4.37,1.58-8.27-5.92-15.81-.48-23.6.36-3.83.41-7.64.26-11.42-.23-3.78-.46-7.55-1.26-11.32-2.15-7.53-1.79-15.05-3.99-22.64-4.75-5.24-.52-3.88-6.24-3.82-10.51.15-1.63,3.41-.4,1.86-3.6l-2.36,2.96c-.47,1.34-1.01,2.63-1.38,4.03-1.47,5.61,1.44,16.84-6.53,14.53-8.25-2.39-1.58-11.2-2.48-17.05,1.44-9.98,5.14-17.18,13.91-18.09q-13.59,1.45-14.18,17.9c-4.66-1.45-10.2-4.45-8.49,6.68,1.76,11.48-5.76,12.38-9.38,9.28-10.03-8.56-18.45-3.52-27.5-.81-7.52,2.23-12.62-1.46-14.16-12.2l.56-1.19-.88.86c-4.4,3.3-9.61,3.44-13.87,8.67-5.91,7.27-10.38,4.16-17.36-8.31.09-1.58,3.09-.49,1.73-3.38l-2.1,2.97c-1.59-1.14-4.35-3.61-4.61-3.21-11.11,16.71-24.75,7.79-38.67,5.4-6.33-1.09-13.35-4.13-21.08-1.73-12.56,3.91-26.53,3.27-40.15.16-4.86-1.11-9.16-3.9-13.23-7.4-11.23-9.66-11.77-18.14-1.9-28.75,1.31-1.4,2.65-3.09,4.24-3.69,21.94-8.33,41.01-25.57,64.44-29.68,17.91-3.09,35.91-5.75,53.75-9.39,13.69-2.76,28.31-5.3,43.06-4.41,14.65.93,29.26-2.39,43.84-4.15l31.13-3.89c10.37-1.35,20.76-2.54,31.14-3.8,20.77-2.47,41.54-4.82,62.37-6.72,29.92-2.5,58.64-12.31,88.67-14.69,29.53-2.15,58.99-5.11,88.44-8.17,29.47-2.89,58.92-6.03,88.42-8.64,6.73-.57,13.94-4.36,20.4,3.14.79.91,2.52,2.07,2.93,1.66,16.74-16.77,36.83-1.81,55.1-6.44,18.81-4.68,38.6-4.73,58.02-4.84,11.03-.05,22.11,2.77,33.25.93,4.79-.76,9.63,1.47,9.6,10.11l-.72,1.2,1.03-.85c2.71-7.18,6.63-11.71,13.41-11.61,12.78.18,25.37-1.23,38.37.26,9.27,1.07,18.59.85,27.93.28,9.34-.54,18.69-1.48,28.02-1.96,9.3-.48,17.51,1.57,22.66,13.38,4.39,12.73-1.52,18.43-8.82,23.18l-.74,1.19,1.03-.84q14.4-5.16,8.96-23.96c-.9-6.84,1.69-10.93,6.57-10.16,25.71,4,51.45,2.87,77.14,4.93,6.77.55,11.98,5.8,14.66,17.78,1.58-19.65,2.89-21.74,14.26-18.91,9.23,2.27,18.48,3.2,27.73,3.64,9.25.45,18.51.46,27.74,1.06,8.32.53,16.18,8.4,24.9,3.21.67-.4,3.12,4.12,4.74,6.35,1.23.39.2,4.44,2.66,2.84l-2.16-3.41c-.08-7.08,1.63-10.85,7.24-5.92,4.81,4.24,2.54,12.64,6.33,19.1,5.08-16.43,13.22-19.5,26.56-17.47,17.01,2.58,34.66,5.61,51.83.2,6.12-1.95,11.54,2.01,17.11,4.21,2.35.93,4.02,3.91,1.69,6.91-1.07,1.38-3.16,1.4-4.79,2.04-3.25-3.62-5.33-2.29-6.03,2.68-.53,3.72-.52,7.6-.75,11.4l-.53,1.22.89-.79c3.14-3.92,1.83-11.32,6.31-14.2,2.53,3.86,9.55,7.64,6.82,11.34Zm-1074.73,83.36c-4.2-5.86-8.71-2.93-13.31-1.42,4.1-1.6,8.47,5.35,13.31,1.42Zm30.81-2.9c-.52-.16-1.07-.54-1.55-.44-1.68.35-1.89,1.13-.58,1.8.46.23,1.09.05,1.56-.19.27-.14.38-.76.56-1.17Zm11.41-.44c-.2-.39-.91-.37-1.39-.54-.28.51-.84,1.03-.8,1.53.15,2.12.94,2.44,1.97.8.27-.43.43-1.4.23-1.79Zm78.13,6.29c-1.39-4.14-2.36-8.64-4.3-12.31-1.63-3.09-4.1-1.94-5.67.56-1.85,2.96-3.74,6.19,1.65,6.88l2.18-1.58-.62,3.18c.06,4.12.11,8.24.17,12.37l-6.31,1.1-1.07-.67.81,1.12c.99,2.17-1.58,6.65,1.98,6.65,2.89,0,3.92-4.32,5.19-7.39,2.15-2.74,1.87-7.97,5.43-9.26,1.43,4.31,2.87,8.62,4.86,14.61,2.79-8.98-1.34-11.77-4.29-15.25Zm43.54-8.02c-.67-1.02-1.49-3-2-2.91-3.78.66-3.93,5.83-5.94,8.74,1.06.29,2.17.93,3.18.8,2.98-.37,5.21-1.92,4.76-6.64Zm21.33-30.07c1.2-1.21,2.73-2.34,3.8-3.98.63-.96-.5-2.26-1.92-1.51-1.48.77-3.02,2.03-3.89,3.67-.69,1.29.38,2.35,2.02,1.82Zm10.73,30.72c-.38-1.95-1.5-2.3-2.6-.99-2.18,2.59-2.17,6.32-2.78,12.06,5.06-2.68,6.33-6.18,5.38-11.08Zm14.52-5.34c-3.67,1.61-5.54,4.46-3.47,9.65.41,1.02,2.59,2.13,2.65,2.01,1.79-3.51,2.6-7.32.82-11.67Zm23.2-39.49c-.35-1.18-.49-2.69-1.14-3.65-1.01-1.5-2.1-1.07-1.99.75.07,1.23.83,2.52,1.44,3.66.98,1.84,1.61,1.58,1.7-.75Zm24,35.9c-.94.76-3.5,1.71-4.42,3.92-.72,1.71,1.55,3.83,3.4,3.97,2.58.2,4.44-1.6,5.02-4.71.5-2.67-.65-4.11-4-3.18Zm15.64-3.73c-.52-.17-1.08-.57-1.55-.47-1.71.34-1.93,1.13-.61,1.82.46.24,1.1.07,1.58-.17.28-.14.4-.77.59-1.18Zm11.14-.1c-2.87.03-2.49,4-3.39,6.38-.69,1.09-1.46,2.1-2.05,3.27-.85,1.69-2.16,3.38-.69,5.69.31.49,1.05,1,1.42.86,2.03-.76,1.46-3.23,1.61-5.17.11-1.43.07-2.89.09-4.34,1.97-.12,4.76,2.55,5.46-1.89.32-2.07-.48-4.83-2.44-4.8Zm14.25-58.03l1,.62.07-1.01-1.07.39Zm-8.23,2.48c-.14-.49-.9-.72-1.38-1.07-1.36.16-1.95,1.16-1.47,2.9.14.49.91,1.02,1.37,1.02,1.37,0,1.95-1.11,1.47-2.85Zm31.07,66.03l-.91.89c-.48,1.25-1.18,2.43-1.4,3.77-.28,1.77-1.11,3.94,1.06,5.11.1-1.41.18-2.83.3-4.24.12-1.41.29-2.81.43-4.22l.52-1.31Zm-.77-14.11c-7.07-2.45-11.89-1.24-16.51,2.4,4.68-2.97,10.22,5.4,16.51-2.4Zm-4.03-28.92c-1.43.69-2.79,2.37-3.55,4.11-.49,1.12.8,2.27,2.99,2.11.83-.74,2.85-1.55,3.38-3.24,1.11-3.47-1.38-3.68-2.83-2.98Zm17.67,28.53c-.86-2.32-2.9-2.41-4.52-1.47-1.69.98-2.3,3.09-1.85,5.48.47,2.49,1.75,3.76,3.78,3.22,1.91-1.73,3.9-3.71,2.59-7.23Zm15.78.74c-.96.55-2.78,1.12-2.75,1.66.15,3.11,1.28,5.93,3.61,7.21.56.3,2.27-1.14,2.42-2.12.5-3.25-.38-5.92-3.28-6.75Zm8.79-57.58c.38-.1.61-1,.91-1.53-.25-.55-.48-1.51-.75-1.55-.45-.05-1.14.31-1.34.8-.72,1.73-.23,2.66,1.18,2.28Zm20.12,55.08c-5.49-1.32-9.84-.61-14.02,1.13-1.52.63-1.43,2.08,0,3.2,3.86-2.96,9.07,2.59,14.02-4.33Zm20.22,28.56c-.6-1.04-1.72-1.59-2.6-2.35-1.38.08-1.99,1.1-1.21,2.47.58,1.03,1.68,1.97,2.62,2.19,1.36.32,1.98-.96,1.19-2.31Zm-1.46-28.18c-.04-.46-.86-1.28-1.21-1.23-2.96.48-2.35,4.21-3.23,6.59-.22.55-.71,1.19-.62,1.65.24,1.14.75,2.2,1.15,3.3l1.11.72-.89-1.1c-.33-1.4-.45-2.82-.36-4.26,1.75-1.42,4.4-1.76,4.05-5.67Zm10.47-26.41c1.49,2.08,2.79,5.43,4.5,5.98,4.18,1.34,3.42-4.1,3.98-6.97.45-2.31-1.1-3.93-3.82-3.66-1.26,1.26-2.97,2.96-4.67,4.66Zm14.92,22.15c-4.59-1.22-9.33-1.89-15.99,4.32,6.23,2.51,9.6,5.67,13.12,8.34,3.95,3,6.73-1.19,7.89-5.49,1.4-5.18-2.37-6.47-5.02-7.18Zm18.47-27.67l-.82.06.52,1.34.3-1.4Zm2.86,23.51c5.19,4.67,4.69,12.89,10.39,21.78q-.91-19.19-10.39-21.78Zm14.35,28.86c-.52.15-1.21.08-1.51.5-.9,1.25-.7,2.63.53,3.51.36.25,1.19-.03,1.49-.45.88-1.24.64-2.52-.5-3.56Zm16.63-25.87c-4.82.42-6.01.33-7.12.66-2.52.74-4.06,2.57-3.42,6.39,2.68-1.79,5.36-3.58,10.54-7.04Zm9.53,3.59c-.16-.58-2.51-.89-2.52-.82-.63,3.37-1.12,6.8-1.62,10.22,3.66-2.52,5.2-5.54,4.15-9.4Zm12.4,28.1c-.44-.35-.86-.92-1.32-1-1.52-.29-2.16.4-1.57,1.53.19.37.98.22,1.5.31l1.4-.84Zm3.6-16.36c-.05-1.78-.92-2.59-2.24-2.07-.38.15-.54,1.1-.8,1.69.18,1.76.97,2.58,2.29,2.08.37-.14.76-1.11.75-1.7Zm36.06-16.3c-1.24-2.75-2.87-3.73-4.56-2.51-.77.56-1.33,2.5-1.29,3.82.07,2.69,1.38,4.2,3.42,3.1,1.51-.81,3.01-2.07,2.43-4.42Zm11.49-68.71l1.05-.47-1.04-.56v1.03Zm6.62,72.83c-6-1.78-7.87,3.97-10.53,7.98l-.48,1.24.86-.82c3.19-2.71,8.93-.28,10.15-8.4Zm2.16-41.4c-7.3-2.71-8.94-10.93-13.71-5.26-2.71,3.22-2.27,7.91-.5,12.5,2.72-3.91,6.75-3.69,14.21-7.24Zm20.67,41.33c.1-3.16-1.34-6.89-3.84-5.32-3.05,1.92-8.11.92-8.82,6.8,1.34,4.7,3.18,7.73,6.46,7.23,3.71-.56,6.05-3.69,6.21-8.72Zm-1-36.63c-.94,0-1.91.89-2.77,1.58-1.4,1.12-1.17,2.13.53,2.17.97.02,1.94-.64,2.86-.98,1-1.52.77-2.76-.62-2.77Zm6.58,53.99l-.07-1.84-.77.95.84.89Zm15.66-14.62l-2.09-3.44-7.06-4.87-4.72-8.39-.96-.87.69,1.29c1.53,2.81,3.06,5.62,4.59,8.43l.51,9.26c-3.08,1.62-5.77,3.64-5.3,8.94l5.18-.55c.19-2.66.39-5.33.58-7.98l6.12-4.78c1.12.56.05,4.27,2.47,2.96Zm26.21-42.74c.3,4.71-3.74,9.29.83,15.13,1.34-5.76,8.94-10.09-.57-15.55l-1.09-.71.83,1.13Zm11.83,36.59c-5.99-1.14-12.43-9.26-12.26,4.73l-6.7.79c-5.48-5.21-5.63,1.29-6.96,5.2l-2.85,4.56-.57,1.31.97-.85,2.9-4.51,6.34-5.23c.99,2.4,1.63,5.8,4.2,5.47,2.55-.32,2.54-3.75,2.98-6.36,4.66,2.01,8.26.87,11.95-5.1Zm6.56-39.28c-.39-.33-.82-.97-1.16-.92-.46.06-1.17.58-1.23,1.04-.23,1.97.47,2.63,1.66,1.65.38-.31.49-1.17.73-1.77Zm8.56-36.58l.5,1.37.32-1.41-.82.04Zm15.1,31.21l-1.09-.72.84,1.12c-.51,9.83-8.94,20.37,2.39,29.68,8.48-11.06,1.58-20.45-2.14-30.08Zm4.72-17.99c-10.66-2.11,2.09-12.72-6.93-16.16-5.13,3.77-.58,18.01-10.03,17.34-1.09-2.02-2.4-3.42-4.3-2.16-.39.26-.48,1.23-.71,1.87l4.74,1.03c5.07,2.31,10.03,3.01,17.24-1.92Zm30.45,66.63c.87-5.2,1.62-10.75-3.39-12.9-.77-.33-4.18,5.4-4.17,8.41.03,6.5,3.7,6.53,7.39,4.75l1.08.93-.92-1.19Zm6.19-49.62c-3.75-1.24-6.32,2.48-9.53,3.51l-.97-1,.74,1.33c.19,1.57.39,3.15.58,4.72l-3.17,9.04-.49,1.48.77-1.19,3.44-8.88c2.48-3.64,9.77.5,8.63-9.02Zm12.5,71.23l-.89-1.48-1.06.68c.61.44,1.26.71,1.94.8Zm-2.75-49.6c-5.13-2.7-1.91,7.95-6.46,6.56-1.86-.57-4.33-4.6-5.62-.7-.54,1.64,1.65,5.32,3.03,7.64,1.7,2.87,4.05,2.82,5.76.28,2.56-3.8,5-7.87,3.29-13.77Zm.24-44.77c-2.45-2.13,1.38-10.76-4.69-10.92-4.9-.14-5.52,6.07-5.96,11.42-.63,7.7,3.81,8.74,7.59,8.86,3.26.09,4.49-3.59,3.07-9.35Zm20.71,33.86c-3.77,1.39-7.73-2.88-12.99,2.21,5.49,1.84,9.31,2.11,12.99-2.21Zm19.02,22.55l-.66-1.23c-1.87-1.79.42-7.26-3.36-6.67-.47.07,1.5,4.96,3.06,7.12l.96.77Zm1.33-29.15c-.14-1.72-1.86-4.55-2.92-4.64-2.34-.2-3.93,2.42-4.63,5.18-.85,3.35,1.4,3.06,2.94,3.47,2.04-.42,4.96.28,4.6-4.01Zm6.98,45.99c-.36,1.38-.73,2.76-1.09,4.14l-3.53,3.43,2.16,2.31,1.81-5.34c.27-1.5,2.85-2.33.65-4.55Zm10.84-51.14c3.84,10.98,2.55,19.26.54,27.42-.27.48-.83,1.07-.74,1.42.24.97.74,1.85,1.14,2.76l1.97,4.46-1.6-4.9c-.64-1.06-.69-2.14-.18-3.26,2.61-2.36,8.21,2.37,8.47-3.73.35-8.13,1.77-18.14-9.59-24.17Zm37.33,12.28c.47,1.04,1.94,1.93,2.9,1.89,3.14-.13,5.46-2.44,5.65-6.5.16-3.57-.72-7.27-1.14-10.91l.55-1.26-.92.84c-1.87,2.7-3.82,5.3-5.58,8.12-1.38,2.21-2.86,4.73-1.47,7.81Zm8,48.4c-1.15-2.51-1.22-5.07-.41-7.67l2.78-2.47c-2.08-2.06-2.3,1.26-3.43,1.93-2.67,3.14-2.6,6.04.68,8.64-.21,4.43-7.97,6.53-2.36,12.3,2.1,2.16,5.86.36,6.86-3.74,1.06-4.34-2.33-6.28-4.12-9Zm3.5-30.26c-.32-1.84-1.32-2.38-2.49-1.42-1.86,1.51-3.56,3.36-3.28,6.59.04.46,1.88.74,2.89,1.1,2.65-.7,3.45-3,2.88-6.27Zm22.86-52.2c-3.27-3.61-6.57-3.45-9.14.67-1.6,2.57-6.65,4.11-4.11,8.2,8.86,14.29-2.07,29.26,3.19,45.03,8.73-6.21-1.52-16.63,3.72-20.69,7.14-5.53,2.49-17.05,7.98-23.21,2.18-2.45.94-7.15-1.64-9.99Zm11.48,31.31l.81-1.22.83-1.15-1.08.83-.55,1.55Zm5.22,43.56c-.56-1.34-1.12-2.69-1.68-4.04-.68-1.01-.74-2.05-.17-3.13,1.57-3.65,1.79-7.11-1.02-10.17l-1.12-.86.95,1.14.61,9.39c-.29.46-.89,1.03-.81,1.36.23.98.73,1.85,1.12,2.77.99.89-.47,4.29,2.13,3.54Zm1.66-66.39l-1.06.44,1.02.58.03-1.02Zm22.24-12.58l-.84.04.48,1.34.36-1.38Zm13.59-.14c-.11-1.74-.88-2.59-2.21-2.14-.38.13-.8,1.07-.81,1.65,0,1.76.83,2.61,2.16,2.13.38-.14.58-1.07.85-1.64Zm10.02,10.95c-1.2-1.05-2.04-.49-2.16,1.46-.03.47.5,1.02.77,1.53l1.33-1.18c.03-.63.26-1.65.06-1.82Zm8.25,36.39c-.34-.14-.88.58-1.32.9.03.65-.11,1.49.15,1.89.22.34,1.09.48,1.34.2,1.15-1.26,1.07-2.47-.17-2.99Zm17.71,13.62c-.07-2.08-.13-4.16-.2-6.25-1.83,2.12-1.91,4.2.2,6.25Zm14.57-51.22c-.42-1.19-.83-2.38-1.25-3.58-.81.8-2.01,1.38-2.35,2.44-.66,2.06-.29,4.24,1.88,4.1.63-.04,1.15-1.93,1.72-2.97Zm3.02,71.99l-4.18,2.45c1.76.22,3.3-.19,4.18-2.45Zm18.65-57.57l-.34-1.42-.42,1.33.76.09Zm37.01,4.49l-1.09.42,1.04.6.05-1.02Zm7.59-18.76c-.41-1.3-.57-3.29-1.29-3.76-1.8-1.18-3.53-.06-4.37,2.13-.95,2.46.09,4.61,1.94,5.21,1.96.64,2.98-1.49,3.72-3.58Z"/>
      <path class="cls-13" d="m1281.11,441.2c-2.67-4.36-5.01-3.38-7.17.56l6.72.12c-.28,4.21-1.25,7.57-5.21,7.17-.52-2.4-1.05-4.81-1.57-7.2-2.72,3.05-3.98,6.23-.34,9.84l3.98,12.35-2.93,5.15c-1.41,1.04-1.56,1.88-.42,2.13.24.05.6-1,.91-1.54l3.71-4.22c12.89-12.81,13.16-15.39,2.33-24.36Z"/>
      <path class="cls-13" d="m1310.48,446.14c-6.03,2.74-9,8.12-10.86,14.36-1.21,4.05.76,7.22,3.91,8.62,3.04,1.34,6.62,1.56,5.46-4.17-1.33-6.57,4.82-10.54,1.49-18.81Z"/>
      <path class="cls-13" d="m1259.6,456.56c-4.55-.45-9.38,7.85-8.13,14.1.48,2.43,2.31,3.97,3.83,3.05,4.19-2.54,7.61-6.27,7.93-12.36-.48-3.3-1.77-4.6-3.63-4.78Z"/>
      <path class="cls-13" d="m836.45,549.28c-3.11.79-4.61,3.57-4.26,7.73.21,2.48,1.61,4.11,3.48,3.51,2.87-.92,4.77-3.24,4.43-7.51-.65-2.4-1.67-4.22-3.64-3.72Z"/>
      <path class="cls-13" d="m1330.35,456.66c-1.78-.4-4.04.51-4.04,2.75,0,6.11,4.25,6.02,7.24,7.47,2.16-.01,3.49-1.49,3.21-4.08-.5-4.69-3.56-5.51-6.42-6.14Z"/>
      <path class="cls-13" d="m1345.79,446.24c-1.83-.46-3.47.65-3.46,3.36.02,2.71,1.72,3.47,3.48,3.67,1.94-.44,3.52-1.51,2.62-4.43-.36-1.17-1.66-2.34-2.65-2.59Z"/>
      <path class="cls-13" d="m1243.46,453.56c-4.03,3.61-7.96,2.85-10.24-2.65-2.48-5.97,1.39-7.56,4.83-8.79l3.63-4.38c.35-.43.67-.91,1.06-1.24.07-.06.7.7.66.79-.22.55-.56,1-.85,1.49.16,1.04.41,2.05.73,3.03l4.88-.13c.74-2.83,1.22-5.98,4.08-6.37.4-.05,1.24.76,1.27,1.24.29,3.53-1.41,5.49-3.47,7.08,2.66,8.87-2.36,8.95-6.59,9.92Zm-2.1-3.57l-.31-5.51-1.17-.09c-.19,2.16-.22,4.25,1.48,5.6Z"/>
      <path class="cls-13" d="m1217.7,489.03c-.71.27-1.4,2.12-1.47,3.33-.13,2.05.44,4.33,2.42,4.12,1.71-.18,2.47-2.12,2.58-4.37-.51-2.38-1.78-3.73-3.52-3.08Z"/>
      <path class="cls-13" d="m916.67,552.06c-.84,1.37-.36,2.62.96,3.21.85-.59,2.1-.92,2.43-1.85.26-.75-.58-2.22-.94-3.38-.84.65-1.88,1.08-2.46,2.01Z"/>
      <path class="cls-13" d="m1160.78,512.59c-.78-.07-2.05.88-2.29,1.77-.23.88.56,2.26.91,3.42.81-.69,1.85-1.15,2.37-2.11.75-1.38.25-2.98-.99-3.09Z"/>
      <path class="cls-13" d="m1275.03,486.59c-1.25-.28-1.8.59-1.62,2.31.83.69,1.74,2.06,2.46,1.92,1.27-.24,1.41-1.78.47-3.17-.33-.49-.84-.96-1.31-1.06Z"/>
      <path class="cls-13" d="m1229.88,486.25c-2.81,1.89-.99,4.72-.41,7.27-1.13,2.71-.68,3.12,1.21,1.45,1.93-1.78,2.92-4.15,1.76-7.13-.35-.91-2.03-1.94-2.56-1.59Z"/>
      <path class="cls-13" d="m1238.51,468.98c.48,1.25.76,2.78,1.5,3.66,1.1,1.3,2.36.73,2.48-1.17.07-1.19-.53-3.02-1.26-3.59-.55-.43-1.78.68-2.71,1.11Z"/>
      <path class="cls-13" d="m1273.95,441.77h-.08s.01.05.02.08l.03-.04.03-.05Z"/>
      <path class="cls-13" d="m1359.49,449.65c.03.25.82.39,1.27.58.17-.66.33-1.31.5-1.96-.46-.19-1.16-.7-1.33-.48-.33.41-.5,1.25-.43,1.87Z"/>
      <path class="cls-13" d="m1372.45,448.92c-1.9-.4-3.04,1.1-3.92,3.05-.31.6-.72,1.16-.86,1.82-.05.23.66,1.1.84,1.01.49-.23.89-.81,1.33-1.25,1.62-.4,3.34-.68,3.75-3.27.06-.35-.69-1.28-1.13-1.37Z"/>
      <path class="cls-13" d="m1386.82,457.79c-.38-.12-.87.45-1.32.71.1.55.07,1.36.34,1.6.37.35,1.15.6,1.44.33,1.16-1.1.97-2.18-.46-2.63Z"/>
      <path class="cls-13" d="m1195.87,490.25c.15.57.31,1.15.47,1.73,1.34.11,1.6-.65.67-2.15-.1-.16-.74.27-1.14.42Z"/>
      <path class="cls-13" d="m1186.39,513.78c.14.51.19,1.14.45,1.47.13.17.66-.21,1-.34-.14-.51-.18-1.14-.45-1.47-.13-.17-.66.21-1.01.34Z"/>
      <polygon class="cls-13" points="1043.55 542.95 1043.57 541.17 1042.18 541.99 1043.55 542.95"/>
      <path class="cls-13" d="m1147.7,518.97c-.43.24-.76.75-1.13,1.16l-.95,2.86,2.06-1.54c.27-.53.62-1.02.76-1.6.04-.18-.6-.95-.73-.87Z"/>
      <path class="cls-13" d="m1145.71,488.49l.91-1.37-.95,1.32c-1.37.76-1.58,1.41-.59,1.6.16.03.42-1.01.63-1.56Z"/>
      <path class="cls-13" d="m1036.76,489.11c.02-1.39-.08-2.77-.27-4.14-.38.41-1.15,1.04-1.09,1.21.35,1.03.89,1.97,1.36,2.93Z"/>
      <path class="cls-13" d="m865.55,440.1c-.06.44.28,1.21.6,1.49.22.19.73-.19,1.11-.32.05-.59.31-1.41.1-1.74-.83-1.35-1.57-1.11-1.81.57Z"/>
    </g>
    <text class="cls-3" transform="translate(90.52 583.87) rotate(-1.26) scale(1.33 .98) skewX(-7.44)"><tspan x="0" y="0" xml:space="preserve">  </tspan><tspan class="cls-12" x="100.14" y="0">c</tspan><tspan class="cls-11" x="184.26" y="0">o</tspan><tspan class="cls-10" x="270.72" y="0">nn</tspan><tspan class="cls-8" x="456.32" y="0">e</tspan><tspan x="545.12" y="0">ct</tspan></text>
  </g>
</svg>