<?xml version="1.0" encoding="UTF-8"?>
<svg id="Layer_2" data-name="Layer 2" xmlns="http://www.w3.org/2000/svg" xmlns:xlink="http://www.w3.org/1999/xlink" viewBox="0 0 1009.2 681.35">
  <defs>
    <style>
      .cls-1 {
        clip-path: url(#clippath);
      }

      .cls-2 {
        fill: none;
      }

      .cls-2, .cls-3, .cls-4 {
        stroke-width: 0px;
      }

      .cls-5 {
        isolation: isolate;
      }

      .cls-3 {
        fill: #f7f7f7;
      }

      .cls-4 {
        fill: #5fc2ff;
      }
    </style>
    <clipPath id="clippath">
      <path class="cls-2" d="m1009.2,125.09l-124.54,556.26c-12.37-4.03-23.23-7.25-32.93-9.85s-18.08-4.55-25.74-6.11-14.39-2.69-20.74-3.63-12.14-1.66-17.89-2.37c-5.79-.72-11.46-1.42-17.36-2.29s-11.94-1.9-18.63-3.28c-6.64-1.37-13.87-3.09-22.06-5.33-8.13-2.22-17.2-4.96-27.57-8.4-10.31-3.42-19.29-6.65-27.32-9.77-8.01-3.11-15.09-6.12-21.58-9.06-6.5-2.95-12.42-5.85-18.11-8.75-5.7-2.91-11.16-5.82-16.71-8.77-5.47-2.91-11-5.86-16.88-8.85-5.88-3-12.1-6.05-18.93-9.15-6.83-3.1-14.26-6.26-22.54-9.48-8.26-3.21-17.34-6.46-27.49-9.77-10.08-3.29-18.7-5.8-26.21-7.74-7.45-1.93-13.81-3.29-19.4-4.26s-10.36-1.57-14.75-1.97-8.32-.62-12.22-.84c-3.93-.22-7.78-.43-11.89-.81s-8.42-.92-13.36-1.8-10.42-2.08-16.86-3.79-13.73-3.88-22.33-6.73c-8.55-2.83-16.18-5.6-23.16-8.33-6.96-2.73-13.29-5.42-19.23-8.12-5.94-2.69-11.5-5.39-16.92-8.11-5.43-2.73-10.71-5.48-16.09-8.28-5.29-2.76-10.64-5.54-16.23-8.35-5.6-2.81-11.43-5.64-17.67-8.47-6.24-2.83-12.89-5.67-20.09-8.49s-14.92-5.6-23.33-8.34c-8.37-2.73-15.34-4.73-21.25-6.2s-10.69-2.38-14.8-2.94-7.45-.77-10.44-.81c-2.98-.04-5.58.09-8.15.23-2.59.13-5.13.26-7.94.23s-5.86-.23-9.52-.75-7.87-1.35-13.01-2.66-11.13-3.08-18.37-5.47c-7.2-2.39-13.79-4.79-19.94-7.21s-11.86-4.87-17.34-7.35-10.71-5-15.87-7.56-10.26-5.17-15.43-7.82c-5.1-2.61-10.25-5.24-15.56-7.88s-10.81-5.28-16.56-7.89c-5.75-2.61-11.76-5.18-18.12-7.68-6.35-2.5-13.02-4.92-20.12-7.23L255.93,0c6.39,1.06,12.24,2.5,17.67,4.22s10.46,3.72,15.17,5.89,9.11,4.51,13.34,6.93,8.26,4.89,12.26,7.35c4.06,2.5,8.06,4.96,12.17,7.3s8.31,4.59,12.81,6.65,9.27,3.96,14.52,5.62,11,3.08,17.41,4.21c6.43,1.13,11.9,1.67,16.66,1.75s8.84-.28,12.44-.96,6.77-1.68,9.72-2.85,5.73-2.53,8.54-3.91c2.78-1.36,5.61-2.75,8.73-3.98s6.57-2.34,10.56-3.12,8.57-1.24,13.95-1.2,11.64.58,18.95,1.79c7.34,1.22,13.94,2.82,19.97,4.69s11.49,4.03,16.52,6.35,9.65,4.82,14.04,7.38,8.53,5.19,12.63,7.8c4.17,2.65,8.27,5.25,12.53,7.74,4.26,2.49,8.67,4.88,13.47,7.09s10,4.25,15.82,6.07c5.83,1.81,12.31,3.4,19.68,4.69s13.81,1.97,19.5,2.17c5.72.2,10.7-.09,15.22-.7s8.63-1.57,12.52-2.7c3.91-1.14,7.63-2.46,11.42-3.82,3.75-1.34,7.56-2.69,11.68-3.89,4.15-1.21,8.61-2.26,13.65-2.97s10.72-1.09,17.21-.93c6.53.16,13.91.85,22.39,2.26s16.05,3.2,22.79,5.27c6.76,2.07,12.72,4.4,18.13,6.9s10.27,5.17,14.82,7.91,8.78,5.53,12.98,8.3c4.26,2.81,8.45,5.58,12.86,8.24s9.05,5.2,14.2,7.58,10.85,4.6,17.37,6.59c6.54,2,13.92,3.78,22.49,5.28s16.2,2.35,23.06,2.69c6.9.34,13.06.17,18.77-.35s11.02-1.4,16.12-2.47c5.13-1.08,10.09-2.34,15.14-3.64,5.01-1.28,10.1-2.58,15.52-3.72s11.26-2.11,17.66-2.72,13.49-.86,21.41-.55c7.96.32,16.8,1.21,26.77,2.86Z"/>
    </clipPath>
  </defs>
  <g id="Layer_1-2" data-name="Layer 1">
    <g class="cls-5">
      <g class="cls-5">
        <g class="cls-1">
          <g>
            <path class="cls-4" d="m310.8,29.86c-45.21-27.34-72.95-1.68-69.53,13.62q1.17,5.25,23.34,37.1c35.87,52.25-1.97,49.51-2.38,49.43-.36-.07-33.62-10.41-23.35-27.94l3.97-6.35c-10.23-5.06-19.86-9.14-33.63-12.56l-3.25,5.02-2.74-.64c.82.19,1.92.45,2.74.64-18.33,29.53,57.78,68.92,86.59,61.98,14.33-3.45,21.47-12.65,23.38-20.11,2.42-9.47-3.22-17.4-13.47-31.79-15.53-21.81-28.94-40.65-25.14-51.61,6.71-19.4,38.72-3.96,39.06,11.39.07,3.03-1.38,5.51-1.92,6.45l-2.52,4.21c11.64,5.97,20.08,9.16,32.25,12.19,6.11-10.58,13.04-22.58-33.41-51.01"/>
            <path class="cls-3" d="m312.3,27.4c-49.21-29.84-80.69-.59-76.43,15.93q1.08,4.17,25.27,38.22c32.65,46.46,1.29,45.13.93,45.06-.29-.06-27.44-8.2-19.15-22.44l5.61-9.01c-13.09-6.86-25.43-12.18-43.13-15.85l-4.96,7.63,2.79.6,2.74.64,3.25-5.02c8.87,2.27,18.78,5.11,33.63,12.56-19.87,31.76,25.45,34.45,25.99,34.33,9.71-2.09,22.08-11.29-4.24-49.48q-25.47-36.68-23.01-44.91c3.42-11.44,19.91-20.99,41.58-17.17,14.98,2.64,77.33,32.96,62.87,59.2l-1.83,3.17c-10.94-2.76-19.32-5.52-32.25-12.19,15.6-26.09-23.28-31.43-25.64-30.87-23.01,5.42-1.29,35.93,16.16,60.44,10.65,14.97,17.09,24,12.63,34.29-7.94,18.33-29.32,19.1-35.68,18.91-27.08-.85-82.3-34.9-76.33-57.01.77-2.85,2.14-5.07,2.88-6.26l-2.74-.64c-.84-.18-1.95-.42-2.79-.6-19.37,30.91,60.64,73.61,93.41,66.58,21.96-4.71,28.17-19.01,28.38-25.91q.23-7.38-26.22-44.26c-32.22-45.72-3.31-42.41-3-42.35.27.05,25.31,7.79,17.63,21.41l-4.05,6.74c14.95,8.11,25.85,12.17,41.69,15.5,8.01-13.95,14.93-26-35.98-57.25"/>
            <path class="cls-4" d="m376.68,103.62c6.76-12.21,13.52-24.42,20.28-36.63,2.99-1.07,4.55-1.67,10.35-4.41,2.68-1.27,5.22-2.47,7.21-2.44,2.98.04,3.44,2.56,1.28,7.1-.29.61-.53,1.05-.77,1.51-11.39,20.94-13.14,24.16-26.6,30.15-6.09,2.7-7.69,3.38-11.74,4.71m39.17-54.67c-11.65,5.63-20.06,9.69-39.85,7.64-20.6,36.27-41.19,72.53-61.79,108.79,10.76,1.53,18.88,1.94,28.56-.53,8.81-15.91,17.62-31.81,26.43-47.72,4.78-1.53,51.34-19.96,56.21-22.44,8.09-4.11,12.94-8.42,16.23-14.39,8.89-16.89,10.26-19.48,6.49-26.13-3.74-6.6-13.41-11.89-25.79-7.91-2.44.79-4.75,1.84-6.49,2.67"/>
            <path class="cls-3" d="m380.85,100.03c5.21-9.43,12.16-22,17.37-31.43,3.03-1.24,3.74-1.55,8.49-3.79,1.4-.66,3.51-1.65,5.1-1.8,2.21-.21,2.68,1.16,1.44,4.19-.41,1-.92,1.95-1.19,2.45-11.54,21.18-11.99,22-22.15,26.55-4.52,2.01-6.21,2.76-9.06,3.82m27.88-38.11c-6.11,2.89-7.71,3.63-11.77,5.08-6.76,12.21-13.52,24.42-20.28,36.63,20.65-6.84,27.13-14.36,31.06-21.47q8.87-16.31,9.28-18.33c.64-3.16-1.21-4.37-4.93-3.24-1.24.38-2.51.95-3.35,1.34m-32.74-5.32c17.38,1.61,25.34-.63,37.67-6.59,6.85-3.31,12.76-6.17,21.34-4.69,7.04,1.22,19.98,8.87,12.58,23.66-9.02,17.13-9.37,17.8-16.63,22.54-15.4,10.07-33.44,13.85-50.04,21.04-6.08,2.62-7.68,3.29-11.73,4.58-8.81,15.91-17.62,31.81-26.43,47.72-7.54,1.84-14.95,2.57-28.56.53,6.31-11.11,14.72-25.92,21.03-37.03,6.08-10.7,14.19-24.98,20.27-35.68s13.68-24.08,19.54-34.41c.29-.5.67-1.17.95-1.67m41.26-10.21c-12.85,6.23-21.34,10.35-45.06,7.03l-.71,1.25,2.67.38-2.67-.38c-21.42,37.53-42.85,75.05-64.27,112.58,16.44,3.02,26.03,2.95,36.65-.28,8.84-15.99,17.67-31.98,26.51-47.97q68.18-25,75.27-34.06,12.31-23.53,8.82-30.11c-4.76-8.98-16.82-15.7-30.68-11.16-2.43.79-4.66,1.82-6.52,2.71"/>
            <path class="cls-4" d="m479.81,173.55c-19.36-11.85-14.69-21.94-13.15-25.26q33.88-68.35,35.87-69.8c10.71-7.82,32.45,7.9,35.61,17.57,1.48,4.53,0,7.93-.72,9.56-10.3,21.91-20.59,43.81-30.89,65.72l-2.09-1.11c.63.33,1.46.77,2.09,1.11-3.16,6.48-10.37,12.12-26.73,2.22m51.02-105.66c-39.05-24.39-64.37-9.07-70.51,2.16-5.84,11.23-13.62,26.21-19.45,37.44-3.87,7.45-9.03,17.39-12.9,24.84l-3.16-.72c.95.22,2.21.51,3.16.72-13.84,28.88,64.03,79.94,101.61,66.63,12.29-4.35,15.86-11.89,17.03-14.37q30.65-68.56,30.09-72.74c-1.93-14.26-29.56-33.67-45.86-43.97"/>
            <path class="cls-3" d="m524.29,81.44c-11.99-7.47-20.71-6.95-25.22,1.48q-34,68.59-34.01,71.48c-.03,13.86,23.72,26.94,33.81,23.96,4.95-1.46,7-5.65,7.67-7.03l-2.09-1.11c-.62-.34-1.45-.79-2.07-1.13-7.87,15.56-30.05-3.54-32.29-9.68-1.5-4.12.14-7.58.76-8.88q33.32-67.59,34.75-68.82c7.7-6.67,26.28,6.72,28.56,14,1.13,3.6-.23,6.58-.74,7.71-10.35,21.89-20.69,43.78-31.04,65.67l2.07,1.13,2.09,1.11q31.69-67.41,32-69.01c1.39-7.03-3.41-14.06-14.25-20.89m7.84-16.24c-43.65-27.33-72.49-6.92-78.05,3.6l-8.45,16.15c-8.02,15.33-16.04,30.66-24.05,45.98l3.23.68,3.16.72q38.47-74.05,55.68-76.85c40.15-6.53,88.65,42.47,92.22,52.78,2.01,5.8.29,10.03-.63,12.3q-34.37,76.88-52.54,80.23c-41.97,7.73-91.29-41.59-95.68-52.92-2.9-7.49-.3-12.93.95-15.54l-3.16-.72c-.97-.2-2.26-.48-3.23-.68-3.58,7.21-11.01,22.2,44.31,57.56,11.18,7.14,37.35,23.87,67.32,13.78,14.67-4.94,18.77-13.43,20.11-16.22q30.66-69.14,29.79-74.06c-2.58-14.71-36.51-37.62-50.98-46.79"/>
            <path class="cls-4" d="m619.43,145.66c4.75-11.33,11.07-26.43,15.82-37.76q21.84-6.62,24.45-6.18c2.66.45,6.64,2.47,3.31,10.91-6.41,15.88-9.06,22.45-31.15,29.31-8.04,2.49-9.08,2.81-12.43,3.72m37.49-57.22c-23.37,7.87-29.65,9.99-47.71,9.02-17.41,40.04-34.82,80.08-52.23,120.12,11.5,1.15,20.15,1.27,32.89-1.38,5.26-12.55,12.27-29.28,17.53-41.83,1.73-4.14,4.04-9.65,5.78-13.79,22.73-6.01,34.15-9.03,27.04,9.33q-14.02,34.74-13.1,39.24c6.43-.2,21.49-.68,48.39,5.87-2.29-5.67-1.59-9.45.97-16.33,12.84-33.79,18.7-49.22-15.28-54.28l-1.86-.25,1.08-2.71c26.36-5.05,39.6-7.59,45.03-20.69,16.57-43.57-40.28-35.05-48.54-32.33"/>
            <path class="cls-3" d="m624.13,141.73c4.01-9.61,9.36-22.42,13.37-32.02q16.75-5.43,19.31-5c3.46.58,4.1,3.31,2.01,8.6-6.61,16.29-8.18,20.16-25.72,25.66q-6.51,2.03-8.97,2.77m26.11-38.74q-13.86,4.58-14.99,4.91c-4.75,11.33-11.07,26.43-15.82,37.76,19.79-5.45,34.23-10.32,39.7-23.41,5.76-14.28,5.99-14.84,4.75-17.52-1.62-3.51-6.33-4.11-13.64-1.74m-41.03-5.53c17.65.77,26.04-1.47,42.32-7.17,8.87-3.1,18.92-6.62,31.48-4.66,13.36,2.09,31.14,11.09,25.42,27.34-6.51,17.13-8.06,21.2-46.06,28.11l-1.94.37-1.08,2.71c5.94.79,35.12,6,26.23,30.6q-12.76,33.59-10.06,40.26c-6.82-1.59-27.55-6.44-44.57-5.98-1,.03-2.41.51-3.32.09-1.78-.82-.85-5.83,2.77-14.87q12.11-30,11.65-33.18c-1.21-8.53-13.05-5.06-16.94-3.92-6.8,2.03-8.63,2.58-11.94,3.43-5.19,12.38-12.1,28.88-17.28,41.25-1.81,4.31-4.21,10.06-6.02,14.37-10.06,2.03-18.66,2.91-32.89,1.38,5.35-12.3,12.48-28.71,17.83-41.01,5.14-11.82,11.99-27.58,17.13-39.4,4.94-11.36,11.53-26.52,16.47-37.88.24-.55.56-1.29.8-1.84m48.88-11.85c-24.08,8.16-31.34,10.62-53.2,8.65l-.6,1.37,2.81.26-2.81-.26c-18.14,41.43-36.27,82.86-54.41,124.29,17.14,2.42,27.39,2.1,42.16-1.32,7.78-18.65,15.57-37.29,23.35-55.94,17.08-4.86,26.5-7.54,20.57,7.75q-14.42,35.55-13.31,41.24l.19.94c18.28-1.06,39.41,1.93,62.79,8.88-4.4-8.09-5.72-10.53-1.84-21.07,13.59-36.15,18.17-48.33-13.65-57.61,25.48-4.23,37.19-7.45,42.43-20.53,4.53-12.03,4.8-12.75,4.03-17.85l-1.18-.25c2.75-7.26-21.47-30.43-57.32-18.56"/>
            <path class="cls-4" d="m855.67,142.24c-35.63-6.18-49.71-14.6-71.53-28.94-19.81-13.03-31.86-19.43-55.23-25.37l-5.54,14.8c12.02,3.1,25.28,7.03,43.57,17.91l1.98,1.2c-13.31,38.32-26.63,76.64-39.94,114.96,10.62,6.34,20.92,13.21,31.84,19.05,4.41-13.39,10.28-31.25,14.69-44.64,2.13-6.48,4.98-15.13,7.11-21.61,4.13-12.56,9.64-29.31,13.78-41.87.72-2.18,1.67-5.08,2.39-7.26,13.79,7.32,27.35,12.72,52.31,17.04l4.57-15.26"/>
            <path class="cls-3" d="m764.4,120.94l2.02,1.2-2.02-1.2m-41.02-18.22l5.54-14.8c23.37,5.94,35.42,12.35,55.24,25.38,21.81,14.34,35.88,22.75,71.51,28.93l-4.57,15.26c-19.02-3.39-34.4-7.42-52.31-17.04-12.65,38.46-25.31,76.92-37.96,115.38-10.88-5.9-21.2-12.75-31.84-19.05,4.64-13.34,10.82-31.14,15.46-44.48,2.24-6.46,5.24-15.07,7.48-21.53,4.35-12.51,10.15-29.2,14.49-41.71.75-2.17,1.76-5.06,2.51-7.23l-1.98-1.2c-10.52-6.18-22.55-12.66-43.57-17.91m140.42,37.53c-39.1-5.38-55.32-14.58-77.39-29.1-21.71-14.28-35.02-21.66-63.19-27.65l-7.16,18.92-.66,1.75,1.18.25c16.45,3.71,29.46,7.85,47.28,18.03-4.36,12.45-10.17,29.06-14.53,41.51-2.25,6.43-5.25,15-7.5,21.42-4.65,13.28-10.84,30.98-15.49,44.26-.85,2.42-1.98,5.65-2.82,8.07,13.67,7.83,26.64,16.85,40.78,23.89,4.39-13.45,10.24-31.37,14.63-44.82,2.12-6.51,4.96-15.19,7.08-21.7,4.12-12.61,9.61-29.43,13.72-42.04.71-2.19,1.66-5.1,2.38-7.29,11.06,5.38,24.63,10.92,48.88,14.95,2.66-2.33,4.63-3.67,8.43-5.73l4.36-14.73"/>
            <path class="cls-4" d="m926.77,136.1c-35.01,8.99-117.01,30.03-52.73,67.23,8.13,4.71,15.14,7.26,19.33,8.79,55.47,19.73,13.25,43.51,12.78,43.74-8.2,3.9-38.48,11.95-33.39-8.41l2.24-8.12c-12.76.98-23.96.91-43.48-2.34l-1.89,6.35-3.83-.71c1.15.21,2.68.5,3.83.71-12.8,47.18,82.82,39.83,126.49,14.72,23.83-13.7,25.96-43.35-32.01-63.39-53.53-18.03-15.43-37.62-13.78-38.45,11-5.51,35.66-11.61,31.42,5.96l-1.38,5.44c13.2-1.64,26.09-2.22,46.1.23,6.84-29.69-25.35-40.39-59.7-31.76"/>
            <path class="cls-3" d="m927.6,132.98c-50.09,12.93-125.78,32.46-58.45,72.54,9.08,5.41,17.03,8.39,20.85,9.82,50.35,18.25,14.51,37.84,14.11,38.03-.32.14-30.96,12.12-26.41-6.4l3.16-11.54c-18.77,2.1-33.46,1.26-56.12-3.22l-2.91,9.64,3.97.79,3.83.71,1.89-6.35c17.62,2.88,28.99,3.49,43.48,2.34-10.87,39.33,33.21,15.48,33.66,15.22.4-.23,37.53-23.77-15.3-42.42-45.65-16.74-55.85-42.7-22.73-57.88,85.96-39.39,121.73-14.78,116.8,9.45l-.96,4.15c-12.85-1.49-26.99-2.73-46.1-.23,8.33-32.86-31.81-10.46-32.22-10.22-5.85,3.38-32.57,21.06,15.96,37.27,60.9,21.14,55.44,52.03,28.39,65.3-58.03,28.47-134.04,24.5-122.88-16.64l-3.83-.71c-1.19-.24-2.78-.56-3.97-.79-5.83,21.08,19.49,37.75,40.2,40.42,24.61,3.17,88.5-14.77,101.83-22.13,29.66-16.37,22.04-48.61-36.33-68.69-48.03-16.13-18.96-31.35-15.49-33.04.29-.14,28.88-12.76,24.68,4.56l-2.23,8.7c16.71-2.57,33.23-3.42,59.52.76,9.53-42.13-38.55-46.48-66.41-39.45"/>
            <path class="cls-4" d="m104.53,328.53c9.41-15.13,18.83-30.26,28.24-45.4,29.17,15,41.25,21.21,32.57,36.12q-12.75,21.37-17.01,23.49c-7.62,3.79-16.44.14-23.28-3.46-11.3-6.02-13.85-7.36-20.53-10.74m57.94-50.62c-19.86-10.89-35.55-19.49-58.77-26.83-29.31,45.39-58.63,90.79-87.94,136.18,12.49,4.53,23.75,9.06,41.28,17.61,8.79-14.12,20.5-32.95,29.29-47.07,2.33-3.74,5.43-8.72,7.75-12.46,34.74,17.5,82.31,41.46,104.14,4.83,14.76-25.76,22.89-39.95-35.75-72.26"/>
            <path class="cls-3" d="m111.03,327.46c7.23-11.66,16.86-27.22,24.09-38.88,25.55,13.46,32.42,17.08,25.77,28.48q-12.13,20.24-15.21,21.96c-5.48,3.06-12.81-.04-18.59-3.08-8.19-4.37-10.95-5.84-16.06-8.48m41.74-33.65c-11.01-5.99-13.49-7.32-20-10.67-9.41,15.13-18.83,30.26-28.24,45.4q29.64,15.01,33.85,15.59c11.06,1.52,15.71-6.06,17.23-8.55q12.59-21.1,12.3-25.33c-.52-7.6-8.88-13.02-15.13-16.44m-49.08-42.73c1.27.41,125.72,42.73,102.4,85.34-10.37,18.09-29.66,51.77-91.3,19.69-11.41-6.03-13.98-7.38-20.72-10.77-12.35,19.84-24.69,39.69-37.04,59.53-15.95-7.75-27.14-12.53-41.28-17.61,29.31-45.39,58.63-90.79,87.94-136.18m60.69,23.68c-24.18-13.28-39.09-21.14-64.39-28.49l-1,1.55,2.88.83-2.88-.83c-30.49,46.98-60.97,93.95-91.46,140.92,15.39,5.29,29.44,10.81,51.91,22,12.34-19.91,24.67-39.83,37.01-59.74,22.7,11.67,82.99,42.66,107.78.83,14.89-26.13,23.87-41.9-39.84-77.07"/>
            <path class="cls-4" d="m319.81,307.97c-22.9-5.05-32.71-4.45-46.06-1.21-9.55,2.32-17.1,4.16-34.78.92-26.58,47.02-53.16,94.04-79.74,141.06,16.63,4.32,23.08,4.47,33.82,3.78,11.83-.75,21.48-.68,46.92,6.83l10.34-19.6c-24.56-6.92-26.19-6.84-53.46-5.57,8.06-14.6,18.81-34.06,26.88-48.66.27-.48.62-1.13.89-1.61q23.9-2.7,36.15-.79l9.76-18.2q-12.21-1.74-36.22,1.45c6.85-12.4,15.97-28.92,22.82-41.32,26.15-4.7,29.51-5.31,53.52.29l9.17-17.38"/>
            <path class="cls-3" d="m238.97,307.68c16.26,2.86,22.88,1.97,34.09-.75,12.3-2.98,22.21-4.52,46.75,1.04l-9.17,17.38c-23.92-5.46-25.59-5.17-53.52-.29-6.85,12.4-15.97,28.92-22.82,41.32q24-3.2,36.22-1.45l-9.76,18.2q-12.23-1.9-36.15.79c-9.25,16.76-18.51,33.51-27.76,50.27,25.51-1.31,28.79-1.48,53.46,5.57l-10.34,19.6c-23.71-6.9-33.43-7.7-46.25-6.88-9.15.59-16.38,1.05-34.49-3.74,26.58-47.02,53.16-94.04,79.74-141.06m89.23-1.54c-29.47-7.34-39.88-5.83-53.51-2.47-11.05,2.72-19.18,4.06-38.98-.24l-.91,1.6,2.61.56-2.61-.56c-7.51,13.23-17.53,30.87-25.05,44.1-7.83,13.79-18.27,32.17-26.1,45.96-10.58,18.62-21.15,37.24-31.73,55.86,21.22,6.1,28.25,6.03,39.82,5.35,11.56-.68,22.8-.44,52.99,9.17,4.33-8.26,10.1-19.28,14.43-27.54-31.67-9.58-39.33-8.99-57.85-7.56,7.14-12.95,16.66-30.22,23.8-43.17,16.64-2.25,21.11-2.85,38.58.54,4.09-7.67,9.55-17.89,13.64-25.56-17.42-3.09-21.92-2.35-38.65.39,5.72-10.38,13.35-24.21,19.07-34.59,18.51-3.78,26.96-5.51,57.66,2.58,3.84-7.32,8.95-17.09,12.79-24.41"/>
            <path class="cls-4" d="m335.11,478.58c-15.66-8.38-20.75-18.73-15.15-30.76q44.57-90.05,47.11-92.14c12.97-10.68,39.19,6.44,42.98,18,1.94,5.92-.25,10.76-1.08,12.58-13.51,28.84-27.03,57.69-40.54,86.53l-2.49-1.2c.75.36,1.74.84,2.49,1.2-5.91,12.17-17.43,14.18-33.32,5.79m67-139.08c-46.02-25.5-75.89-10.54-84.74,5.74-14.21,27.35-28.41,54.69-42.62,82.04l-3.48-1.13c1.04.34,2.43.79,3.48,1.13-20.98,41.78,74.51,96.83,120.3,81.56,16.15-5.39,20.92-15.58,22.49-18.92q40.23-90.64,39.66-96.15c-2.29-22.35-39.29-45.39-55.09-54.26"/>
            <path class="cls-3" d="m393.58,357.21c-18.5-10.2-27.04-3.24-30.95,4.39q-44.82,90.56-44.94,94.22c-.58,17.41,28.32,31.44,40.92,26.69,6.24-2.35,8.93-7.89,9.82-9.72l-2.49-1.2c-.74-.36-1.72-.84-2.45-1.2-10.03,20.17-36.76.07-39.85-8.33-1.88-5.12.2-9.64,1.19-11.81q43.85-89.07,45.64-90.79c9.71-9.3,31.69,5.85,34.65,13.88,1.75,4.75-.17,8.98-.89,10.57-13.58,28.83-27.16,57.65-40.74,86.48l2.45,1.2,2.49,1.2q41.56-88.71,42.02-90.81c1.98-9.08-3.7-17.42-16.87-24.76m10.22-21.22c-49.54-27.54-83.52-10.17-93.3,7.25-14.26,27.26-28.52,54.53-42.79,81.79l3.56,1.12,3.48,1.13q50-96.26,68.83-100.23c44.97-9.49,106.57,40.52,112.74,61.91,2.25,7.81-.01,13.37-1.23,16.36q-44.23,99.64-64.26,104.75c-46,11.73-106.89-32.02-117.32-58.46-4.73-12-.7-20.32,1.24-24.32l-3.48-1.13c-1.07-.34-2.49-.78-3.56-1.12-21.25,42.6,75.26,106.77,132.39,88.03,12.27-4.02,19.87-10.49,24.66-20.96q40.58-92.16,39.64-99.14c-3.27-24.35-58.26-55.65-60.6-56.97"/>
            <path class="cls-4" d="m496.63,449.28c6.51-15.6,15.18-36.41,21.69-52.01.21-.52.5-1.2.72-1.72,20.76-1.91,38.69-3.57,30.88,16.51-12.31,30.75-14.52,36.29-36.66,36.59q-2.34.04-16.62.63m46.77-74.19q-36.06,2.95-49.57.96c-22.93,53.07-45.87,106.13-68.8,159.19,13.22,3.14,21.08,4.31,33.65,5.02,7.03-16.86,16.41-39.34,23.44-56.2,1.85-4.45,4.33-10.37,6.18-14.82,91.59-2.04,101.16-2.25,110.29-25.41,9.45-25.32,11.99-32.13,2.04-44.52-5.58-6.95-28.07-26.32-57.23-24.23"/>
            <path class="cls-3" d="m501.8,445.17c5.75-13.85,13.42-32.31,19.18-46.15,18.05-1.72,29.97-2.86,23.94,12.57q-9.7,24.09-12.16,26.81c-3.83,4.22-9.17,6.09-17.85,6.24-4.67.1-5.31.13-13.1.53m33.82-51.08q-2.33.15-16.58,1.46c-7.47,17.91-14.94,35.82-22.41,53.73,29.81-1.24,38.81-1.62,45.34-17.36q10.1-25.25,9.45-29.12c-1.02-6.05-6.78-9.23-15.8-8.71m-41.78-18.03c27.3,3.95,55.56-6.86,82.31,5.38,17.56,8.04,36.81,22.44,28.77,45.44-13.78,36.91-15.89,42.59-99.98,42.06q-2.34,0-16.64.31c-9.87,23.67-19.75,47.35-29.62,71.02-12.68-.72-20.54-1.89-33.65-5.02,7.09-16.4,16.54-38.27,23.63-54.68s15.79-36.54,22.56-52.2c6.47-14.97,15.09-34.93,21.56-49.9.31-.72.73-1.69,1.04-2.42m51.11-4.72q-38.31,3.26-55.09.16l-.78,1.8,2.83.51-2.83-.51c-23.87,54.88-47.73,109.75-71.6,164.63,18.7,4.95,27.98,6.07,42.94,6.83,7.06-16.98,16.46-39.62,23.52-56.6,1.86-4.48,4.34-10.45,6.2-14.93q106.14-2.59,115.62-26.89c9.78-26.47,12.74-34.46.75-49.24-4.6-5.67-30.02-28.09-61.57-25.76"/>
            <path class="cls-4" d="m677.54,413.71c-14.67-8.41-24.94-13.82-40.33-20.02-21.19,58.19-42.39,116.37-63.58,174.57,45.48,19.14,87.76,45.41,134.96,60.73l7-23.31c-43.34-13.85-60.06-22.89-90.42-39.28,6.11-17.82,14.26-41.58,20.37-59.39,2.94-8.58,6.87-20.02,9.81-28.61,5.68-16.55,13.24-38.61,18.92-55.16.98-2.86,2.29-6.67,3.27-9.52"/>
            <path class="cls-3" d="m637.21,393.69c14.49,5.9,23.91,10.58,40.33,20.02-17.46,50.89-34.91,101.79-52.37,152.68,30.37,16.4,47.11,25.44,90.42,39.28l-7,23.31c-47.16-15.43-89.42-41.71-134.96-60.73,6.58-18.06,15.35-42.13,21.92-60.19s14.59-40.07,20.85-57.24c5.96-16.35,13.9-38.15,19.85-54.5.29-.79.67-1.84.96-2.63m46.04,18.58c-17.42-10.1-30.37-17.29-50.96-24.94l-.72,1.96,3.23,1.21-3.23-1.21c-22.15,60.27-44.3,120.54-66.45,180.81,50.98,20.47,97.97,50.02,150.77,66.35,2.91-9.83,6.8-22.94,9.71-32.76-45.6-13.71-66-23.98-94.19-39.27,6.05-17.75,14.11-41.43,20.16-59.18,2.91-8.55,6.8-19.95,9.71-28.51,5.62-16.49,13.11-38.48,18.73-54.97.97-2.85,2.26-6.64,3.23-9.49"/>
            <path class="cls-4" d="m919.23,466.12c-46.33-10.36-94.23-2.56-140.63-12.18-17.59,60.1-35.18,120.2-52.77,180.3,48.59,13.58,99.61,14.83,148.04,29.23l5.94-25.87q-35.29-10.04-98.09-17.16c5.12-18.87,11.95-44.03,17.08-62.91.17-.62.39-1.45.56-2.07q51.11,3.21,69.54,6.71l5.71-23.64q-18.27-3.24-69.13-5.61c4.3-15.85,10.04-36.97,14.34-52.82,58.34.47,60.62.49,94.26,8.39l5.14-22.38"/>
            <path class="cls-3" d="m778.6,453.93c46.42,9.4,94.31,1.61,140.63,12.18l-5.14,22.38q-33.56-7.77-94.26-8.39c-4.3,15.85-10.04,36.97-14.34,52.82q50.83,2.35,69.13,5.61l-5.71,23.64q-18.4-3.48-69.54-6.71c-5.11,18.84-11.93,43.96-17.05,62.8-.18.65-.41,1.53-.59,2.18,60.36,6.73,62.72,6.99,98.09,17.16l-5.94,25.87c-48.46-14.24-99.48-15.48-148.04-29.23,5.46-18.66,12.74-43.53,18.2-62.18,5.19-17.74,12.11-41.38,17.3-59.12,4.94-16.88,11.53-39.4,16.47-56.28.24-.82.56-1.9.8-2.72m151.08,10.06c-51.75-12.75-105.68-3.76-157.51-15.82l-.6,2.02,3.88.89-3.88-.89c-18.41,62.14-36.81,124.27-55.22,186.4,54.51,16.35,112.11,18.1,166.45,35.26,2.46-10.91,5.74-25.46,8.2-36.37-45.13-13.57-59.67-15.01-102.83-19.28,4.51-16.75,10.53-39.09,15.04-55.85,37.77,2.07,45.62,2.51,72.36,8.25,2.37-9.97,5.54-23.26,7.91-33.22-26.51-5.29-33.41-5.5-71.75-6.71,3.58-13.27,8.34-30.97,11.92-44.25,39.74-.07,56.19-.09,98.92,11.01,2.13-9.44,4.96-22.02,7.09-31.45"/>
            <path class="cls-4" d="m232.07,140.53c-29.25-16.16-52.78-7.72-63.14,7.81-14.15,21.89-28.29,43.77-42.43,65.66l-2.82-.81c.85.24,1.97.57,2.82.81-19.9,32.25,42.12,64.96,67.89,59.24,9.44-2.1,16.97-7.68,22.39-16.61l9.74-16.51c-7.81-3.37-13.54-6.08-24.98-12.35q-14.55,24.04-20.6,25.26c-8.76,1.78-24.59-6.33-26.65-15.68-1.01-4.58,1.16-8.23,2.2-9.98q44.86-71.5,47.07-73.2c10.37-8.01,29.14,3.06,31.07,12.84.87,4.42-1.17,7.98-2.04,9.5l-7.57,12.5c10.3,5.72,16.24,8.69,24.47,12.2,10.48-17.76,22.35-37.89-17.4-60.67"/>
            <path class="cls-3" d="m233.7,137.72c-30.49-17.01-58.47-8.25-70.35,9.19-14.18,21.83-28.36,43.66-42.55,65.5l2.87.78,2.82.81q49.2-76.12,61.59-80.06c30.11-9.58,67.81,17.23,71.76,37.64,1.69,8.73-2.07,15.42-3.68,18.27l-6.7,11.35c-7.67-3.3-13.28-5.96-24.47-12.2q11.33-18.71,8.73-24.72c-2.84-6.57-15.11-14.82-24.88-12.6-5.58,1.27-8.26,5.42-9.14,6.78q-44.97,71.67-45.54,74.6c-2.23,11.51,17.26,22.19,27.21,19.87,5.6-1.31,8.39-5.79,9.31-7.26l10.84-17.9c10.54,5.77,16.61,8.77,24.98,12.35-14.34,24.32-20.89,35.41-42.69,33.93-21.33-1.45-56.6-22.89-61.24-40.99-2.31-9,2.05-16.06,3.91-19.08l-2.82-.81c-.86-.23-2.01-.55-2.87-.78-21.9,34.79,46.73,70.62,75.2,64.59,10.89-2.31,19.49-8.5,25.57-18.41l11.47-19.54c-11.42-4.57-19-8.28-33.8-16.55q-15.18,24.95-19.07,26.46c-6.08,2.35-19.28-4.5-21.07-10.94-.95-3.4.57-6.47,1.8-8.49q44.18-70.72,45.39-71.83c8.21-7.51,22.38,2.46,23.95,8.41.98,3.71-.99,7.04-1.64,8.14l-9.36,15.39c12.95,7.33,21.22,11.64,33.21,16.36,12.45-21.2,25.31-43.13-18.74-68.28"/>
            <path class="cls-4" d="m269.95,286.14c-8.14.16-13.69-5.3-7.94-15.7q40.19-71.21,41.78-73.07c7.26-8.45,26.29-11.96,27.79-7.94.91,2.43-1.76,7.37-2.9,9.47-12.98,23.55-25.97,47.09-38.95,70.64l-1.25.31c.38-.09.88-.22,1.25-.31-6.05,10.86-12.52,16.29-19.79,16.6m62.73-112.64c-15.63,2.05-31.63,1.2-46.88,6.12-8.13,2.62-14.51,7.7-18.97,15.11-12.75,21.86-25.49,43.72-38.24,65.57l-2.56-.92c.77.28,1.79.64,2.56.92-15.8,28.51,21.75,45.98,39.25,40.88,12.31-3.59,28.38-19.11,38.2-36.9q51.32-94.16,26.64-90.78"/>
            <path class="cls-3" d="m324.59,187.94c-15.35,2-20.8,8.59-23.57,13.37q-40.17,71.18-40.77,73.04c-3.17,9.8,5.87,13.46,13.52,11.14,5.66-1.71,11.03-7.08,15.98-15.96l-1.25.31c-.38.09-.89.21-1.27.29-10.71,19.07-21.95,12.2-22.82,8.96-.79-2.97,1.32-6.82,2.02-8.08q39.88-70.95,40.8-72.12c6.96-8.81,20.7-9.49,21.41-6.66.49,1.94-1.6,5.8-2.49,7.45-12.98,23.49-25.95,46.97-38.92,70.46l1.27-.29,1.25-.31q40.12-72.75,40.75-74.24c3.38-7.91-.49-8.02-5.9-7.36m9.62-17.3c-17.09,2.29-34.63.74-51.39,5.91-13.4,4.14-19.07,13.37-20.94,16.41-12.79,21.82-25.58,43.65-38.37,65.47l2.51.94,2.56.92q41.95-71.93,48.13-76.24c8.21-5.72,19.25-6.91,25.18-7.55q46.24-4.97,47.32-.25c.91,3.99-.94,10.34-5.5,18.89q-48.39,88.8-64.48,100.19c-26.67,18.9-51.52-6.34-54.13-16.17-2.26-8.51,1.92-16.04,3.49-18.88l-2.56-.92c-.75-.28-1.76-.66-2.51-.94-17.87,31.44,23.12,51.45,42.45,46.05,11.65-3.25,31.41-19.71,43.04-40.63q52.74-97.01,25.21-93.22"/>
            <path class="cls-4" d="m475.03,200.39q-16.94-10.06-21.7-12.7c-6.21,12.61-14.5,29.43-20.71,42.04-5.62,11.41-13.11,26.62-18.73,38.02-1.35-.71-3.15-1.66-4.5-2.36,3.7-40.07,4.74-64.71,3.96-94.17-18.33-4.86-31.4-6.65-43.71-5.97-23.33,43.19-46.66,86.37-69.98,129.56,8.7.34,15.25,1.3,26.97,3.95,17.54-33.31,35.08-66.62,52.61-99.94,1.98.41,4.62.96,6.59,1.4,1.53,24.38,2.65,55.67-3.53,118.77q7.17,3.66,28.47,15.58c6.6-13.78,15.39-32.14,21.99-45.92,6.32-13.2,14.75-30.81,21.07-44.01,6.06-12.67,14.15-29.55,20.22-42.22.29-.61.69-1.43.98-2.05"/>
            <path class="cls-3" d="m409.39,265.38c1.35.7,3.16,1.64,4.5,2.36,6.44-13.08,15.03-30.51,21.47-43.59,5.39-10.94,12.58-25.53,17.97-36.47q4.75,2.64,21.7,12.7c-21.42,44.73-42.84,89.46-64.26,134.19q-21.36-11.97-28.47-15.58c3.54-37.07,6.42-77.11,3.53-118.77-1.98-.43-4.61-1-6.59-1.4-11.34,21.55-22.69,43.09-34.03,64.64-5.57,10.59-13.01,24.71-18.58,35.3-11.93-2.68-18.49-3.64-26.97-3.95,23.33-43.19,46.66-86.37,69.98-129.56,8.87-.46,21-.11,43.71,5.97.74,30.06-.29,54.7-3.96,94.17m71.17-65.69q-27.9-16.25-29.98-17.35c-11.71,23.64-23.42,47.28-35.13,70.91,2.76-30.5,4.29-53.98,3.96-83.76-31.82-9.29-46.82-7.45-51.75-6.85l-.8,1.48,1.75-.2-1.75.2c-6.59,12.16-15.38,28.38-21.97,40.54s-16.02,29.56-22.88,42.23-16.7,30.81-23.85,44.02c-1.18,2.18-2.76,5.09-3.94,7.27,9.17-.06,18.62.87,37.34,5.71,16.07-30.74,32.14-61.47,48.21-92.2.99,16.69,2.82,47.76-2.79,109.03q3.37,1.66,36.51,19.79c6.58-13.82,15.36-32.26,21.95-46.08,6.31-13.25,14.72-30.91,21.04-44.16s14.12-29.65,20.18-42.36c1.17-2.46,2.73-5.74,3.9-8.2"/>
            <path class="cls-4" d="m595.7,224.06c-6.63,1.64-12.36,3.05-19.31,3.83-11.76,27.79-23.52,55.58-35.28,83.37-1.23.05-2.87.1-4.1.12,1.34-16.88,3.84-48.3-2.09-86.86-9.34-2.15-24.98-5.74-44.31-15.5-21.03,44.82-42.05,89.63-63.08,134.44,5.49,2.67,14.69,7.13,28.57,11.87,6.3-13.9,14.71-32.43,21.01-46.33,3.05-6.73,7.12-15.7,10.17-22.43,4.64-10.23,10.82-23.87,15.46-34.1,1.83.56,4.28,1.31,6.12,1.84q7.31,75.26,3.94,113.04c8.16.17,12.44-.11,24.13-1.58,6.04-14.58,14.1-34.01,20.14-48.59,5.78-13.94,13.49-32.54,19.27-46.48,5.54-13.35,12.92-31.16,18.45-44.51.27-.65.63-1.51.89-2.16"/>
            <path class="cls-3" d="m537.01,311.39c1.23-.03,2.87-.07,4.1-.12,5.76-13.62,13.45-31.79,19.22-45.41,4.82-11.39,11.25-26.57,16.07-37.96,6.71-.84,10.34-1.61,19.31-3.83-19.59,47.25-39.17,94.49-58.75,141.73-10.27,1.29-15.33,1.79-24.13,1.58q3.21-36.99-3.94-113.04c-1.84-.54-4.29-1.27-6.12-1.84-15.55,34.29-31.1,68.57-46.65,102.86-6.18-2.16-15.52-5.43-28.57-11.87,6.47-13.8,15.11-32.2,21.58-46s14.48-30.86,20.69-44.09,13.89-29.61,19.85-42.3c.29-.62.67-1.44.96-2.05,10.77,5.34,23.58,10.91,44.31,15.5,2.89,20.32,5.67,45.46,2.09,86.86m63.38-91.39c-12.87,3.17-18.2,4.49-26.64,5.07-10.44,24.57-20.88,49.13-31.33,73.7,2.33-30.42,2.08-49.67-1-76.3-21.94-4.5-35.98-9.4-53.64-18.75l-.72,1.53,2.12,1.12-2.12-1.12c-21.92,46.46-43.84,92.93-65.76,139.39,7.43,3.78,19.86,10.11,39.54,16.28,6.29-13.97,14.68-32.61,20.97-46.58,3.05-6.77,7.11-15.79,10.15-22.55,3.47-7.71,8.1-17.98,11.57-25.69q6.81,72.99,4.47,104.72c11.08.59,14.87.14,30.82-1.75,6.06-14.67,14.14-34.22,20.2-48.89s13.52-32.73,19.32-46.76c5.55-13.43,12.95-31.34,18.49-44.77,1.07-2.6,2.5-6.06,3.57-8.65"/>
            <path class="cls-4" d="m715.36,242.18c-34.01-17.41-77.83-26.05-106.56-21.01-19.52,47.75-39.04,95.5-58.55,143.25,40.98-2.19,91.26,17.24,112.12,27.81l6.87-19.46c-35.8-17.9-69.15-23.99-81.82-25.77,5.83-14.77,13.61-34.47,19.45-49.25.19-.49.45-1.14.64-1.63,13.26,1.69,39.6,6.3,67.1,18.1l6.55-18.18c-28.83-12.13-54.13-16.26-66.65-17.65,4.94-12.51,11.53-29.18,16.46-41.69,16.08,1.6,47.64,6.68,78.31,22.67l6.08-17.21"/>
            <path class="cls-3" d="m608.8,221.17c40.03-6.54,87.21,10.88,106.56,21.01l-6.08,17.21c-33.85-17.27-66.04-21.61-78.31-22.67-4.94,12.51-11.53,29.18-16.46,41.69,13.19,1.57,39.38,5.96,66.65,17.65l-6.55,18.18c-29.07-12.25-54.52-16.6-67.1-18.1-6.7,16.96-13.39,33.92-20.09,50.88,16.62,2.53,49.36,9.25,81.82,25.77l-6.87,19.46c-36.64-18.25-82.74-29.68-112.12-27.81,6.02-14.74,14.06-34.39,20.08-49.13,5.76-14.09,13.44-32.89,19.2-46.98s12.87-31.47,18.38-44.96c.27-.65.62-1.53.89-2.18m112.28,20.04c-30.39-16.56-77.62-29.97-114.61-22.59l-.67,1.63,1.82-.36-1.82.36c-20.27,49.4-40.55,98.8-60.82,148.2,37.89-2.98,88.02,13.05,120.89,30.26,2.87-8.17,6.69-19.07,9.55-27.25-25.05-13.19-52.05-22.35-80.26-27.21,5.14-13.11,11.99-30.59,17.13-43.7,36.62,6.01,59.01,16.37,66.37,19.77,2.73-7.64,6.37-17.83,9.11-25.48-20.63-9.39-42.74-15.85-65.72-19.18,4.1-10.47,9.57-24.43,13.68-34.91,43.22,5.99,68.58,19.97,76.91,24.56,2.53-7.23,5.91-16.87,8.45-24.1"/>
            <path class="cls-4" d="m768.77,269.99c-21.08-9.37-44.97-19.99-55.5,9.19-9.58,27.53-19.16,55.06-28.74,82.6l-2.28-1.26c.68.38,1.59.88,2.28,1.26-18.49,56.18,64.79,84.71,99.52,67.71,8.82-4.32,14.85-11.68,17.94-21.89l6.1-21.15c-6.97-1.06-21.46-3.28-44.11-10.06q-9.2,29.72-16.29,32.14c-11.52,3.93-30.65-3.7-35.91-14.33-3.22-6.51-1.35-12.54-.65-14.82q29.89-89.73,32.11-92.1c8.3-8.83,35.16,4.94,40.07,15.33,2.01,4.25,1.05,7.74.59,9.42l-4.84,15.64c11.46,3.26,25.57,6.9,43.33,9.16,10.57-36.67,8.57-39.17-53.61-66.85"/>
            <path class="cls-3" d="m769.78,266.52c-21.85-9.73-49.03-21.84-60.91,10.17-9.64,27.52-19.29,55.04-28.93,82.56l2.32,1.26,2.28,1.26q33.44-96.11,43.72-100.23c18.49-7.41,90.65,27.8,97.68,43.58,3.24,7.28,1.46,14.05.6,17.3l-4.15,14.4c-6.85-.9-21.11-2.77-43.33-9.16q6.94-22.42,1.92-28.66c-5.17-6.42-26.52-18.86-35.72-13.34-3.56,2.14-4.95,6.13-5.47,7.63q-30.13,90.46-29.82,94.18c1.4,16.73,27.39,25.93,39.37,20.38,5.56-2.57,7.06-7.15,7.63-8.87l7-22.6c11.68,3.46,26.06,7.36,44.11,10.06-9.34,32.39-12.83,44.51-40.73,47.32-23.85,2.41-64.42-6.91-79.94-35.15-6.23-11.34-7.2-23.73-2.88-36.84l-2.28-1.26c-.7-.38-1.62-.88-2.32-1.26-20.99,62.19,70.99,93.66,108.86,73.94,14.32-7.46,18.31-20.45,19.62-24.72l7.15-25.07c-18.54-2.21-37.84-6.58-57.35-13q-9.73,31.09-13.04,32.94c-8.84,4.94-24.88-2.55-28.82-9.54-2.77-4.92-1.27-9.81-.62-11.9q29.29-88.6,30.55-90.26c6.31-8.38,26.69,3.11,30.2,9.64,2.08,3.88,1.06,7.37.67,8.68l-6.02,19.22c20.1,6.37,38.57,10.3,56.49,12.01q6.86-24.05,6.45-29.97c-1.63-.16-3.8-.36-5.43-.54.75-2.61,1.76-6.09,2.51-8.7-6.69-11.08-13.97-14.33-61.37-35.44"/>
            <path class="cls-4" d="m960.36,287.13c-31.04-5.01-47.3-4.13-74.22-.08-14.48,2.18-26.99,4.06-45.1,2.84l-5.09,17.79c11.7.78,20.59.81,36.72-1.2l2.37-.31c-12.58,46.97-25.15,93.94-37.73,140.91,20.35-.71,22.97-.8,31.31-.57,4.26-16.78,9.95-39.15,14.21-55.92,2.05-8.08,4.79-18.86,6.84-26.94,3.96-15.59,9.24-36.38,13.2-51.97.68-2.69,1.6-6.28,2.28-8.98,17.27-.89,30.58.01,50.83,3.43l4.37-19.01"/>
            <path class="cls-3" d="m869.79,308.62l2.39-.29-2.39.29m-33.84-.92l5.09-17.79c16.19.94,25.29.14,44.42-2.74,20.47-3.08,39.81-5.99,74.9-.03l-4.37,19.01c-20.67-3.47-33.49-4.34-50.83-3.43-12.18,47.94-24.36,95.87-36.53,143.81q-8.6-.17-31.31.57c4.4-16.42,10.26-38.32,14.66-54.75,2.12-7.92,4.95-18.48,7.07-26.4,4.09-15.29,9.55-35.67,13.64-50.96.71-2.64,1.65-6.16,2.36-8.81l-2.37.31c-12.88,1.57-22.54,2.22-36.72,1.2m134.08-22.68c-39.5-7.54-57.91-5.41-84.68-1.31-16.5,2.53-29.72,4.16-49.55,2.13l-4.66,16.13-2.51,8.7c1.63.17,3.8.4,5.43.54,13.1.96,21.33.78,35.23-.76-12.68,46.98-25.36,93.96-38.04,140.94q33.37-.76,42.02-.36c4.25-16.9,9.92-39.43,14.17-56.33,2.05-8.14,4.78-18.99,6.82-27.13,3.95-15.7,9.21-36.63,13.16-52.33.68-2.71,1.59-6.32,2.27-9.04,18.04-.34,32.25,1.1,54.31,5.51,1.81-8.01,4.21-18.69,6.02-26.7"/>
          </g>
        </g>
      </g>
    </g>
  </g>
</svg>