<?xml version="1.0" encoding="UTF-8"?>
<svg id="Layer_2" data-name="Layer 2" xmlns="http://www.w3.org/2000/svg" viewBox="0 0 1350.67 339.9">
  <defs>
    <style>
      .cls-1 {
        fill: #67bff7;
        stroke-width: 0px;
      }
    </style>
  </defs>
  <g id="Layer_1-2" data-name="Layer 1">
    <g>
      <path class="cls-1" d="m1192.8,29.18c-3.78,7.37-1.45,19.63-9.69,23.01-5.67,2.36-11.43,4.47-18.31,7.15-.96-11-1.79-20.5-2.61-29.99,1.61-.04,3.23-.02,4.84-.13,2.76-.18,3.92-2.53,2.66-5.54-1.74-4.16-3.68-1.08-5.12.2-1.23,1.1-1.97,3.02-2.93,4.58-4.09,2.35-5.96-3.2-10.87-6.57,6.7,19.7-4.63,26.81-10.78,37.5,5,12.09,15.37,9.09,22.31,14.06.12,6.66-3.09,6.98-5.66,8.1-13.73,5.97-14.83,4.97-16.92-14.93-.16-1.48-.8-2.94-1.22-4.41-4.05,1.25-5.36,5.78-4.67,10.14,2.14,13.44-2.92,19.09-11.71,21.41l-2.57,5.21-1.95,1.62.26-3.09,2.41-5.37c.03-11.22,8.92-19.02,3.43-33.18-2.05-5.29-13.47-13.49-2.65-21.4,1.62-1.18-2.17-4.06-4.27-5.24-4.38-2.47-6.43-.46-7.26,4.84-1.4,8.97.95,19.74-5.45,26.32l-.32,1.31.73-.96c2.56-1.27,5.42-3.44,7.89.17,1.78,2.61.54,5.89-1.3,7.46-7.26,6.17-14.66,12.14-21.98,18.21,1.95,1.96,4.05,3.91,4.24,7.28.05.83-1.12,1.59-1.72,2.39l-3.57-7.94c-1.77,5.33.61,10.64,1.44,15.96l11.77-1.87c-.05-.75-.12-1.5-.15-2.25-.19-4.31-1.84-9.51,1.95-11.84,2.89-1.78,4.21,1.87,4.98,4.7,1.65,6.04,3.41,12.46-4.3,12.02-.94,10.96-11.22,11.16-13.61,20.44-.3.47-.56,1.03-.94,1.34-.12.1-.87-.55-.86-.73.05-.61.3-1.17.48-1.75-1.01-4.57-2.93-8.44-5.88-11.52-2.61.04-8.06-.45-7.17-1.85,6.1-9.63.1-20.34.17-30.32.06-8.09.41-16.13.67-25.15-4.96,2.38-8.58,7.57-14.28-.18-3.94-5.36-10.97-11.56-12.06,2.64l-1.75,9.59-.31,1.29.74-.92c.65-3.19,1.3-6.37,1.96-9.55,5.76-2.88,11.03,5.27,9.85,7.65-4.98,10,5.4,10.18,6,15.9,2.95,2.9,3.8,6.26,2.23,10.17,1.49,3.36,3.95,8.22-.77,8.21-4.29-.01-5.84,3.27-8.19,5.95-1.99,2.53-7.33-3.54-7.33,3.81,0,1.07,1.08,3.01,1.88,3.37,4.77,2.15,5.06-2.67,5.94-6.49,10.3,3.76,8.89,10.58,4.38,18.2,2.06.23,4.57-.58,4.85,3.83.04.56-.4,1.43-.79,1.57-3.19,1.13-3.27-2.63-4.3-4.89-10.79-6.62-11.86,6.26-16.22,12.57-9.96-23.12-9.74-29.87,1.69-45.11-8.39-2.16-11.93,3.85-15.66,11.14-2.8,5.48-5.64,1.63-6.94-3.85-1.11-12.28-2.21-24.55-3.32-36.83-3.33,7.31-5.58,13.65-8.08,19.84l-6.11,1.57c-9.6-8.73,2.76-15.79-.9-24.08-14.21.66-15.61,2.58-9.61,16.25,3.5,7.98,5.46,17.96,13.3,22.09l1.11.6-.87-1.11c-.7-2.95-1.41-5.9-2.11-8.84,2.22-1.49,4.58-2.78,5.53-6.13,5.48,3.53,9,9.08,10.74,16.45-3.63,8.02-13.9,5.88-16.23,14.81.69,3.52,1.93,3.07,2.87,3.71,5.59,3.79,7-14.02,11.71-3.51,3.63,8.1-6.9,8.91-8.96,15.28l1.58,2.26-2.18-.94c-2.75-1.5-5.51-3.01-11.95-6.53,11.55,16.59,4.99,22.68-4.47,29.61,2.74-15.67-12.98-19.03-12.82-34.56.07-6.41-8.24-4.15-11.67-1.46-3.91,3.06-2.45,7.15,2.3,9.23,1.98.87,2.88,2.87,2.58,5.2-2.44,18.63-24.91,34.19-42.06,29.42,12.6-3.05,5.38-15.52,5.02-24.74-2.77,2.7-4.91,6.72-9.14,6.44l-7.48-3.27c-1.32-4.28-.55-9.17,2.61-8.37,9.11,2.32,8.42-6.66,10.26-12.96l.33-1.29-.75.94c-11.18,3.39-22.11,7.33-28.8,22.05,5.8-3.83,11.14.91,16.18.09,2.22,2.7,4.86,2.99,7.51,3.26-1.04,6.51,3.57,11.64,4.16,17.76l-5.95,2.37c-.33.49-.61,1.1-1.03,1.39-.17.11-.98-.57-.98-.81,0-.65.26-1.27.43-1.9-1.59-8.64-4.91-13.44-10.28-6.18-3.46,4.69-5.4,8.27-10.82,1.32-3.16-4.06-6.4-.29-8.95,2.25-4.33,4.3-8.51,8.83-12.82,13.16-3.95,3.97-8.42,5.66-11.34-2.58-2.86-8.07,1.82-7.75,6.24-7.96,7.33-.35,5.66-6.43,3.16-12.63.8-4.76.97-9.98,2.52-14.2,4.73-12.91-4.31-5.09-7.19-9.89,1.74,9.54,3.06,16.72,4.37,23.91-7.54-6.39-8.03-19.17-16.33-26.41-6.69,3.77-5.67,12.1-2.96,19.55,5.46,15,5.86,14.81-6.43,17.92-.62,2.51-1.92,3-3.86,1.61-2.25,5.69-4.17,11.68-6.81,16.99-5.22,10.52-8.5,4.93-11.04-4.38.07-1.48,2.37-2.66-.06-4.49l-.49,4.14c-4.77,2.63-8.11-.75-9.68-6.42-2.38-8.61,7.37-4.48,7.34-11.08-7.59-7.35-10.21-.25-12.06,6.11-1.71,5.87-1.11,14.23-8.82,11.46-8.48-3.04-5.99-11.59-6.52-18.68-.46-6.1,3.21-8.7,5.06-12.85l.36-1.3-.77.97c-5.8,5.14-14.41-1.43-20.33,7.47-6.44,9.68-9.74,17.89-3.9,30.87.07-2.92-.13-5.95.26-8.75,1.08-7.73,1.32-17.14,10.37-15.06,4.41,1.01,10.21,22.12,7.75,28.33-1.38,3.49-3.78,8.31-7.48,6.46-4.31-2.15-1.84-7.76-2.5-11.84l.32-1.48-.62,1.26-5.61,3.18c.15,3.96-.27,7.6-3.66,8.48-3.64.95-7.45-.58-9.48-4.83-2.11-4.41-1.94-11.24-8.11-8.69-4.57,1.9-3.98,6.3-4.18,11.99-.43,11.99-3.42,11.81-12.93.24l-1.05-.54.84,1.06c2.45,6.27.94,10.85-3.63,11.64-5.85,1.01-4.07-6.19-4.78-9.51-2-9.32-1.36-20.56-12.98-19.87l-5.38,6.31c-.95,7.13-3.07,13.42-5.89,19.43-4.03,8.58-7.72,4.81-11.71-1.7,1.19-1.29,2.75-2.28,3.46-3.96.64-1.51-.6-2.77-1.49-1.58-1.04,1.4-1.54,3.48-2.28,5.26-1.42,2.66-1.19,5.81-.71,9.03.38.45,1.04.9,1.08,1.35.14,1.37-.58,1.51-1.83.43-4.85,5.14-9.92,6.17-10.94-4.83-.73-7.82-1.36-16.16,2.7-25.52-9.03,6.35-18.03,7.04-21.84,16.25-1.42,3.43-11.1,8.35.37,14.68,1.58.87.54,4.96-1.08,5.1-6.38.51-13.09-.78-18.84,2.97-.85-1.99-2.79-4.87-2.38-5.85,4.07-9.64-.7-22.6,4.39-31.82,1.18-2.13,2.27-4.9.36-8.69-4.67-.2-8.26,17.6-13.61-1.63-4.2,6.5,1.02,9.29,2.26,13.04,5.01,15.08,1.72,28.92-8.27,35.63-7.31,4.9-12.04,2.38-14.66-8.77l2.23-4.85.24-1.48-.69,1.11-2.25,4.85c-4.66,9.27-8.33,20.25-20.61,14.88-1.16-.51-2.94,1.67-4.2,2.96-3.03,3.08-6.29,7.18-10.4,1.76-4.78-6.31.89-10.19,3.05-15.88-6.62-2.72-11.35,6.42-16.87-.83-1.23-.13-1.03-4.03-2.99-2.22l2.72,2.73c-3.15,15.03-12.11-2.07-17.22,2.09.68,20.12-11.42,27.36-26.02,15.06-3.9-3.28-6.39-3.46-9.03,0,2.62.63,5.83.01,6.57,5.04.15,1.02-.54,2.71-1.25,3.05-3.49,1.68-4.74-2.47-6.49-5.25l-7.22-4.3-1.15-.57.97,1.02c.4,2.9,1.49,8.22,1.08,8.34-8.61,2.65-17.24,6.44-26.2,6.12-4.04-.15,1.08-6.69.29-10.8-4.21-.06-9.64.06-9.99,5.44-.96,14.72-9.78,10.09-16.77,10.4-.32.55-.57,1.24-1.01,1.58-.16.13-1.1-.59-1.11-.85-.03-.7.25-1.36.41-2.04.05-2.2.76-4.75.02-6.52-1.51-3.63-3.81-3.5-5.66-1.02-3.35,4.48-5.88,10.1-10.61,12.67-2.47,1.35-5.16,3.33-7.78,2.96-4.51-.66-3.89-10.74-8.94-10.56-6.74.24,1.39,9.76-2.87,11.88-3.99,1.98-8-.43-11.81-2.95-2.1-1.39-5.28-4.59-5.75-1.08-2.3,17.13-12.28,4.6-18.79,5.29-1.53-1.26-2.98-2.93-4.61-3.66-1.35-.61-1.9,1.21-.63,2.29,1.43,1.23,3.32,1.47,5,2.15.55,7.46-1.88,10.69-7.98,9.86-4.7-.64-9.03-2-12.86-6.39-2.39,5.29-5.13,8.37-11.02,3.74-3.6-2.84-6.52.32-9.44,2.54-5.2,3.93-10.47,7.9-16.16,10.67-6.71,3.27-7.97,1.17-8.14-12.1l2.07-4.97c1.26-8.66-.8-16.36-6.58-22.98l-1.19-.48,1.02.93c3.25,7.08,4.94,14.63,6.39,22.24l-2.26,4.84c-5.39,5.02-19.87-2.85-15.22,16.68.47,1.98-2.37,3.09-4.04,2.25-9.07-4.53-15.6,2.04-23.1,4.09-7.4,2.01-15.03,1.83-22.71,1.26-7.68-.58-15.41-1.56-22.98-1.1-5.23.32-4.82-5.54-5.44-9.77-.11-1.63,3.28-.94,1.25-3.85l-1.84,3.3c-.24,1.4-.57,2.76-.71,4.19-.54,5.77,4.12,16.4-4.08,15.38-8.48-1.05-3.36-10.8-5.18-16.43-.19-10.08,2.28-17.77,10.75-20.06q-13.11,3.59-11.04,19.92c-4.81-.7-10.72-2.78-7.26,7.94,3.57,11.05-3.66,13.13-7.71,10.64-11.22-6.86-18.68-.54-27.12,3.57-7.02,3.39-12.63.56-15.86-9.8l.36-1.27-.73.99c-3.79,3.95-8.88,4.92-12.22,10.75-4.64,8.11-9.52,5.75-18.37-5.45-.17-1.57,2.96-.97,1.16-3.61l-1.58,3.26c-1.74-.87-4.85-2.87-5.04-2.44-8.21,18.25-23.04,11.61-37.09,11.46-6.39-.07-13.77-1.96-20.97,1.64-11.7,5.85-25.51,7.43-39.38,6.52-4.95-.33-9.62-2.4-14.18-5.21-12.58-7.75-14.47-16.04-6.49-28.07,1.06-1.59,2.1-3.47,3.57-4.31,20.2-11.69,36.14-31.73,58.48-39.5,17.08-5.9,34.33-11.37,51.25-17.79,13-4.9,26.94-9.71,41.56-11.18,14.53-1.41,28.33-6.99,42.37-11.04,39.91-11.65,79.76-23.59,120.02-33.97,28.96-7.23,55.58-21.44,84.67-28.58,28.64-6.8,57.09-14.38,85.5-22.09,28.46-7.52,56.88-15.27,85.4-22.55,6.52-1.62,12.98-6.51,20.52-.14.92.78,2.8,1.64,3.14,1.17,13.74-19.21,35.87-7.63,53.06-15.08,17.71-7.62,37.13-10.79,56.18-13.98,10.82-1.8,22.15-.77,32.79-4.35,4.58-1.53,9.69-.08,11.04,8.45l-.51,1.3.87-1c1.51-7.52,4.63-12.61,11.3-13.59,12.58-1.84,24.7-5.23,37.71-5.82,9.27-.41,18.39-2.09,27.46-4.16,9.08-2.01,18.11-4.42,27.19-6.37,9.06-1.95,17.45-1.22,24.39,9.62,6.35,11.87,1.46,18.44-4.95,24.27l-.53,1.29.88-.99q13.31-7.38,4.96-25.06c-1.98-6.61-.09-11.06,4.83-11.06,6.48-.01,12.9-.36,19.28-.91,3.19-.28,6.38-.6,9.56-.96,3.18-.34,6.36-.71,9.54-1.1,12.7-1.55,25.36-3.37,38.14-4.38,6.73-.53,12.69,3.83,17.23,15.23-1.59-19.65-.64-21.92,10.98-20.93,9.42.78,18.65.22,27.8-.8,9.15-1.02,18.24-2.47,27.4-3.34,8.25-.79,17.22,5.74,24.96-.77.59-.5,3.72,3.57,5.66,5.52,1.27.19.91,4.35,3.06,2.38l-2.66-3.02c-1.21-6.98-.13-10.97,6.17-6.99,5.4,3.42,4.51,12.08,9.26,17.85,2.36-17.02,9.86-21.33,23.29-21.45,17.11-.15,34.92.06,50.91-7.99,5.7-2.89,11.65.15,17.47,1.45,2.46.55,4.57,3.22,2.76,6.56-.83,1.53-2.88,1.88-4.38,2.77-3.77-3.06-5.59-1.42-5.49,3.6.08,3.76.7,7.58,1.08,11.38l-.33,1.29.75-.93c2.46-4.37,0-11.47,3.93-15.02,3.09,3.41,10.59,6.04,8.5,10.12ZM151.27,281.74c-5.06-5.12-9.02-1.51-13.29.71,3.77-2.23,9.17,3.93,13.29-.71Zm29.77-7.75c-.53-.08-1.14-.36-1.59-.19-1.6.61-1.67,1.41-.28,1.86.48.16,1.08-.12,1.5-.43.25-.18.25-.81.36-1.24Zm11.13-2.24c-.26-.35-.95-.22-1.45-.31-.2.55-.66,1.15-.54,1.63.49,2.07,1.31,2.26,2.06.47.19-.46.19-1.44-.06-1.8Zm77.7-6.18c-2.03-3.87-3.7-8.15-6.2-11.47-2.1-2.79-4.33-1.27-5.48,1.45-1.34,3.22-2.67,6.72,2.73,6.52l1.88-1.91-.1,3.23c.72,4.06,1.43,8.12,2.15,12.18l-6.01,2.09-1.16-.49.97.98c1.32,1.98-.48,6.82,3.01,6.25,2.84-.46,3.15-4.89,3.9-8.12,1.67-3.04.55-8.17,3.84-10,2.1,4.03,4.2,8.06,7.12,13.65,1.29-9.3-3.21-11.4-6.66-14.37Zm41.45-14.81c-.83-.9-1.94-2.72-2.43-2.55-3.6,1.25-2.92,6.37-4.43,9.57,1.09.12,2.28.57,3.25.29,2.87-.84,4.81-2.72,3.61-7.3Zm16.1-33.06c.99-1.39,2.3-2.74,3.09-4.53.46-1.05-.85-2.15-2.13-1.19-1.33,1-2.63,2.48-3.23,4.24-.47,1.39.76,2.26,2.28,1.48Zm15.47,28.61c-.69-1.87-1.84-2.03-2.71-.56-1.72,2.9-1.11,6.58-.79,12.35,4.54-3.44,5.22-7.1,3.5-11.79Zm13.39-7.58c-3.35,2.17-4.73,5.28-1.85,10.08.56.94,2.88,1.69,2.92,1.57,1.19-3.75,1.38-7.64-1.07-11.64Zm16.43-42.65c-.53-1.11-.92-2.58-1.71-3.42-1.23-1.32-2.23-.72-1.84,1.05.27,1.21,1.22,2.36,2,3.38,1.26,1.66,1.83,1.3,1.54-1.01Zm29.32,31.63c-.8.9-3.16,2.25-3.71,4.57-.43,1.81,2.14,3.53,3.97,3.38,2.56-.21,4.1-2.28,4.17-5.45.07-2.72-1.3-3.95-4.44-2.5Zm14.75-6.15c-.54-.09-1.15-.39-1.6-.22-1.62.61-1.71,1.42-.31,1.9.49.17,1.09-.11,1.53-.42.25-.18.26-.82.39-1.26Zm10.92-1.87c-2.81.51-1.8,4.35-2.3,6.84-.5,1.18-1.1,2.3-1.49,3.55-.57,1.81-1.57,3.68.23,5.72.38.43,1.19.82,1.53.62,1.87-1.07.91-3.42.75-5.36-.12-1.43-.4-2.86-.61-4.3,1.91-.43,5.08,1.74,5.05-2.74-.01-2.09-1.24-4.69-3.17-4.35Zm4.66-59.53l1.08.45-.09-1.01-.99.55Zm-7.68,3.75c-.21-.46-1-.57-1.52-.84-1.31.37-1.73,1.45-.97,3.09.21.46,1.06.87,1.51.79,1.35-.21,1.74-1.4.98-3.05Zm41.1,60.24l-.75,1.02c-.27,1.31-.77,2.58-.77,3.94,0,1.79-.45,4.07,1.86,4.88-.13-1.41-.28-2.82-.39-4.23-.11-1.41-.17-2.82-.25-4.23l.3-1.37Zm-3.02-13.8c-7.34-1.3-11.87.66-15.82,4.98,4.11-3.67,10.9,3.71,15.82-4.98Zm-8.6-27.9c-1.29.91-2.35,2.78-2.82,4.62-.3,1.18,1.15,2.12,3.28,1.61.69-.86,2.54-1.98,2.8-3.73.53-3.6-1.94-3.42-3.25-2.5Zm21.93,25.36c-1.22-2.15-3.24-1.92-4.68-.74-1.5,1.24-1.76,3.42-.94,5.7.86,2.39,2.32,3.43,4.23,2.58,1.59-2.01,3.23-4.28,1.38-7.55Zm15.61-1.77c-.86.7-2.55,1.54-2.43,2.08.64,3.05,2.21,5.65,4.7,6.55.59.21,2.04-1.49,2.03-2.48-.03-3.29-1.33-5.78-4.3-6.14Zm-.62-58.23c.36-.16.44-1.08.65-1.66-.33-.5-.71-1.42-.98-1.41-.45.02-1.07.49-1.19,1-.43,1.82.2,2.67,1.52,2.07Zm28.59,51.16c-5.61-.44-9.75.97-13.58,3.35-1.39.86-1.07,2.28.51,3.16,3.32-3.53,9.31,1.1,13.06-6.51Zm24.43,24.98c-.76-.93-1.94-1.29-2.93-1.91-1.34.3-1.77,1.4-.79,2.63.74.93,1.97,1.68,2.93,1.75,1.38.1,1.79-1.26.8-2.47Zm-5.95-27.59c-.12-.45-1.05-1.13-1.39-1.02-2.83.95-1.63,4.52-2.11,7.02-.13.58-.51,1.28-.34,1.72.42,1.09,1.09,2.05,1.66,3.07l1.2.54-1.05-.94c-.55-1.33-.9-2.72-1.04-4.15,1.49-1.68,4.04-2.44,3.06-6.24Zm6.04-27.72c1.8,1.81,3.61,4.92,5.38,5.19,4.32.66,2.7-4.59,2.79-7.51.07-2.35-1.71-3.71-4.33-3.01-1.04,1.45-2.44,3.39-3.83,5.33Zm18.2,19.49c-4.7-.48-9.46-.39-15.01,6.79,6.52,1.49,10.34,4.07,14.22,6.16,4.36,2.34,6.41-2.24,6.86-6.66.54-5.33-3.37-6.01-6.08-6.29Zm13.69-30.23l-.8.19.73,1.24.07-1.43Zm6.58,22.75c5.84,3.78,6.67,11.98,13.7,19.85q-3.97-18.8-13.7-19.85Zm18.71,26.21c-.48.23-1.18.27-1.4.74-.68,1.38-.27,2.71,1.08,3.38.39.19,1.17-.22,1.39-.68.67-1.37.23-2.6-1.06-3.43Zm12.16-28.18c-4.66,1.18-5.85,1.28-6.88,1.77-2.35,1.13-3.57,3.18-2.33,6.84,2.34-2.19,4.69-4.39,9.21-8.62Zm9.93,2.04c-.25-.55-2.61-.48-2.61-.41-.08,3.43,0,6.89.05,10.35,3.19-3.07,4.21-6.29,2.56-9.93Zm16.68,25.77c-.49-.27-.99-.77-1.46-.78-1.54-.04-2.05.73-1.3,1.76.24.33,1,.06,1.52.07l1.24-1.05Zm.91-16.72c-.33-1.74-1.32-2.41-2.53-1.69-.34.21-.35,1.17-.51,1.79.46,1.71,1.37,2.39,2.58,1.69.34-.2.57-1.21.46-1.8Zm32.78-21.79c-1.66-2.52-3.42-3.23-4.88-1.75-.67.68-.9,2.68-.65,3.98.5,2.64,2.03,3.93,3.86,2.52,1.35-1.04,2.62-2.52,1.68-4.75Zm.25-69.65l.96-.63-1.12-.39.16,1.02Zm18.17,70.83c-6.17-.8-7.09,5.16-9.06,9.56l-.27,1.3.71-.95c2.7-3.19,8.72-1.69,8.62-9.91Zm-4.52-41.2c-7.59-1.51-10.53-9.37-14.3-3.02-2.14,3.6-.96,8.17,1.51,12.42,2.04-4.29,6.03-4.71,12.79-9.4Zm26.92,37.52c-.41-3.13-2.42-6.59-4.63-4.64-2.69,2.38-7.81,2.19-7.57,8.11,2.06,4.42,4.36,7.12,7.5,6.11,3.55-1.14,5.34-4.6,4.7-9.59Zm-6.85-36c-.93.14-1.74,1.18-2.47,2-1.19,1.33-.81,2.29.87,2.06.96-.13,1.8-.94,2.65-1.42.74-1.66.31-2.85-1.05-2.64Zm15.11,52.25l-.36-1.81-.61,1.06.97.75Zm13.03-16.91l-2.6-3.06-7.71-3.69-5.97-7.53-1.08-.71.88,1.16c1.95,2.53,3.9,5.06,5.85,7.59l1.98,9.06c-2.76,2.08-5.08,4.5-3.77,9.67l4.99-1.37c-.24-2.66-.48-5.32-.71-7.97l5.24-5.69c1.19.37.74,4.2,2.9,2.54Zm18.88-46.33c1.05,4.6-2.18,9.77,3.24,14.8.39-5.89,7.15-11.41-3.05-15.26l-1.18-.53.99.98Zm17.47,34.23c-6.06-.18-13.68-7.15-11.27,6.62l-6.45,1.84c-6.21-4.27-5.32,2.17-5.99,6.23l-2.07,4.95-.35,1.38.82-.99,2.13-4.92,5.38-6.17c1.36,2.21,2.53,5.47,5,4.74,2.45-.72,1.89-4.1,1.9-6.75,4.89,1.25,8.24-.48,10.91-6.94Zm.15-39.81c-.44-.27-.96-.83-1.29-.73-.44.13-1.06.76-1.04,1.22.09,1.98.88,2.53,1.9,1.37.33-.37.3-1.23.43-1.86Zm2.54-37.46l.71,1.27.09-1.44-.8.17Zm19.82,28.42l-1.19-.54,1.01.97c1.08,9.78-5.51,21.52,7.1,28.92,6.55-12.26-1.72-20.44-6.92-29.35Zm1.75-18.51c-10.8-.39.02-12.88-9.39-14.85-4.43,4.54,2.32,17.87-7.07,18.7-1.39-1.82-2.9-3-4.57-1.45-.34.31-.28,1.29-.4,1.96l4.81.26c5.34,1.48,10.33,1.38,16.61-4.62Zm40.56,60.94c.02-5.27-.13-10.86-5.39-12.19-.81-.21-3.24,5.99-2.74,8.96,1.07,6.41,4.68,5.86,8.01,3.52l1.21.74-1.09-1.03Zm-1.87-49.96c-3.88-.63-5.81,3.45-8.8,4.98l-1.11-.83.94,1.19c.44,1.52.88,3.05,1.33,4.57l-1.66,9.43-.24,1.54.57-1.3,1.95-9.31c1.85-3.99,9.67-1.05,7.03-10.27Zm23.67,68.32l-1.11-1.32-.93.84c.67.33,1.35.49,2.03.48Zm-10.65-48.52c-5.46-1.84-.6,8.17-5.29,7.51-1.92-.27-4.98-3.85-5.63.2-.27,1.7,2.48,4.99,4.2,7.06,2.13,2.56,4.42,2.15,5.7-.64,1.9-4.18,3.65-8.57,1.03-14.13Zm-6.93-44.23c-2.74-1.71-.37-10.84-6.35-10.04-4.83.66-4.45,6.87-4.02,12.23.61,7.7,5.14,8.04,8.86,7.53,3.22-.43,3.83-4.25,1.51-9.71Zm25.75,30.15c-3.48,1.97-8.05-1.62-12.39,4.24,5.68.95,9.48.61,12.39-4.24Zm22.28,19.25l-.84-1.1c-2.12-1.47-.74-7.23-4.36-6.05-.45.15,2.27,4.65,4.14,6.55l1.06.61Zm-3.36-28.99c-.41-1.67-2.56-4.2-3.61-4.12-2.33.17-3.47,3.02-3.71,5.84-.3,3.44,1.87,2.8,3.45,2.96,1.93-.74,4.91-.51,3.87-4.68Zm14.21,44.29c-.14,1.42-.27,2.84-.41,4.26l-2.91,3.95,2.49,1.94.93-5.55c.02-1.52,2.43-2.75-.09-4.59Zm2.46-52.2c5.53,10.23,5.59,18.61,4.91,26.98-.19.52-.64,1.19-.5,1.52.39.92,1.02,1.71,1.56,2.55l2.65,4.09-2.35-4.58c-.79-.94-1.02-2.01-.69-3.19,2.19-2.74,8.44,1.04,7.72-5.03-.96-8.08-1.16-18.18-13.28-22.34Zm38.6,6.21c.63.95,2.21,1.6,3.15,1.41,3.06-.63,4.97-3.27,4.51-7.31-.41-3.55-1.87-7.06-2.86-10.59l.34-1.33-.77.98c-1.4,2.96-2.91,5.84-4.18,8.9-1,2.4-2.05,5.12-.19,7.94Zm15.59,46.51c-1.53-2.3-2.01-4.81-1.63-7.51l2.33-2.87c-2.37-1.7-2.05,1.61-3.06,2.45-2.12,3.52-1.58,6.37,2.05,8.43.5,4.41-6.78,7.7-.35,12.51,2.41,1.8,5.81-.57,6.14-4.78.34-4.45-3.29-5.83-5.48-8.23Zm-1.4-30.42c-.61-1.77-1.67-2.14-2.68-1.01-1.58,1.79-2.95,3.88-2.17,7.02.11.45,1.97.43,3.01.63,2.49-1.11,2.91-3.51,1.83-6.64Zm14.1-55.15c-3.79-3.04-7-2.36-8.86,2.11-1.16,2.79-5.87,5.1-2.72,8.74,10.98,12.7,2.65,29.21,10.33,43.94,7.58-7.51-4.15-16.18.34-21.01,6.12-6.59-.28-17.22,4.13-24.18,1.75-2.76-.22-7.2-3.21-9.6Zm16.27,29.1l.6-1.34.63-1.27-.93.99-.3,1.62Zm12.09,42.17c-.76-1.24-1.53-2.48-2.29-3.72-.83-.89-1.05-1.91-.67-3.06.96-3.85.62-7.31-2.63-9.88l-1.24-.67,1.12.97,2.1,9.18c-.21.5-.71,1.16-.58,1.47.38.93,1.01,1.71,1.54,2.56,1.11.73.23,4.31,2.66,3.15Zm-8.99-65.8l-.97.6,1.1.41-.13-1.01Zm19.82-15.94l-.82.17.69,1.25.13-1.42Zm13.32-2.28c-.39-1.7-1.27-2.41-2.51-1.76-.35.18-.62,1.18-.53,1.76.27,1.74,1.23,2.44,2.46,1.76.35-.19.39-1.15.58-1.76Zm11.58,9.22c-1.35-.85-2.08-.16-1.88,1.79.05.47.65.93,1,1.39l1.11-1.37c-.07-.62,0-1.66-.23-1.8Zm13.91,34.62c-.36-.09-.77.71-1.15,1.1.14.64.13,1.49.45,1.84.27.3,1.14.3,1.35-.02.93-1.42.65-2.61-.65-2.93Zm19.56,10.64c-.4-2.05-.79-4.09-1.19-6.14-1.46,2.38-1.21,4.45,1.19,6.14Zm6.12-52.87c-.6-1.11-1.2-2.22-1.8-3.33-.67.92-1.75,1.68-1.92,2.78-.32,2.14.39,4.23,2.5,3.75.61-.14.82-2.08,1.21-3.2Zm14.46,70.58l-3.72,3.08c1.76-.06,3.2-.71,3.72-3.08Zm9.11-59.78l-.56-1.34-.2,1.38.76-.04Zm37.05-1.41l-1,.58,1.11.43-.11-1.02Zm4.45-19.72c-.61-1.22-1.09-3.16-1.87-3.51-1.96-.88-3.47.5-3.95,2.8-.54,2.58.83,4.54,2.74,4.84,2.03.32,2.68-1.94,3.08-4.13Z"/>
      <path class="cls-1" d="m1242.85,6.8c-3.32-3.88-5.46-2.55-6.94,1.69l6.62-.95c.39,4.2-.02,7.67-3.98,7.9-.9-2.29-1.79-4.58-2.69-6.86-2.19,3.44-2.92,6.78,1.23,9.77l5.87,11.57-2.06,5.54c-1.22,1.24-1.23,2.1-.07,2.17.24.01.43-1.08.65-1.66l2.97-4.75c10.61-14.68,10.47-17.27-1.59-24.42Z"/>
      <path class="cls-1" d="m1272.47,7.03c-5.48,3.65-7.54,9.44-8.37,15.9-.54,4.19,1.89,7.01,5.21,7.89,3.19.85,6.75.49,4.7-4.98-2.35-6.28,3.05-11.17-1.53-18.81Z"/>
      <path class="cls-1" d="m1224.18,25.36c-4.53.27-7.95,9.23-5.73,15.2.86,2.32,2.9,3.55,4.24,2.4,3.71-3.17,6.47-7.4,5.82-13.46-1-3.18-2.47-4.26-4.33-4.15Z"/>
      <path class="cls-1" d="m823.68,183.83c-2.93,1.27-3.95,4.26-2.95,8.3.6,2.42,2.24,3.8,3.98,2.91,2.67-1.37,4.17-3.95,3.14-8.12-1.02-2.27-2.31-3.91-4.17-3.1Z"/>
      <path class="cls-1" d="m1293.65,14.28c-1.81-.11-3.88,1.14-3.53,3.35.96,6.03,5.13,5.27,8.3,6.23,2.11-.35,3.19-2.02,2.51-4.53-1.23-4.56-4.37-4.88-7.28-5.05Z"/>
      <path class="cls-1" d="m1307.15,1.56c-1.87-.16-3.31,1.19-2.86,3.87.45,2.67,2.24,3.16,4,3.07,1.83-.74,3.22-2.05,1.87-4.79-.54-1.1-2-2.05-3.01-2.14Z"/>
      <path class="cls-1" d="m1207.85,24.95c-3.38,4.2-7.36,4.07-10.47-1-3.39-5.5.16-7.68,3.34-9.44l2.87-4.9c.27-.48.51-1.01.84-1.39.06-.07.8.58.78.68-.13.57-.39,1.08-.6,1.61.32,1,.73,1.96,1.2,2.88l4.77-.9c.27-2.91.25-6.09,2.99-6.93.38-.12,1.33.56,1.45,1.03.84,3.44-.51,5.64-2.28,7.54,4.02,8.34-.89,9.21-4.89,10.84Zm-2.63-3.19l-1.18-5.39-1.16.09c.16,2.16.46,4.23,2.35,5.29Z"/>
      <path class="cls-1" d="m1188.23,64.02c-.66.38-1.03,2.31-.91,3.53.2,2.05,1.12,4.2,3.03,3.68,1.65-.45,2.09-2.49,1.83-4.72-.88-2.27-2.34-3.4-3.95-2.49Z"/>
      <path class="cls-1" d="m902.85,173.87c-.61,1.49.06,2.64,1.46,3.02.74-.71,1.92-1.24,2.09-2.21.14-.78-.93-2.1-1.46-3.19-.72.78-1.68,1.36-2.09,2.38Z"/>
      <path class="cls-1" d="m1136.12,96.29c-.78.05-1.87,1.19-1.96,2.11-.09.91.91,2.14,1.44,3.24.69-.8,1.63-1.42,1.99-2.45.51-1.48-.23-2.98-1.47-2.89Z"/>
      <path class="cls-1" d="m1244.11,52.57c-1.27-.08-1.68.87-1.22,2.54.92.55,2.03,1.76,2.72,1.51,1.21-.44,1.1-1.98-.04-3.21-.4-.43-.98-.81-1.46-.84Z"/>
      <path class="cls-1" d="m1199.74,59.36c-2.46,2.31-.22,4.82.75,7.24-.68,2.85-.17,3.19,1.42,1.24,1.61-2.06,2.21-4.56.59-7.31-.49-.84-2.3-1.6-2.76-1.16Z"/>
      <path class="cls-1" d="m1205.46,40.95c.67,1.15,1.19,2.63,2.05,3.37,1.29,1.11,2.44.35,2.24-1.55-.12-1.19-1-2.89-1.81-3.35-.61-.34-1.64.95-2.48,1.52Z"/>
      <path class="cls-1" d="m1235.91,8.49h-.08s.02.06.03.09l.02-.04.02-.05Z"/>
      <path class="cls-1" d="m1321.14,2.76c.07.25.87.25,1.34.37.06-.67.12-1.35.17-2.02-.48-.11-1.25-.51-1.38-.27-.26.46-.29,1.32-.13,1.92Z"/>
      <path class="cls-1" d="m1333.74,0c-1.93-.09-2.81,1.56-3.37,3.64-.21.64-.52,1.26-.56,1.94-.01.23.82.98.98.87.45-.31.75-.94,1.1-1.44,1.52-.65,3.17-1.19,3.16-3.82,0-.36-.88-1.16-1.32-1.18Z"/>
      <path class="cls-1" d="m1349.25,6.49c-.39-.06-.79.58-1.18.91.19.53.29,1.33.59,1.53.42.28,1.22.41,1.46.1.97-1.27.61-2.3-.87-2.53Z"/>
      <path class="cls-1" d="m1166.99,68.69c.24.54.49,1.09.73,1.64,1.33-.1,1.47-.89.32-2.23-.12-.14-.69.38-1.05.59Z"/>
      <path class="cls-1" d="m1161.44,93.41c.22.48.37,1.09.68,1.38.16.14.61-.31.93-.5-.21-.48-.36-1.1-.67-1.38-.16-.14-.62.31-.94.5Z"/>
      <polygon class="cls-1" points="1025.91 144.79 1025.65 143.04 1024.41 144.07 1025.91 144.79"/>
      <path class="cls-1" d="m1124.29,104.64c-.38.31-.63.86-.93,1.32l-.48,2.98,1.77-1.85c.18-.56.45-1.1.49-1.7.02-.18-.74-.84-.86-.75Z"/>
      <path class="cls-1" d="m1117.48,74.88l.68-1.5-.72,1.46c-1.23.97-1.33,1.64-.33,1.68.16,0,.25-1.07.37-1.64Z"/>
      <path class="cls-1" d="m1010.65,92.73c-.21-1.37-.52-2.72-.93-4.04-.31.47-.96,1.21-.88,1.36.51.97,1.19,1.8,1.81,2.68Z"/>
      <path class="cls-1" d="m834.75,71.45c.01.45.46,1.15.82,1.37.25.15.68-.31,1.03-.5-.05-.59.08-1.44-.18-1.73-1.03-1.2-1.72-.84-1.68.86Z"/>
    </g>
  </g>
</svg>